<svg width="737" height="787" viewBox="0 0 737 787" fill="none" xmlns="http://www.w3.org/2000/svg">
<path d="M654.504 436.15L678.214 435.653L689.9 435.457C693.789 435.368 697.643 435.457 701.533 435.351L700.733 436.15L700.645 416.276L701.533 417.164L678.018 417.04C670.168 417.04 662.336 416.845 654.504 416.756L654.983 416.276C654.983 419.526 654.823 422.794 654.752 426.098L654.504 436.15ZM654.504 436.15L654.237 426.311C654.237 422.99 654.042 419.651 654.007 416.276V415.726H654.504C662.336 415.726 670.168 415.459 678.018 415.442L701.533 415.335H702.421V416.223L702.314 436.097V437.038H701.533C697.554 437.038 693.594 437.038 689.633 436.949L677.805 436.754L654.504 436.15Z" fill="#EBEBEB"/>
<path d="M680.735 461.209L704.445 460.712L716.131 460.517C720.021 460.428 723.893 460.517 727.764 460.41L726.965 461.209V441.336L727.853 442.224L704.339 442.1C696.489 442.1 688.656 441.904 680.824 441.815L681.304 441.336C681.304 444.586 681.144 447.854 681.073 451.157L680.735 461.209ZM680.735 461.209L680.487 451.37C680.398 448.049 680.274 444.71 680.238 441.336V440.856H680.735C688.568 440.768 696.4 440.59 704.25 440.572L727.764 440.466H728.652V441.354L728.546 461.227V462.026H727.764C723.804 462.026 719.825 462.026 715.865 461.938L704.037 461.742L680.735 461.209Z" fill="#EBEBEB"/>
<path d="M628.165 461.192H675.194V441.318H628.165V461.192Z" fill="#EBEBEB"/>
<path d="M9.68527 598.389L33.4128 597.892L45.099 597.696C48.9707 597.696 52.8425 597.696 56.7142 597.59L55.9327 598.389L55.8262 578.515L56.7142 579.404L33.1997 579.279C25.3675 579.279 17.5353 579.084 9.68527 578.995L10.1648 578.515C10.1648 581.766 10.0227 585.033 9.93392 588.337L9.68527 598.389ZM9.68527 598.389L9.43663 588.55C9.34783 585.229 9.24127 581.89 9.20575 578.515V578.036H9.68527C17.5353 577.947 25.3675 577.77 33.1997 577.752L56.7142 577.645H57.6022V578.533V598.407V599.206H56.803C52.8425 599.206 48.8642 599.206 44.9214 599.117L33.0576 598.886L9.68527 598.389Z" fill="#EBEBEB"/>
<path d="M35.9354 623.431H82.9643V603.558H35.9354V623.431Z" fill="#EBEBEB"/>
<path d="M131.538 227.22L155.266 226.723L166.952 226.527C170.824 226.439 174.695 226.527 178.567 226.439L177.786 227.22L177.679 207.347L178.567 208.235L155.053 208.128C147.22 208.128 139.37 207.933 131.538 207.826L132.018 207.347C132.018 210.597 131.876 213.882 131.787 217.186L131.538 227.22ZM131.538 227.22L131.29 217.399C131.29 214.078 131.094 210.721 131.059 207.347V206.867H131.538C139.37 206.778 147.22 206.583 155.053 206.583L178.567 206.458H179.455V207.347L179.366 227.22V228.019H178.585C174.624 228.019 170.646 228.019 166.703 227.913L154.875 227.717L131.538 227.22Z" fill="#EBEBEB"/>
<path d="M35.6866 55.4434L82.7155 55.4434V35.5697L35.6866 35.5697V55.4434Z" fill="#EBEBEB"/>
<path d="M9.47263 80.5033L33.1824 80.0593L44.8686 79.864C48.7581 79.864 52.612 79.864 56.5015 79.864L55.7023 80.6454V60.7718L56.5903 61.6598L33.0581 61.4112C25.2081 61.4112 17.3759 61.2158 9.54367 61.1092L10.0232 60.6297C10.0232 63.8798 9.86335 67.1477 9.79231 70.4688L9.47263 80.5033ZM9.47263 80.5033L9.20623 70.682C9.20623 67.3608 9.01086 64.0041 8.97534 60.6297V60.1502H9.47263C17.3049 60.1502 25.1371 59.866 32.9871 59.8483L56.5015 59.7417H57.3895V60.6297L57.283 80.5033V81.3025H56.5015C52.5232 81.3025 48.5627 81.3025 44.6022 81.196L32.774 81.0006L9.47263 80.5033Z" fill="#EBEBEB"/>
<path d="M654.504 55.4433L678.214 54.946L689.9 54.7506C693.789 54.7506 697.643 54.7506 701.533 54.7506L700.733 55.5321L700.645 35.6584L701.533 36.5465L678.018 36.4399C670.168 36.4399 662.336 36.2445 654.504 36.138L654.983 35.6584C654.983 38.9086 654.823 42.1764 654.752 45.4976L654.504 55.4433ZM654.504 55.4433L654.237 45.6219C654.237 42.3007 654.042 38.9441 654.007 35.5696V35.0901H654.504C662.336 35.0901 670.168 34.806 678.018 34.7882L701.533 34.6816H702.421V35.6584L702.314 55.5321V56.3313H701.533C697.554 56.3313 693.594 56.3313 689.633 56.2247L677.752 55.9405L654.504 55.4433Z" fill="#EBEBEB"/>
<path d="M580.16 303.962H627.188V284.088H580.16V303.962Z" fill="#EBEBEB"/>
<path d="M79.6433 158.914C80.5253 158.374 81.5394 158.089 82.5737 158.089C83.6079 158.089 84.6221 158.374 85.5041 158.914L87.0137 159.785C87.5288 160.051 88.0438 160.317 88.5766 160.566C89.5143 160.996 90.3154 161.676 90.8918 162.531C91.4683 163.387 91.7979 164.384 91.8445 165.415L92.0576 172.625L115.572 171.897L115.341 164.686C115.318 163.65 115.58 162.628 116.1 161.732C116.621 160.836 117.378 160.1 118.289 159.607C119.315 159.07 120.311 158.477 121.273 157.831C122.118 157.235 123.111 156.885 124.142 156.819C125.173 156.753 126.203 156.974 127.116 157.458L133.457 160.85L144.574 140.124L138.234 136.714C137.325 136.225 136.569 135.492 136.052 134.598C135.535 133.705 135.275 132.685 135.304 131.653C135.342 130.468 135.306 129.281 135.197 128.101C135.083 127.058 135.266 126.005 135.724 125.062C136.183 124.119 136.899 123.326 137.79 122.773L143.917 119.132L131.485 99.1515L125.411 102.899C124.533 103.439 123.521 103.725 122.49 103.725C121.458 103.725 120.447 103.439 119.568 102.899C119.089 102.597 118.574 102.313 118.076 102.046C117.579 101.78 117.046 101.496 116.513 101.265C115.573 100.834 114.77 100.151 114.194 99.2923C113.617 98.4336 113.289 97.4322 113.245 96.3987L112.979 89.1348L89.4646 89.8629L89.6955 96.967C89.7273 98.0045 89.468 99.0301 88.947 99.9278C88.4259 100.826 87.664 101.559 86.7473 102.046C85.7214 102.584 84.7254 103.177 83.7636 103.822C82.9208 104.422 81.9274 104.775 80.8952 104.841C79.8629 104.906 78.8327 104.683 77.9205 104.195L71.5802 100.803L60.4623 121.689L66.8027 125.099C67.7113 125.588 68.4653 126.321 68.9799 127.215C69.4945 128.109 69.7492 129.13 69.7153 130.161C69.6928 131.346 69.7343 132.532 69.8397 133.713C69.9518 134.755 69.768 135.807 69.3094 136.75C68.8507 137.692 68.1359 138.486 67.2467 139.041L61.1194 142.841L73.5515 162.822L79.6433 158.914ZM85.5219 121.796C87.3167 118.433 90.0684 115.679 93.4288 113.88C96.7892 112.082 100.607 111.321 104.401 111.692C108.194 112.064 111.792 113.552 114.739 115.969C117.686 118.386 119.851 121.622 120.959 125.269C122.067 128.915 122.068 132.809 120.963 136.457C119.859 140.104 117.697 143.342 114.751 145.761C111.806 148.18 108.209 149.672 104.417 150.047C100.624 150.421 96.8048 149.663 93.4429 147.868C88.9391 145.457 85.5756 141.358 84.0906 136.47C82.6056 131.582 83.1203 126.304 85.5219 121.796Z" fill="#EBEBEB"/>
<path d="M695.512 400.701C695.881 400.074 696.416 399.562 697.06 399.223C697.703 398.885 698.428 398.732 699.153 398.783H701.586C702.295 398.745 703.001 398.902 703.627 399.237C704.254 399.572 704.776 400.072 705.138 400.683L707.66 405.07L721.868 396.829L719.346 392.46C718.985 391.831 718.807 391.113 718.832 390.388C718.857 389.663 719.085 388.96 719.488 388.357C719.938 387.659 720.347 386.948 720.714 386.226C721.043 385.568 721.551 385.016 722.179 384.633C722.807 384.25 723.53 384.051 724.266 384.059H729.31V367.578H724.266C723.532 367.59 722.809 367.394 722.181 367.014C721.553 366.634 721.044 366.085 720.714 365.429C720.348 364.695 719.939 363.983 719.488 363.298C719.085 362.695 718.857 361.992 718.832 361.267C718.807 360.542 718.985 359.824 719.346 359.195L721.868 354.808L707.66 346.585L705.12 350.972C704.761 351.586 704.239 352.09 703.613 352.428C702.986 352.766 702.279 352.926 701.568 352.89C701.16 352.89 700.751 352.89 700.343 352.89C699.934 352.89 699.544 352.89 699.135 352.89C698.411 352.935 697.688 352.78 697.046 352.441C696.404 352.103 695.867 351.595 695.494 350.972L692.973 346.585L678.764 354.808L681.286 359.177C681.648 359.806 681.826 360.524 681.801 361.249C681.775 361.974 681.548 362.677 681.144 363.28C680.706 363.979 680.298 364.689 679.919 365.411C679.591 366.07 679.084 366.623 678.455 367.007C677.827 367.39 677.103 367.588 676.367 367.578H671.323V384.059H676.367C677.102 384.051 677.825 384.25 678.453 384.633C679.082 385.016 679.589 385.568 679.919 386.226C680.285 386.96 680.694 387.672 681.144 388.357C681.548 388.96 681.775 389.663 681.801 390.388C681.826 391.113 681.648 391.831 681.286 392.46L678.764 396.829L692.973 405.07L695.512 400.701ZM686.863 375.836C686.859 373.166 687.648 370.555 689.129 368.333C690.61 366.111 692.717 364.378 695.183 363.353C697.649 362.329 700.364 362.059 702.983 362.578C705.603 363.097 708.009 364.381 709.899 366.268C711.788 368.155 713.076 370.56 713.598 373.179C714.12 375.798 713.854 378.512 712.833 380.98C711.812 383.447 710.082 385.556 707.861 387.04C705.641 388.524 703.031 389.316 700.361 389.316C696.789 389.307 693.365 387.884 690.839 385.358C688.313 382.832 686.89 379.409 686.881 375.836H686.863Z" fill="#EBEBEB"/>
<path d="M12.4208 191.362C13.049 191.728 13.5618 192.264 13.9008 192.908C14.2399 193.551 14.3917 194.277 14.3389 195.003C14.3389 195.393 14.3389 195.802 14.3389 196.21C14.3389 196.619 14.3389 197.027 14.3389 197.436C14.3766 198.145 14.2194 198.851 13.8844 199.477C13.5494 200.103 13.0494 200.626 12.4386 200.988L8.05182 203.51L16.2925 217.718L20.626 215.32C21.2563 214.963 21.9733 214.787 22.6974 214.812C23.4215 214.837 24.1245 215.062 24.7286 215.462C25.4213 215.906 26.1317 216.332 26.8598 216.705C27.5066 217.025 28.0518 217.518 28.4345 218.13C28.8171 218.741 29.0221 219.447 29.0266 220.169V225.213H45.4902V220.169C45.491 219.449 45.6925 218.743 46.0721 218.131C46.4517 217.52 46.9944 217.026 47.6392 216.705C48.3735 216.333 49.0851 215.918 49.7704 215.462C50.3745 215.062 51.0776 214.837 51.8017 214.812C52.5258 214.787 53.2427 214.963 53.873 215.32L58.2598 217.842L66.4827 203.634L62.096 201.094C61.4858 200.73 60.9855 200.208 60.6479 199.582C60.3102 198.957 60.1478 198.252 60.1779 197.542C60.1779 197.134 60.1779 196.743 60.1779 196.335C60.1779 195.926 60.1779 195.518 60.1779 195.127C60.1313 194.402 60.2858 193.679 60.6242 193.036C60.9627 192.394 61.472 191.857 62.096 191.486L66.4827 188.964L58.2598 174.756L53.8908 177.278C53.2617 177.639 52.5442 177.817 51.8192 177.792C51.0942 177.767 50.3907 177.54 49.7882 177.136C49.1015 176.698 48.3911 176.289 47.657 175.91C46.9979 175.583 46.4448 175.075 46.0615 174.447C45.6781 173.818 45.4801 173.094 45.4902 172.358V167.314H29.0621V172.358C29.0701 173.094 28.8712 173.817 28.4881 174.445C28.105 175.073 27.5531 175.581 26.8953 175.91C26.1614 176.276 25.4497 176.686 24.7641 177.136C24.1581 177.539 23.4518 177.766 22.7241 177.791C21.9965 177.817 21.2762 177.639 20.6438 177.278L16.2925 174.756L8.05182 188.964L12.4208 191.362ZM37.285 182.713C39.9554 182.709 42.5668 183.498 44.7888 184.979C47.0108 186.46 48.7436 188.566 49.768 191.033C50.7923 193.499 51.0621 196.213 50.5433 198.833C50.0245 201.452 48.7404 203.859 46.8534 205.748C44.9664 207.638 42.5614 208.925 39.9426 209.447C37.3238 209.97 34.609 209.703 32.1416 208.682C29.6741 207.661 27.565 205.931 26.0811 203.711C24.5972 201.491 23.8051 198.881 23.8051 196.21C23.8098 192.635 25.2309 189.207 27.7574 186.677C30.2838 184.148 33.7097 182.722 37.285 182.713Z" fill="#EBEBEB"/>
<path d="M159.085 786.86C230.296 786.86 288.024 778.599 288.024 768.407C288.024 758.216 230.296 749.955 159.085 749.955C87.874 749.955 30.1461 758.216 30.1461 768.407C30.1461 778.599 87.874 786.86 159.085 786.86Z" fill="#EBEBEB"/>
<path d="M628.308 570.648C615.165 543.635 592.166 529.8 566.147 537.419C540.128 545.038 536.203 581.233 555.491 590.362C574.779 599.491 594.19 572.85 604.42 567.362C614.65 561.875 628.308 570.648 628.308 570.648Z" fill="#0EA5E9"/>
<path d="M641.041 642.576C641.041 639.326 640.846 636.058 640.722 632.808C640.491 626.308 640.278 619.808 640.047 613.272C639.603 601.391 638.271 589.704 633.387 578.746C629.035 568.807 621.763 560.426 612.536 554.717C609.116 552.645 605.43 551.05 601.578 549.975C598.094 546.409 593.643 543.94 588.773 542.871C582.773 541.652 576.605 541.496 570.551 542.409C570.32 542.409 570.338 542.782 570.551 542.746C576.33 542.014 582.197 542.431 587.814 543.972C590.213 544.645 592.539 545.555 594.758 546.689C596.155 547.439 597.496 548.288 598.772 549.229C593.541 548.147 588.138 548.202 582.93 549.389C581.055 549.828 579.219 550.422 577.442 551.165C576.019 550.857 574.563 550.731 573.109 550.792C571.215 550.862 569.334 551.13 567.497 551.591C563.746 552.648 560.16 554.22 556.84 556.262C556.645 556.369 556.84 556.653 557.018 556.546C560.289 554.763 563.791 553.442 567.425 552.621C569.179 552.228 570.96 551.966 572.754 551.84C573.747 551.786 574.743 551.786 575.737 551.84C568.348 555.252 562.407 561.173 558.972 568.552C558.883 568.747 559.185 568.925 559.274 568.712C561.316 564.444 564.292 560.689 567.981 557.726C571.67 554.762 575.978 552.666 580.586 551.591C581.154 551.449 581.74 551.378 582.362 551.254C582.166 552.088 582.202 553.03 582.095 553.864C581.918 555.179 581.705 556.493 581.438 557.789C580.895 560.47 580.189 563.115 579.325 565.71C578.447 568.329 577.397 570.886 576.181 573.365C575.023 576.002 573.55 578.488 571.794 580.771C571.774 580.789 571.758 580.811 571.748 580.836C571.738 580.861 571.733 580.888 571.735 580.915C571.737 580.942 571.745 580.968 571.758 580.991C571.771 581.015 571.79 581.035 571.812 581.05C571.834 581.065 571.859 581.075 571.886 581.079C571.913 581.083 571.94 581.081 571.966 581.073C571.991 581.065 572.015 581.051 572.034 581.033C572.054 581.014 572.069 580.992 572.079 580.966C573.624 578.533 575.435 576.278 576.856 573.756C578.237 571.337 579.425 568.813 580.408 566.208C581.406 563.579 582.179 560.869 582.717 558.109C583.019 556.653 583.232 555.179 583.41 553.705C583.578 552.821 583.632 551.92 583.569 551.023C586.615 550.565 589.708 550.505 592.769 550.845C591.633 557.292 590.389 564.005 586.784 569.6C586.66 569.795 586.979 569.973 587.086 569.76C588.775 566.792 590.259 563.713 591.526 560.542C592.721 557.467 593.475 554.238 593.764 550.952C599.115 551.669 604.281 553.398 608.984 556.049C617.836 561.205 624.905 568.937 629.249 578.214C633.822 588.212 636.375 599.016 636.761 610.004C637.614 623.804 637.791 637.71 639.176 651.474C639.265 652.38 640.686 652.682 640.952 651.652C641.257 648.636 641.286 645.598 641.041 642.576Z" fill="#263238"/>
<path d="M610.654 552.569C609.787 551.516 608.784 550.585 607.67 549.798C606.587 548.91 605.486 548.022 604.331 547.276C602.056 545.692 599.536 544.492 596.872 543.724C596.659 543.724 596.57 544.026 596.872 544.062C599.547 544.725 602.057 545.935 604.242 547.614C605.343 548.431 606.391 549.283 607.421 550.189C608.335 551.146 609.347 552.003 610.441 552.747C610.547 552.995 610.796 552.764 610.654 552.569Z" fill="#263238"/>
<path d="M568.705 562.354C566.531 564.886 564.514 567.549 562.666 570.328C560.878 573.129 559.378 576.105 558.191 579.208C558.191 579.297 558.297 579.35 558.35 579.208C561.378 573.326 564.946 567.737 569.007 562.514C569.095 562.425 568.847 562.194 568.705 562.354Z" fill="#263238"/>
<path d="M596.979 559.69C596.703 561.375 596.207 563.017 595.505 564.574C594.778 566.078 593.941 567.527 593 568.907C593 568.996 593 569.085 593.142 569.014C595.416 566.409 596.868 563.189 597.316 559.761C597.352 559.583 597.014 559.459 596.979 559.69Z" fill="#263238"/>
<path d="M639.212 571.323C639.212 571.323 657.825 547.915 693.736 556.209C727.889 564.094 743.642 626.717 709.152 634.194C674.661 641.671 680.735 583.755 668.144 573.916C658.926 566.687 645.659 568.25 639.212 571.323Z" fill="#0EA5E9"/>
<path d="M721.495 590.415C719.152 588.362 716.678 586.464 714.089 584.732C711.65 583.069 708.998 581.742 706.204 580.789C704.798 578.664 703.231 576.651 701.515 574.769C698.343 571.368 694.686 568.453 690.663 566.119H691.729C693.628 566.022 695.531 566.022 697.43 566.119C701.265 566.362 705.026 567.295 708.53 568.872C708.725 568.872 708.868 568.641 708.672 568.57C705.125 567.036 701.412 565.916 697.608 565.231C695.755 564.904 693.877 564.743 691.995 564.752C690.987 564.758 689.979 564.817 688.976 564.93H688.39C685.095 563.271 681.621 561.996 678.036 561.129L679.048 560.845C680.808 560.465 682.587 560.174 684.376 559.974C687.956 559.566 691.573 559.62 695.139 560.134C695.175 560.123 695.205 560.1 695.227 560.07C695.249 560.039 695.261 560.003 695.261 559.966C695.261 559.928 695.249 559.892 695.227 559.861C695.205 559.831 695.175 559.809 695.139 559.797C691.533 559.371 687.898 559.228 684.27 559.371C681.225 559.455 678.196 559.847 675.23 560.543C673.071 560.142 670.887 559.893 668.694 559.797C656.155 559.264 642.498 563.935 634.79 574.236C627.082 584.537 625.572 598.283 624.134 610.715C622.028 628.044 621.57 645.533 622.766 662.948C622.766 663.96 624.294 663.783 624.311 662.806C624.791 648.047 625.306 633.271 626.727 618.565C627.384 611.745 628.094 604.908 629.231 598.159C630.063 592.349 631.732 586.69 634.186 581.358C636.852 575.909 641.073 571.373 646.316 568.322C651.574 565.292 657.441 563.472 663.49 562.994C668.907 562.539 674.361 563.05 679.599 564.503C679.41 565.553 679.38 566.624 679.51 567.682C679.634 569.016 679.902 570.332 680.309 571.607C680.691 572.837 681.19 574.026 681.801 575.159C682.476 576.385 683.311 577.486 684.057 578.711C684.163 578.889 684.465 578.711 684.323 578.516C682.848 576.4 681.893 573.966 681.535 571.412C681.322 570.202 681.179 568.98 681.108 567.753C681.108 566.83 681.108 565.889 681.108 564.965C686.807 566.72 692.126 569.527 696.791 573.241C697.661 573.952 698.567 574.68 699.33 575.444C698.147 576.549 697.12 577.809 696.276 579.191C695.046 580.988 693.976 582.89 693.079 584.874C691.431 588.854 690.314 593.034 689.758 597.306C689.758 597.519 690.077 597.59 690.095 597.306C690.765 593.155 692.154 589.153 694.198 585.478C695.142 583.636 696.204 581.856 697.377 580.15C697.981 579.297 698.602 578.374 699.259 577.61C699.615 577.166 700.005 576.705 700.325 576.225C704.552 580.362 708.004 585.222 710.519 590.575C708.804 592.443 707.395 594.571 706.346 596.88C705.059 599.165 703.938 601.539 702.989 603.984C701.253 608.768 699.818 613.656 698.691 618.618C698.691 618.832 698.993 618.903 699.028 618.618C700.128 613.614 701.84 608.765 704.126 604.179C705.209 601.942 706.346 599.722 707.536 597.537C708.775 595.505 709.902 593.406 710.91 591.25C713.301 596.494 714.692 602.137 715.013 607.891C715.013 608.105 715.368 608.087 715.35 607.891C714.689 598.866 711.928 590.121 707.287 582.352C709.489 583.294 711.691 584.128 713.805 585.336C716.505 586.791 719.012 588.581 721.264 590.664C721.424 590.824 721.655 590.557 721.495 590.415Z" fill="#263238"/>
<path d="M695.139 591.729C694.073 595.281 692.706 598.727 691.729 602.385C690.761 605.796 690.242 609.319 690.184 612.864C690.184 612.97 690.344 612.97 690.361 612.864C691.336 605.693 693.062 598.645 695.512 591.836C695.519 591.811 695.521 591.786 695.518 591.76C695.515 591.735 695.507 591.711 695.495 591.688C695.482 591.666 695.466 591.646 695.446 591.631C695.426 591.615 695.403 591.603 695.379 591.596C695.354 591.589 695.329 591.587 695.303 591.59C695.278 591.593 695.253 591.601 695.231 591.613C695.209 591.625 695.189 591.642 695.173 591.662C695.158 591.682 695.146 591.705 695.139 591.729Z" fill="#263238"/>
<path d="M717.908 582.938C716.497 581.579 714.893 580.436 713.148 579.546C711.373 578.737 709.53 578.083 707.642 577.593C707.429 577.593 707.358 577.877 707.642 577.93C709.511 578.406 711.305 579.141 712.97 580.114C714.669 580.996 716.301 581.999 717.854 583.116C717.873 583.112 717.89 583.103 717.903 583.09C717.917 583.077 717.927 583.061 717.933 583.043C717.938 583.025 717.939 583.005 717.934 582.987C717.93 582.969 717.921 582.952 717.908 582.938Z" fill="#263238"/>
<path d="M656.902 540.048C656.902 540.048 660.329 498.027 691.57 484.405C717.659 473.039 732.596 502.343 714.161 520.298C699.242 534.826 675.319 528.273 656.902 540.048Z" fill="#0EA5E9"/>
<path d="M708.388 492.556C703.629 494.482 698.986 496.682 694.482 499.145C690.745 501.288 687.145 503.661 683.702 506.249C684.217 505.184 684.661 504.083 685.194 503.035C686.011 501.419 686.881 499.82 687.84 498.293C689.761 495.108 692.076 492.178 694.731 489.573C694.891 489.431 694.624 489.182 694.482 489.342C691.837 491.947 689.413 494.769 687.236 497.778C686.16 499.302 685.17 500.885 684.27 502.52C683.349 504.033 682.638 505.664 682.157 507.368L681.819 507.617C676.363 511.963 671.364 516.855 666.901 522.216C666.99 521.807 667.061 521.399 667.185 521.008C667.771 518.966 668.393 516.923 669.067 514.899C670.419 510.589 672.317 506.471 674.715 502.644C674.84 502.467 674.538 502.289 674.413 502.484C671.962 506.313 669.778 510.307 667.878 514.437C667.005 516.453 666.281 518.531 665.711 520.653C665.259 522.032 664.921 523.446 664.698 524.88C663.331 526.656 661.999 528.343 660.738 530.208C647.329 549.3 640.598 572.388 638.982 595.512C638.508 602.398 638.39 609.304 638.627 616.203C638.658 623.166 639.252 630.115 640.403 636.982C640.491 637.426 641.166 637.284 641.166 636.858C641.006 630.784 640.385 624.745 640.26 618.671C640.145 612.579 640.341 606.486 640.847 600.414C641.827 588.286 644.113 576.299 647.666 564.663C651.294 552.737 656.643 541.405 663.544 531.025C664.858 530.758 666.173 530.403 667.469 530.066C668.765 529.728 670.595 529.267 672.14 528.84C675.139 528.065 678.054 526.994 680.842 525.644C680.861 525.632 680.877 525.617 680.89 525.599C680.903 525.581 680.912 525.561 680.917 525.539C680.922 525.518 680.923 525.495 680.919 525.474C680.915 525.452 680.907 525.431 680.896 525.413C680.884 525.394 680.869 525.378 680.851 525.365C680.833 525.352 680.813 525.343 680.791 525.338C680.77 525.333 680.748 525.333 680.726 525.336C680.704 525.34 680.684 525.348 680.665 525.359C677.896 526.861 674.894 527.888 671.785 528.396C669.334 528.894 666.794 529.196 664.343 529.764C666.617 526.46 669.032 523.264 671.607 520.209C677.559 520.748 683.559 520.304 689.367 518.895C692.457 518.147 695.495 517.197 698.46 516.053C701.604 514.845 704.552 513.3 707.642 512.004C707.683 511.985 707.713 511.951 707.728 511.909C707.743 511.868 707.741 511.822 707.722 511.782C707.704 511.742 707.67 511.711 707.628 511.696C707.586 511.681 707.54 511.683 707.5 511.702C701.908 514.75 695.804 516.749 689.492 517.598C683.918 518.494 678.283 518.957 672.637 518.983C674.857 516.444 677.148 513.957 679.599 511.631C687.804 503.816 697.555 496.641 708.353 492.894C708.69 492.823 708.584 492.485 708.388 492.556Z" fill="#263238"/>
<path d="M682.956 492.699C681.542 494.468 680.26 496.338 679.119 498.294C677.956 500.354 677.032 502.541 676.367 504.812C676.367 504.812 676.367 504.936 676.491 504.812C677.539 502.752 678.409 500.603 679.475 498.56C680.506 496.535 681.757 494.629 683.204 492.877C683.346 492.753 683.08 492.522 682.956 492.699Z" fill="#263238"/>
<path d="M712.011 506.676C709.981 507.806 707.83 508.706 705.6 509.358C703.462 510.072 701.286 510.665 699.082 511.134C698.975 511.134 698.993 511.329 699.082 511.312C701.385 511.07 703.654 510.576 705.848 509.837C708.01 509.014 710.121 508.066 712.171 506.996C712.384 506.872 712.207 506.57 712.011 506.676Z" fill="#263238"/>
<path d="M632.605 532.517C632.41 534.293 627.881 517.243 601.454 502.094C577.478 488.33 548.831 452.525 572.363 429.899C591.349 411.642 641.379 451.442 632.605 532.517Z" fill="#0EA5E9"/>
<path d="M650.792 630.393C650.405 612.645 649.006 594.933 646.601 577.344C644.512 561.155 640.769 545.224 635.43 529.8C633.476 524.241 631.221 518.788 628.787 513.407C628.921 511.312 628.886 509.209 628.681 507.12C628.557 504.42 628.308 501.792 628.059 499.057C627.811 496.322 627.544 493.729 627.225 491.012C626.905 488.294 626.337 485.683 626.23 483.002C626.239 482.975 626.241 482.947 626.237 482.919C626.232 482.891 626.222 482.865 626.205 482.842C626.189 482.819 626.167 482.801 626.142 482.788C626.117 482.775 626.089 482.769 626.061 482.769C626.033 482.769 626.006 482.775 625.981 482.788C625.956 482.801 625.934 482.819 625.917 482.842C625.901 482.865 625.89 482.891 625.886 482.919C625.882 482.947 625.884 482.975 625.893 483.002C626.419 485.81 626.734 488.653 626.834 491.509C627.047 494.102 627.189 496.695 627.26 499.288C627.349 501.898 627.26 504.491 627.26 507.102C627.26 508.026 627.26 509.02 627.171 510.033C624.703 504.705 622.039 499.607 619.144 494.581C620.92 483.623 618.611 472.168 616.373 461.459C616.373 461.245 616 461.352 616.053 461.565C617.16 467.159 617.755 472.842 617.829 478.544C617.936 483.037 617.723 487.53 617.705 492.024C617.066 490.958 616.444 489.875 615.787 488.809C612.359 483.215 608.683 477.727 604.811 472.417C605.129 469.82 605.045 467.191 604.563 464.62C604.128 461.73 603.487 458.875 602.645 456.077C601.792 453.289 600.869 450.536 599.714 447.837C598.56 445.137 597.05 442.42 595.949 439.649C595.842 439.4 595.505 439.649 595.629 439.773C597.041 442.404 598.149 445.187 598.933 448.067C599.815 450.764 600.538 453.509 601.099 456.29C601.668 459.061 602.112 461.849 602.502 464.673C602.769 466.449 602.929 468.456 603.248 470.321C597.594 462.725 591.416 455.532 584.76 448.796C584.6 448.636 584.369 448.884 584.511 449.044C594.585 460.366 603.581 472.602 611.383 485.595L612.217 487.051C610.761 486.145 609.091 485.417 607.724 484.653L600.034 480.426L592.539 476.342C591.26 475.631 589.999 474.885 588.685 474.21C587.127 473.514 585.63 472.689 584.209 471.742C584.174 471.716 584.13 471.705 584.087 471.712C584.043 471.718 584.005 471.742 583.979 471.777C583.953 471.813 583.942 471.857 583.949 471.9C583.955 471.943 583.979 471.982 584.014 472.008C586.554 473.411 588.809 475.56 591.26 477.052C593.711 478.544 596.233 480.142 598.808 481.581C603.497 484.192 608.594 486.074 613.23 488.791C616.426 494.404 619.386 500.152 622.11 506.037C619.304 504.261 616.444 502.485 613.531 500.886C611.667 499.838 609.784 498.808 607.884 497.814C605.996 496.94 604.209 495.862 602.556 494.599C602.522 494.583 602.483 494.578 602.446 494.585C602.408 494.592 602.374 494.61 602.349 494.638C602.323 494.666 602.307 494.701 602.302 494.739C602.298 494.777 602.306 494.815 602.325 494.848C605.402 497.63 608.814 500.017 612.484 501.952C615.876 503.941 619.304 505.859 622.838 507.582C625.656 513.786 628.201 520.091 630.475 526.496C641.593 557.985 645.677 591.41 647.631 624.603C648.217 634.496 648.519 644.388 648.643 654.298C648.768 664.208 648.235 674.083 648.253 683.976C648.253 684.26 648.732 684.331 648.785 683.976C649.975 675.202 650.171 666.215 650.561 657.442C650.952 648.668 650.988 639.398 650.792 630.393Z" fill="#263238"/>
<path d="M602.786 487.85C597.964 485.726 593.279 483.306 588.756 480.604C584.167 478.011 579.715 475.183 575.418 472.133C575.418 472.133 575.276 472.133 575.329 472.257C579.39 475.505 583.668 478.472 588.134 481.137C592.816 483.75 597.656 486.07 602.626 488.081C602.839 488.241 602.999 487.939 602.786 487.85Z" fill="#263238"/>
<path d="M610.441 452.259C610.05 450.732 609.571 449.222 609.056 447.73C609.071 447.703 609.079 447.672 609.079 447.641C609.079 447.61 609.071 447.58 609.056 447.553C608.718 446.7 608.363 445.776 608.026 445.013L607.901 444.693C607.901 444.533 607.759 444.373 607.706 444.214C607.653 444.054 607.599 444.214 607.617 444.214C607.635 444.214 607.777 444.8 607.866 445.084C607.905 445.246 607.952 445.406 608.008 445.563C609.758 451.437 611.07 457.433 611.933 463.501C611.933 463.696 612.252 463.696 612.235 463.501C611.99 459.706 611.389 455.942 610.441 452.259Z" fill="#263238"/>
<path d="M678.711 636.787L676.828 659.129L671.056 727.275H609.233L603.461 659.129L601.579 636.787H678.711Z" fill="#37474F"/>
<path d="M678.711 636.787L676.828 659.129H603.461L601.579 636.787H678.711Z" fill="#263238"/>
<path d="M684.767 627.818H595.505V649.254H684.767V627.818Z" fill="#37474F"/>
<path d="M8.9758 727.274L98.9132 726.848L188.851 726.688L368.726 726.386L548.6 726.67L638.538 726.83L728.475 727.274L638.538 727.7L548.6 727.86L368.726 728.162L188.851 727.86L98.9132 727.7L8.9758 727.274Z" fill="#263238"/>
<path d="M518.817 47.3267H218.67C214.635 47.3522 210.645 48.1739 206.929 49.7448C203.213 51.3156 199.843 53.6047 197.013 56.4806C194.184 59.3566 191.949 62.7629 190.439 66.5042C188.929 70.2455 188.171 74.2481 188.211 78.2826V696.336C188.14 704.468 191.302 712.295 197 718.096C202.698 723.898 210.467 727.199 218.599 727.274H518.746C522.78 727.246 526.769 726.424 530.485 724.854C534.201 723.284 537.571 720.997 540.403 718.124C543.235 715.25 545.473 711.847 546.989 708.109C548.505 704.371 549.27 700.37 549.24 696.336V78.2826C549.275 74.2524 548.516 70.2547 547.006 66.5178C545.496 62.7809 543.265 59.378 540.44 56.5035C537.615 53.6289 534.251 51.339 530.541 49.7644C526.831 48.1898 522.847 47.3615 518.817 47.3267ZM530.236 677.226C530.236 693.494 518.053 706.655 503.028 706.655H234.441C219.38 706.655 207.197 693.494 207.197 677.226V101.691C207.197 68.5501 219.38 66.9339 234.441 66.9339H288.236C291.362 66.9339 293.92 70.4859 293.92 74.8904V76.7908C293.92 87.1627 299.567 87.1627 306.565 87.1627H430.886C437.866 87.1627 443.478 87.1627 443.478 76.8085V74.8904C443.478 70.4859 445.982 66.9339 449.161 66.9339H502.975C518 66.9339 530.183 71.3384 530.183 101.691L530.236 677.226Z" fill="#263238"/>
<path d="M385.686 74.251H351.746C351.471 74.251 351.199 74.1967 350.944 74.0914C350.69 73.9861 350.459 73.8317 350.265 73.6371C350.07 73.4425 349.916 73.2115 349.81 72.9572C349.705 72.703 349.651 72.4305 349.651 72.1553C349.651 71.5995 349.872 71.0664 350.265 70.6734C350.658 70.2804 351.191 70.0596 351.746 70.0596H385.686C386.242 70.0596 386.775 70.2804 387.168 70.6734C387.561 71.0664 387.782 71.5995 387.782 72.1553C387.782 72.4305 387.728 72.703 387.622 72.9572C387.517 73.2115 387.363 73.4425 387.168 73.6371C386.973 73.8317 386.742 73.9861 386.488 74.0914C386.234 74.1967 385.961 74.251 385.686 74.251Z" fill="white"/>
<path d="M530.343 101.69V677.226C530.343 693.494 518.159 706.654 503.134 706.654H234.441C219.38 706.654 207.197 693.494 207.197 677.226V101.69C207.197 68.5498 219.38 66.9336 234.441 66.9336H288.236C291.362 66.9336 293.92 70.4856 293.92 74.8901V76.7905C293.92 87.1624 299.567 87.1624 306.565 87.1624H430.886C437.883 87.1624 443.478 87.1624 443.478 76.8082V74.8901C443.478 70.4856 446 66.9336 449.179 66.9336H502.992C518.07 66.9336 530.343 71.3381 530.343 101.69Z" fill="white"/>
<path d="M239.893 123.659L230.338 114.726L239.893 105.775L241.368 107.356L233.518 114.726L241.368 122.096L239.893 123.659Z" fill="#C7C7C7"/>
<path d="M505.23 109.15C505.23 109.523 505.12 109.887 504.913 110.196C504.706 110.506 504.412 110.747 504.068 110.89C503.724 111.032 503.345 111.069 502.98 110.997C502.615 110.924 502.28 110.745 502.016 110.481C501.753 110.218 501.574 109.883 501.501 109.518C501.428 109.152 501.466 108.774 501.608 108.43C501.751 108.086 501.992 107.792 502.302 107.585C502.611 107.378 502.975 107.268 503.347 107.268C503.595 107.265 503.841 107.312 504.071 107.406C504.3 107.5 504.509 107.638 504.684 107.814C504.859 107.989 504.998 108.198 505.092 108.427C505.185 108.656 505.232 108.902 505.23 109.15Z" fill="#C7C7C7"/>
<path d="M505.23 115.828C505.23 116.2 505.12 116.564 504.913 116.874C504.706 117.183 504.412 117.425 504.068 117.567C503.724 117.71 503.345 117.747 502.98 117.674C502.615 117.602 502.28 117.422 502.016 117.159C501.753 116.896 501.574 116.56 501.501 116.195C501.428 115.83 501.466 115.452 501.608 115.108C501.751 114.764 501.992 114.47 502.302 114.263C502.611 114.056 502.975 113.945 503.347 113.945C503.595 113.943 503.841 113.99 504.071 114.084C504.3 114.178 504.509 114.316 504.684 114.492C504.859 114.667 504.998 114.875 505.092 115.105C505.185 115.334 505.232 115.58 505.23 115.828Z" fill="#C7C7C7"/>
<path d="M505.23 122.506C505.23 122.878 505.12 123.242 504.913 123.552C504.706 123.861 504.412 124.102 504.068 124.245C503.724 124.387 503.345 124.425 502.98 124.352C502.615 124.279 502.28 124.1 502.016 123.837C501.753 123.574 501.574 123.238 501.501 122.873C501.428 122.508 501.466 122.129 501.608 121.785C501.751 121.441 501.992 121.147 502.302 120.94C502.611 120.734 502.975 120.623 503.347 120.623C503.595 120.621 503.841 120.668 504.071 120.762C504.3 120.855 504.509 120.994 504.684 121.169C504.859 121.345 504.998 121.553 505.092 121.782C505.185 122.012 505.232 122.258 505.23 122.506Z" fill="#C7C7C7"/>
<path d="M278.947 79.8633L278.432 80.3783L278.131 80.6625C276.799 79.3393 274.999 78.5966 273.122 78.5966C271.245 78.5966 269.445 79.3393 268.114 80.6625L267.83 80.3605L267.315 79.8455L267.972 79.2594C268.448 78.8903 268.96 78.569 269.499 78.3004C270.138 77.9781 270.82 77.7508 271.524 77.6255C271.852 77.5594 272.184 77.512 272.518 77.4834H273.406H274.081C274.718 77.5596 275.343 77.7086 275.946 77.9274C276.375 78.09 276.791 78.2859 277.189 78.5135C277.611 78.7548 278.009 79.0342 278.379 79.3482L278.93 79.8455L278.947 79.8633Z" fill="#C7C7C7"/>
<path d="M269.765 82.2964L268.931 81.4795C270.045 80.3732 271.552 79.7524 273.122 79.7524C274.692 79.7524 276.199 80.3732 277.313 81.4795L276.479 82.2964C275.587 81.4093 274.38 80.9113 273.122 80.9113C271.864 80.9113 270.657 81.4093 269.765 82.2964Z" fill="#C7C7C7"/>
<path d="M275.662 83.1317L274.845 83.9309C274.611 83.7011 274.333 83.52 274.028 83.3981C273.723 83.2762 273.397 83.2158 273.069 83.2205C272.739 83.2141 272.411 83.2754 272.106 83.4006C271.8 83.5259 271.524 83.7124 271.293 83.9487C271.027 83.6645 270.743 83.3981 270.476 83.1317C270.808 82.7768 271.21 82.4939 271.656 82.3005C272.102 82.1071 272.583 82.0073 273.069 82.0073C273.555 82.0073 274.036 82.1071 274.482 82.3005C274.928 82.4939 275.33 82.7768 275.662 83.1317Z" fill="#C7C7C7"/>
<path d="M273.869 84.6761C273.869 84.874 273.79 85.0637 273.65 85.2036C273.51 85.3435 273.32 85.4221 273.123 85.4221C273.026 85.4221 272.929 85.4027 272.84 85.365C272.75 85.3273 272.669 85.2721 272.601 85.2025C272.534 85.133 272.48 85.0507 272.445 84.9602C272.409 84.8698 272.392 84.7732 272.394 84.6761C272.394 84.483 272.471 84.2978 272.608 84.1612C272.744 84.0247 272.93 83.948 273.123 83.948C273.22 83.9456 273.316 83.9627 273.407 83.9982C273.497 84.0337 273.58 84.087 273.649 84.1549C273.719 84.2227 273.774 84.3038 273.812 84.3933C273.849 84.4828 273.869 84.579 273.869 84.6761Z" fill="#C7C7C7"/>
<path d="M228.26 81.4262C228.26 81.0005 228.386 80.5843 228.623 80.2305C228.86 79.8767 229.197 79.6013 229.591 79.4392C229.984 79.2771 230.417 79.2356 230.835 79.32C231.252 79.4043 231.635 79.6108 231.935 79.9131C232.235 80.2154 232.438 80.6 232.519 81.018C232.6 81.436 232.554 81.8687 232.389 82.261C232.224 82.6534 231.946 82.9878 231.59 83.2217C231.234 83.4557 230.817 83.5788 230.391 83.5752C230.11 83.5752 229.831 83.5195 229.571 83.4113C229.312 83.3031 229.076 83.1445 228.878 82.9447C228.68 82.745 228.523 82.5079 228.417 82.2473C228.311 81.9867 228.258 81.7076 228.26 81.4262Z" fill="#C7C7C7"/>
<path d="M234.991 81.426C234.998 81.0025 235.13 80.5906 235.371 80.2419C235.611 79.8932 235.949 79.6233 236.342 79.4661C236.735 79.3089 237.166 79.2713 237.581 79.3582C237.995 79.4451 238.375 79.6525 238.672 79.9544C238.969 80.2563 239.17 80.6393 239.25 81.0551C239.33 81.471 239.286 81.9012 239.122 82.2919C238.958 82.6825 238.683 83.016 238.33 83.2506C237.978 83.4852 237.564 83.6104 237.14 83.6105C236.855 83.6105 236.573 83.5538 236.31 83.4436C236.047 83.3333 235.808 83.1719 235.608 82.9685C235.408 82.7652 235.25 82.5241 235.145 82.2593C235.039 81.9944 234.987 81.7111 234.991 81.426Z" fill="#C7C7C7"/>
<path d="M241.74 81.426C241.747 81.0025 241.879 80.5906 242.12 80.2419C242.36 79.8932 242.698 79.6233 243.091 79.4661C243.484 79.3089 243.915 79.2713 244.33 79.3582C244.744 79.4451 245.124 79.6525 245.421 79.9544C245.718 80.2563 245.919 80.6393 245.999 81.0551C246.079 81.471 246.035 81.9012 245.871 82.2919C245.707 82.6825 245.432 83.016 245.079 83.2506C244.727 83.4852 244.313 83.6104 243.889 83.6105C243.604 83.6105 243.322 83.5538 243.059 83.4436C242.795 83.3333 242.557 83.1719 242.357 82.9685C242.157 82.7652 241.999 82.5241 241.893 82.2593C241.788 81.9944 241.735 81.7111 241.74 81.426Z" fill="#C7C7C7"/>
<path d="M248.489 81.4259C248.496 81.0017 248.628 80.5891 248.87 80.24C249.111 79.8909 249.45 79.6211 249.844 79.4644C250.238 79.3077 250.67 79.2713 251.085 79.3596C251.5 79.4479 251.88 79.6571 252.176 79.9608C252.472 80.2645 252.672 80.649 252.75 81.0661C252.828 81.4831 252.781 81.9139 252.614 82.3041C252.448 82.6944 252.17 83.0267 251.815 83.2592C251.46 83.4916 251.044 83.6138 250.62 83.6104C250.336 83.6105 250.054 83.5536 249.792 83.4432C249.53 83.3328 249.293 83.171 249.094 82.9674C248.895 82.7639 248.739 82.5226 248.636 82.2578C248.532 81.9931 248.482 81.7102 248.489 81.4259Z" fill="#C7C7C7"/>
<path d="M255.238 81.4259C255.245 81.0017 255.377 80.5891 255.618 80.24C255.86 79.8909 256.199 79.6211 256.593 79.4644C256.987 79.3077 257.419 79.2713 257.834 79.3596C258.249 79.4479 258.628 79.6571 258.925 79.9608C259.221 80.2645 259.421 80.649 259.499 81.0661C259.577 81.4831 259.53 81.9139 259.363 82.3041C259.197 82.6944 258.919 83.0267 258.564 83.2592C258.209 83.4916 257.793 83.6138 257.369 83.6104C257.085 83.6105 256.803 83.5536 256.541 83.4432C256.279 83.3328 256.042 83.171 255.843 82.9674C255.644 82.7639 255.488 82.5226 255.385 82.2578C255.281 81.9931 255.231 81.7102 255.238 81.4259Z" fill="#C7C7C7"/>
<path d="M506.029 86.1148H488.571V78.0161H506.029V86.1148ZM489.494 85.209H505.123V78.9219H489.494V85.209Z" fill="#C7C7C7"/>
<path d="M501.269 79.4014H490.027V84.7294H501.269V79.4014Z" fill="#C7C7C7"/>
<path d="M507.574 79.8984H506.029V84.2141H507.574V79.8984Z" fill="#C7C7C7"/>
<path d="M256.286 671.472H253.817V682.749H249.235V676.995H241.101V682.749H236.519V671.472H234.068L245.168 659.981L256.286 671.472Z" fill="#EBEBEB"/>
<path d="M503.401 659.981H476.618V663.799H503.401V659.981Z" fill="#EBEBEB"/>
<path d="M503.401 669.447H476.618V673.266H503.401V669.447Z" fill="#EBEBEB"/>
<path d="M503.401 678.913H476.618V682.732H503.401V678.913Z" fill="#EBEBEB"/>
<path d="M376.344 669.838L368.725 677.972L361.106 669.838L362.456 668.595L368.725 675.273L374.995 668.595L376.344 669.838Z" fill="#EBEBEB"/>
<path d="M368.725 686.373C365.989 686.373 363.314 685.561 361.039 684.041C358.764 682.521 356.991 680.36 355.943 677.832C354.896 675.304 354.622 672.522 355.156 669.838C355.69 667.155 357.008 664.69 358.943 662.755C360.877 660.82 363.343 659.502 366.026 658.968C368.71 658.434 371.492 658.708 374.02 659.756C376.548 660.803 378.709 662.576 380.229 664.851C381.749 667.126 382.561 669.801 382.561 672.538C382.551 676.204 381.091 679.718 378.498 682.31C375.905 684.903 372.392 686.363 368.725 686.373ZM368.725 660.532C366.351 660.532 364.03 661.236 362.055 662.555C360.081 663.874 358.542 665.749 357.633 667.943C356.725 670.137 356.487 672.551 356.95 674.88C357.414 677.209 358.557 679.348 360.236 681.027C361.915 682.706 364.054 683.849 366.383 684.313C368.712 684.776 371.126 684.538 373.32 683.63C375.514 682.721 377.389 681.182 378.708 679.208C380.027 677.233 380.731 674.912 380.731 672.538C380.731 669.353 379.466 666.3 377.215 664.048C374.963 661.797 371.91 660.532 368.725 660.532Z" fill="#EBEBEB"/>
<path d="M348.07 622.827C348.07 623.74 347.8 624.633 347.292 625.392C346.785 626.151 346.064 626.743 345.22 627.093C344.376 627.442 343.448 627.534 342.552 627.356C341.656 627.177 340.833 626.738 340.188 626.092C339.542 625.446 339.102 624.623 338.924 623.728C338.746 622.832 338.837 621.903 339.187 621.06C339.536 620.216 340.128 619.495 340.887 618.987C341.647 618.48 342.539 618.209 343.453 618.209C344.06 618.207 344.661 618.325 345.223 618.556C345.784 618.787 346.294 619.127 346.723 619.556C347.152 619.986 347.492 620.495 347.724 621.057C347.955 621.618 348.073 622.22 348.07 622.827Z" fill="#DBDBDB"/>
<path d="M376.22 622.827C376.22 624.211 375.81 625.563 375.041 626.714C374.272 627.865 373.179 628.762 371.9 629.291C370.622 629.821 369.215 629.96 367.857 629.69C366.5 629.42 365.253 628.753 364.275 627.775C363.296 626.796 362.63 625.549 362.36 624.192C362.09 622.834 362.228 621.427 362.758 620.149C363.287 618.87 364.184 617.777 365.335 617.008C366.486 616.239 367.839 615.829 369.223 615.829C371.078 615.829 372.858 616.566 374.171 617.879C375.483 619.191 376.22 620.971 376.22 622.827Z" fill="#0EA5E9"/>
<path d="M399.61 622.827C399.61 623.74 399.339 624.633 398.832 625.392C398.324 626.151 397.603 626.743 396.76 627.093C395.916 627.442 394.987 627.534 394.092 627.356C393.196 627.177 392.373 626.738 391.727 626.092C391.081 625.446 390.642 624.623 390.464 623.728C390.285 622.832 390.377 621.903 390.726 621.06C391.076 620.216 391.668 619.495 392.427 618.987C393.186 618.48 394.079 618.209 394.992 618.209C395.599 618.207 396.201 618.325 396.762 618.556C397.324 618.787 397.834 619.127 398.263 619.556C398.692 619.986 399.032 620.495 399.263 621.057C399.495 621.618 399.612 622.22 399.61 622.827Z" fill="#DBDBDB"/>
<path d="M430.051 494.172H305.41V533.813H430.051V494.172Z" fill="#0EA5E9"/>
<path d="M340.309 519.551V508.895C340.307 508.764 340.331 508.633 340.38 508.511C340.429 508.39 340.502 508.279 340.595 508.186C340.688 508.093 340.799 508.02 340.92 507.971C341.042 507.922 341.173 507.898 341.304 507.9C341.436 507.898 341.567 507.922 341.69 507.971C341.813 508.02 341.924 508.093 342.019 508.185C342.113 508.278 342.188 508.388 342.239 508.51C342.29 508.632 342.316 508.763 342.316 508.895V518.61H347.253C347.522 518.61 347.779 518.716 347.969 518.906C348.159 519.096 348.266 519.354 348.266 519.622C348.266 519.891 348.159 520.148 347.969 520.338C347.779 520.528 347.522 520.634 347.253 520.634H341.304C341.165 520.635 341.028 520.607 340.901 520.551C340.775 520.496 340.661 520.414 340.567 520.312C340.474 520.21 340.402 520.09 340.358 519.959C340.313 519.828 340.297 519.689 340.309 519.551Z" fill="white"/>
<path d="M359.845 509.392C361.029 510.631 361.689 512.279 361.689 513.992C361.689 515.706 361.029 517.353 359.845 518.592C359.298 519.201 358.63 519.689 357.884 520.025C357.138 520.361 356.33 520.539 355.512 520.546C354.675 520.544 353.847 520.37 353.08 520.033C352.313 519.697 351.623 519.207 351.054 518.592C349.891 517.343 349.244 515.699 349.244 513.992C349.244 512.285 349.891 510.641 351.054 509.392C351.62 508.774 352.309 508.281 353.077 507.945C353.845 507.609 354.674 507.436 355.512 507.439C356.331 507.443 357.14 507.618 357.886 507.955C358.633 508.292 359.3 508.781 359.845 509.392ZM359.615 513.992C359.614 512.814 359.171 511.679 358.371 510.813C358.01 510.411 357.57 510.088 357.078 509.865C356.585 509.642 356.052 509.523 355.512 509.517C354.957 509.514 354.408 509.628 353.9 509.852C353.392 510.075 352.937 510.403 352.564 510.813C351.759 511.675 351.314 512.813 351.321 513.992C351.309 515.167 351.755 516.301 352.564 517.154C352.936 517.566 353.391 517.897 353.899 518.123C354.406 518.349 354.956 518.467 355.512 518.468C356.054 518.458 356.587 518.336 357.079 518.11C357.571 517.884 358.011 517.558 358.371 517.154C359.147 516.285 359.565 515.156 359.544 513.992H359.615Z" fill="white"/>
<path d="M364.64 514.011C364.669 512.763 365.044 511.549 365.724 510.502C366.403 509.456 367.36 508.619 368.487 508.085C369.614 507.551 370.868 507.34 372.108 507.477C373.348 507.614 374.526 508.093 375.509 508.86C375.726 509.03 375.867 509.279 375.9 509.552C375.933 509.825 375.857 510.1 375.687 510.317C375.517 510.533 375.269 510.674 374.996 510.707C374.723 510.74 374.447 510.664 374.231 510.494C373.412 509.861 372.406 509.517 371.371 509.517C370.762 509.508 370.158 509.621 369.593 509.85C369.029 510.079 368.516 510.419 368.086 510.849C367.654 511.252 367.31 511.738 367.075 512.279C366.84 512.82 366.719 513.403 366.719 513.993C366.719 514.583 366.84 515.166 367.075 515.707C367.31 516.248 367.654 516.734 368.086 517.136C368.516 517.567 369.029 517.907 369.593 518.136C370.158 518.365 370.762 518.478 371.371 518.468C372.247 518.462 373.105 518.223 373.858 517.776V515.289H371.247C370.974 515.28 370.714 515.166 370.522 514.971C370.331 514.776 370.221 514.515 370.217 514.242C370.222 513.971 370.332 513.714 370.525 513.525C370.717 513.335 370.977 513.229 371.247 513.229H374.799C374.936 513.224 375.072 513.247 375.2 513.296C375.328 513.344 375.445 513.418 375.544 513.512C375.643 513.606 375.723 513.719 375.778 513.845C375.833 513.97 375.862 514.105 375.865 514.242V518.273C375.875 518.374 375.875 518.475 375.865 518.575C375.801 518.759 375.675 518.916 375.509 519.019C374.53 519.786 373.356 520.267 372.12 520.406C370.883 520.545 369.632 520.338 368.507 519.807C367.381 519.276 366.425 518.443 365.746 517.401C365.066 516.359 364.689 515.148 364.658 513.904L364.64 514.011Z" fill="white"/>
<path d="M380.163 508.807C380.161 508.675 380.185 508.545 380.234 508.423C380.283 508.302 380.356 508.191 380.449 508.098C380.542 508.005 380.652 507.932 380.774 507.883C380.896 507.834 381.026 507.81 381.158 507.812C381.29 507.81 381.423 507.834 381.546 507.882C381.67 507.931 381.783 508.004 381.879 508.096C381.974 508.188 382.051 508.299 382.104 508.421C382.157 508.543 382.185 508.674 382.188 508.807V519.463C382.178 519.73 382.066 519.983 381.874 520.168C381.681 520.354 381.425 520.458 381.158 520.457C381.026 520.46 380.896 520.436 380.774 520.387C380.652 520.337 380.542 520.264 380.449 520.171C380.356 520.079 380.283 519.968 380.234 519.846C380.185 519.724 380.161 519.594 380.163 519.463V508.807Z" fill="white"/>
<path d="M387.587 519.552C387.587 519.815 387.482 520.068 387.295 520.255C387.109 520.442 386.856 520.546 386.592 520.546C386.328 520.546 386.075 520.442 385.889 520.255C385.702 520.068 385.597 519.815 385.597 519.552V508.896C385.594 508.734 385.629 508.574 385.7 508.429C385.771 508.283 385.876 508.157 386.006 508.061C386.221 507.915 386.484 507.856 386.74 507.896C386.997 507.935 387.23 508.07 387.391 508.274L393.27 516.408V508.967C393.27 508.838 393.295 508.711 393.344 508.593C393.393 508.474 393.465 508.367 393.556 508.276C393.647 508.185 393.754 508.113 393.873 508.064C393.991 508.015 394.118 507.99 394.247 507.99C394.507 507.99 394.758 508.092 394.944 508.275C395.13 508.458 395.237 508.706 395.241 508.967V519.623C395.237 519.885 395.13 520.135 394.945 520.321C394.759 520.507 394.509 520.613 394.247 520.617C394.102 520.615 393.96 520.581 393.831 520.516C393.702 520.452 393.589 520.359 393.501 520.244L393.412 520.138L387.587 512.057V519.552Z" fill="white"/>
<path d="M398.918 187.312V200.295H389.735V187.312C389.735 174.88 380.34 164.917 368.796 164.917C357.252 164.917 347.857 174.951 347.857 187.312V219.813H338.533V187.312C338.533 169.552 352.048 155.22 368.725 155.22C385.402 155.22 398.918 169.623 398.918 187.312Z" fill="#C7C7C7"/>
<path d="M338.604 200.33L347.786 200.703V219.813H338.604V200.33Z" fill="#A6A6A6"/>
<path d="M410.621 208.926H326.829V284.939H410.621V208.926Z" fill="#0EA5E9"/>
<path opacity="0.1" d="M410.621 208.926H368.725V284.939H410.621V208.926Z" fill="black"/>
<path d="M372.278 249.722L375.83 266.345H360.947L364.499 249.722C363.121 248.866 362.059 247.586 361.475 246.073C360.89 244.56 360.815 242.898 361.259 241.339C361.704 239.779 362.645 238.407 363.939 237.43C365.234 236.453 366.811 235.925 368.433 235.925C370.054 235.925 371.632 236.453 372.926 237.43C374.221 238.407 375.161 239.779 375.606 241.339C376.051 242.898 375.975 244.56 375.39 246.073C374.806 247.586 373.744 248.866 372.367 249.722H372.278Z" fill="#263238"/>
<path d="M476.636 368.821H260.832V405.762H476.636V368.821Z" fill="white"/>
<path d="M477.506 406.65H259.944V367.933H477.506V406.65ZM261.72 404.874H475.73V369.709H261.72V404.874Z" fill="#EBEBEB"/>
<path d="M283.228 379.015H281.452V394.804H283.228V379.015Z" fill="#37474F"/>
<path d="M290.243 386.013H274.454V387.789H290.243V386.013Z" fill="#37474F"/>
<path d="M287.305 380.682L276.137 391.843L277.392 393.099L288.56 381.939L287.305 380.682Z" fill="#37474F"/>
<path d="M277.379 380.691L276.123 381.947L287.288 393.112L288.543 391.856L277.379 380.691Z" fill="#37474F"/>
<path d="M310.01 379.015H308.234V394.804H310.01V379.015Z" fill="#37474F"/>
<path d="M317.026 386.013H301.237V387.789H317.026V386.013Z" fill="#37474F"/>
<path d="M314.082 380.7L302.914 391.861L304.169 393.117L315.337 381.957L314.082 380.7Z" fill="#37474F"/>
<path d="M304.167 380.687L302.911 381.942L314.076 393.107L315.331 391.851L304.167 380.687Z" fill="#37474F"/>
<path d="M336.793 379.015H335.017V394.804H336.793V379.015Z" fill="#37474F"/>
<path d="M343.808 386.013H328.019V387.789H343.808V386.013Z" fill="#37474F"/>
<path d="M340.859 380.702L329.691 391.862L330.946 393.119L342.114 381.958L340.859 380.702Z" fill="#37474F"/>
<path d="M330.955 380.68L329.699 381.936L340.864 393.1L342.119 391.845L330.955 380.68Z" fill="#37474F"/>
<path d="M363.592 379.015H361.816V394.804H363.592V379.015Z" fill="#37474F"/>
<path d="M370.59 386.013H354.801V387.789H370.59V386.013Z" fill="#37474F"/>
<path d="M367.653 380.703L356.485 391.863L357.74 393.12L368.908 381.959L367.653 380.703Z" fill="#37474F"/>
<path d="M357.755 380.698L356.5 381.954L367.664 393.118L368.92 391.862L357.755 380.698Z" fill="#37474F"/>
<path d="M390.375 379.015H388.599V394.804H390.375V379.015Z" fill="#37474F"/>
<path d="M397.372 386.013H381.583V387.789H397.372V386.013Z" fill="#37474F"/>
<path d="M394.43 380.704L383.262 391.864L384.517 393.121L395.685 381.96L394.43 380.704Z" fill="#37474F"/>
<path d="M384.526 380.674L383.27 381.93L394.434 393.094L395.69 391.838L384.526 380.674Z" fill="#37474F"/>
<path d="M417.157 379.015H415.381V394.804H417.157V379.015Z" fill="#37474F"/>
<path d="M424.172 386.013H408.384V387.789H424.172V386.013Z" fill="#37474F"/>
<path d="M421.219 380.692L410.051 391.853L411.306 393.109L422.475 381.948L421.219 380.692Z" fill="#37474F"/>
<path d="M411.314 380.668L410.058 381.924L421.222 393.088L422.478 391.832L411.314 380.668Z" fill="#37474F"/>
<path d="M458.201 392.993C456.274 392.877 454.395 392.34 452.698 391.42C451.001 390.499 449.527 389.217 448.379 387.665L447.989 387.132L448.379 386.617C449.454 385.013 450.908 383.698 452.611 382.788C454.315 381.879 456.216 381.403 458.147 381.403C460.079 381.403 461.98 381.879 463.684 382.788C465.387 383.698 466.841 385.013 467.916 386.617L468.289 387.132L467.916 387.665C466.78 389.205 465.323 390.479 463.645 391.4C461.968 392.32 460.11 392.863 458.201 392.993ZM450.244 387.203C451.16 388.465 452.362 389.492 453.751 390.201C455.14 390.909 456.677 391.278 458.236 391.278C459.796 391.278 461.333 390.909 462.722 390.201C464.111 389.492 465.313 388.465 466.228 387.203C465.313 385.941 464.111 384.914 462.722 384.206C461.333 383.497 459.796 383.128 458.236 383.128C456.677 383.128 455.14 383.497 453.751 384.206C452.362 384.914 451.16 385.941 450.244 387.203Z" fill="#EBEBEB"/>
<path d="M458.183 391.199C460.39 391.199 462.179 389.41 462.179 387.203C462.179 384.996 460.39 383.207 458.183 383.207C455.976 383.207 454.187 384.996 454.187 387.203C454.187 389.41 455.976 391.199 458.183 391.199Z" fill="#EBEBEB"/>
<path d="M464.763 379.189L450.572 393.38L451.828 394.636L466.018 380.445L464.763 379.189Z" fill="#EBEBEB"/>
<path d="M310.703 330.353H307.861V335.343C307.861 335.682 307.726 336.008 307.487 336.247C307.247 336.487 306.922 336.622 306.582 336.622C306.243 336.622 305.918 336.487 305.678 336.247C305.438 336.008 305.304 335.682 305.304 335.343V321.757C305.304 321.59 305.337 321.424 305.401 321.27C305.466 321.116 305.56 320.976 305.679 320.859C305.798 320.741 305.939 320.649 306.094 320.587C306.249 320.524 306.415 320.493 306.582 320.496H310.703C311.375 320.455 312.048 320.553 312.681 320.782C313.314 321.012 313.894 321.368 314.384 321.83C314.874 322.291 315.264 322.848 315.531 323.467C315.798 324.085 315.936 324.751 315.936 325.424C315.936 326.097 315.798 326.764 315.531 327.382C315.264 328 314.874 328.557 314.384 329.018C313.894 329.48 313.314 329.837 312.681 330.066C312.048 330.295 311.375 330.393 310.703 330.353ZM307.861 327.795H310.703C311.031 327.824 311.362 327.783 311.675 327.677C311.987 327.571 312.274 327.401 312.517 327.178C312.76 326.955 312.954 326.684 313.087 326.382C313.219 326.08 313.288 325.754 313.288 325.424C313.288 325.094 313.219 324.768 313.087 324.466C312.954 324.164 312.76 323.893 312.517 323.67C312.274 323.447 311.987 323.277 311.675 323.171C311.362 323.065 311.031 323.025 310.703 323.053H307.861V327.795Z" fill="#0EA5E9"/>
<path d="M325.355 332.803H319.76L318.624 335.804C318.524 336.039 318.359 336.239 318.147 336.381C317.936 336.522 317.688 336.6 317.434 336.604C317.287 336.631 317.137 336.631 316.99 336.604C316.671 336.484 316.412 336.243 316.27 335.934C316.127 335.625 316.111 335.272 316.226 334.952L321.323 321.383C321.425 321.144 321.596 320.94 321.815 320.797C322.033 320.655 322.288 320.581 322.549 320.584C322.808 320.577 323.063 320.65 323.279 320.793C323.495 320.936 323.662 321.142 323.756 321.383L328.854 334.952C328.969 335.272 328.953 335.625 328.81 335.934C328.667 336.243 328.409 336.484 328.09 336.604C327.944 336.635 327.792 336.635 327.646 336.604C327.393 336.603 327.146 336.527 326.937 336.384C326.728 336.242 326.566 336.04 326.474 335.804L325.355 332.803ZM324.414 330.281L322.549 325.326L320.773 330.281H324.414Z" fill="#0EA5E9"/>
<path d="M331.109 332.608C331.209 332.472 331.337 332.359 331.484 332.276C331.631 332.193 331.793 332.143 331.961 332.128C332.129 332.113 332.298 332.133 332.458 332.189C332.617 332.244 332.763 332.332 332.885 332.448C334.123 333.501 335.668 334.124 337.29 334.224C338.314 334.245 339.32 333.947 340.167 333.372C340.455 333.198 340.696 332.957 340.869 332.669C341.043 332.381 341.143 332.055 341.162 331.72C341.167 331.461 341.093 331.207 340.948 330.992C340.77 330.714 340.534 330.478 340.256 330.299C339.279 329.744 338.207 329.376 337.095 329.216C336.066 329.04 335.063 328.736 334.111 328.31C333.244 327.935 332.504 327.319 331.98 326.534C331.623 325.971 331.438 325.317 331.447 324.651C331.462 323.99 331.63 323.341 331.938 322.755C332.246 322.17 332.686 321.664 333.223 321.277C334.39 320.469 335.781 320.047 337.201 320.069C339.016 320.147 340.766 320.765 342.227 321.845C342.356 321.931 342.467 322.042 342.552 322.17C342.638 322.299 342.698 322.444 342.728 322.596C342.757 322.747 342.757 322.904 342.726 323.055C342.695 323.207 342.634 323.351 342.547 323.479C342.466 323.613 342.358 323.728 342.231 323.819C342.103 323.91 341.959 323.974 341.806 324.007C341.653 324.04 341.495 324.042 341.342 324.012C341.188 323.983 341.042 323.922 340.913 323.834C339.854 322.977 338.56 322.463 337.201 322.36C336.282 322.345 335.381 322.618 334.626 323.142C334.371 323.293 334.158 323.505 334.006 323.759C333.854 324.014 333.768 324.302 333.756 324.598C333.739 324.823 333.795 325.047 333.915 325.237C334.081 325.477 334.292 325.682 334.537 325.841C335.422 326.361 336.399 326.705 337.414 326.854C338.508 327.048 339.575 327.37 340.593 327.813C341.527 328.223 342.327 328.888 342.902 329.731C343.259 330.32 343.45 330.995 343.453 331.684C343.427 332.392 343.233 333.083 342.887 333.701C342.541 334.318 342.053 334.845 341.464 335.236C340.226 336.117 338.738 336.578 337.219 336.551C335.053 336.452 332.98 335.64 331.322 334.242C331.087 334.047 330.934 333.77 330.894 333.467C330.854 333.164 330.931 332.857 331.109 332.608Z" fill="#0EA5E9"/>
<path d="M346.259 332.608C346.357 332.486 346.478 332.385 346.616 332.311C346.753 332.237 346.904 332.191 347.06 332.176C347.215 332.162 347.372 332.178 347.521 332.225C347.671 332.271 347.809 332.347 347.928 332.448C349.166 333.501 350.711 334.124 352.333 334.224C353.357 334.248 354.364 333.95 355.21 333.372C355.498 333.198 355.739 332.957 355.912 332.669C356.086 332.381 356.186 332.055 356.204 331.72C356.21 331.461 356.135 331.207 355.991 330.992C355.817 330.71 355.58 330.473 355.299 330.299C354.328 329.743 353.262 329.376 352.155 329.216C351.132 329.042 350.135 328.738 349.189 328.31C348.32 327.932 347.575 327.316 347.04 326.534C346.69 325.969 346.505 325.316 346.507 324.651C346.522 323.99 346.691 323.341 346.999 322.755C347.307 322.17 347.747 321.664 348.283 321.277C349.451 320.469 350.842 320.047 352.262 320.069C354.077 320.147 355.827 320.765 357.288 321.845C357.417 321.931 357.527 322.042 357.613 322.17C357.699 322.299 357.758 322.444 357.788 322.596C357.818 322.747 357.817 322.904 357.786 323.055C357.755 323.207 357.694 323.351 357.607 323.479C357.526 323.613 357.419 323.728 357.291 323.819C357.164 323.91 357.019 323.974 356.867 324.007C356.714 324.04 356.556 324.042 356.402 324.012C356.249 323.983 356.103 323.922 355.974 323.834C354.915 322.977 353.62 322.463 352.262 322.36C351.343 322.345 350.442 322.618 349.686 323.142C349.431 323.293 349.218 323.505 349.066 323.759C348.914 324.014 348.828 324.302 348.816 324.598C348.799 324.823 348.855 325.047 348.976 325.237C349.142 325.477 349.353 325.682 349.598 325.841C350.484 326.358 351.46 326.701 352.475 326.854C353.568 327.048 354.635 327.37 355.654 327.813C356.585 328.22 357.38 328.886 357.945 329.731C358.315 330.315 358.506 330.993 358.495 331.684C358.473 332.391 358.283 333.081 357.94 333.699C357.597 334.317 357.112 334.844 356.524 335.236C355.281 336.121 353.787 336.582 352.262 336.551C350.095 336.452 348.023 335.64 346.365 334.242C346.149 334.031 346.019 333.747 345.999 333.445C345.979 333.144 346.072 332.845 346.259 332.608Z" fill="#0EA5E9"/>
<path d="M382.791 322.396L377.144 335.805C377.12 335.885 377.077 335.958 377.019 336.018C377.019 336.018 377.019 336.107 376.913 336.16L376.753 336.266C376.753 336.266 376.646 336.391 376.54 336.408H376.344H375.794H375.634C375.554 336.387 375.484 336.336 375.439 336.266L375.279 336.16C375.279 336.16 375.279 336.071 375.19 336.018C375.18 335.947 375.18 335.875 375.19 335.805L372.171 328.701L369.152 335.805C369.152 335.805 369.152 335.964 369.063 336.018L368.921 336.16C368.866 336.185 368.818 336.221 368.779 336.266L368.601 336.408C368.542 336.396 368.482 336.396 368.423 336.408H367.855H367.677C367.597 336.378 367.524 336.329 367.464 336.266C367.464 336.266 367.376 336.266 367.304 336.16L367.198 336.018C367.198 336.018 367.198 335.876 367.074 335.805L361.408 322.378C361.306 322.075 361.323 321.744 361.455 321.452C361.588 321.161 361.826 320.931 362.122 320.809C362.418 320.687 362.75 320.682 363.049 320.796C363.348 320.909 363.594 321.132 363.735 321.419L368.246 332.075L371.229 324.971C371.328 324.737 371.494 324.538 371.706 324.399C371.918 324.26 372.166 324.187 372.419 324.189C372.674 324.193 372.922 324.268 373.136 324.406C373.35 324.544 373.52 324.74 373.627 324.971L376.593 332.075L381.086 321.419C381.219 321.109 381.469 320.864 381.782 320.738C382.095 320.611 382.445 320.614 382.756 320.744C382.959 320.969 383.075 321.26 383.082 321.563C383.088 321.867 382.985 322.162 382.791 322.396Z" fill="#0EA5E9"/>
<path d="M398.918 322.485C400.413 324.059 401.247 326.148 401.247 328.319C401.247 330.491 400.413 332.579 398.918 334.154C398.218 334.918 397.368 335.531 396.42 335.952C395.473 336.374 394.449 336.596 393.412 336.604C392.354 336.599 391.308 336.378 390.338 335.957C389.367 335.536 388.492 334.922 387.765 334.154C386.304 332.561 385.494 330.48 385.494 328.319C385.494 326.159 386.304 324.077 387.765 322.485C388.489 321.713 389.364 321.097 390.335 320.676C391.306 320.254 392.354 320.036 393.412 320.034C394.45 320.038 395.475 320.258 396.423 320.68C397.371 321.102 398.221 321.717 398.918 322.485ZM398.616 328.31C398.616 326.824 398.059 325.391 397.053 324.297C396.595 323.784 396.034 323.374 395.407 323.092C394.779 322.811 394.1 322.664 393.412 322.663C392.711 322.658 392.016 322.8 391.373 323.082C390.731 323.364 390.155 323.777 389.683 324.297C388.671 325.388 388.112 326.823 388.12 328.31C388.105 329.8 388.665 331.237 389.683 332.324C390.156 332.843 390.732 333.258 391.374 333.542C392.016 333.827 392.71 333.974 393.412 333.976C394.1 333.966 394.779 333.815 395.405 333.531C396.032 333.246 396.593 332.836 397.053 332.324C398.037 331.221 398.57 329.788 398.545 328.31H398.616Z" fill="#0EA5E9"/>
<path d="M416.376 334.704C416.431 334.861 416.454 335.028 416.444 335.194C416.433 335.361 416.389 335.523 416.315 335.672C416.24 335.821 416.137 335.954 416.01 336.062C415.883 336.17 415.736 336.252 415.577 336.302C415.406 336.33 415.232 336.33 415.061 336.302C414.747 336.309 414.438 336.223 414.173 336.053C413.86 335.856 413.603 335.58 413.428 335.254C413.061 334.379 412.897 333.431 412.948 332.484C412.945 332.132 412.847 331.789 412.664 331.489C412.493 331.215 412.254 330.988 411.971 330.832C411.578 330.579 411.146 330.393 410.692 330.281H407.975V335.272C407.973 335.44 407.937 335.606 407.871 335.76C407.805 335.914 407.709 336.054 407.588 336.171C407.468 336.288 407.325 336.38 407.169 336.442C407.013 336.505 406.847 336.535 406.679 336.533C406.344 336.533 406.023 336.4 405.787 336.164C405.551 335.927 405.418 335.606 405.418 335.272V321.685C405.415 321.519 405.446 321.354 405.509 321.2C405.571 321.046 405.664 320.906 405.782 320.788C405.899 320.671 406.039 320.578 406.193 320.516C406.347 320.453 406.512 320.422 406.679 320.424H410.799C411.815 320.42 412.807 320.731 413.639 321.313C414.471 321.895 415.103 322.72 415.447 323.676C415.791 324.631 415.832 325.67 415.562 326.649C415.293 327.628 414.727 328.5 413.943 329.145C414.248 329.389 414.518 329.676 414.742 329.997C415.242 330.73 415.508 331.597 415.505 332.484C415.472 332.941 415.502 333.402 415.594 333.851C415.787 333.914 415.96 334.025 416.097 334.174C416.234 334.324 416.33 334.506 416.376 334.704ZM413.126 325.433C413.128 325.12 413.068 324.809 412.949 324.519C412.83 324.229 412.655 323.966 412.434 323.745C412.212 323.523 411.949 323.348 411.659 323.229C411.369 323.111 411.059 323.051 410.746 323.053H407.922V327.795H410.746C411.374 327.795 411.977 327.547 412.422 327.104C412.868 326.662 413.121 326.061 413.126 325.433Z" fill="#0EA5E9"/>
<path d="M420.123 335.343V321.757C420.12 321.59 420.151 321.425 420.214 321.271C420.276 321.117 420.369 320.977 420.487 320.86C420.604 320.742 420.744 320.649 420.898 320.587C421.052 320.524 421.218 320.493 421.384 320.496H424.101C426.172 320.593 428.125 321.484 429.556 322.984C430.988 324.484 431.786 326.477 431.786 328.55C431.786 330.623 430.988 332.616 429.556 334.116C428.125 335.616 426.172 336.507 424.101 336.604H421.384C421.049 336.604 420.729 336.471 420.492 336.235C420.256 335.998 420.123 335.678 420.123 335.343ZM422.68 334.047H424.101C425.505 333.967 426.825 333.353 427.791 332.331C428.756 331.309 429.294 329.956 429.294 328.55C429.294 327.144 428.756 325.791 427.791 324.769C426.825 323.747 425.505 323.133 424.101 323.053H422.68V334.047Z" fill="#0EA5E9"/>
<path d="M695.619 124.957C695.619 124.957 682.068 233.4 659.797 257.803C633.157 287.072 613.621 282.791 602.965 297.888C592.166 282.774 572.772 287.072 546.132 257.785C523.861 233.383 510.345 124.939 510.345 124.939C568.954 96.523 603.053 64.5547 603.053 64.5547C603.941 65.567 637.863 96.9315 695.619 124.957Z" fill="#37474F"/>
<path d="M602.893 64.5902V297.888C592.095 282.774 572.701 287.072 546.061 257.785C523.79 233.383 510.274 124.939 510.274 124.939C568.883 96.523 602.982 64.5547 602.982 64.5547L602.893 64.5902Z" fill="#455A64"/>
<path d="M681.305 133.694C681.305 133.694 669.867 225.301 651.112 245.921C628.504 270.678 612.04 267.038 603 279.789C593.889 267.038 577.497 270.678 554.888 245.921C536.098 225.301 524.696 133.694 524.696 133.694C574.246 109.629 603.018 82.6694 603.018 82.6694C603.018 82.6694 631.665 109.629 681.305 133.694Z" fill="#455A64"/>
<path d="M524.572 133.695C524.572 133.695 536.009 225.284 554.764 245.921C577.337 270.661 593.712 267.056 602.841 279.772V82.6343C602.024 83.6111 573.359 110.003 524.572 133.695Z" fill="#37474F"/>
<path d="M628.585 206.917C642.769 192.733 642.769 169.737 628.585 155.554C614.402 141.37 591.405 141.37 577.222 155.554C563.038 169.737 563.038 192.733 577.222 206.917C591.405 221.101 614.402 221.101 628.585 206.917Z" fill="#0EA5E9"/>
<path d="M598.756 204.824L582.576 188.006L588.579 182.234L597.495 191.504L616.711 162.022L623.691 166.569L598.756 204.824Z" fill="white"/>
<path d="M67.4602 385.675H192.065V359.87H67.4602V385.675Z" fill="#C7C7C7"/>
<path d="M158.623 385.463L162.104 418.443L205.19 727.186H217.498L183.505 418.443L180.752 385.463H158.623Z" fill="#C7C7C7"/>
<path d="M41.9923 727.186H54.3178L97.404 418.443L100.885 385.463H78.7558L76.003 418.443L41.9923 727.186Z" fill="#C7C7C7"/>
<path d="M62.789 626.326H200.235V618.582H62.789V626.326Z" fill="#C7C7C7"/>
<path d="M183.505 417.289H162.104L158.623 385.463H180.752L183.505 417.289Z" fill="#A6A6A6"/>
<path d="M76.003 417.289H97.404L100.885 385.463H78.7558L76.003 417.289Z" fill="#A6A6A6"/>
<path d="M84.0835 235.851C89.4116 238.586 90.3351 248.017 106.923 247.502C109.285 247.502 111.221 246.489 113.388 247.289C116.567 248.443 119.071 250.983 121.895 252.83C124.166 254.356 126.752 255.352 129.461 255.742C134.658 256.357 139.907 255.145 144.308 252.315C147.026 250.645 149.299 248.336 151.927 246.525C154.556 244.713 170.416 240.877 173.097 231.962C174.873 226.296 174.536 219.849 167.769 211.573C166.211 210.097 165.15 208.173 164.732 206.067C164.737 204.222 165.156 202.401 165.958 200.739C166.888 198.853 167.229 196.73 166.935 194.647C166.18 192.656 164.962 190.873 163.383 189.444C160.896 186.442 161.358 182.109 163.383 176.781C164.185 174.52 164.459 172.105 164.182 169.722C163.905 167.339 163.084 165.051 161.784 163.034C160.154 160.724 158.232 158.635 156.065 156.818C153.028 153.941 152.513 151.277 151.146 147.21C148.571 139.396 144.539 135.897 139.797 133.482C135.517 131.333 135.659 132.15 131.077 132.842C126.434 130.009 120.969 128.832 115.572 129.503C110.564 130.143 106.426 133.499 102.643 136.714C99.2685 139.591 96.1782 142.681 96.0006 147.53C95.8941 150.318 96.5689 153.089 96.4446 155.877C96.267 159.429 94.2956 161.685 91.9335 163.922C88.4114 166.918 85.9818 170.996 85.0248 175.52C84.4032 179.303 88.1329 185.181 83.7639 190.776C79.9277 195.713 73.1078 201.432 71.3318 207.612C65.9149 226.918 79.0574 233.223 84.0835 235.851Z" fill="#263238"/>
<path d="M148.322 246.258C155.941 245.103 167.645 246.542 171.694 238.052C173.297 236.746 174.566 235.078 175.397 233.185C176.227 231.292 176.596 229.229 176.472 227.165C175.949 222.758 173.908 218.67 170.7 215.604C168.839 213.851 167.215 211.863 165.869 209.689C165.439 207.996 165.125 206.275 164.928 204.539C165.242 202.317 165.839 200.145 166.704 198.074C165.034 201.626 163.489 205.462 165.034 209.37C165.261 209.927 165.528 210.467 165.834 210.986C166.389 213.041 167.15 215.034 168.107 216.936C170.611 221.908 172.902 226.402 172.565 232.209C172.506 234.149 172.04 236.055 171.197 237.804C167.901 240.694 163.784 242.483 159.422 242.919C159.316 242.919 159.316 243.114 159.422 243.096C163.367 242.697 167.151 241.324 170.433 239.1C166.011 245.441 155.728 244.57 148.287 246.044C148.091 246.044 148.162 246.275 148.322 246.258ZM172.281 236.614V236.454C173.599 231.748 173.261 226.732 171.321 222.246C170.114 219.28 168.302 216.616 167.112 213.632C166.917 213.117 166.722 212.602 166.544 212.069C168.32 214.396 170.558 216.332 172.227 218.605C175.779 223.542 176.916 229.421 173.524 234.767C173.157 235.413 172.741 236.03 172.281 236.614Z" fill="#263238"/>
<path d="M155.071 155.664C157.914 158.134 160.623 160.754 163.187 163.514C164.976 165.324 166.048 167.722 166.206 170.262C166.272 172.822 165.464 175.328 163.915 177.367C163.347 178.219 162.761 179.143 162.246 179.977C162.124 181.631 162.385 183.29 163.009 184.826C164.253 187.756 167.005 189.568 168.337 192.534C170.398 197.329 168.106 201.272 166.082 205.552C167.556 202 169.634 198.572 168.462 194.594C167.538 191.344 165.158 189.586 163.365 186.939C162.273 185.258 161.659 183.312 161.589 181.309C159.99 184.542 159.44 187.952 162.263 191.344C162.388 191.504 162.263 191.717 162.05 191.575C158.498 188.023 159.422 183.565 161.606 179.746C161.741 177.491 162.239 175.272 163.08 173.175C163.08 172.962 163.489 173.175 163.453 173.335C163.134 175.004 162.707 176.674 162.477 178.326L162.849 177.775C165.691 173.708 166.81 168.895 163.542 164.633C161.091 161.382 157.752 158.825 155.017 155.752C154.893 155.717 155 155.593 155.071 155.664Z" fill="#263238"/>
<path d="M176.436 491.011C176.436 491.011 144.628 561.661 144.593 561.714C138.448 575.194 133.279 587.111 131.201 593.54C131.188 593.574 131.188 593.612 131.201 593.647C130.545 595.095 130.235 596.676 130.296 598.264C130.296 598.264 130.296 598.353 130.296 598.371C133.066 602.935 239.343 655.203 243.676 655.825C248.01 656.447 249.981 644.139 247.477 638.811C244.973 633.483 213.218 595.263 213.218 595.263L244.405 524.329L176.436 491.011Z" fill="#EB9481"/>
<path d="M151.128 547.151C151.128 547.151 144.628 561.607 144.592 561.661C138.447 575.141 133.279 587.058 131.201 593.487C131.187 593.521 131.187 593.559 131.201 593.593C130.713 595.09 130.409 596.641 130.295 598.211C130.295 598.211 130.295 598.3 130.295 598.318C133.066 602.882 239.343 655.15 243.676 655.772C248.01 656.393 249.981 644.086 247.477 638.757C244.973 633.429 213.218 595.21 213.218 595.21L220.055 580.575L151.128 547.151Z" fill="#EBEBEB"/>
<path d="M243.641 655.683C239.307 655.115 132.995 602.9 130.207 598.335C129.123 596.559 135.819 580.682 144.415 561.661L144.681 561.057L213.662 593.984L213.058 595.139C213.058 595.139 244.831 633.341 247.353 638.669C249.875 643.997 247.956 656.269 243.641 655.683Z" fill="#263238"/>
<path d="M247.14 652.664C248.685 654.333 245.133 660.532 243.588 660.372C242.043 660.212 126.371 602.758 124.595 601.337C122.819 599.916 127.028 593.221 129.497 593.984C131.965 594.748 247.14 652.664 247.14 652.664Z" fill="#0EA5E9"/>
<path d="M218.794 598.176C212.383 593.399 203.236 590.237 195.368 592.617C195.066 592.617 195.209 593.15 195.475 593.185C203.283 594.318 210.947 596.289 218.332 599.064C218.444 599.092 218.562 599.081 218.668 599.033C218.773 598.985 218.859 598.904 218.912 598.801C218.965 598.699 218.983 598.582 218.961 598.468C218.94 598.355 218.881 598.252 218.794 598.176Z" fill="white"/>
<path d="M222.382 603.753C215.971 598.958 206.824 595.814 198.956 598.194C198.655 598.283 198.797 598.709 199.063 598.762C206.871 599.888 214.534 601.853 221.92 604.623C222.033 604.664 222.157 604.663 222.269 604.62C222.381 604.577 222.474 604.495 222.53 604.389C222.587 604.283 222.603 604.16 222.575 604.043C222.548 603.926 222.479 603.823 222.382 603.753Z" fill="white"/>
<path d="M225.969 609.312C219.558 604.534 210.393 601.373 202.543 603.753C202.242 603.859 202.366 604.285 202.543 604.321C210.358 605.451 218.028 607.422 225.419 610.2C225.536 610.273 225.678 610.296 225.813 610.264C225.948 610.233 226.065 610.149 226.138 610.031C226.211 609.913 226.234 609.771 226.202 609.636C226.171 609.501 226.087 609.385 225.969 609.312Z" fill="white"/>
<path d="M156.474 581.588C150.648 573.951 138.714 582.973 144.592 590.628C150.471 598.282 162.299 589.242 156.474 581.588Z" fill="white"/>
<path d="M195.191 429.597C194.481 450.146 154.876 538.893 154.876 538.893L224.336 570.861C224.336 570.861 280.404 472.168 275.201 426.702C270.761 388.127 173.701 316.785 158.126 296.68C155.817 293.696 156.598 281.69 156.598 281.69H93.5853V296.733C117.65 347.812 189.632 409.084 194.96 427.075C195.17 427.898 195.248 428.749 195.191 429.597Z" fill="#37474F"/>
<path d="M223.945 556.031C212.507 550.543 215.864 551.946 204.409 546.6C198.779 543.989 170.54 530.758 164.857 529.284C164.826 529.27 164.791 529.268 164.759 529.28C164.728 529.292 164.702 529.315 164.688 529.346C164.674 529.377 164.672 529.412 164.684 529.443C164.696 529.475 164.719 529.501 164.75 529.515C169.616 532.818 198.157 545.375 203.822 547.879C215.42 552.994 212.152 551.431 223.803 556.368C223.998 556.475 224.158 556.12 223.945 556.031Z" fill="#263238"/>
<path d="M109.427 307.478C128.447 336.467 149.712 363.92 173.026 389.583C178.745 395.817 184.624 401.873 190.502 407.947C195.475 413.08 200.555 418.781 201.78 426.08C203.165 434.214 200.004 442.313 197.464 449.897C194.676 458.244 191.87 466.573 188.904 474.867C185.707 483.747 172.636 516.053 170.487 520.404C169.403 522.571 187.785 476.004 190.769 467.408C193.753 458.812 196.772 450.27 199.311 441.567C200.783 437.136 201.386 432.462 201.087 427.803C200.511 423.31 198.717 419.061 195.902 415.513C190.787 408.693 184.144 402.903 178.337 396.687C166.295 383.793 154.816 370.402 143.9 356.514C131.476 340.826 119.881 324.5 109.161 307.602C109.153 307.585 109.148 307.566 109.147 307.547C109.146 307.527 109.149 307.508 109.156 307.49C109.163 307.472 109.173 307.455 109.186 307.441C109.199 307.427 109.214 307.415 109.232 307.407C109.249 307.399 109.268 307.394 109.288 307.393C109.307 307.392 109.326 307.395 109.344 307.402C109.362 307.409 109.379 307.419 109.393 307.432C109.408 307.445 109.419 307.46 109.427 307.478Z" fill="#263238"/>
<path d="M72.131 645.045C72.131 645.045 69.0408 722.497 69.023 722.55C69.3782 737.362 69.9465 750.345 70.799 757.023C70.7917 757.064 70.7917 757.106 70.799 757.147C70.8811 758.746 71.3374 760.303 72.131 761.694V761.782C76.6066 764.66 195.067 765.334 199.205 763.967C203.343 762.599 199.773 750.682 195.209 746.988C190.645 743.294 145.356 722.763 145.356 722.763L147.718 645.365L72.131 645.045Z" fill="#EB9481"/>
<path d="M69.5913 707.223C69.5913 707.223 68.9874 722.496 68.9697 722.55C69.3249 737.362 69.8932 750.344 70.7457 757.022C70.7384 757.063 70.7384 757.105 70.7457 757.146C71.0296 758.711 71.4945 760.236 72.131 761.693V761.782C76.6065 764.659 195.067 765.334 199.205 763.966C203.343 762.599 199.773 750.682 195.209 746.988C190.645 743.294 145.356 722.763 145.356 722.763L145.836 707.098L69.5913 707.223Z" fill="#EBEBEB"/>
<path d="M199.116 763.825C194.978 765.192 76.571 764.642 72.0244 761.765C70.2484 760.699 69.3781 743.436 68.8631 722.533V721.875L145.232 721.378V722.675C145.232 722.675 190.485 743.17 195.102 746.864C199.72 750.558 203.272 762.475 199.116 763.825Z" fill="#263238"/>
<path d="M200.945 759.598C203.059 760.433 202.579 767.555 201.034 768.105C199.489 768.656 70.3551 767.501 68.1528 767.004C65.9505 766.507 66.803 758.621 69.3605 758.23C71.918 757.84 200.945 759.598 200.945 759.598Z" fill="#0EA5E9"/>
<path d="M151.661 722.976C143.811 721.467 134.185 722.639 128.164 728.198C127.934 728.411 128.164 728.749 128.484 728.66C135.991 726.279 143.731 724.707 151.572 723.971C151.704 723.983 151.835 723.942 151.937 723.857C152.039 723.772 152.102 723.65 152.114 723.518C152.126 723.386 152.085 723.255 152 723.154C151.915 723.052 151.793 722.988 151.661 722.976Z" fill="white"/>
<path d="M157.38 726.404C149.53 724.895 139.921 726.067 133.883 731.626C133.652 731.839 133.883 732.176 134.22 732.087C141.727 729.703 149.467 728.131 157.308 727.399C157.44 727.408 157.571 727.365 157.671 727.278C157.77 727.192 157.832 727.069 157.841 726.937C157.851 726.805 157.807 726.675 157.721 726.575C157.634 726.475 157.511 726.414 157.38 726.404Z" fill="white"/>
<path d="M162.974 729.85C155.124 728.34 145.498 729.495 139.477 735.071C139.229 735.284 139.477 735.622 139.797 735.533C147.303 733.149 155.044 731.577 162.885 730.844C163.017 730.856 163.148 730.815 163.25 730.73C163.352 730.645 163.415 730.523 163.427 730.391C163.439 730.26 163.398 730.128 163.313 730.027C163.228 729.925 163.106 729.862 162.974 729.85Z" fill="white"/>
<path d="M88.3456 735.249C79.7674 730.915 73.0186 744.235 81.5967 748.569C90.1749 752.902 96.9948 739.6 88.3456 735.249Z" fill="white"/>
<path d="M147.434 697.863L69.9997 698.502C69.9997 698.502 82.8936 382.247 74.2621 371.911C53.7314 347.349 56.9993 314.599 70.8344 281.707H141.396C141.396 281.707 138.003 331.649 138.341 333.105C160.044 427.767 147.434 697.863 147.434 697.863Z" fill="#37474F"/>
<path d="M143.172 682.004C126.282 680.69 81.7925 682.128 76.1803 682.981C76.1542 682.994 76.1323 683.015 76.117 683.04C76.1017 683.065 76.0937 683.093 76.0937 683.123C76.0937 683.152 76.1017 683.181 76.117 683.206C76.1323 683.231 76.1542 683.251 76.1803 683.265C81.7392 684.384 132.746 682.785 143.154 682.377C143.194 682.367 143.23 682.343 143.257 682.311C143.283 682.279 143.298 682.239 143.3 682.197C143.302 682.155 143.291 682.114 143.268 682.079C143.245 682.045 143.211 682.018 143.172 682.004Z" fill="#263238"/>
<path d="M143.065 301.12C142.355 310 142.71 325.309 137.542 325.54C132.374 325.771 133.279 307.123 133.137 302.825C132.995 298.935 131.663 299.468 131.521 304.05C131.13 316.482 131.521 327.476 138.057 326.961C144.593 326.446 144.61 307.176 144.451 302.771C144.362 300.498 143.278 298.296 143.065 301.12Z" fill="#263238"/>
<path d="M137.844 326.126C137.522 329.265 137.588 332.433 138.039 335.556C138.128 335.805 139.122 335.556 139.229 335.396C139.833 334.1 139.353 327.99 139.513 326.339C139.541 326.117 139.48 325.894 139.344 325.717C139.276 325.63 139.192 325.557 139.096 325.502C139 325.447 138.894 325.411 138.785 325.397C138.563 325.369 138.34 325.43 138.163 325.567C137.987 325.703 137.872 325.904 137.844 326.126Z" fill="#263238"/>
<path d="M140.064 337.137C142.266 344.952 144.522 359.906 143.989 363.777C143.989 364.133 143.42 364.257 143.349 363.884C142.639 359.693 139.513 339.535 139.194 337.421C138.874 335.308 139.442 334.953 140.064 337.137Z" fill="#263238"/>
<path d="M126.477 343.299C127.508 342.29 128.612 341.358 129.78 340.511C130.935 339.605 132.089 338.735 133.332 337.865C135.783 336.089 138.305 334.561 140.88 333.034C143.456 331.507 145.978 330.175 148.606 328.843C151.235 327.511 154.254 326.409 156.989 325.042C157.149 324.953 157.291 325.184 157.131 325.273C154.538 326.711 152.123 328.505 149.601 330.086C147.079 331.666 144.557 333.3 142.017 334.881C139.477 336.462 137.08 338.007 134.593 339.534C133.303 340.339 131.988 341.121 130.651 341.879C129.453 342.65 128.207 343.344 126.921 343.956C126.495 344.116 126.246 343.566 126.477 343.299Z" fill="#263238"/>
<path d="M81.6687 533.316C82.7875 507.972 84.5636 479.663 84.9898 454.354C85.1911 441.674 85.2858 428.987 85.274 416.294C85.274 403.702 85.274 386.884 84.7056 374.309C84.3682 367.916 73.1083 362.978 70.8172 344.366C69.2299 333.766 70.0741 322.943 73.2859 312.717C74.0848 310.231 75.0277 307.794 76.1097 305.418C76.1097 305.258 76.4116 305.418 76.3406 305.56C71.8337 316.011 69.9615 327.409 70.8882 338.754C71.2157 344.473 72.4135 350.108 74.4403 355.466C77.4595 362.978 84.901 369.07 85.2917 373.066C85.8778 379.016 85.9666 384.166 86.0377 390.151C86.1087 396.137 86.1797 402.584 86.2153 408.8C86.2863 421.492 86.2508 434.179 86.1087 446.86C85.8245 472.115 85.1615 497.358 84.1196 522.589C83.0539 547.826 76.5182 674.19 76.092 677.102C76.092 677.422 75.5236 677.351 75.5414 677.102C76.3228 664.368 80.532 558.66 81.6687 533.316Z" fill="#263238"/>
<path d="M123.494 223.419C140.295 258.086 161.625 295.631 181.587 301.563C200.59 307.158 237.425 260.502 249.076 248.283C253.232 243.843 219.47 218.446 214.23 222.3C204.356 229.564 186.613 249.348 183.63 248.656C180.646 247.963 155.728 224.271 133.28 204.38C119.675 192.321 111.861 199.389 123.494 223.419Z" fill="#EB9481"/>
<path d="M278.291 226.278C282.909 224.342 318.464 223.205 318.464 215.498C318.464 207.79 273.194 209.956 273.194 209.956L278.291 226.278Z" fill="#EB9481"/>
<path d="M210.092 227.184C216.308 219.458 221.778 211.2 227.177 209.601C230.925 208.536 271.169 210.276 277.474 209.903C283.779 209.53 306.192 210.099 306.725 215.604C307.453 223.401 280.884 223.33 278.06 227.326C268.274 241.072 231.067 261.425 231.067 261.425L210.092 227.184Z" fill="#EB9481"/>
<path d="M307.311 215.728C306.922 214.266 306.004 213.001 304.735 212.176C301.983 210.258 298.36 210.081 295.127 209.832C290.226 209.374 285.295 209.332 280.386 209.708C280.363 209.708 280.34 209.717 280.323 209.734C280.307 209.75 280.297 209.773 280.297 209.797C280.297 209.82 280.307 209.843 280.323 209.859C280.34 209.876 280.363 209.885 280.386 209.885C284.063 209.885 287.739 209.974 291.415 210.276C294.783 210.417 298.124 210.929 301.379 211.803C302.85 212.195 304.18 212.995 305.215 214.112C305.582 214.502 305.844 214.979 305.977 215.497C306.111 216.016 306.111 216.559 305.979 217.078C304.895 220.47 298.2 221.483 295.109 222.175C291.078 223.081 286.886 223.951 282.819 224.697C282.642 224.697 282.819 225.017 282.908 224.981C287.117 224.147 291.575 223.809 295.802 223.046C299.23 222.424 302.906 221.731 305.677 219.494C306.273 219.081 306.742 218.509 307.031 217.844C307.319 217.179 307.416 216.446 307.311 215.728Z" fill="#263238"/>
<path d="M244.726 198.94L245.897 192.944L315.864 206.608C316.498 206.732 317.056 207.102 317.416 207.637C317.777 208.172 317.91 208.829 317.786 209.462L317.548 210.682C317.424 211.316 317.054 211.874 316.519 212.234C315.983 212.595 315.327 212.728 314.694 212.604L244.726 198.94Z" fill="#0EA5E9"/>
<path opacity="0.1" d="M245.889 192.956L244.718 198.952L253.155 200.6L254.326 194.603L245.889 192.956Z" fill="black"/>
<path d="M219.132 185.323L217.072 195.979C216.365 199.583 217.119 203.319 219.167 206.367C221.216 209.414 224.391 211.523 227.994 212.23C231.597 212.936 235.334 212.183 238.381 210.134C241.429 208.086 243.538 204.911 244.245 201.307L246.323 190.651C246.672 188.866 246.667 187.029 246.307 185.246C245.947 183.462 245.239 181.767 244.224 180.258C243.209 178.748 241.907 177.453 240.391 176.446C238.876 175.44 237.177 174.742 235.391 174.392C233.606 174.042 231.769 174.047 229.986 174.407C228.202 174.767 226.507 175.475 224.997 176.49C221.948 178.54 219.838 181.718 219.132 185.323ZM241.971 187.969C241.598 189.546 240.746 190.969 239.531 192.041C238.316 193.113 236.798 193.781 235.187 193.955C236.607 194.731 237.756 195.923 238.479 197.37C239.203 198.818 239.467 200.452 239.236 202.053C238.402 206.28 233.748 208.944 228.829 207.985C223.909 207.026 220.588 202.799 221.405 198.59C221.786 197.014 222.644 195.594 223.861 194.523C225.078 193.452 226.596 192.782 228.207 192.605C226.78 191.836 225.626 190.646 224.901 189.196C224.176 187.747 223.917 186.109 224.158 184.506C224.993 180.262 229.646 177.633 234.565 178.592C239.485 179.551 242.806 183.743 241.971 187.969Z" fill="#0EA5E9"/>
<path d="M246.417 190.243L244.188 201.66C244.069 202.267 244.465 202.854 245.072 202.973L245.629 203.082C246.236 203.2 246.824 202.804 246.942 202.198L249.172 190.781C249.29 190.174 248.894 189.587 248.288 189.468L247.73 189.359C247.124 189.241 246.536 189.636 246.417 190.243Z" fill="#0EA5E9"/>
<path d="M249.173 190.786L246.944 202.204C246.825 202.81 247.221 203.398 247.827 203.516L248.385 203.625C248.992 203.744 249.579 203.348 249.698 202.741L251.927 191.324C252.046 190.718 251.65 190.13 251.044 190.012L250.486 189.903C249.879 189.784 249.292 190.18 249.173 190.786Z" fill="#0EA5E9"/>
<path d="M299.106 200.775L301.184 201.183L302.356 195.127L304.15 195.482L303.528 198.643L305.606 199.052L306.228 195.891L307.791 196.193L306.832 201.183L308.909 201.592L309.886 196.601L312.124 197.045L310.828 203.705L312.906 204.114L314.202 197.454L316.315 197.862L314.664 206.369L296.051 202.746L297.703 194.221L300.278 194.736L299.106 200.775Z" fill="#0EA5E9"/>
<path d="M60.6936 292.4L159.831 294.033L152.052 264.338C154.638 260.612 156.377 256.364 157.148 251.894C157.918 247.424 157.7 242.839 156.51 238.462C154.13 229.724 142.852 216.635 135.926 208.27C119.089 188.023 104.455 197.17 99.7837 202.373C81.9703 222.318 60.6936 292.4 60.6936 292.4Z" fill="#0EA5E9"/>
<path d="M109.516 213.917V208.27L113.264 212.461L117.313 211.2L115.342 214.752L117.242 216.741L114.294 217.043V220.879L111.061 218.18L108.433 220.364L108.735 217.132L104.899 215.356L109.516 213.917ZM151.75 277.374L148.624 280.234L145.747 278.706L146.759 281.992L143.03 283.928L146.582 285.455L145.712 288.297L148.305 287.302L150.862 290.535L151.253 286.308L156.581 284.532L151.395 282.276L151.75 277.374ZM115.502 256.293L118.539 262.331L121.54 256.559L127.259 257.554L124.222 251.48L128.466 247.431L122.446 247.644L121.238 241.747L118.077 247.857L110.049 247.235L114.773 252.119L110.404 255.476L115.502 256.293ZM139.14 221.394L140.597 218.943L137.862 219.192L136.92 216.936L135.446 219.387L133.049 218.801L134.487 220.897L132.711 222.673L135.606 222.407L137.204 225.39L137.862 222.62L140.028 223.401L139.14 221.394ZM92.6442 286.077L94.1006 283.644L91.3832 283.875L90.4242 281.619L88.9679 284.088L86.5702 283.484L88.0088 285.579L86.2328 287.356L89.1277 287.107L90.7261 290.091L91.3832 287.302L93.5677 288.101L92.6442 286.077ZM108.948 242.049L110.404 239.616L107.669 239.847L106.728 237.592L105.272 240.06L102.856 239.456L104.295 241.552L102.519 243.328L105.414 243.079L107.012 246.045L107.669 243.275L109.854 244.056L108.948 242.049ZM91.2944 248.656L90.7972 247.058L89.8381 248.354L88.4706 247.875L88.9679 249.491L87.7779 250.308L89.252 250.503V251.995L90.2644 250.61L92.2002 251.089L91.2412 249.704L92.4489 249.047L91.2944 248.656ZM137.311 286.752L136.814 285.153L135.837 286.45L134.487 285.988L134.984 287.586L133.777 288.421L135.269 288.599V290.091L136.281 288.723L138.217 289.185L137.258 287.8L138.465 287.16L137.311 286.752ZM151.075 240.327L152.336 239.208L150.755 238.87L150.613 237.432L149.352 238.551L148.109 237.805L148.553 239.225L147.221 239.9L148.891 240.256L149.264 242.227L150.134 240.771L151.217 241.605L151.075 240.327ZM126.211 270.324L127.454 269.205L125.873 268.867L125.731 267.429L124.488 268.548L123.227 267.802L123.671 269.222L122.339 269.897L124.009 270.252L124.382 272.224L125.252 270.768L126.335 271.602L126.211 270.324ZM75.0261 279.736L76.2694 278.618L74.6887 278.262L74.5644 276.824L73.3034 277.96L72.1312 277.197L72.5575 278.635L71.2255 279.292L72.8949 279.665L73.2856 281.619L74.1381 280.18L75.2215 281.015L75.0261 279.736Z" fill="white"/>
<path d="M125.536 262.597C129.775 262.207 134.038 262.136 138.288 262.384C140.401 262.526 142.497 262.775 144.592 263.077C145.623 263.219 146.67 263.326 147.718 263.432C148.815 263.565 149.924 263.565 151.022 263.432C151.022 263.432 151.146 263.556 151.022 263.592C150.008 263.82 148.982 263.986 147.949 264.089C146.938 264.151 145.923 264.151 144.912 264.089C142.781 263.947 140.632 263.716 138.501 263.574C134.185 263.255 129.869 262.953 125.536 262.953C125.411 262.988 125.411 262.615 125.536 262.597Z" fill="#263238"/>
<path d="M115.91 268.157C119.279 267.175 122.7 266.381 126.157 265.777C127.933 265.493 129.709 265.297 131.379 265.155L133.883 264.978C134.807 264.978 135.659 264.978 136.654 264.978C136.76 264.978 136.778 265.12 136.654 265.137C135.783 265.226 134.878 265.457 134.061 265.581L131.468 265.99L126.282 266.807C122.824 267.304 119.367 267.861 115.91 268.476C115.768 268.476 115.732 268.21 115.91 268.157Z" fill="#263238"/>
<path d="M109.427 201.254C109.853 203.03 118.307 214.485 126.388 214.094C129.017 213.952 128.946 199.566 128.946 199.566L129.176 198.501L132.515 183.6L115.039 172.411L112.517 170.937C112.517 170.937 111.878 175.075 111.132 180.226C111.132 180.474 111.132 180.705 111.132 180.954C111.132 181.202 111.026 181.522 110.99 181.806C110.866 182.57 110.741 183.351 110.653 184.133C110.564 184.914 110.493 185.323 110.422 185.909L110.209 187.791C109.647 192.256 109.386 196.754 109.427 201.254Z" fill="#EB9481"/>
<path d="M111.203 180.208C112.719 184.386 115.123 188.186 118.251 191.344C121.379 194.503 125.155 196.944 129.318 198.501L132.515 183.6L115.039 172.411L112.517 170.937C112.517 170.937 111.878 175.057 111.203 180.208Z" fill="#263238"/>
<path d="M153.526 159.287C158.73 185.572 143.563 191.646 137.897 192.764C132.765 193.777 115.111 196.547 107.225 170.955C99.3399 145.363 109.925 134.635 121.576 131.705C133.226 128.775 148.34 133.019 153.526 159.287Z" fill="#EB9481"/>
<path d="M145.853 155.273C145.267 155.406 144.674 155.506 144.077 155.574C143.454 155.779 142.782 155.779 142.159 155.574C141.979 155.466 141.84 155.301 141.763 155.105C141.686 154.909 141.675 154.693 141.733 154.491C141.909 154.108 142.185 153.779 142.532 153.538C142.879 153.298 143.283 153.155 143.704 153.124C144.543 152.928 145.424 153.055 146.173 153.479C146.327 153.59 146.446 153.743 146.517 153.919C146.588 154.096 146.609 154.289 146.575 154.476C146.542 154.663 146.456 154.837 146.329 154.978C146.201 155.119 146.036 155.221 145.853 155.273Z" fill="#263238"/>
<path d="M127.187 160.654C127.786 160.563 128.378 160.438 128.963 160.281C129.62 160.243 130.245 159.987 130.739 159.553C130.873 159.391 130.947 159.186 130.947 158.976C130.947 158.765 130.873 158.561 130.739 158.399C130.44 158.1 130.066 157.889 129.655 157.789C129.245 157.689 128.815 157.703 128.413 157.83C127.557 157.94 126.776 158.372 126.228 159.038C126.105 159.198 126.033 159.392 126.021 159.594C126.009 159.796 126.058 159.996 126.161 160.17C126.264 160.344 126.417 160.483 126.6 160.569C126.783 160.656 126.987 160.685 127.187 160.654Z" fill="#263238"/>
<path d="M131.13 164.029C131.13 164.029 131.006 164.029 131.024 164.206C131.344 165.982 131.415 168.114 129.887 168.948C129.887 168.948 129.887 169.073 129.887 169.055C131.859 168.469 131.734 165.663 131.13 164.029Z" fill="#263238"/>
<path d="M129.248 162.377C126.318 162.59 126.957 168.451 129.674 168.238C132.392 168.025 131.699 162.199 129.248 162.377Z" fill="#263238"/>
<path d="M128.129 162.821C127.649 163.194 127.223 163.833 126.602 163.975C125.98 164.117 125.305 163.567 124.826 163.034C124.932 164.153 125.483 165.254 126.708 165.289C127.934 165.325 128.484 164.242 128.644 163.087C128.537 162.945 128.324 162.661 128.129 162.821Z" fill="#263238"/>
<path d="M142.266 162.324C142.266 162.324 142.408 162.324 142.408 162.466C142.55 164.242 142.994 166.356 144.699 166.782V166.889C142.657 166.818 142.088 164.065 142.266 162.324Z" fill="#263238"/>
<path d="M143.687 160.264C146.582 159.749 147.399 165.592 144.717 166.053C142.035 166.515 141.254 160.708 143.687 160.264Z" fill="#263238"/>
<path d="M144.948 160.477C145.463 160.726 145.996 161.223 146.546 161.17C147.097 161.116 147.576 160.424 147.896 159.767C147.896 159.767 147.896 159.767 148.002 159.767C148.18 160.868 148.002 162.093 146.937 162.448C145.871 162.804 145.161 161.933 144.717 160.85C144.646 160.708 144.752 160.37 144.948 160.477Z" fill="#263238"/>
<path d="M134.434 179.338C134.895 179.747 135.375 180.297 136.032 180.315C136.711 180.253 137.369 180.054 137.968 179.729C137.968 179.729 138.075 179.729 137.968 179.729C137.732 180.102 137.4 180.405 137.006 180.605C136.612 180.805 136.171 180.895 135.73 180.865C135.391 180.792 135.077 180.627 134.824 180.39C134.571 180.152 134.387 179.85 134.292 179.516C134.292 179.516 134.292 179.285 134.434 179.338Z" fill="#263238"/>
<path d="M141.2 171.879C141.2 171.879 141.911 174.526 142.07 175.804C142.07 175.929 141.786 176.017 141.342 176.106C140.269 176.438 139.126 176.47 138.036 176.197C136.947 175.925 135.952 175.359 135.162 174.561C135.162 174.454 135.162 174.295 135.339 174.366C137.103 175.28 139.116 175.598 141.076 175.271C141.076 174.916 139.708 170.76 139.904 170.725C140.907 170.692 141.911 170.794 142.887 171.027C141.591 165.45 139.335 160.122 138.181 154.545C138.181 154.35 138.43 154.243 138.501 154.421C141.027 160.054 142.978 165.926 144.326 171.95C144.486 172.661 141.751 172.021 141.2 171.879Z" fill="#263238"/>
<path d="M141.165 175.643C140.585 176.773 139.722 177.734 138.66 178.431C138.071 178.798 137.382 178.972 136.689 178.929C135.197 178.804 134.913 177.49 134.913 176.318C134.959 175.715 135.072 175.12 135.25 174.542C137.052 175.536 139.126 175.922 141.165 175.643Z" fill="#263238"/>
<path d="M138.66 178.432C138.071 178.799 137.382 178.973 136.689 178.93C135.197 178.805 134.913 177.491 134.913 176.319C135.685 176.19 136.478 176.33 137.16 176.715C137.841 177.099 138.371 177.705 138.66 178.432Z" fill="#FF9ABB"/>
<path d="M110.156 173.264C115.182 173.264 114.844 161.72 114.844 161.72C114.844 161.72 135.375 155.166 134.736 137.815C138.375 144.399 144.411 149.329 151.59 151.579C151.59 151.579 148.198 132.931 132.8 131.386C132.8 131.386 113.388 127.283 105.076 143.409C96.7645 159.535 106.781 173.317 110.156 173.264Z" fill="#263238"/>
<path d="M134.629 136.536C135.242 139.141 135.296 141.847 134.789 144.474C134.328 147.148 133.311 149.695 131.805 151.951C131.432 152.516 131.023 153.056 130.58 153.568L129.958 154.367C129.727 154.615 129.478 154.846 129.23 155.077C128.981 155.308 128.271 156.019 127.774 156.463L126.14 157.67C125.873 157.866 125.607 158.061 125.323 158.239L124.452 158.736L122.676 159.713C121.469 160.245 120.225 160.707 118.982 161.151C120.119 160.459 121.291 159.89 122.392 159.198L124.026 158.096L124.825 157.546C125.092 157.351 125.323 157.137 125.571 156.924L127.045 155.681C127.525 155.237 127.951 154.758 128.395 154.296L129.07 153.603L129.656 152.839C130.06 152.348 130.434 151.832 130.775 151.294C132.216 149.125 133.268 146.721 133.883 144.19C134.201 142.936 134.421 141.66 134.54 140.372C134.672 139.097 134.701 137.815 134.629 136.536Z" fill="#263238"/>
<path d="M102.323 157.475L101.08 159.997L109.392 166.071L112.056 160.406L102.323 157.475ZM108.806 163.478L103.069 159.748L103.336 159.162L109.782 161.489L108.806 163.478Z" fill="#0EA5E9"/>
<path d="M102.678 153.017L102.483 155.823L112.482 158.327L112.819 152.058L102.678 153.017ZM110.954 156.125L104.223 154.846V154.189L111.079 153.923L110.954 156.125Z" fill="#0EA5E9"/>
<path d="M114.009 171.009C114.009 171.009 107.278 163.319 103.744 165.805C100.21 168.291 105.875 179.871 110.475 181.025C111.055 181.219 111.669 181.292 112.278 181.241C112.888 181.19 113.48 181.015 114.02 180.728C114.56 180.44 115.036 180.046 115.419 179.569C115.802 179.092 116.083 178.542 116.247 177.953L114.009 171.009Z" fill="#EB9481"/>
<path d="M105.449 169.09C105.449 169.09 105.449 169.179 105.449 169.197C106.948 169.752 108.314 170.616 109.458 171.733C110.602 172.849 111.499 174.194 112.091 175.679C111.878 175.388 111.603 175.147 111.287 174.973C110.971 174.799 110.621 174.695 110.261 174.67C109.901 174.645 109.54 174.698 109.203 174.826C108.866 174.954 108.56 175.155 108.308 175.413C108.308 175.413 108.308 175.59 108.415 175.573C108.939 175.338 109.522 175.271 110.085 175.383C110.649 175.494 111.163 175.778 111.558 176.194C112.23 176.899 112.825 177.673 113.334 178.503C113.494 178.769 113.991 178.503 113.849 178.254C113.423 174.187 109.747 169.019 105.449 169.09Z" fill="#263238"/>
<path d="M93.8873 208.287C71.2963 247.253 37.5343 336.693 31.4248 349.481C27.2867 358.165 72.6816 381.058 74.6175 374.736C77.0684 366.655 108.575 262.474 110.635 215.995C111.594 194.47 101.116 195.82 93.8873 208.287Z" fill="#EB9481"/>
<path d="M56.1471 394.626C58.5447 392.531 59.6991 393.774 58.6157 399.315C57.5324 404.856 48.7589 425.955 56.3602 428.353C63.9616 430.751 75.8964 400.931 76.9975 391.572C78.0986 382.212 76.3937 366.708 76.3937 366.708C72.8949 372.071 63.2511 384.219 56.1471 394.626Z" fill="#EB9481"/>
<path d="M69.4668 427.199L12.6343 416.969C10.8583 416.827 9.77495 415.655 10.0769 414.341L15.2806 391.11C15.5653 390.424 16.0711 389.852 16.7177 389.485C17.3643 389.118 18.1149 388.978 18.8504 389.086L75.6829 399.262C77.4589 399.422 78.5423 400.594 78.2403 401.891L73.0366 425.121C72.7691 425.824 72.2687 426.413 71.6191 426.791C70.9694 427.169 70.2098 427.313 69.4668 427.199Z" fill="#A6A6A6"/>
<path d="M70.124 424.463L13.1849 414.234C11.4089 414.074 10.3433 412.902 10.6274 411.605L15.8489 388.375C16.1131 387.674 16.6101 387.085 17.2568 386.706C17.9034 386.328 18.6604 386.184 19.401 386.297L76.34 396.527C78.116 396.669 79.1816 397.841 78.8975 399.137L73.7293 422.386C73.4577 423.093 72.9513 423.685 72.2949 424.064C71.6385 424.442 70.8721 424.583 70.124 424.463Z" fill="#C7C7C7"/>
<path d="M69.0584 417.093C67.7442 416.596 66.501 417.093 66.2879 418.194C66.2593 418.826 66.4408 419.449 66.8039 419.966C67.167 420.483 67.6913 420.866 68.2948 421.054C69.609 421.551 70.8522 421.054 71.0653 419.97C71.0979 419.336 70.9183 418.709 70.5549 418.188C70.1915 417.667 69.665 417.282 69.0584 417.093Z" fill="#263238"/>
<path d="M34.4619 345.396C22.8645 361.024 12.5991 379.424 12.3505 399.759C12.2752 402.018 12.9566 404.237 14.2863 406.064C14.0199 415.157 18.2291 418.035 18.2291 418.035C20.5734 426.577 25.3331 428.922 25.3331 428.922C25.3331 428.922 26.008 436.256 31.1762 436.15C36.3444 436.043 39.1861 424.02 43.6083 415.246C53.9625 395.106 72.7883 372.231 76.3403 366.725L34.4619 345.396Z" fill="#EB9481"/>
<path d="M38.1562 389.37C35.067 395.231 32.3791 401.295 30.1108 407.521C28.046 414.501 26.5026 421.624 25.4932 428.833C25.4932 428.88 25.4745 428.925 25.4412 428.958C25.4079 428.992 25.3627 429.01 25.3156 429.01C25.2685 429.01 25.2233 428.992 25.19 428.958C25.1567 428.925 25.138 428.88 25.138 428.833C25.7034 414.75 30.1133 401.09 37.8898 389.334C38.0674 388.961 38.3871 389.086 38.1562 389.37Z" fill="#263238"/>
<path d="M26.9141 381.36C24.3921 387.345 20.0231 397.876 18.4425 418.052C18.4425 418.052 18.3359 418.052 18.3181 418.052C17.6272 405.247 20.5046 392.501 26.6299 381.235C26.8253 380.88 27.0917 380.951 26.9141 381.36Z" fill="#263238"/>
<path d="M20.8042 377.168C16.897 387.504 15.7248 394.52 14.3395 406.01H14.2152C14.4283 392.779 15.9912 387.984 20.4668 376.973C20.6266 376.653 20.9463 376.76 20.8042 377.168Z" fill="#263238"/>
</svg>
