<svg width="375" height="278" viewBox="0 0 375 278" fill="none" xmlns="http://www.w3.org/2000/svg">
<path d="M318 155.74C325.567 190.24 304.432 212.53 275.167 211.495C261.135 211 244.38 195.573 230.602 192.138C212.602 187.638 197.032 193.465 179.835 194.32C137.047 196.435 137.61 178.975 108.78 156.46C88.53 140.635 55.8525 142.368 45.03 114.655C31.77 80.7777 69.78 64.4052 98.655 69.4302C131.835 75.1902 141.022 33.8802 191.7 38.4552C241.5 42.9552 307.342 103.75 318 155.74Z" fill="#0EA5E9"/>
<path opacity="0.9" d="M318 155.74C325.567 190.24 304.432 212.53 275.167 211.495C261.135 211 244.38 195.573 230.602 192.138C212.602 187.638 197.032 193.465 179.835 194.32C137.047 196.435 137.61 178.975 108.78 156.46C88.53 140.635 55.8525 142.368 45.03 114.655C31.77 80.7777 69.78 64.4052 98.655 69.4302C131.835 75.1902 141.022 33.8802 191.7 38.4552C241.5 42.9552 307.342 103.75 318 155.74Z" fill="white"/>
<path d="M187.5 277.42C267.811 277.42 332.917 273.619 332.917 268.93C332.917 264.241 267.811 260.44 187.5 260.44C107.188 260.44 42.082 264.241 42.082 268.93C42.082 273.619 107.188 277.42 187.5 277.42Z" fill="#F5F5F5"/>
<path d="M195.308 230.875H99.6302C98.0916 230.853 96.6182 230.251 95.5054 229.188C94.3926 228.125 93.7227 226.681 93.6302 225.145L85.0502 58.9826C85.0026 58.2435 85.1082 57.5026 85.3604 56.8062C85.6126 56.1098 86.0059 55.4731 86.5157 54.9358C87.0255 54.3986 87.6408 53.9724 88.323 53.684C89.0052 53.3957 89.7396 53.2514 90.4802 53.2601H186.158C187.696 53.2801 189.169 53.8812 190.282 54.9427C191.395 56.0041 192.065 57.4474 192.158 58.9826L200.723 225.145C200.77 225.883 200.665 226.623 200.414 227.319C200.162 228.015 199.771 228.651 199.263 229.189C198.755 229.727 198.141 230.154 197.461 230.444C196.78 230.734 196.047 230.881 195.308 230.875Z" fill="#0EA5E9"/>
<path opacity="0.8" d="M195.308 230.875H99.6302C98.0916 230.853 96.6182 230.251 95.5054 229.188C94.3926 228.125 93.7227 226.681 93.6302 225.145L85.0502 58.9826C85.0026 58.2435 85.1082 57.5026 85.3604 56.8062C85.6126 56.1098 86.0059 55.4731 86.5157 54.9358C87.0255 54.3986 87.6408 53.9724 88.323 53.684C89.0052 53.3957 89.7396 53.2514 90.4802 53.2601H186.158C187.696 53.2801 189.169 53.8812 190.282 54.9427C191.395 56.0041 192.065 57.4474 192.158 58.9826L200.723 225.145C200.77 225.883 200.665 226.623 200.414 227.319C200.162 228.015 199.771 228.651 199.263 229.189C198.755 229.727 198.141 230.154 197.461 230.444C196.78 230.734 196.047 230.881 195.308 230.875Z" fill="white"/>
<path d="M176.715 47.8452H166.133V48.5952H176.715V47.8452Z" fill="#0EA5E9"/>
<path d="M162.465 47.8452H158.588V48.5952H162.465V47.8452Z" fill="#0EA5E9"/>
<path d="M199.425 220.33H107.925C106.452 220.316 105.039 219.744 103.97 218.73C102.901 217.715 102.256 216.334 102.165 214.863L93.9755 55.9378C93.9299 55.2305 94.0311 54.5213 94.2725 53.8549C94.5139 53.1885 94.8904 52.5792 95.3784 52.0651C95.8664 51.5511 96.4554 51.1434 97.1084 50.8677C97.7613 50.5919 98.4642 50.4541 99.173 50.4628H190.673C192.146 50.4791 193.559 51.0529 194.626 52.0687C195.694 53.0846 196.336 54.467 196.425 55.9378L204.615 214.863C204.661 215.569 204.56 216.277 204.319 216.943C204.078 217.608 203.702 218.217 203.215 218.73C202.727 219.244 202.139 219.651 201.487 219.926C200.835 220.201 200.133 220.339 199.425 220.33Z" fill="#0EA5E9"/>
<path d="M199.425 216.678H107.925C107.388 216.659 106.877 216.444 106.489 216.074C106.1 215.703 105.861 215.203 105.818 214.668L97.62 55.75C97.6014 55.5386 97.6279 55.3257 97.6978 55.1253C97.7676 54.9249 97.8791 54.7416 98.025 54.5875C98.1713 54.4338 98.3486 54.3128 98.5451 54.2327C98.7416 54.1525 98.9529 54.115 99.165 54.1225H190.665C191.2 54.1428 191.71 54.3585 192.097 54.7289C192.484 55.0993 192.721 55.5986 192.765 56.1325L201 215.05C201.018 215.261 200.991 215.473 200.922 215.672C200.852 215.872 200.741 216.055 200.596 216.208C200.451 216.362 200.275 216.483 200.079 216.564C199.884 216.645 199.674 216.684 199.463 216.678H199.425ZM99.165 54.31C98.9785 54.304 98.7929 54.3369 98.6198 54.4066C98.4468 54.4764 98.2902 54.5814 98.16 54.715C98.0348 54.8535 97.939 55.016 97.8784 55.1926C97.8178 55.3692 97.7937 55.5563 97.8075 55.7425L105.998 214.66C106.039 215.147 106.257 215.601 106.611 215.939C106.965 216.276 107.429 216.472 107.918 216.49H199.418C199.603 216.497 199.788 216.465 199.96 216.395C200.132 216.325 200.287 216.22 200.415 216.085C200.543 215.949 200.641 215.786 200.702 215.609C200.763 215.432 200.785 215.244 200.768 215.058L192.585 56.14C192.545 55.654 192.328 55.1994 191.976 54.8622C191.624 54.525 191.16 54.3286 190.673 54.31H99.165Z" fill="white"/>
<path opacity="0.3" d="M167.42 112.042C177.827 101.363 177.149 83.8235 165.906 72.8672C154.663 61.9108 137.112 61.6863 126.705 72.3658C116.298 83.0452 116.976 100.585 128.219 111.541C139.462 122.497 157.013 122.722 167.42 112.042Z" fill="white"/>
<path d="M169.501 92.2077C169.71 95.8933 168.969 99.571 167.348 102.888C165.593 106.445 162.869 109.434 159.489 111.511C156.11 113.587 152.212 114.667 148.246 114.625C144.135 114.588 140.104 113.488 136.545 111.431C132.986 109.374 130.02 106.431 127.936 102.888C125.993 99.6476 124.875 95.9804 124.681 92.2077C124.496 89.3143 124.91 86.414 125.897 83.6881C126.885 80.9623 128.424 78.4696 130.42 76.366C132.415 74.2625 134.822 72.5934 137.492 71.4632C140.162 70.3329 143.037 69.7659 145.936 69.7976C151.969 69.8605 157.755 72.2074 162.128 76.3657C166.5 80.524 169.135 86.1846 169.501 92.2077Z" fill="white"/>
<path d="M167.326 102.888C165.571 106.445 162.846 109.434 159.467 111.511C156.087 113.587 152.19 114.667 148.223 114.625C144.113 114.588 140.082 113.488 136.523 111.431C132.963 109.374 129.997 106.431 127.913 102.888C133.612 98.9514 140.382 96.8573 147.308 96.8875C154.42 96.9143 161.372 98.9981 167.326 102.888Z" fill="#0EA5E9"/>
<path d="M154.01 91.6867C157.76 87.8391 157.514 81.5188 153.462 77.5699C149.41 73.621 143.085 73.5388 139.336 77.3864C135.586 81.234 135.832 87.5543 139.884 91.5032C143.936 95.4521 150.261 95.5342 154.01 91.6867Z" fill="#0EA5E9"/>
<path d="M186.308 158.5H114.66C114.036 158.494 113.438 158.251 112.986 157.821C112.533 157.391 112.261 156.806 112.223 156.183L111.683 145.683C111.664 145.384 111.708 145.085 111.81 144.804C111.912 144.522 112.072 144.265 112.278 144.048C112.484 143.832 112.733 143.66 113.009 143.543C113.284 143.427 113.581 143.369 113.88 143.373H185.528C186.151 143.379 186.748 143.621 187.2 144.049C187.652 144.478 187.926 145.061 187.965 145.683L188.505 156.183C188.525 156.482 188.483 156.782 188.381 157.064C188.279 157.346 188.12 157.604 187.913 157.822C187.707 158.04 187.458 158.212 187.182 158.329C186.905 158.446 186.608 158.504 186.308 158.5Z" fill="white"/>
<path opacity="0.3" d="M164.37 137.575H134.445C133.818 137.571 133.217 137.328 132.763 136.896C132.309 136.464 132.036 135.876 132 135.25L131.887 133C131.868 132.701 131.91 132.401 132.012 132.119C132.114 131.837 132.273 131.579 132.48 131.361C132.686 131.143 132.935 130.971 133.211 130.854C133.488 130.737 133.785 130.679 134.085 130.683H164.002C164.627 130.689 165.225 130.932 165.677 131.362C166.13 131.792 166.402 132.377 166.44 133L166.56 135.25C166.578 135.549 166.535 135.848 166.434 136.13C166.332 136.411 166.174 136.669 165.968 136.887C165.763 137.105 165.515 137.278 165.24 137.397C164.966 137.515 164.669 137.576 164.37 137.575Z" fill="black"/>
<path opacity="0.3" d="M175.5 208.983H130.673C129.611 208.97 128.594 208.556 127.825 207.824C127.056 207.093 126.592 206.097 126.525 205.038L126.263 199.863C126.236 199.354 126.314 198.846 126.49 198.368C126.667 197.89 126.939 197.453 127.29 197.084C127.641 196.715 128.063 196.421 128.531 196.221C128.999 196.02 129.504 195.917 130.013 195.918H174.825C175.887 195.931 176.904 196.345 177.673 197.077C178.443 197.808 178.907 198.803 178.973 199.863L179.235 205.038C179.262 205.545 179.185 206.053 179.009 206.529C178.834 207.006 178.563 207.442 178.214 207.811C177.864 208.18 177.444 208.474 176.977 208.676C176.511 208.877 176.008 208.982 175.5 208.983Z" fill="black"/>
<path d="M187.62 183.895H115.965C115.342 183.887 114.744 183.644 114.292 183.214C113.84 182.785 113.567 182.2 113.528 181.578L112.988 171.078C112.969 170.779 113.012 170.479 113.115 170.198C113.217 169.916 113.376 169.658 113.582 169.441C113.788 169.224 114.037 169.051 114.313 168.934C114.589 168.817 114.885 168.758 115.185 168.76H186.833C187.457 168.767 188.055 169.009 188.507 169.439C188.96 169.869 189.232 170.455 189.27 171.078L189.818 181.578C189.835 181.877 189.791 182.176 189.688 182.457C189.586 182.738 189.426 182.995 189.22 183.212C189.015 183.429 188.766 183.602 188.491 183.72C188.216 183.837 187.919 183.897 187.62 183.895Z" fill="white"/>
<path d="M123.75 150.933C123.771 151.264 123.723 151.596 123.61 151.908C123.496 152.221 123.319 152.506 123.091 152.747C122.862 152.987 122.586 153.178 122.28 153.308C121.974 153.437 121.645 153.502 121.313 153.498C120.623 153.49 119.962 153.221 119.462 152.745C118.963 152.269 118.662 151.621 118.62 150.933C118.599 150.602 118.646 150.27 118.758 149.958C118.871 149.646 119.047 149.36 119.275 149.119C119.503 148.879 119.779 148.687 120.084 148.558C120.39 148.429 120.719 148.364 121.05 148.368C121.741 148.376 122.403 148.645 122.904 149.12C123.405 149.596 123.707 150.244 123.75 150.933Z" fill="#263238"/>
<path d="M131.647 150.933C131.669 151.264 131.622 151.596 131.509 151.908C131.397 152.22 131.221 152.505 130.993 152.746C130.764 152.987 130.489 153.178 130.183 153.308C129.878 153.437 129.549 153.502 129.217 153.498C128.527 153.491 127.865 153.223 127.365 152.747C126.865 152.27 126.565 151.622 126.525 150.933C126.503 150.602 126.55 150.27 126.663 149.958C126.775 149.646 126.951 149.36 127.179 149.119C127.407 148.879 127.683 148.687 127.988 148.558C128.294 148.429 128.623 148.364 128.955 148.368C129.645 148.374 130.307 148.643 130.807 149.119C131.307 149.595 131.607 150.244 131.647 150.933Z" fill="#263238"/>
<path d="M139.5 150.933C139.522 151.264 139.475 151.596 139.362 151.908C139.249 152.22 139.073 152.505 138.845 152.746C138.617 152.987 138.342 153.178 138.036 153.307C137.731 153.437 137.402 153.502 137.07 153.498C136.379 153.49 135.717 153.221 135.217 152.745C134.716 152.27 134.413 151.622 134.37 150.933C134.349 150.601 134.397 150.269 134.511 149.957C134.624 149.645 134.801 149.36 135.03 149.119C135.258 148.878 135.534 148.687 135.84 148.558C136.146 148.429 136.475 148.364 136.807 148.368C137.497 148.376 138.158 148.645 138.658 149.121C139.157 149.597 139.458 150.244 139.5 150.933Z" fill="#263238"/>
<path d="M147.413 150.933C147.434 151.264 147.386 151.595 147.273 151.907C147.16 152.218 146.984 152.503 146.756 152.744C146.528 152.984 146.253 153.175 145.948 153.305C145.643 153.435 145.314 153.5 144.983 153.498C144.292 153.49 143.63 153.221 143.13 152.745C142.629 152.269 142.326 151.622 142.283 150.933C142.262 150.602 142.31 150.27 142.423 149.959C142.536 149.647 142.712 149.362 142.94 149.122C143.168 148.881 143.443 148.69 143.748 148.56C144.053 148.431 144.382 148.365 144.713 148.368C145.404 148.376 146.066 148.645 146.566 149.12C147.067 149.596 147.37 150.243 147.413 150.933Z" fill="#263238"/>
<path d="M125.078 176.313C125.1 176.644 125.053 176.976 124.94 177.288C124.828 177.6 124.652 177.885 124.423 178.126C124.195 178.367 123.92 178.558 123.614 178.687C123.309 178.817 122.98 178.882 122.648 178.878C121.957 178.87 121.295 178.601 120.795 178.125C120.294 177.649 119.992 177.002 119.948 176.313C119.927 175.981 119.975 175.649 120.089 175.337C120.202 175.025 120.379 174.74 120.608 174.499C120.837 174.258 121.112 174.067 121.418 173.938C121.724 173.809 122.053 173.744 122.386 173.748C123.075 173.756 123.737 174.025 124.236 174.501C124.736 174.977 125.036 175.624 125.078 176.313Z" fill="#263238"/>
<path d="M132.96 176.313C132.981 176.644 132.933 176.975 132.82 177.287C132.707 177.598 132.531 177.883 132.303 178.124C132.075 178.364 131.8 178.555 131.495 178.685C131.19 178.815 130.862 178.88 130.53 178.878C129.84 178.87 129.178 178.601 128.677 178.125C128.176 177.649 127.874 177.002 127.83 176.313C127.809 175.982 127.856 175.65 127.968 175.338C128.081 175.026 128.257 174.74 128.485 174.499C128.713 174.258 128.989 174.067 129.294 173.938C129.6 173.809 129.929 173.744 130.26 173.748C130.951 173.756 131.613 174.025 132.114 174.5C132.614 174.976 132.917 175.623 132.96 176.313Z" fill="#263238"/>
<path d="M140.842 176.313C140.863 176.644 140.815 176.976 140.701 177.288C140.588 177.6 140.411 177.886 140.182 178.126C139.954 178.367 139.678 178.558 139.372 178.687C139.066 178.817 138.737 178.881 138.405 178.878C137.714 178.871 137.052 178.603 136.552 178.127C136.052 177.65 135.752 177.002 135.712 176.313C135.69 175.982 135.737 175.65 135.85 175.338C135.963 175.026 136.139 174.74 136.367 174.499C136.595 174.258 136.87 174.067 137.176 173.938C137.481 173.809 137.81 173.744 138.142 173.748C138.833 173.756 139.495 174.025 139.996 174.5C140.496 174.976 140.799 175.623 140.842 176.313Z" fill="#263238"/>
<path d="M148.718 176.313C148.739 176.644 148.692 176.976 148.58 177.288C148.467 177.6 148.291 177.885 148.063 178.126C147.835 178.367 147.559 178.558 147.254 178.687C146.948 178.817 146.619 178.882 146.288 178.878C145.597 178.87 144.935 178.601 144.434 178.125C143.934 177.649 143.631 177.002 143.588 176.313C143.567 175.981 143.615 175.649 143.728 175.337C143.842 175.025 144.019 174.74 144.247 174.499C144.476 174.258 144.752 174.067 145.058 173.938C145.364 173.809 145.693 173.744 146.025 173.748C146.716 173.754 147.378 174.023 147.878 174.499C148.377 174.975 148.678 175.623 148.718 176.313Z" fill="#263238"/>
<path d="M156.6 176.313C156.622 176.644 156.575 176.976 156.463 177.288C156.35 177.6 156.174 177.885 155.946 178.126C155.718 178.367 155.442 178.558 155.137 178.687C154.831 178.817 154.502 178.881 154.17 178.878C153.48 178.87 152.818 178.601 152.317 178.125C151.816 177.649 151.514 177.002 151.47 176.313C151.45 175.982 151.498 175.65 151.611 175.339C151.724 175.027 151.9 174.742 152.128 174.502C152.356 174.261 152.631 174.07 152.936 173.94C153.241 173.81 153.569 173.745 153.9 173.748C154.591 173.756 155.253 174.025 155.754 174.5C156.255 174.976 156.557 175.623 156.6 176.313Z" fill="#263238"/>
<path d="M164.483 176.313C164.503 176.644 164.456 176.976 164.342 177.288C164.229 177.6 164.052 177.886 163.823 178.126C163.594 178.367 163.318 178.558 163.013 178.687C162.707 178.817 162.377 178.881 162.045 178.878C161.355 178.87 160.694 178.6 160.195 178.125C159.695 177.649 159.394 177.001 159.353 176.313C159.331 175.982 159.378 175.65 159.491 175.338C159.603 175.026 159.779 174.74 160.007 174.499C160.236 174.258 160.511 174.067 160.817 173.938C161.122 173.809 161.451 173.744 161.783 173.748C162.473 173.756 163.135 174.025 163.636 174.5C164.137 174.976 164.439 175.623 164.483 176.313Z" fill="#263238"/>
<path d="M249.75 89.2148C249.937 89.4998 250.035 89.6498 250.155 89.8523L250.492 90.4074C250.71 90.7824 250.905 91.1573 251.092 91.5248C251.467 92.2748 251.842 93.0248 252.142 93.7748C252.771 95.2644 253.312 96.7895 253.762 98.3423C254.67 101.41 255.268 104.561 255.547 107.747L255.6 108.34C255.606 108.46 255.606 108.58 255.6 108.7V109.097C255.612 109.619 255.582 110.141 255.51 110.657C255.366 111.615 255.114 112.554 254.76 113.455C254.101 115.065 253.228 116.578 252.165 117.955C250.181 120.495 247.828 122.722 245.182 124.562L243.112 122.14C244.996 120.012 246.664 117.704 248.092 115.247C248.735 114.133 249.239 112.944 249.592 111.707C249.736 111.183 249.819 110.645 249.84 110.102C249.863 109.87 249.863 109.637 249.84 109.405V109.247C249.847 109.178 249.847 109.107 249.84 109.037L249.75 108.512C249.268 105.717 248.586 102.96 247.71 100.262C247.275 98.9199 246.742 97.6223 246.21 96.3548C245.947 95.7173 245.647 95.0949 245.347 94.4949L244.882 93.6098L244.65 93.1973L244.455 92.8674L249.75 89.2148Z" fill="#803E3C"/>
<path d="M242.774 124.578L245.489 130.315L247.642 125.463C247.642 125.463 245.729 121.263 243.142 121.653L242.774 124.578Z" fill="#7F3E3B"/>
<path d="M247.433 130.6L249.593 127.06L247.643 125.462L245.49 130.315L247.433 130.6Z" fill="#7F3E3B"/>
<path d="M235.222 262.915C235.784 262.901 236.342 262.825 236.887 262.69C236.915 262.681 236.94 262.666 236.959 262.645C236.979 262.624 236.993 262.598 237 262.57C237.004 262.541 237 262.511 236.988 262.485C236.976 262.458 236.957 262.435 236.932 262.42C236.715 262.277 234.81 261.047 234.075 261.377C233.993 261.415 233.923 261.474 233.872 261.548C233.821 261.622 233.79 261.708 233.782 261.797C233.759 261.933 233.77 262.072 233.813 262.203C233.856 262.334 233.931 262.452 234.03 262.547C234.37 262.81 234.793 262.94 235.222 262.915ZM236.46 262.472C235.372 262.697 234.547 262.66 234.21 262.367C234.141 262.299 234.09 262.214 234.063 262.121C234.035 262.028 234.032 261.93 234.052 261.835C234.052 261.707 234.127 261.67 234.18 261.647C234.585 261.467 235.687 262 236.46 262.472Z" fill="#0EA5E9"/>
<path d="M236.85 262.69H236.925C236.947 262.675 236.966 262.655 236.979 262.631C236.992 262.608 236.999 262.582 237 262.555C237 262.48 237 260.672 236.31 260.065C236.225 259.989 236.125 259.932 236.016 259.898C235.907 259.864 235.793 259.855 235.68 259.87C235.561 259.871 235.447 259.912 235.356 259.987C235.264 260.062 235.201 260.166 235.177 260.282C235.035 260.995 236.175 262.345 236.775 262.69H236.85ZM235.777 260.147C235.838 260.145 235.898 260.156 235.955 260.178C236.012 260.2 236.063 260.233 236.107 260.275C236.503 260.858 236.707 261.55 236.692 262.255C236.092 261.775 235.38 260.755 235.47 260.327C235.47 260.26 235.522 260.17 235.71 260.147H235.777Z" fill="#0EA5E9"/>
<path d="M228.143 259.855C228.16 259.833 228.172 259.806 228.176 259.779C228.18 259.751 228.176 259.722 228.166 259.696C228.155 259.67 228.137 259.648 228.115 259.631C228.092 259.614 228.066 259.603 228.038 259.6C227.73 259.6 225.038 259.472 224.423 260.132V260.177C224.372 260.242 224.339 260.319 224.327 260.401C224.315 260.482 224.325 260.566 224.355 260.642C224.395 260.771 224.466 260.888 224.562 260.984C224.657 261.079 224.774 261.15 224.903 261.19C225.773 261.46 227.31 260.477 228.15 259.87L228.143 259.855ZM224.648 260.327C224.985 259.967 226.47 259.87 227.58 259.885C226.418 260.68 225.45 261.055 224.963 260.905C224.878 260.879 224.801 260.833 224.738 260.77C224.675 260.707 224.629 260.63 224.603 260.545C224.588 260.516 224.58 260.484 224.58 260.451C224.58 260.418 224.588 260.386 224.603 260.357L224.648 260.327Z" fill="#0EA5E9"/>
<path d="M228.142 259.855C228.154 259.831 228.16 259.806 228.16 259.78C228.16 259.754 228.154 259.728 228.142 259.705C228.105 259.645 227.265 258.205 226.275 257.905C226.133 257.863 225.984 257.851 225.837 257.869C225.69 257.887 225.548 257.935 225.42 258.01C225.06 258.22 225.037 258.467 225.082 258.625C225.277 259.322 227.19 259.937 228.015 259.93C228.041 259.929 228.066 259.922 228.089 259.909C228.111 259.896 228.13 259.877 228.142 259.855ZM225.45 258.355C225.492 258.313 225.54 258.278 225.592 258.25C225.685 258.191 225.789 258.153 225.898 258.138C226.007 258.124 226.118 258.134 226.222 258.167C226.875 258.34 227.482 259.18 227.76 259.592C226.867 259.495 225.51 258.947 225.397 258.527C225.388 258.495 225.388 258.461 225.397 258.429C225.406 258.398 225.425 258.369 225.45 258.347V258.355Z" fill="#0EA5E9"/>
<path d="M236.399 67.2471C235.649 70.9971 234.029 79.1046 236.632 81.5946C236.632 81.5946 235.612 85.3446 228.689 85.3446C221.069 85.3446 225.052 81.5946 225.052 81.5946C229.207 80.6046 229.102 77.5146 228.374 74.6196L236.399 67.2471Z" fill="#7F3E3B"/>
<path d="M223.71 58.4574C223.752 58.4643 223.795 58.4643 223.837 58.4574C223.873 58.4399 223.905 58.4155 223.931 58.3856C223.957 58.3556 223.977 58.3208 223.989 58.2832C224.002 58.2455 224.007 58.2057 224.004 58.1661C224.001 58.1265 223.99 58.0879 223.972 58.0524C223.77 57.6246 223.469 57.2515 223.093 56.9643C222.717 56.6772 222.278 56.4845 221.812 56.4024C221.734 56.3959 221.656 56.4194 221.595 56.4682C221.534 56.517 221.493 56.5874 221.482 56.6649C221.474 56.7434 221.497 56.8221 221.546 56.8838C221.595 56.9456 221.666 56.9855 221.745 56.9949C222.112 57.0655 222.458 57.2228 222.753 57.4537C223.048 57.6845 223.283 57.9824 223.44 58.3224C223.469 58.3668 223.509 58.4027 223.556 58.4264C223.604 58.4501 223.657 58.4608 223.71 58.4574Z" fill="#263238"/>
<path d="M221.437 61.75C220.847 62.8448 220.11 63.8541 219.247 64.75C219.481 64.9637 219.758 65.1241 220.06 65.2199C220.361 65.3157 220.68 65.3448 220.995 65.305L221.437 61.75Z" fill="#630F0F"/>
<path d="M222 60.9021C221.94 61.4046 221.618 61.7796 221.295 61.7421C220.973 61.7046 220.748 61.2621 220.808 60.7596C220.868 60.2571 221.19 59.8821 221.558 59.9196C221.925 59.9571 222.053 60.3996 222 60.9021Z" fill="#263238"/>
<path d="M221.655 59.965L220.5 59.5C220.5 59.5 220.988 60.49 221.655 59.965Z" fill="#263238"/>
<path d="M234.765 258.43L228.645 259.855L224.925 245.785L231.045 244.36L234.765 258.43Z" fill="#7F3E3B"/>
<path d="M244.154 262.54H237.877L238.364 247.997H244.649L244.154 262.54Z" fill="#7F3E3B"/>
<path d="M237.375 261.813H244.432C244.555 261.811 244.673 261.855 244.766 261.935C244.858 262.015 244.918 262.126 244.935 262.248L245.737 267.828C245.753 267.969 245.739 268.112 245.696 268.247C245.652 268.382 245.581 268.506 245.486 268.612C245.391 268.718 245.275 268.802 245.145 268.859C245.015 268.917 244.874 268.946 244.732 268.945C242.272 268.908 241.087 268.758 237.982 268.758C236.07 268.758 233.28 268.96 230.647 268.96C228.015 268.96 227.865 266.35 228.967 266.118C233.887 265.053 234.667 263.598 236.325 262.203C236.618 261.952 236.99 261.814 237.375 261.813Z" fill="#263238"/>
<path d="M228.105 258.917L234.518 255.97C234.627 255.918 234.751 255.907 234.867 255.94C234.983 255.974 235.083 256.048 235.148 256.15L238.215 260.89C238.287 261.012 238.332 261.147 238.348 261.288C238.364 261.428 238.351 261.571 238.308 261.706C238.266 261.841 238.196 261.965 238.102 262.071C238.009 262.178 237.894 262.263 237.765 262.322C235.515 263.312 234.375 263.68 231.555 264.977C229.823 265.772 226.305 267.602 223.92 268.727C221.535 269.852 220.305 267.52 221.205 266.845C225.233 263.845 226.388 261.692 227.31 259.735C227.466 259.374 227.749 259.083 228.105 258.917Z" fill="#263238"/>
<path opacity="0.2" d="M224.925 245.785L226.92 253.33L232.965 251.612L231.052 244.36L224.925 245.785Z" fill="black"/>
<path opacity="0.2" d="M244.65 247.997H238.365L238.117 255.497H244.402L244.65 247.997Z" fill="black"/>
<path d="M247.499 83.0198C250.109 83.5973 252.899 92.9798 252.899 92.9798L245.519 100.832C245.519 100.832 239.392 92.0123 240.644 88.7723C241.912 85.3898 244.387 82.3448 247.499 83.0198Z" fill="#263238"/>
<path opacity="0.4" d="M243.33 88.9975C242.01 87.79 241.117 88.15 240.51 89.11C239.91 91.9 243.465 97.7425 244.897 99.955C245.557 97.315 246.315 91.75 243.33 88.9975Z" fill="black"/>
<path d="M214.433 83.2071C214.433 83.2071 211.433 84.2571 217.433 121.12H242.933C242.505 110.74 242.49 104.335 247.433 83.0196C243.859 82.2824 240.237 81.8061 236.595 81.5946C232.74 81.3168 228.87 81.3168 225.015 81.5946C220.073 82.0521 214.433 83.2071 214.433 83.2071Z" fill="#263238"/>
<path opacity="0.4" d="M214.2 97.3525C214.365 99.145 214.583 101.162 214.868 103.442C216.96 101.56 218.67 96.205 218.04 93.085C216.545 94.2983 215.25 95.7382 214.2 97.3525Z" fill="black"/>
<path d="M216.93 91.7496C215.554 95.2129 214.005 98.6047 212.288 101.912C210.59 105.339 208.582 108.603 206.288 111.662L205.808 112.255L205.568 112.547C205.485 112.645 205.418 112.735 205.29 112.87C204.839 113.362 204.336 113.805 203.79 114.19C202.825 114.857 201.77 115.383 200.655 115.75C198.712 116.37 196.694 116.729 194.655 116.815C190.837 116.966 187.016 116.626 183.285 115.802L183.698 112.652C185.423 112.652 187.23 112.652 188.948 112.51C190.673 112.425 192.391 112.234 194.093 111.94C195.673 111.693 197.219 111.26 198.698 110.65C199.295 110.395 199.853 110.056 200.355 109.645C200.547 109.484 200.72 109.303 200.873 109.105C200.873 109.105 200.963 108.985 201.023 108.902L201.195 108.655L201.548 108.16C203.43 105.253 205.106 102.218 206.565 99.0771C208.065 95.8896 209.565 92.5821 210.938 89.3271L216.93 91.7496Z" fill="#803E3C"/>
<path d="M214.432 83.2072C211.305 83.9572 207.465 92.5372 207.465 92.5372L213.945 102.062C213.945 102.062 222.577 91.1947 221.55 87.8797C220.5 84.4222 218.25 82.2772 214.432 83.2072Z" fill="#263238"/>
<path d="M185.497 113.132L180.09 110.635L179.55 116.012C179.55 116.012 184.05 117.34 186.3 116.012L185.497 113.132Z" fill="#7F3E3B"/>
<path d="M176.857 110.095L176.34 114.19L179.55 116.012L180.09 110.635L176.857 110.095Z" fill="#7F3E3B"/>
<path d="M239.115 61.2698C237.967 67.3973 237.615 70.0223 234.105 72.8048C228.855 76.9898 221.542 74.2448 220.837 67.8998C220.192 62.1848 222.172 53.1248 228.525 51.3998C229.924 51.0137 231.399 50.9926 232.809 51.3383C234.219 51.6841 235.517 52.3853 236.579 53.375C237.64 54.3647 238.431 55.61 238.875 56.992C239.319 58.374 239.402 59.8468 239.115 61.2698Z" fill="#7F3E3B"/>
<path d="M225.652 62.5596C225.3 65.6871 225.165 73.8096 232.035 74.0646C240.442 74.3721 242.962 67.1871 242.212 64.3146C246.592 60.7521 247.222 54.6246 242.302 49.9371C237.382 45.2496 226.552 47.8671 223.552 52.4346C219.75 58.0971 225.652 62.5596 225.652 62.5596Z" fill="#263238"/>
<path d="M234.075 51.76C233.67 48.46 233.985 46.1875 237.075 46.1875C240.165 46.1875 244.38 47.305 245.925 50.4625C247.47 53.62 247.597 58.5625 243.285 58.06C238.972 57.5575 234.562 55.705 234.075 51.76Z" fill="#0EA5E9"/>
<path d="M238.86 50.9648C238.11 47.0348 241.628 35.9648 250.17 35.2148C254.13 34.8773 255.96 39.1373 253.92 39.8423C257.67 39.7973 260.07 44.7548 256.575 45.4973C259.335 47.2673 258.653 50.8973 254.715 52.6823C251.783 54.0323 239.873 56.4098 238.86 50.9648Z" fill="#263238"/>
<path d="M247.987 55.1873C245.235 55.1873 242.362 54.7823 240.577 53.5898C240.078 53.2889 239.658 52.8735 239.351 52.3778C239.045 51.8822 238.861 51.3207 238.815 50.7398C238.812 50.6904 238.829 50.6421 238.861 50.6045C238.893 50.567 238.938 50.5429 238.987 50.5373C239.012 50.5341 239.037 50.5362 239.061 50.5434C239.085 50.5505 239.107 50.5626 239.126 50.5788C239.146 50.5951 239.161 50.6151 239.172 50.6376C239.183 50.6602 239.189 50.6847 239.19 50.7098C239.235 51.234 239.403 51.7402 239.681 52.1871C239.958 52.6341 240.337 53.0093 240.787 53.2823C244.185 55.5323 252.037 54.7823 254.482 54.0323C256.597 53.3423 258.03 51.9998 258.315 50.4548C258.404 49.8878 258.333 49.3073 258.112 48.7777C257.891 48.2482 257.528 47.7902 257.062 47.4548C257.044 47.4379 257.03 47.4176 257.02 47.395C257.01 47.3725 257.005 47.3481 257.005 47.3235C257.005 47.2989 257.01 47.2746 257.02 47.252C257.03 47.2294 257.044 47.2091 257.062 47.1923C257.097 47.1579 257.144 47.1387 257.193 47.1387C257.242 47.1387 257.29 47.1579 257.325 47.1923C257.848 47.5743 258.255 48.0943 258.5 48.6943C258.745 49.2942 258.819 49.9505 258.712 50.5898C258.405 52.2773 256.882 53.7173 254.632 54.4523C252.461 54.9995 250.225 55.2468 247.987 55.1873Z" fill="#263238"/>
<path d="M223.74 61.7498C223.041 62.7294 222.753 63.9432 222.937 65.1323C223.185 66.7073 224.715 66.8123 225.825 65.8073C226.935 64.8023 227.902 62.9873 227.085 61.6823C226.903 61.4004 226.652 61.1697 226.356 61.0121C226.06 60.8545 225.728 60.7754 225.393 60.7821C225.058 60.7889 224.73 60.8814 224.44 61.0507C224.151 61.2201 223.91 61.4608 223.74 61.7498Z" fill="#7F3E3B"/>
<path d="M224.167 121.12C224.167 121.12 227.812 164.237 231.599 188.537C234.652 208.165 237.067 254.042 237.067 254.042H245.632C245.632 254.042 248.677 209.537 247.132 190.127C243.209 141.002 251.962 136.997 242.954 121.127L224.167 121.12Z" fill="#0EA5E9"/>
<path opacity="0.4" d="M234.953 137.417C231.558 140.98 228.819 145.113 226.86 149.627C227.858 159.317 229.043 170.072 230.303 179.492C235.473 166.107 237.075 151.608 234.953 137.417Z" fill="black"/>
<path d="M218.175 120.85C218.175 120.85 210.263 167.942 209.018 189.167C212.123 208.795 224.828 250.285 224.828 250.285L232.62 247.457C232.62 247.457 228.308 202.217 223.62 189.835C234.173 154.307 241.928 145.322 239.67 121.12C234.263 121.12 218.175 120.85 218.175 120.85Z" fill="#0EA5E9"/>
<path d="M223.785 252.355L234.315 249.497L233.715 245.297L222.442 248.35L223.785 252.355Z" fill="#263238"/>
<path d="M235.89 254.215H246.803L247.373 250.39L235.83 250L235.89 254.215Z" fill="#263238"/>
<path d="M243.33 119.62L244.478 121.907C244.568 122.087 244.358 122.267 244.065 122.267H217.305C217.08 122.267 216.885 122.155 216.87 122.005L216.638 119.755C216.638 119.597 216.825 119.462 217.073 119.462H242.91C242.988 119.452 243.067 119.461 243.14 119.488C243.213 119.516 243.279 119.561 243.33 119.62Z" fill="#0EA5E9"/>
<path opacity="0.5" d="M243.33 119.62L244.478 121.907C244.568 122.087 244.358 122.267 244.065 122.267H217.305C217.08 122.267 216.885 122.155 216.87 122.005L216.638 119.755C216.638 119.597 216.825 119.462 217.073 119.462H242.91C242.988 119.452 243.067 119.461 243.14 119.488C243.213 119.516 243.279 119.561 243.33 119.62Z" fill="black"/>
<path d="M239.858 122.5H240.548C240.69 122.5 240.795 122.425 240.788 122.342L240.458 119.342C240.458 119.252 240.33 119.185 240.195 119.185H239.498C239.363 119.185 239.258 119.252 239.265 119.342L239.588 122.342C239.603 122.44 239.723 122.5 239.858 122.5Z" fill="#0EA5E9"/>
<path d="M230.573 100.66C230.49 100.658 230.41 100.631 230.344 100.581C230.278 100.531 230.229 100.461 230.205 100.382C227.76 91.3371 222.705 83.8821 220.253 82.7571C220.062 82.6401 219.833 82.6024 219.615 82.6521C219.57 82.676 219.52 82.6903 219.469 82.6942C219.418 82.6982 219.367 82.6916 219.318 82.675C219.27 82.6583 219.226 82.6319 219.188 82.5974C219.15 82.5629 219.12 82.5211 219.099 82.4744C219.078 82.4277 219.066 82.3772 219.065 82.3261C219.065 82.2749 219.074 82.2241 219.094 82.1768C219.114 82.1295 219.143 82.0867 219.179 82.0511C219.216 82.0154 219.26 81.9877 219.308 81.9696C219.513 81.8943 219.732 81.8647 219.949 81.8829C220.167 81.901 220.378 81.9664 220.568 82.0746C223.163 83.3046 228.293 90.6546 230.858 99.9021C232.695 99.9021 235.53 99.6546 236.22 99.5946C237.075 98.5746 243.36 90.7146 241.013 82.1121C240.999 82.0648 240.995 82.0153 241.001 81.9665C241.007 81.9176 241.023 81.8705 241.047 81.8278C241.072 81.7852 241.105 81.7479 241.144 81.7181C241.183 81.6883 241.228 81.6668 241.275 81.6546C241.371 81.6293 241.472 81.6427 241.558 81.6918C241.644 81.741 241.706 81.8219 241.733 81.9171C244.35 91.4871 236.76 100.12 236.678 100.202C236.648 100.239 236.612 100.269 236.571 100.29C236.53 100.312 236.484 100.326 236.438 100.33C236.4 100.33 232.658 100.66 230.573 100.66Z" fill="#0EA5E9"/>
<path d="M243 105.955C238.913 98.2973 237.24 97.7573 236.513 95.2973C237.064 93.9217 237.851 92.6527 238.838 91.5473C238.343 91.4048 237.278 91.1948 236.588 91.0673C236.663 90.7298 236.745 90.3998 236.82 90.0773C236.069 89.9933 235.31 90.0288 234.57 90.1823V89.4323C233.617 89.2251 232.639 89.1619 231.668 89.2448C231.753 89.5998 231.835 89.9598 231.915 90.3248C231.165 90.4673 230.025 90.6998 229.478 90.8573C230.541 92.0623 231.323 93.4895 231.765 95.0348C229.56 98.8223 220.995 123.167 234.93 125.035C248.865 126.902 247.08 113.62 243 105.955Z" fill="#0EA5E9"/>
<path opacity="0.4" d="M243 105.955C238.913 98.2973 237.24 97.7573 236.513 95.2973C237.064 93.9217 237.851 92.6527 238.838 91.5473C238.343 91.4048 237.278 91.1948 236.588 91.0673C236.663 90.7298 236.745 90.3998 236.82 90.0773C236.069 89.9933 235.31 90.0288 234.57 90.1823V89.4323C233.617 89.2251 232.639 89.1619 231.668 89.2448C231.753 89.5998 231.835 89.9598 231.915 90.3248C231.165 90.4673 230.025 90.6998 229.478 90.8573C230.541 92.0623 231.323 93.4895 231.765 95.0348C229.56 98.8223 220.995 123.167 234.93 125.035C248.865 126.902 247.08 113.62 243 105.955Z" fill="white"/>
<path d="M231.195 94.3074C231.108 94.6937 231.07 95.0893 231.082 95.4849C231.082 95.7624 231.832 95.9499 232.665 96.0324C233.497 96.1149 236.992 96.2499 236.88 95.8599C236.767 95.4699 237.052 94.9374 237.067 94.6074C237.082 94.2774 235.68 94.2624 234.502 94.3074C233.325 94.3524 231.427 93.8874 231.195 94.3074Z" fill="#0EA5E9"/>
<path d="M223.087 122.5H223.777C223.912 122.5 224.017 122.425 224.009 122.342L223.687 119.342C223.687 119.252 223.559 119.185 223.417 119.185H222.749C222.614 119.185 222.509 119.252 222.517 119.342L222.839 122.342C222.824 122.44 222.944 122.5 223.087 122.5Z" fill="#0EA5E9"/>
</svg>
