<svg width="249" height="224" viewBox="0 0 249 224" fill="none" xmlns="http://www.w3.org/2000/svg">
<path d="M236.141 112.468C236.141 112.468 236.141 109.349 231.775 105.027C227.409 100.704 224.639 98.1968 224.639 98.1968C224.639 98.1968 222.469 105.332 226.511 109.68C229.478 112.733 232.695 115.533 236.129 118.05L236.141 112.468Z" fill="#0EA5E9"/>
<path d="M229.841 131.84C229.841 131.84 229.841 128.722 225.475 124.399C221.109 120.077 218.352 117.569 218.352 117.569C218.352 117.569 216.175 124.705 220.223 129.052C223.19 132.106 226.408 134.906 229.841 137.423V131.84Z" fill="#0EA5E9"/>
<path d="M235.867 117.75C235.867 117.75 236.198 114.669 240.975 110.808C245.753 106.947 248.791 104.776 248.791 104.776C248.791 104.776 250.194 112.099 245.728 116.004C242.456 118.727 238.961 121.172 235.281 123.314L235.867 117.75Z" fill="#0EA5E9"/>
<path d="M228.257 140.629C228.257 140.629 228.881 137.598 234.064 134.261C239.247 130.924 242.466 129.084 242.466 129.084C242.466 129.084 243.089 136.519 238.243 139.918C234.702 142.284 230.969 144.349 227.084 146.093L228.257 140.629Z" fill="#0EA5E9"/>
<path d="M229.686 165.578C229.686 165.578 229.686 162.459 234.052 158.13C238.419 153.802 241.182 151.307 241.182 151.307C241.182 151.307 243.358 158.442 239.31 162.783C236.345 165.84 233.127 168.642 229.692 171.16L229.686 165.578Z" fill="#0EA5E9"/>
<path d="M229.619 171.666C229.619 171.666 230.055 168.597 226.375 163.682C222.695 158.767 220.281 155.91 220.281 155.91C220.281 155.91 217.119 162.665 220.493 167.537C222.995 170.982 225.78 174.211 228.82 177.192L229.619 171.666Z" fill="#0EA5E9"/>
<path d="M225.333 189.711C225.333 189.711 225.333 186.592 229.699 182.27C234.065 177.947 236.834 175.44 236.834 175.44C236.834 175.44 239.005 182.575 234.963 186.923C231.995 189.977 228.778 192.779 225.345 195.3L225.333 189.711Z" fill="#0EA5E9"/>
<path d="M228.232 206.071C228.232 206.071 227.446 203.071 230.546 197.769C233.646 192.467 235.723 189.361 235.723 189.361C235.723 189.361 239.627 195.71 236.827 200.937C234.731 204.643 232.33 208.167 229.647 211.472L228.232 206.071Z" fill="#0EA5E9"/>
<path d="M236.534 111.675C236.316 114.904 235.92 118.119 235.349 121.305C233.628 130.175 229.337 135.901 227.621 143.909C225.906 151.918 230.833 162.241 229.492 172.533C228.151 182.824 224.172 188.544 225.313 195.411C226.455 202.279 232.468 220.878 232.468 220.878" stroke="#263238" stroke-linecap="round" stroke-linejoin="round"/>
<path d="M235.83 119.815L240.508 116.222" stroke="#263238" stroke-linecap="round" stroke-linejoin="round"/>
<path d="M236.048 115.68L234.083 112.193" stroke="#263238" stroke-linecap="round" stroke-linejoin="round"/>
<path d="M227.882 143.542C227.882 143.542 231.799 140.604 235.829 137.666" stroke="#263238" stroke-linecap="round" stroke-linejoin="round"/>
<path d="M229.841 137.423C229.841 137.423 226.573 131.024 222.874 126.782" stroke="#263238" stroke-linecap="round" stroke-linejoin="round"/>
<path d="M229.841 169.995C232.076 165.865 234.899 162.083 238.224 158.768" stroke="#263238" stroke-linecap="round" stroke-linejoin="round"/>
<path d="M229.081 174.348C227.893 171.548 226.472 168.853 224.834 166.29C222.551 162.915 222.22 162.479 222.22 162.479" stroke="#263238" stroke-linecap="round" stroke-linejoin="round"/>
<path d="M225.333 195.412C226.327 192.953 227.507 190.574 228.863 188.295C230.22 186.177 231.749 184.174 233.435 182.307" stroke="#263238" stroke-linecap="round" stroke-linejoin="round"/>
<path d="M229.648 211.473C229.42 209.122 229.825 206.753 230.82 204.612C232.455 201.456 234.301 197.32 235.062 195.686" stroke="#263238" stroke-linecap="round" stroke-linejoin="round"/>
<path d="M200.702 153.914C200.702 153.914 200.365 151.968 202.617 148.769C204.868 145.569 206.359 143.716 206.359 143.716C206.359 143.716 208.492 147.958 206.434 151.114C204.905 153.353 203.192 155.46 201.313 157.414L200.702 153.914Z" fill="#0EA5E9"/>
<path d="M206.757 165.379C206.757 165.379 206.421 163.433 208.672 160.233C210.924 157.033 212.415 155.181 212.415 155.181C212.415 155.181 214.548 159.422 212.49 162.584C210.96 164.82 209.247 166.925 207.369 168.878L206.757 165.379Z" fill="#0EA5E9"/>
<path d="M201.443 157.196C201.443 157.196 200.907 155.325 197.489 153.397C194.071 151.47 191.937 150.459 191.937 150.459C191.937 150.459 191.85 155.206 195.056 157.165C197.403 158.516 199.859 159.67 202.398 160.614L201.443 157.196Z" fill="#0EA5E9"/>
<path d="M208.704 170.718C208.704 170.718 207.968 168.884 204.375 167.349C200.782 165.815 198.537 165.017 198.537 165.017C198.537 165.017 198.949 169.745 202.367 171.354C204.844 172.451 207.408 173.34 210.032 174.011L208.704 170.718Z" fill="#0EA5E9"/>
<path d="M210.513 186.517C210.513 186.517 210.183 184.571 206.983 182.319C203.783 180.067 201.769 178.813 201.769 178.813C201.769 178.813 201.182 183.523 204.183 185.806C206.374 187.402 208.696 188.81 211.125 190.016L210.513 186.517Z" fill="#0EA5E9"/>
<path d="M211.223 190.328C211.223 190.328 210.599 188.457 212.389 184.964C214.179 181.471 215.364 179.432 215.364 179.432C215.364 179.432 218.078 183.324 216.493 186.748C215.3 189.179 213.904 191.505 212.32 193.703L211.223 190.328Z" fill="#0EA5E9"/>
<path d="M216.675 206.015C216.675 206.015 216.9 204.056 219.962 201.649C223.025 199.241 224.952 197.85 224.952 197.85C224.952 197.85 225.807 202.522 222.944 204.973C220.847 206.689 218.61 208.227 216.257 209.57L216.675 206.015Z" fill="#0EA5E9"/>
<path d="M215.857 201.175C215.857 201.175 215.52 199.229 212.326 196.978C209.133 194.726 207.125 193.472 207.125 193.472C207.125 193.472 206.538 198.181 209.538 200.47C211.732 202.064 214.054 203.472 216.481 204.681L215.857 201.175Z" fill="#0EA5E9"/>
<path d="M215.857 211.753C215.857 211.753 216.019 209.782 213.499 206.795C210.979 203.807 209.345 202.085 209.345 202.085C209.345 202.085 207.58 206.489 209.907 209.464C211.612 211.559 213.49 213.508 215.52 215.29L215.857 211.753Z" fill="#0EA5E9"/>
<path d="M200.371 153.453C200.859 155.455 201.456 157.429 202.161 159.366C204.2 164.742 207.512 167.867 209.458 172.701C211.404 177.535 209.458 184.552 211.379 190.858C213.301 197.164 216.482 200.32 216.482 204.749C216.482 209.177 214.76 221.496 214.76 221.496" stroke="#263238" stroke-linecap="round" stroke-linejoin="round"/>
<path d="M201.699 158.48L198.375 156.74" stroke="#263238" stroke-linecap="round" stroke-linejoin="round"/>
<path d="M201.112 155.911L201.96 153.516" stroke="#263238" stroke-linecap="round" stroke-linejoin="round"/>
<path d="M209.253 172.502C209.253 172.502 206.478 171.086 203.64 169.676" stroke="#263238" stroke-linecap="round" stroke-linejoin="round"/>
<path d="M207.361 168.878C208.179 166.308 209.255 163.827 210.573 161.474" stroke="#263238" stroke-linecap="round" stroke-linejoin="round"/>
<path d="M210.899 189.298C209.049 186.956 206.868 184.895 204.425 183.179" stroke="#263238" stroke-linecap="round" stroke-linejoin="round"/>
<path d="M211.846 191.943C212.29 190.061 212.889 188.219 213.636 186.436C214.703 184.072 214.884 183.76 214.884 183.76" stroke="#263238" stroke-linecap="round" stroke-linejoin="round"/>
<path d="M216.33 208.111C217.412 206.771 218.61 205.529 219.91 204.4C220.738 203.791 221.514 203.115 222.231 202.379" stroke="#263238" stroke-linecap="round" stroke-linejoin="round"/>
<path d="M216.482 204.749C215.591 203.312 214.592 201.944 213.494 200.657C212.413 199.477 211.236 198.388 209.976 197.401" stroke="#263238" stroke-linecap="round" stroke-linejoin="round"/>
<path d="M215.521 215.289C215.409 213.789 214.899 212.347 214.042 211.11C212.676 209.308 211.067 206.913 210.412 205.971" stroke="#263238" stroke-linecap="round" stroke-linejoin="round"/>
<path d="M23.5405 126.745L20.8085 118.942L23.5405 122.254L21.3948 110.546L24.7131 118.942L25.8857 102.544L27.838 118.156L29.9837 115.037V118.942L32.5223 113.671L31.1563 122.84L33.4953 121.281L29.7903 126.352L23.5405 126.745Z" fill="#0EA5E9"/>
<path d="M32.1284 124.792H21.9802L23.8078 145.282H30.3008L32.1284 124.792Z" fill="#263238" stroke="#263238" stroke-linecap="round" stroke-linejoin="round"/>
<path d="M51.1664 145.052H16.5928V218.279H51.1664V145.052Z" fill="white" stroke="#263238" stroke-linecap="round" stroke-linejoin="round"/>
<path d="M53.0553 145.052H33.8754V218.279H53.0553V145.052Z" fill="white" stroke="#263238" stroke-linecap="round" stroke-linejoin="round"/>
<path d="M50.8972 145.052H33.8754V218.279H50.8972V145.052Z" fill="#263238" stroke="#263238" stroke-linecap="round" stroke-linejoin="round"/>
<path d="M48.9823 201.25H33.8754V216.245H48.9823V201.25Z" fill="#0EA5E9" stroke="#263238" stroke-linecap="round" stroke-linejoin="round"/>
<path d="M48.9823 202.061H33.8754V203.982H48.9823V202.061Z" fill="white" stroke="#263238" stroke-linecap="round" stroke-linejoin="round"/>
<path d="M48.9823 213.101H33.8754V215.022H48.9823V213.101Z" fill="white" stroke="#263238" stroke-linecap="round" stroke-linejoin="round"/>
<path d="M36.7394 201.562V220.524" stroke="#263238" stroke-linecap="round" stroke-linejoin="round"/>
<path d="M42.0097 201.562V220.524" stroke="#263238" stroke-linecap="round" stroke-linejoin="round"/>
<path d="M46.637 201.562V220.524" stroke="#263238" stroke-linecap="round" stroke-linejoin="round"/>
<path d="M48.9823 147.771H33.8754V169.82H48.9823V147.771Z" fill="#0EA5E9" stroke="#263238" stroke-linecap="round" stroke-linejoin="round"/>
<path d="M48.9823 148.695H33.8754V150.878H48.9823V148.695Z" fill="white" stroke="#263238" stroke-linecap="round" stroke-linejoin="round"/>
<path d="M48.9823 162.827H33.8754V165.01H48.9823V162.827Z" fill="white" stroke="#263238" stroke-linecap="round" stroke-linejoin="round"/>
<path d="M36.7394 148.121V169.671" stroke="#263238" stroke-linecap="round" stroke-linejoin="round"/>
<path d="M42.0097 148.121V169.671" stroke="#263238" stroke-linecap="round" stroke-linejoin="round"/>
<path d="M46.637 148.121V169.671" stroke="#263238" stroke-linecap="round" stroke-linejoin="round"/>
<path d="M48.9823 174.343H33.8754V196.392H48.9823V174.343Z" fill="#0EA5E9" stroke="#263238" stroke-linecap="round" stroke-linejoin="round"/>
<path d="M48.9823 175.265H33.8754V177.448H48.9823V175.265Z" fill="white" stroke="#263238" stroke-linecap="round" stroke-linejoin="round"/>
<path d="M48.9823 189.399H33.8754V191.582H48.9823V189.399Z" fill="white" stroke="#263238" stroke-linecap="round" stroke-linejoin="round"/>
<path d="M36.7394 174.697V196.241" stroke="#263238" stroke-linecap="round" stroke-linejoin="round"/>
<path d="M42.0097 174.697V196.241" stroke="#263238" stroke-linecap="round" stroke-linejoin="round"/>
<path d="M46.637 174.697V196.241" stroke="#263238" stroke-linecap="round" stroke-linejoin="round"/>
<path d="M51.1591 169.514H33.8754V172.022H51.1591V169.514Z" fill="white" stroke="#263238" stroke-linecap="round" stroke-linejoin="round"/>
<path d="M51.1591 196.254H33.8754V198.761H51.1591V196.254Z" fill="white" stroke="#263238" stroke-linecap="round" stroke-linejoin="round"/>
<path d="M51.159 145.052V218.272" stroke="#263238" stroke-linecap="round" stroke-linejoin="round"/>
<path d="M31.4357 145.052V218.272H33.8745V147.771H50.8588V145.021L31.4357 145.052Z" fill="white" stroke="#263238" stroke-linecap="round" stroke-linejoin="round"/>
<path d="M33.8754 147.772V145.052" stroke="#263238" stroke-linecap="round" stroke-linejoin="round"/>
<path d="M51.03 111.414C49.2149 107.915 48.454 105.407 48.454 104.827C48.454 103.68 50.9489 102.993 50.9489 102.993C54.841 100.935 73.1476 103.91 81.3872 105.283C85.9996 106.087 90.6656 106.545 95.3464 106.655C95.3464 106.655 96.4878 105.744 97.8413 104.596C99.1948 103.449 105.619 95.9016 108.139 95.2405C110.659 94.5793 112.942 96.1574 112.942 96.1574C112.942 96.1574 117.065 98.6523 116.372 99.1326C115.68 99.6129 105.619 108.283 103.099 109.886C100.579 111.489 95.3214 110.803 90.7432 111.72C86.8012 112.505 70.8336 113.478 67.1723 113.778C64.4226 114.43 61.5367 114.19 58.9327 113.092" fill="white"/>
<mask id="mask0_52_10492" style="mask-type:luminance" maskUnits="userSpaceOnUse" x="48" y="95" width="69" height="20">
<path d="M51.0299 111.415C49.2149 107.916 48.4539 105.408 48.4539 104.828C48.4539 103.681 50.9489 102.994 50.9489 102.994C54.841 100.936 73.1476 103.911 81.3871 105.284C85.9996 106.088 90.6656 106.546 95.3463 106.656C95.3463 106.656 96.4877 105.745 97.8412 104.597C99.1947 103.45 105.619 95.9026 108.139 95.2414C110.659 94.5803 112.942 96.1583 112.942 96.1583C112.942 96.1583 117.065 98.6533 116.372 99.1336C115.68 99.6138 105.619 108.284 103.099 109.887C100.579 111.49 95.3214 110.804 90.7431 111.721C86.8011 112.506 70.8335 113.479 67.1722 113.779C64.4225 114.431 61.5366 114.191 58.9327 113.093" fill="white"/>
</mask>
<g mask="url(#mask0_52_10492)">
<path d="M112.985 96.1336C112.985 96.1336 110.696 94.5306 108.182 95.2167C105.669 95.9028 99.2568 103.456 97.8846 104.573C96.5124 105.689 95.3896 106.631 95.3896 106.631C90.7089 106.522 86.0429 106.063 81.4305 105.259C73.1909 103.887 54.8843 100.893 50.9922 102.97C50.9922 102.97 48.4973 103.656 48.4973 104.803C48.5839 105.445 48.7494 106.074 48.99 106.675L49.3331 106.799C49.3331 106.799 53.905 106.319 63.7725 106.556C73.64 106.793 96.4625 108.147 97.9282 108.677C98.552 108.914 102.974 107.916 107.877 106.182C111.619 103.132 116.017 99.3208 116.459 99.0526C117.108 98.6472 112.985 96.1336 112.985 96.1336Z" fill="#0EA5E9"/>
<path opacity="0.5" d="M112.985 96.1336C112.985 96.1336 110.696 94.5306 108.182 95.2167C105.669 95.9028 99.2568 103.456 97.8846 104.573C96.5124 105.689 95.3896 106.631 95.3896 106.631C90.7089 106.522 86.0429 106.063 81.4305 105.259C73.1909 103.887 54.8843 100.893 50.9922 102.97C50.9922 102.97 48.4973 103.656 48.4973 104.803C48.5839 105.445 48.7494 106.074 48.99 106.675L49.3331 106.799C49.3331 106.799 53.905 106.319 63.7725 106.556C73.64 106.793 96.4625 108.147 97.9282 108.677C98.552 108.914 102.974 107.916 107.877 106.182C111.619 103.132 116.017 99.3208 116.459 99.0526C117.108 98.6472 112.985 96.1336 112.985 96.1336Z" fill="white"/>
</g>
<path d="M51.03 111.414C49.2149 107.915 48.454 105.407 48.454 104.827C48.454 103.68 50.9489 102.993 50.9489 102.993C54.841 100.935 73.1476 103.91 81.3872 105.283C85.9996 106.087 90.6656 106.545 95.3464 106.655C95.3464 106.655 96.4878 105.744 97.8413 104.596C99.1948 103.449 105.619 95.9016 108.139 95.2405C110.659 94.5793 112.942 96.1574 112.942 96.1574C112.942 96.1574 117.065 98.6523 116.372 99.1326C115.68 99.6129 105.619 108.283 103.099 109.886C100.579 111.489 95.3214 110.803 90.7432 111.72C86.8012 112.505 70.8336 113.478 67.1723 113.778C64.4226 114.43 61.5367 114.19 58.9327 113.092" stroke="#263238" stroke-linecap="round" stroke-linejoin="round"/>
<path d="M141.415 131.761C141.829 130.975 142.45 130.317 143.211 129.859C143.972 129.4 144.843 129.159 145.731 129.16H187.334C187.334 129.16 190.341 129.16 189.443 134.873C188.545 140.586 176.207 175.472 173.226 186.019C170.244 196.567 169.614 218.797 169.614 218.797H119.715C119.715 218.797 123.67 165.636 141.415 131.761Z" fill="white"/>
<mask id="mask1_52_10492" style="mask-type:luminance" maskUnits="userSpaceOnUse" x="119" y="129" width="71" height="90">
<path d="M141.415 131.76C141.829 130.974 142.45 130.317 143.211 129.858C143.972 129.4 144.843 129.158 145.731 129.159H187.334C187.334 129.159 190.341 129.159 189.443 134.873C188.545 140.586 176.207 175.471 173.226 186.019C170.244 196.566 169.614 218.796 169.614 218.796H119.715C119.715 218.796 123.67 165.635 141.415 131.76Z" fill="white"/>
</mask>
<g mask="url(#mask1_52_10492)">
<path opacity="0.16" d="M160.153 129.159H145.732C144.844 129.158 143.972 129.4 143.211 129.858C142.451 130.317 141.83 130.974 141.416 131.76C123.67 165.635 119.672 218.777 119.672 218.777H142.052L147.572 197.814L170.588 202.56C170.75 200.801 170.937 199.011 171.155 197.246L170.65 191.632C170.65 191.632 165.935 186.674 164.45 185.433C162.966 184.191 163.951 181.952 163.702 172.278C163.452 162.604 154.77 155.649 151.539 149.693C148.308 143.736 153.279 140.012 157.745 134.056C159.336 131.904 159.984 130.319 160.153 129.159Z" fill="black"/>
</g>
<path d="M141.415 131.761C141.829 130.975 142.45 130.317 143.211 129.859C143.972 129.4 144.843 129.159 145.731 129.16H187.334C187.334 129.16 190.341 129.16 189.443 134.873C188.545 140.586 176.207 175.472 173.226 186.019C170.244 196.567 169.614 218.797 169.614 218.797H119.715C119.715 218.797 123.67 165.636 141.415 131.761Z" stroke="#263238" stroke-linecap="round" stroke-linejoin="round"/>
<path d="M180.118 139.083C175.914 148.894 167.02 187.734 165.573 218.778H169.589C169.589 218.778 170.213 196.523 173.201 186C176.188 175.478 188.538 140.586 189.418 134.854C190.297 129.122 187.31 129.141 187.31 129.141C187.31 129.141 183.492 131.218 180.118 139.083Z" fill="#263238" stroke="#263238" stroke-linecap="round" stroke-linejoin="round"/>
<path d="M107.034 119.472C107.034 119.472 100.397 115.58 97.8835 108.719C95.3699 101.858 117.562 90.868 127.199 90.1819C136.836 89.4958 139.555 92.0094 145.287 101.852C151.02 111.695 154.899 125.192 151.924 131.829C148.949 138.465 143.915 140.068 147.558 145.551C151.2 151.033 161.517 166.602 160.831 173.925C160.145 181.247 153.053 187.647 142.743 188.345C132.432 189.044 118.71 182.85 107.271 172.752C95.8315 162.654 98.8004 147.803 102.905 143C107.009 138.197 113.202 136.363 113.658 131.56C114.113 126.758 107.034 119.472 107.034 119.472Z" fill="#263238" stroke="#263238" stroke-linecap="round" stroke-linejoin="round"/>
<path d="M135.322 108.613C138.846 115.175 143.256 123.963 144.634 129.271C147.042 138.565 134.655 144.416 138.091 148.888" stroke="white" stroke-linecap="round" stroke-linejoin="round"/>
<path d="M130.518 100.019C130.518 100.019 131.89 102.358 133.787 105.801" stroke="white" stroke-linecap="round" stroke-linejoin="round"/>
<path d="M149.007 116.529C149.413 117.759 149.677 119.032 149.793 120.322" stroke="white" stroke-linecap="round" stroke-linejoin="round"/>
<path d="M132.9 96.606C132.9 96.606 143.741 104.615 148.07 114.202" stroke="white" stroke-linecap="round" stroke-linejoin="round"/>
<path d="M117.858 102.613C110.117 104.784 98.9837 108.308 99.8881 110.341" stroke="white" stroke-linecap="round" stroke-linejoin="round"/>
<path d="M125.011 100.705C125.011 100.705 123.358 101.116 120.894 101.777" stroke="white" stroke-linecap="round" stroke-linejoin="round"/>
<path d="M115.437 96.6624C119.87 95.2651 124.514 94.6529 129.159 94.8536" stroke="white" stroke-linecap="round" stroke-linejoin="round"/>
<path d="M112.281 97.9539C112.982 97.5887 113.707 97.2719 114.451 97.0059" stroke="white" stroke-linecap="round" stroke-linejoin="round"/>
<path d="M51.0303 111.414C49.9798 109.491 49.1431 107.458 48.5354 105.352C49.1402 107.459 49.977 109.492 51.0303 111.414ZM48.4668 104.996C48.4668 105.033 48.4668 105.077 48.4668 105.133C48.4792 105.077 48.473 105.033 48.4668 104.996ZM51.0303 111.408C53.363 115.826 56.2653 119.92 59.6628 123.583C67.9023 132.509 91.704 155.855 93.9682 157.458C96.2324 159.061 95.5712 163.633 93.9682 168.212C92.3652 172.79 86.4148 179.439 86.6455 186.749C86.8763 194.059 89.1405 205.286 88.9347 207.575C88.7288 209.865 83.0029 217.649 83.0029 217.649H142.046C142.046 217.649 134.686 208.293 134.686 205.093C134.686 201.893 144.79 160.895 145.245 157.92C145.701 154.945 143.873 152.886 140.212 152.656C136.551 152.425 122.591 149.45 121.905 147.161C121.219 144.871 125.567 136.177 125.567 136.177L111.844 136.863C111.844 136.863 111.158 142.813 110.241 143.961C109.325 145.108 107.952 142.813 104.746 141.216C101.54 139.62 95.3903 138.241 93.0763 136.407C90.7622 134.574 68.8192 113.953 68.8192 113.953" fill="white"/>
<mask id="mask2_52_10492" style="mask-type:luminance" maskUnits="userSpaceOnUse" x="48" y="104" width="98" height="114">
<path d="M51.0294 111.413C49.9789 109.49 49.1422 107.457 48.5344 105.351C49.1393 107.458 49.9761 109.491 51.0294 111.413ZM48.4658 104.995C48.4658 105.032 48.4658 105.076 48.4658 105.132C48.4783 105.076 48.4721 105.032 48.4658 104.995ZM51.0294 111.407C53.3621 115.825 56.2644 119.919 59.6619 123.582C67.9014 132.508 91.7031 155.854 93.9673 157.457C96.2314 159.06 95.5703 163.632 93.9673 168.211C92.3643 172.789 86.4139 179.438 86.6446 186.748C86.8754 194.058 89.1396 205.285 88.9337 207.574C88.7279 209.864 83.002 217.648 83.002 217.648H142.045C142.045 217.648 134.685 208.292 134.685 205.092C134.685 201.892 144.789 160.894 145.245 157.919C145.7 154.944 143.872 152.885 140.211 152.655C136.55 152.424 122.59 149.449 121.904 147.16C121.218 144.87 125.566 136.176 125.566 136.176L111.844 136.862C111.844 136.862 111.157 142.812 110.241 143.96C109.324 145.107 107.951 142.812 104.745 141.215C101.539 139.619 95.3894 138.24 93.0753 136.406C90.7613 134.573 68.8183 113.952 68.8183 113.952" fill="white"/>
</mask>
<g mask="url(#mask2_52_10492)">
<path d="M96.5807 138.173C97.7222 140.169 98.8636 141.971 98.8636 141.971C98.8636 141.971 102.712 144.136 103.673 144.136C104.633 144.136 110.409 147.254 110.409 147.254C110.409 147.254 115.224 146.051 113.528 141.959C112.992 140.911 112.317 139.942 111.519 139.077C111.232 140.892 110.771 143.269 110.228 143.949C109.311 145.09 107.939 142.801 104.733 141.204C102.656 140.169 99.294 139.221 96.5807 138.173Z" fill="#0EA5E9"/>
<path d="M84.8296 128.91C77.7627 122.367 68.8183 113.977 68.8183 113.977L63.6163 113.229L62.9926 113.578C62.9926 113.578 77.6753 126.571 80.8002 128.018C82.0644 128.599 83.4382 128.903 84.8296 128.91Z" fill="#0EA5E9"/>
<path d="M92.2329 135.684L91.6715 135.185C91.9584 135.659 92.1206 135.958 92.1206 135.958L92.2329 135.684Z" fill="#0EA5E9"/>
<g opacity="0.5">
<path d="M96.5804 138.173C97.7219 140.169 98.8633 141.971 98.8633 141.971C98.8633 141.971 102.712 144.136 103.672 144.136C104.633 144.136 110.409 147.254 110.409 147.254C110.409 147.254 115.224 146.051 113.527 141.959C112.992 140.911 112.316 139.942 111.519 139.077C111.232 140.892 110.77 143.269 110.228 143.949C109.311 145.09 107.939 142.801 104.733 141.204C102.656 140.169 99.2937 139.221 96.5804 138.173Z" fill="white"/>
<path d="M84.8293 128.91C77.7623 122.367 68.818 113.977 68.818 113.977L63.616 113.229L62.9923 113.578C62.9923 113.578 77.675 126.571 80.7999 128.018C82.0641 128.599 83.4379 128.903 84.8293 128.91Z" fill="white"/>
<path d="M92.2326 135.684L91.6713 135.185C91.9582 135.659 92.1204 135.958 92.1204 135.958L92.2326 135.684Z" fill="white"/>
</g>
</g>
<path d="M48.4543 104.828C48.4514 104.871 48.4514 104.915 48.4543 104.959M48.5354 105.352C49.1431 107.458 49.9798 109.491 51.0303 111.414C49.977 109.492 49.1402 107.459 48.5354 105.352ZM48.5354 105.352C48.5182 105.292 48.5056 105.232 48.4979 105.171M51.0303 111.408C53.363 115.826 56.2653 119.92 59.6628 123.583C67.9023 132.509 91.704 155.855 93.9682 157.458C96.2324 159.061 95.5712 163.633 93.9682 168.212C92.3652 172.79 86.4148 179.439 86.6456 186.749C86.8763 194.059 89.1405 205.286 88.9347 207.575C88.7288 209.865 83.0029 217.649 83.0029 217.649H142.046C142.046 217.649 134.686 208.293 134.686 205.093C134.686 201.893 144.79 160.895 145.245 157.92C145.701 154.945 143.873 152.886 140.212 152.656C136.551 152.425 122.591 149.45 121.905 147.161C121.219 144.871 125.567 136.177 125.567 136.177L111.844 136.863C111.844 136.863 111.158 142.813 110.241 143.961C109.325 145.108 107.952 142.813 104.746 141.216C101.54 139.62 95.3903 138.241 93.0763 136.407C90.7622 134.574 68.8192 113.953 68.8192 113.953M48.4668 104.996C48.4668 105.033 48.4668 105.077 48.4668 105.133C48.4792 105.077 48.473 105.033 48.4668 104.996Z" stroke="#263238" stroke-linecap="round" stroke-linejoin="round"/>
<path d="M68.8188 113.978C68.8188 113.978 61.5087 114.115 57.4294 110.753" stroke="#263238" stroke-linecap="round" stroke-linejoin="round"/>
<path d="M121.91 147.16C121.224 144.877 125.571 136.176 125.571 136.176L111.849 136.862C111.849 136.862 111.163 142.813 110.246 143.96C109.329 145.108 107.957 142.813 104.751 141.216C104.507 141.091 104.239 140.973 103.965 140.854L103.135 153.897C103.135 153.897 104.339 166.527 118.772 164.126C124.617 163.153 130.854 157.938 136.237 152.075C130.698 151.059 122.434 148.913 121.91 147.16Z" fill="white"/>
<mask id="mask3_52_10492" style="mask-type:luminance" maskUnits="userSpaceOnUse" x="103" y="136" width="34" height="29">
<path d="M121.911 147.161C121.224 144.878 125.572 136.177 125.572 136.177L111.85 136.863C111.85 136.863 111.164 142.813 110.247 143.961C109.33 145.109 107.958 142.813 104.752 141.217C104.508 141.092 104.24 140.973 103.966 140.855L103.136 153.897C103.136 153.897 104.34 166.528 118.773 164.126C124.618 163.153 130.855 157.939 136.238 152.076C130.699 151.059 122.434 148.913 121.911 147.161Z" fill="white"/>
</mask>
<g mask="url(#mask3_52_10492)">
<path d="M121.523 137.904C121.523 137.904 120.693 142.557 120.026 147.703C119.358 152.849 118.866 156.679 118.866 156.679L121.909 147.16L125.34 137.075C125.34 137.075 122.022 137.075 121.523 137.904Z" fill="#0EA5E9"/>
<path opacity="0.5" d="M121.523 137.904C121.523 137.904 120.693 142.557 120.026 147.703C119.358 152.849 118.866 156.679 118.866 156.679L121.909 147.16L125.34 137.075C125.34 137.075 122.022 137.075 121.523 137.904Z" fill="white"/>
</g>
<path d="M121.91 147.16C121.224 144.877 125.571 136.176 125.571 136.176L111.849 136.862C111.849 136.862 111.163 142.813 110.246 143.96C109.329 145.108 107.957 142.813 104.751 141.216C104.507 141.091 104.239 140.973 103.965 140.854L103.135 153.897C103.135 153.897 104.339 166.527 118.772 164.126C124.617 163.153 130.854 157.938 136.237 152.075C130.698 151.059 122.434 148.913 121.91 147.16Z" stroke="#263238" stroke-linecap="round" stroke-linejoin="round"/>
<path d="M110.241 143.961C109.324 145.102 107.952 142.813 104.746 141.216C102.725 140.2 99.5063 139.276 96.8429 138.278C96.0882 136.488 95.0902 134.156 94.4478 132.746C93.3063 130.251 91.4726 131.829 91.4726 131.829C90.5159 130.741 89.7427 129.504 89.1835 128.168C88.042 125.673 86.2082 125.879 83.6946 125.423C81.1809 124.968 75.9104 120.159 75.9104 120.159C75.9104 120.159 73.4466 118.288 72.4299 117.358C71.2448 119.691 68.4068 123.795 62.2693 126.359C72.0557 136.582 91.9092 156.005 93.9924 157.465C96.2816 159.061 95.5954 163.64 93.9924 168.218C92.3894 172.796 86.439 179.445 86.6698 186.755C86.9006 194.065 89.1647 205.293 88.9589 207.582C88.7531 209.621 84.1873 216.015 83.1956 217.387L85.5221 217.649H97.6351C97.5665 211.511 97.5727 186.462 101.77 176.482C106.579 165.012 110.241 143.961 110.241 143.961Z" fill="#0EA5E9"/>
<mask id="mask4_52_10492" style="mask-type:luminance" maskUnits="userSpaceOnUse" x="62" y="117" width="49" height="101">
<path d="M110.242 143.96C109.325 145.101 107.953 142.812 104.747 141.215C102.726 140.199 99.5072 139.275 96.8438 138.277C96.0891 136.487 95.0911 134.155 94.4487 132.745C93.3073 130.25 91.4735 131.828 91.4735 131.828C90.5168 130.74 89.7436 129.503 89.1844 128.167C88.0429 125.672 86.2092 125.878 83.6955 125.422C81.1818 124.967 75.9113 120.158 75.9113 120.158C75.9113 120.158 73.4475 118.287 72.4308 117.357C71.2458 119.69 68.4078 123.794 62.2702 126.358C72.0566 136.581 91.9101 156.004 93.9934 157.464C96.2825 159.06 95.5964 163.639 93.9934 168.217C92.3904 172.795 86.4399 179.444 86.6707 186.754C86.9015 194.064 89.1657 205.292 88.9598 207.581C88.754 209.62 84.1882 216.014 83.1965 217.386L85.523 217.648H97.636C97.5674 211.51 97.5736 186.461 101.771 176.481C106.58 165.011 110.242 143.96 110.242 143.96Z" fill="white"/>
</mask>
<g mask="url(#mask4_52_10492)">
<path opacity="0.16" d="M104.747 141.216C102.726 140.199 99.5073 139.276 96.8439 138.278C96.0892 136.488 95.0912 134.155 94.4488 132.745C93.3074 130.251 91.4736 131.829 91.4736 131.829C90.5169 130.74 89.7437 129.504 89.1845 128.167C88.043 125.672 86.2093 125.878 83.6956 125.423C81.1819 124.967 75.9114 120.158 75.9114 120.158C75.9114 120.158 73.4476 118.287 72.431 117.358C71.9236 118.348 71.3199 119.287 70.6284 120.158C74.7201 123.62 79.2359 127.288 80.8139 128.018C83.9326 129.458 84.6624 128.255 87.0513 129.702C89.4402 131.149 92.1035 135.939 92.1035 135.939C92.1035 135.939 93.5506 132.084 94.7544 134.735C95.9582 137.386 98.8461 141.952 98.8461 141.952C98.8461 141.952 102.695 144.116 103.655 144.116C104.41 144.116 108.109 146.037 109.68 146.867C110.03 145.039 110.223 143.942 110.223 143.942C109.325 145.102 107.953 142.813 104.747 141.216Z" fill="black"/>
</g>
<path d="M110.241 143.961C109.324 145.102 107.952 142.813 104.746 141.216C102.725 140.2 99.5063 139.276 96.8429 138.278C96.0882 136.488 95.0902 134.156 94.4478 132.746C93.3063 130.251 91.4726 131.829 91.4726 131.829C90.5159 130.741 89.7427 129.504 89.1835 128.168C88.042 125.673 86.2082 125.879 83.6946 125.423C81.1809 124.968 75.9104 120.159 75.9104 120.159C75.9104 120.159 73.4466 118.288 72.4299 117.358C71.2448 119.691 68.4068 123.795 62.2693 126.359C72.0557 136.582 91.9092 156.005 93.9924 157.465C96.2816 159.061 95.5954 163.64 93.9924 168.218C92.3894 172.796 86.439 179.445 86.6698 186.755C86.9006 194.065 89.1647 205.293 88.9589 207.582C88.7531 209.621 84.1873 216.015 83.1956 217.387L85.5221 217.649H97.6351C97.5665 211.511 97.5727 186.462 101.77 176.482C106.579 165.012 110.241 143.961 110.241 143.961Z" stroke="#263238" stroke-linecap="round" stroke-linejoin="round"/>
<path d="M110.404 143.162C110.404 143.162 107.559 142.289 105.807 143.823C104.054 145.358 101.441 153.229 99.8999 161.768C98.9504 166.739 99.6057 171.883 101.771 176.457C101.771 176.457 105.37 167.02 106.462 162.423C107.553 157.826 110.404 143.162 110.404 143.162Z" fill="#0EA5E9"/>
<mask id="mask5_52_10492" style="mask-type:luminance" maskUnits="userSpaceOnUse" x="99" y="142" width="12" height="35">
<path d="M110.401 143.162C110.401 143.162 107.557 142.289 105.804 143.823C104.051 145.358 101.438 153.229 99.8972 161.768C98.9476 166.739 99.6029 171.883 101.768 176.457C101.768 176.457 105.367 167.02 106.459 162.423C107.55 157.826 110.401 143.162 110.401 143.162Z" fill="white"/>
</mask>
<g mask="url(#mask5_52_10492)">
<path opacity="0.16" d="M104.944 144.554C104.944 144.554 107.002 144.055 107.85 144.342C108.565 144.648 109.232 145.053 109.834 145.545L110.402 143.163C109.55 142.728 108.584 142.569 107.638 142.708C106.223 142.994 104.944 144.554 104.944 144.554Z" fill="black"/>
</g>
<path d="M110.404 143.162C110.404 143.162 107.559 142.289 105.807 143.823C104.054 145.358 101.441 153.229 99.8999 161.768C98.9504 166.739 99.6057 171.883 101.771 176.457C101.771 176.457 105.37 167.02 106.462 162.423C107.553 157.826 110.404 143.162 110.404 143.162Z" stroke="#263238" stroke-linecap="round" stroke-linejoin="round"/>
<path d="M91.2476 143.911L94.909 158.787L86.6694 140.019" stroke="#263238" stroke-linecap="round" stroke-linejoin="round"/>
<path d="M115.369 217.649H142.052C142.052 217.649 134.692 208.293 134.692 205.093C134.692 201.893 144.797 160.895 145.252 157.92C145.707 154.945 143.88 152.887 140.218 152.656C136.557 152.425 122.598 149.45 121.912 147.161C121.912 147.161 116.647 165.698 114.82 178.285C113.248 189.082 114.876 211.486 115.369 217.649Z" fill="#0EA5E9"/>
<mask id="mask6_52_10492" style="mask-type:luminance" maskUnits="userSpaceOnUse" x="114" y="147" width="32" height="71">
<path d="M115.367 217.65H142.051C142.051 217.65 134.691 208.294 134.691 205.094C134.691 201.894 144.795 160.896 145.25 157.921C145.706 154.946 143.878 152.888 140.217 152.657C136.556 152.426 122.596 149.451 121.91 147.162C121.91 147.162 116.646 165.699 114.818 178.286C113.247 189.083 114.874 211.487 115.367 217.65Z" fill="white"/>
</mask>
<g mask="url(#mask6_52_10492)">
<path opacity="0.16" d="M140.217 152.657C137.217 152.469 127.305 150.436 123.445 148.453L124.848 151.696C127.391 153.045 130.125 153.996 132.956 154.515C137.603 155.345 141.926 155.183 144.751 159.337L144.889 159.543C145.063 158.744 145.182 158.183 145.219 157.921C145.712 154.946 143.878 152.887 140.217 152.657Z" fill="black"/>
</g>
<path d="M115.369 217.649H142.052C142.052 217.649 134.692 208.293 134.692 205.093C134.692 201.893 144.797 160.895 145.252 157.92C145.707 154.945 143.88 152.887 140.218 152.656C136.557 152.425 122.598 149.45 121.912 147.161C121.912 147.161 116.647 165.698 114.82 178.285C113.248 189.082 114.876 211.486 115.369 217.649Z" stroke="#263238" stroke-linecap="round" stroke-linejoin="round"/>
<path d="M121.912 147.161C121.912 147.161 114.851 169.615 114.82 178.285C114.82 178.285 124.849 166.141 126.159 157.608C127.469 149.076 121.912 147.161 121.912 147.161Z" fill="#0EA5E9"/>
<mask id="mask7_52_10492" style="mask-type:luminance" maskUnits="userSpaceOnUse" x="114" y="147" width="13" height="32">
<path d="M121.91 147.16C121.91 147.16 114.849 169.614 114.818 178.284C114.818 178.284 124.848 166.14 126.157 157.607C127.467 149.075 121.91 147.16 121.91 147.16Z" fill="white"/>
</mask>
<g mask="url(#mask7_52_10492)">
<path opacity="0.16" d="M120.693 150.028C121.754 149.993 122.808 150.216 123.763 150.679C124.718 151.142 125.546 151.831 126.176 152.685C126.176 152.685 124.791 148.612 121.909 147.159L120.693 150.028Z" fill="black"/>
</g>
<path d="M121.912 147.161C121.912 147.161 114.851 169.615 114.82 178.285C114.82 178.285 124.849 166.141 126.159 157.608C127.469 149.076 121.912 147.161 121.912 147.161Z" stroke="#263238" stroke-linecap="round" stroke-linejoin="round"/>
<path d="M197.29 213.426C197.29 213.426 202.461 213.638 205.848 214.124C208.107 214.431 210.38 214.612 212.659 214.667C212.659 214.667 210.788 210.887 208.792 209.821C206.796 208.754 203.178 206.845 200.147 207.269C197.116 207.694 192.781 210.75 193.142 211.723C193.504 212.696 195.12 213.133 197.29 213.426Z" fill="white"/>
<mask id="mask8_52_10492" style="mask-type:luminance" maskUnits="userSpaceOnUse" x="193" y="207" width="20" height="8">
<path d="M197.29 213.425C197.29 213.425 202.461 213.637 205.848 214.124C208.107 214.43 210.38 214.611 212.659 214.666C212.659 214.666 210.788 210.887 208.792 209.82C206.796 208.753 203.178 206.845 200.147 207.269C197.116 207.693 192.781 210.749 193.142 211.722C193.504 212.695 195.12 213.132 197.29 213.425Z" fill="white"/>
</mask>
<g mask="url(#mask8_52_10492)">
<path d="M197.29 213.425C197.29 213.425 202.461 213.637 205.848 214.124C208.107 214.43 210.38 214.611 212.659 214.666C212.659 214.666 210.788 210.887 208.792 209.82C206.796 208.753 203.178 206.845 200.147 207.269C197.116 207.693 192.781 210.749 193.142 211.722C193.504 212.695 195.12 213.132 197.29 213.425Z" fill="#0EA5E9"/>
<path opacity="0.5" d="M197.29 213.425C197.29 213.425 202.461 213.637 205.848 214.124C208.107 214.43 210.38 214.611 212.659 214.666C212.659 214.666 210.788 210.887 208.792 209.82C206.796 208.753 203.178 206.845 200.147 207.269C197.116 207.693 192.781 210.749 193.142 211.722C193.504 212.695 195.12 213.132 197.29 213.425Z" fill="white"/>
</g>
<path d="M197.29 213.426C197.29 213.426 202.461 213.638 205.848 214.124C208.107 214.431 210.38 214.612 212.659 214.667C212.659 214.667 210.788 210.887 208.792 209.821C206.796 208.754 203.178 206.845 200.147 207.269C197.116 207.694 192.781 210.75 193.142 211.723C193.504 212.696 195.12 213.133 197.29 213.426Z" stroke="#263238" stroke-linecap="round" stroke-linejoin="round"/>
<path d="M205.878 211.879C205.878 211.879 209.976 209.752 210.999 209.784C212.022 209.815 218.821 214.412 218.484 215.148C218.255 215.489 217.925 215.75 217.54 215.893C217.155 216.036 216.735 216.055 216.338 215.946C215.584 215.59 211.005 213.644 211.005 213.644L208.011 214.349L205.878 211.879Z" fill="white"/>
<mask id="mask9_52_10492" style="mask-type:luminance" maskUnits="userSpaceOnUse" x="205" y="209" width="14" height="8">
<path d="M205.877 211.879C205.877 211.879 209.975 209.752 210.998 209.784C212.021 209.815 218.82 214.412 218.483 215.148C218.254 215.489 217.924 215.75 217.539 215.893C217.154 216.036 216.734 216.055 216.337 215.946C215.583 215.59 211.004 213.644 211.004 213.644L208.011 214.349L205.877 211.879Z" fill="white"/>
</mask>
<g mask="url(#mask9_52_10492)">
<path d="M205.877 211.879C205.877 211.879 209.975 209.752 210.998 209.784C212.021 209.815 218.82 214.412 218.483 215.148C218.146 215.884 216.537 216.482 216.337 215.946C216.138 215.41 211.004 213.644 211.004 213.644L208.011 214.349L205.877 211.879Z" fill="#0EA5E9"/>
<path opacity="0.5" d="M205.877 211.879C205.877 211.879 209.975 209.752 210.998 209.784C212.021 209.815 218.82 214.412 218.483 215.148C218.146 215.884 216.537 216.482 216.337 215.946C216.138 215.41 211.004 213.644 211.004 213.644L208.011 214.349L205.877 211.879Z" fill="white"/>
</g>
<path d="M205.878 211.879C205.878 211.879 209.976 209.752 210.999 209.784C212.022 209.815 218.821 214.412 218.484 215.148C218.255 215.489 217.925 215.75 217.54 215.893C217.155 216.036 216.735 216.055 216.338 215.946C215.584 215.59 211.005 213.644 211.005 213.644L208.011 214.349L205.878 211.879Z" stroke="#263238" stroke-linecap="round" stroke-linejoin="round"/>
<path d="M202.953 208.38C202.953 208.38 208.417 208.206 209.502 208.755C210.588 209.304 215.49 217.711 214.754 218.323C214.018 218.934 211.985 218.753 212.047 218.073C212.11 217.393 207.531 212.89 207.531 212.89L203.97 212.11L202.953 208.38Z" fill="white"/>
<mask id="mask10_52_10492" style="mask-type:luminance" maskUnits="userSpaceOnUse" x="202" y="208" width="13" height="11">
<path d="M202.951 208.38C202.951 208.38 208.415 208.205 209.501 208.754C210.586 209.303 215.488 217.711 214.752 218.322C214.016 218.934 211.983 218.753 212.045 218.073C212.108 217.393 207.53 212.89 207.53 212.89L203.968 212.11L202.951 208.38Z" fill="white"/>
</mask>
<g mask="url(#mask10_52_10492)">
<path d="M202.951 208.38C202.951 208.38 208.415 208.205 209.501 208.754C210.586 209.303 215.488 217.711 214.752 218.322C214.016 218.934 211.983 218.753 212.045 218.073C212.108 217.393 207.53 212.89 207.53 212.89L203.968 212.11L202.951 208.38Z" fill="#0EA5E9"/>
<path opacity="0.5" d="M202.951 208.38C202.951 208.38 208.415 208.205 209.501 208.754C210.586 209.303 215.488 217.711 214.752 218.322C214.016 218.934 211.983 218.753 212.045 218.073C212.108 217.393 207.53 212.89 207.53 212.89L203.968 212.11L202.951 208.38Z" fill="white"/>
</g>
<path d="M202.953 208.38C202.953 208.38 208.417 208.206 209.502 208.755C210.588 209.304 215.49 217.711 214.754 218.323C214.018 218.934 211.985 218.753 212.047 218.073C212.11 217.393 207.531 212.89 207.531 212.89L203.97 212.11L202.953 208.38Z" stroke="#263238" stroke-linecap="round" stroke-linejoin="round"/>
<path d="M199.715 207.251C199.715 207.251 205.248 207.07 206.346 207.631C207.444 208.193 212.408 216.694 211.66 217.318C210.911 217.942 208.866 217.748 208.928 217.062C208.99 216.376 204.356 211.817 204.356 211.817L200.751 211.025L199.715 207.251Z" fill="white"/>
<mask id="mask11_52_10492" style="mask-type:luminance" maskUnits="userSpaceOnUse" x="199" y="207" width="13" height="11">
<path d="M199.717 207.251C199.717 207.251 205.25 207.071 206.348 207.632C207.445 208.193 212.41 216.695 211.662 217.318C210.913 217.942 208.867 217.749 208.93 217.063C208.992 216.377 204.358 211.817 204.358 211.817L200.753 211.025L199.717 207.251Z" fill="white"/>
</mask>
<g mask="url(#mask11_52_10492)">
<path d="M199.717 207.251C199.717 207.251 205.25 207.071 206.348 207.632C207.445 208.193 212.41 216.695 211.662 217.318C210.913 217.942 208.867 217.749 208.93 217.063C208.992 216.377 204.358 211.817 204.358 211.817L200.753 211.025L199.717 207.251Z" fill="#0EA5E9"/>
<path opacity="0.5" d="M199.717 207.251C199.717 207.251 205.25 207.071 206.348 207.632C207.445 208.193 212.41 216.695 211.662 217.318C210.913 217.942 208.867 217.749 208.93 217.063C208.992 216.377 204.358 211.817 204.358 211.817L200.753 211.025L199.717 207.251Z" fill="white"/>
</g>
<path d="M199.715 207.251C199.715 207.251 205.248 207.07 206.346 207.631C207.444 208.193 212.408 216.694 211.66 217.318C210.911 217.942 208.866 217.748 208.928 217.062C208.99 216.376 204.356 211.817 204.356 211.817L200.751 211.025L199.715 207.251Z" stroke="#263238" stroke-linecap="round" stroke-linejoin="round"/>
<path d="M136.812 175.552C140.816 181.721 148.856 197.352 151.202 199.111C154.863 201.855 179.338 208.517 181.696 210.338C184.054 212.159 183.892 213.987 186.125 214.654C188.358 215.322 196.728 217.237 199.922 217.536C203.115 217.835 201.687 215.858 201.687 215.858L196.242 212.116L200.988 210.943C200.988 210.943 205.747 216.669 206.639 216.981C207.531 217.293 209.103 216.981 209.003 216.276C208.829 215.147 203.751 205.909 201.949 205.517C200.146 205.124 189.206 206.639 189.206 206.639C189.206 206.639 166.259 191.164 165.847 190.616C165.847 190.616 164.475 186.723 163.352 185.12C162.229 183.517 161.518 183.979 161.518 183.979C161.518 183.979 161.98 181.914 161.294 181.228L157.632 177.567L157.501 177.742C156.878 176.494 156.254 175.072 155.568 173.45C153.653 168.941 146.873 156.285 145.732 154.458C144.877 153.092 137.717 152.112 134.086 151.701" fill="#0EA5E9"/>
<mask id="mask12_52_10492" style="mask-type:luminance" maskUnits="userSpaceOnUse" x="134" y="151" width="76" height="67">
<path d="M136.809 175.553C140.813 181.722 148.853 197.353 151.199 199.112C154.86 201.856 179.335 208.518 181.693 210.339C184.051 212.16 183.889 213.988 186.122 214.655C188.354 215.323 196.725 217.237 199.919 217.537C203.112 217.836 201.684 215.859 201.684 215.859L196.238 212.117L200.985 210.944C200.985 210.944 205.744 216.67 206.636 216.982C207.528 217.294 209.1 216.982 209 216.277C208.825 215.148 203.748 205.91 201.946 205.517C200.143 205.125 189.203 206.64 189.203 206.64C189.203 206.64 166.256 191.165 165.844 190.616C165.844 190.616 164.472 186.724 163.349 185.121C162.226 183.518 161.515 183.98 161.515 183.98C161.515 183.98 161.977 181.915 161.291 181.229L157.629 177.568L157.498 177.743C156.875 176.495 156.251 175.073 155.565 173.451C153.65 168.942 146.87 156.286 145.728 154.459C144.874 153.093 137.713 152.113 134.083 151.702" fill="white"/>
</mask>
<g mask="url(#mask12_52_10492)">
<path opacity="0.16" d="M152.754 175.946C155.748 178.603 154.75 178.603 154.082 180.936C153.415 183.269 154.581 180.106 157.407 180.275C160.232 180.443 159.403 184.092 159.066 184.759C158.729 185.427 162.559 186.256 161.891 187.747C161.224 189.238 157.407 191.402 155.249 193.566C153.09 195.731 160.893 190.073 163.551 189.911C164.361 189.855 165.029 189.961 165.59 189.949C165.001 188.28 164.245 186.675 163.332 185.158C162.185 183.555 161.498 184.017 161.498 184.017C161.498 184.017 161.96 181.952 161.274 181.266L157.613 177.605L157.482 177.78C156.858 176.532 156.234 175.11 155.548 173.488C153.633 168.979 146.853 156.323 145.712 154.496C144.857 153.13 137.697 152.15 134.067 151.739L134.397 154.627L134.478 154.689C134.478 154.689 138.963 155.519 140.46 155.687C141.957 155.855 143.784 157.178 143.616 158.182C143.448 159.186 139.131 163.665 140.46 164.001C141.788 164.338 143.285 160.677 144.782 161.176C146.279 161.675 149.741 173.289 152.754 175.946Z" fill="black"/>
</g>
<path d="M136.812 175.552C140.816 181.721 148.856 197.352 151.202 199.111C154.863 201.855 179.338 208.517 181.696 210.338C184.054 212.159 183.892 213.987 186.125 214.654C188.358 215.322 196.728 217.237 199.922 217.536C203.115 217.835 201.687 215.858 201.687 215.858L196.242 212.116L200.988 210.943C200.988 210.943 205.747 216.669 206.639 216.981C207.531 217.293 209.103 216.981 209.003 216.276C208.829 215.147 203.751 205.909 201.949 205.517C200.146 205.124 189.206 206.639 189.206 206.639C189.206 206.639 166.259 191.164 165.847 190.616C165.847 190.616 164.475 186.723 163.352 185.12C162.229 183.517 161.518 183.979 161.518 183.979C161.518 183.979 161.98 181.914 161.294 181.228L157.632 177.567L157.501 177.742C156.878 176.494 156.254 175.072 155.568 173.45C153.653 168.941 146.873 156.285 145.732 154.458C144.877 153.092 137.717 152.112 134.086 151.701" stroke="#263238" stroke-linecap="round" stroke-linejoin="round"/>
<path d="M136.875 167.089C136.706 167.651 136.563 168.212 136.451 168.786" stroke="#263238" stroke-linecap="round" stroke-linejoin="round"/>
<path d="M142.937 156.766C140.977 159 139.324 161.486 138.022 164.157" stroke="#263238" stroke-linecap="round" stroke-linejoin="round"/>
<path d="M152.1 192.181C153.784 189.686 156.466 186.524 159.423 185.62" stroke="#263238" stroke-linecap="round" stroke-linejoin="round"/>
<path d="M150.235 195.25C150.235 195.25 150.535 194.664 151.071 193.778" stroke="#263238" stroke-linecap="round" stroke-linejoin="round"/>
<path d="M150.235 191.308C150.235 191.308 153.298 183.649 156.36 181.678C159.423 179.707 157.67 183.649 157.67 183.649" stroke="#263238" stroke-linecap="round" stroke-linejoin="round"/>
<path d="M181.696 210.344C184.06 212.172 183.892 213.993 186.125 214.661C188.358 215.328 196.728 217.243 199.922 217.542C203.115 217.842 201.687 215.864 201.687 215.864L196.242 212.122L200.988 210.949C200.988 210.949 205.747 216.675 206.639 216.987C207.531 217.299 209.228 217.411 209.003 216.282C208.567 214.099 203.751 205.916 201.949 205.523C200.146 205.13 189.206 206.646 189.206 206.646C189.206 206.646 168.305 192.3 166.015 190.747C157.14 191.601 152.917 196.248 151.139 199.036L151.202 199.086C154.863 201.855 179.338 208.517 181.696 210.344Z" fill="white"/>
<mask id="mask13_52_10492" style="mask-type:luminance" maskUnits="userSpaceOnUse" x="151" y="190" width="59" height="28">
<path d="M181.696 210.344C184.06 212.172 183.891 213.993 186.124 214.661C188.357 215.328 196.728 217.243 199.921 217.542C203.115 217.842 201.687 215.864 201.687 215.864L196.241 212.122L200.988 210.949C200.988 210.949 205.747 216.675 206.639 216.987C207.531 217.299 209.228 217.411 209.003 216.282C208.566 214.099 203.751 205.916 201.949 205.523C200.146 205.13 189.206 206.646 189.206 206.646C189.206 206.646 168.304 192.3 166.015 190.747C157.139 191.601 152.917 196.248 151.139 199.036L151.201 199.086C154.863 201.855 179.338 208.517 181.696 210.344Z" fill="white"/>
</mask>
<g mask="url(#mask13_52_10492)">
<path d="M208.997 216.308C207.862 213.533 203.745 205.942 201.943 205.549C200.14 205.156 189.2 206.671 189.2 206.671C189.2 206.671 168.299 192.326 166.009 190.772C163.68 190.975 161.394 191.528 159.229 192.413C162.529 194.284 184.522 206.759 187.297 207.314C190.242 207.938 200.065 206.322 201.793 207.482C202.891 208.218 206.159 213.402 208.367 217.082C208.997 216.988 209.228 216.87 208.997 216.308Z" fill="#0EA5E9"/>
<path opacity="0.5" d="M208.997 216.308C207.226 212.335 203.745 205.942 201.943 205.549C200.14 205.156 189.2 206.671 189.2 206.671C189.2 206.671 168.299 192.326 166.009 190.772C163.68 190.975 161.394 191.528 159.229 192.413C162.529 194.284 184.522 206.759 187.298 207.314C190.242 207.938 200.065 206.322 201.793 207.482C202.891 208.218 206.159 213.402 208.367 217.082C208.997 216.988 209.247 216.863 208.997 216.308Z" fill="white"/>
</g>
<path d="M181.696 210.344C184.06 212.172 183.892 213.993 186.125 214.661C188.358 215.328 196.728 217.243 199.922 217.542C203.115 217.842 201.687 215.864 201.687 215.864L196.242 212.122L200.988 210.949C200.988 210.949 205.747 216.675 206.639 216.987C207.531 217.299 209.228 217.411 209.003 216.282C208.567 214.099 203.751 205.916 201.949 205.523C200.146 205.13 189.206 206.646 189.206 206.646C189.206 206.646 168.305 192.3 166.015 190.747C157.14 191.601 152.917 196.248 151.139 199.036L151.202 199.086C154.863 201.855 179.338 208.517 181.696 210.344Z" stroke="#263238" stroke-linecap="round" stroke-linejoin="round"/>
<path d="M126.571 101.428L107.784 109.268C107.556 112.57 106.739 115.804 105.37 118.817C103.15 123.514 104.447 132.402 106.58 137.199C108.713 141.995 118.113 140.118 121.55 139.519C123.881 139.076 126.164 138.41 128.367 137.529C129.371 137.916 130.456 138.041 131.521 137.893C132.586 137.744 133.595 137.327 134.455 136.681C134.455 136.681 124.4 108.457 126.571 101.428Z" fill="white"/>
<mask id="mask14_52_10492" style="mask-type:luminance" maskUnits="userSpaceOnUse" x="104" y="101" width="31" height="40">
<path d="M126.571 101.428L107.784 109.269C107.556 112.57 106.739 115.805 105.37 118.818C103.15 123.515 104.447 132.403 106.58 137.199C108.713 141.996 118.113 140.118 121.55 139.52C123.881 139.076 126.164 138.41 128.367 137.53C129.371 137.917 130.456 138.042 131.521 137.893C132.586 137.745 133.595 137.328 134.455 136.682C134.455 136.682 124.4 108.458 126.571 101.428Z" fill="white"/>
</mask>
<g mask="url(#mask14_52_10492)">
<path d="M126.571 101.428L107.784 109.269C107.556 112.57 106.739 115.805 105.37 118.818C103.15 123.515 104.447 132.403 106.58 137.199C106.937 137.971 107.512 138.621 108.233 139.071V138.709C108.233 138.709 104.746 130.07 105.407 125.086C106.069 120.103 108.9 117.602 109.231 114.452C109.562 111.302 109.393 109.805 115.712 107.478C122.03 105.152 124.681 102.994 125.342 105.314C126.003 107.634 128.667 122.928 130.494 126.583C132.322 130.239 132.153 134.068 129.334 135.721C126.485 137.432 123.431 138.777 120.246 139.726L121.575 139.495C123.906 139.051 126.189 138.385 128.392 137.505C129.395 137.892 130.481 138.017 131.546 137.868C132.611 137.72 133.62 137.303 134.48 136.657C134.48 136.657 124.4 108.458 126.571 101.428Z" fill="#0EA5E9"/>
<path opacity="0.5" d="M126.571 101.428L107.784 109.269C107.556 112.57 106.739 115.805 105.37 118.818C103.15 123.515 104.447 132.403 106.58 137.199C106.937 137.971 107.512 138.621 108.233 139.071V138.709C108.233 138.709 104.746 130.07 105.407 125.086C106.069 120.103 108.9 117.602 109.231 114.452C109.562 111.302 109.393 109.805 115.712 107.478C122.03 105.152 124.681 102.994 125.342 105.314C126.003 107.634 128.667 122.928 130.494 126.583C132.322 130.239 132.153 134.068 129.334 135.721C126.485 137.432 123.431 138.777 120.246 139.726L121.575 139.495C123.906 139.051 126.189 138.385 128.392 137.505C129.395 137.892 130.481 138.017 131.546 137.868C132.611 137.72 133.62 137.303 134.48 136.657C134.48 136.657 124.4 108.458 126.571 101.428Z" fill="white"/>
</g>
<path d="M126.571 101.428L107.784 109.268C107.556 112.57 106.739 115.804 105.37 118.817C103.15 123.514 104.447 132.402 106.58 137.199C108.713 141.995 118.113 140.118 121.55 139.519C123.881 139.076 126.164 138.41 128.367 137.529C129.371 137.916 130.456 138.041 131.521 137.893C132.586 137.744 133.595 137.327 134.455 136.681C134.455 136.681 124.4 108.457 126.571 101.428Z" stroke="#263238" stroke-linecap="round" stroke-linejoin="round"/>
<path d="M117.078 113.722C117.129 114.826 116.992 115.931 116.672 116.99C116.174 118.238 111.464 123.14 111.608 123.67C111.751 124.2 112.175 125.903 113.011 126.065" stroke="#263238" stroke-linecap="round" stroke-linejoin="round"/>
<path d="M122.297 118.107C122.952 116.797 125.104 118.076 125.073 121.026" stroke="#263238" stroke-linecap="round" stroke-linejoin="round"/>
<path d="M111.632 114.252C111.632 114.252 113.466 113.447 115.107 116.416" stroke="#263238" stroke-linecap="round" stroke-linejoin="round"/>
<path d="M119.69 122.429C121.809 122.535 123.824 123.381 125.385 124.818" stroke="#263238" stroke-width="0.5" stroke-linecap="round" stroke-linejoin="round"/>
<path d="M109.418 118.53C110.513 118.677 111.584 118.972 112.599 119.41" stroke="#263238" stroke-width="0.5" stroke-linecap="round" stroke-linejoin="round"/>
<path d="M116.871 110.953C116.387 110.697 115.85 110.557 115.302 110.544C114.754 110.531 114.211 110.645 113.715 110.878C112.037 111.682 111.008 112.568 111.12 111.539C111.232 110.51 113.203 109.375 113.796 109.225C114.389 109.075 117.039 108.664 116.871 110.953Z" fill="#263238"/>
<path d="M121.574 108.626C123.323 110.041 124.712 111.849 125.629 113.903C126.876 117.021 127.862 113.616 126.876 111.576C125.891 109.537 123.04 107.366 121.574 108.626Z" fill="#263238"/>
<path d="M134.729 142.014C134.729 143.468 133.906 144.647 132.895 144.647C131.885 144.647 131.068 143.468 131.068 142.014C131.068 140.561 131.885 136.862 132.895 136.862C133.906 136.862 134.729 140.561 134.729 142.014Z" fill="#0EA5E9" stroke="#263238" stroke-linecap="round" stroke-linejoin="round"/>
<path d="M122.459 117.539C122.388 117.73 122.331 117.926 122.291 118.125C122.11 119.049 121.929 120.976 122.291 121.057C122.653 121.138 123.539 119.335 123.694 118.412C123.73 118.231 123.75 118.048 123.757 117.863C123.331 117.73 122.898 117.622 122.459 117.539Z" fill="#263238"/>
<path d="M111.819 114.071C111.763 114.234 111.72 114.4 111.688 114.57C111.501 115.493 111.507 117.52 111.9 117.595C112.293 117.67 112.935 115.774 113.116 114.85C113.161 114.626 113.186 114.399 113.191 114.171C112.745 114.048 112.278 114.014 111.819 114.071Z" fill="#263238"/>
<path d="M122.297 118.138L122.921 116.978C123.91 117.17 124.806 117.688 125.466 118.45" stroke="#263238" stroke-width="0.75" stroke-linecap="round" stroke-linejoin="round"/>
<path d="M111.819 114.071L112.443 113.341C112.443 113.341 112.711 113.21 114.183 113.877" stroke="#263238" stroke-width="0.75" stroke-linecap="round" stroke-linejoin="round"/>
<path d="M109.456 130.987C109.456 130.987 110.504 129.06 111.907 129.06C113.31 129.06 114.358 132.209 114.358 132.209" stroke="#263238" stroke-linecap="round" stroke-linejoin="round"/>
<path d="M64.2896 214.106C62.9334 214.038 61.6012 213.721 60.3601 213.17C60.187 213.106 60.0288 213.007 59.895 212.88C59.7613 212.753 59.6548 212.6 59.5821 212.431C59.5093 212.261 59.4718 212.078 59.4719 211.894C59.472 211.709 59.5096 211.527 59.5825 211.357C59.6554 211.188 59.762 211.035 59.8959 210.908C60.0297 210.781 60.188 210.683 60.3611 210.619C60.5342 210.555 60.7185 210.527 60.9028 210.537C61.087 210.546 61.2674 210.593 61.4329 210.675C62.6804 211.205 64.2958 211.536 64.7262 211.349C65.5184 210.463 66.7346 205.111 65.1628 202.529C64.8073 201.955 64.4767 201.849 64.2584 201.824C63.3665 201.699 62.0442 202.616 61.5764 203.072C61.4461 203.194 61.293 203.291 61.1256 203.354C60.9583 203.418 60.78 203.448 60.6011 203.443C60.4221 203.438 60.2459 203.397 60.0825 203.324C59.9192 203.251 59.7719 203.146 59.649 203.015C59.5262 202.885 59.4301 202.732 59.3665 202.565C59.3028 202.397 59.2727 202.219 59.2779 202.04C59.2831 201.861 59.3235 201.685 59.3969 201.522C59.4702 201.358 59.5749 201.211 59.7052 201.088C59.9484 200.851 62.2001 198.824 64.6015 199.148C65.1971 199.235 65.7646 199.458 66.26 199.8C66.7555 200.142 67.1655 200.593 67.4582 201.119C69.7722 204.893 68.1879 212.072 66.4103 213.494C65.7925 213.931 65.0452 214.147 64.2896 214.106Z" fill="white"/>
<mask id="mask15_52_10492" style="mask-type:luminance" maskUnits="userSpaceOnUse" x="59" y="199" width="10" height="16">
<path d="M64.289 214.106C62.9327 214.039 61.6006 213.722 60.3595 213.171C60.1864 213.107 60.0282 213.008 59.8944 212.881C59.7607 212.754 59.6542 212.601 59.5815 212.432C59.5087 212.262 59.4712 212.079 59.4713 211.895C59.4714 211.71 59.509 211.528 59.5819 211.358C59.6548 211.189 59.7614 211.036 59.8953 210.909C60.0291 210.782 60.1874 210.684 60.3605 210.62C60.5336 210.556 60.7179 210.528 60.9022 210.538C61.0864 210.547 61.2668 210.594 61.4323 210.676C62.6798 211.206 64.2952 211.537 64.7256 211.35C65.5178 210.464 66.734 205.112 65.1622 202.53C64.8067 201.956 64.4761 201.85 64.2578 201.825C63.3659 201.7 62.0435 202.617 61.5757 203.073C61.4455 203.195 61.2923 203.291 61.125 203.355C60.9577 203.419 60.7794 203.449 60.6005 203.444C60.4215 203.438 60.2453 203.398 60.0819 203.325C59.9186 203.251 59.7713 203.147 59.6484 203.016C59.5255 202.886 59.4295 202.733 59.3659 202.566C59.3022 202.398 59.2721 202.22 59.2773 202.041C59.2825 201.862 59.3229 201.686 59.3962 201.523C59.4695 201.359 59.5743 201.212 59.7045 201.089C59.9478 200.852 62.1995 198.825 64.6009 199.149C65.1965 199.236 65.764 199.459 66.2594 199.801C66.7549 200.143 67.1648 200.594 67.4576 201.12C69.7716 204.894 68.1873 212.073 66.4097 213.495C65.7919 213.932 65.0446 214.148 64.289 214.106Z" fill="white"/>
</mask>
<g mask="url(#mask15_52_10492)">
<path d="M66.1165 202.118C65.9529 201.73 65.6968 201.389 65.3705 201.123C65.0443 200.858 64.6579 200.677 64.2453 200.596C62.6859 200.346 61.2202 201.912 61.058 202.086C60.9089 202.266 60.8168 202.486 60.7935 202.718C60.7701 202.95 60.8166 203.184 60.927 203.39C61.1724 203.341 61.3992 203.224 61.5819 203.053C62.0497 202.617 63.3721 201.7 64.264 201.806C64.4823 201.806 64.8129 201.937 65.1684 202.511C66.7402 205.068 65.524 210.444 64.7318 211.33C64.3014 211.517 62.6922 211.187 61.4385 210.657C61.2842 210.592 61.1193 210.556 60.952 210.551C60.9633 210.721 61.0172 210.887 61.1087 211.032C61.2002 211.177 61.3264 211.296 61.4759 211.38C62.2646 211.801 63.1346 212.048 64.027 212.104C64.5362 212.128 65.0349 211.954 65.4179 211.617C66.5905 210.538 67.6259 205.018 66.1165 202.118Z" fill="#0EA5E9"/>
<path opacity="0.5" d="M66.1165 202.118C65.9529 201.73 65.6968 201.389 65.3705 201.123C65.0443 200.858 64.6579 200.677 64.2453 200.596C62.6859 200.346 61.2202 201.912 61.058 202.086C60.9089 202.266 60.8168 202.486 60.7935 202.718C60.7701 202.95 60.8166 203.184 60.927 203.39C61.1724 203.341 61.3992 203.224 61.5819 203.053C62.0497 202.617 63.3721 201.7 64.264 201.806C64.4823 201.806 64.8129 201.937 65.1684 202.511C66.7402 205.068 65.524 210.444 64.7318 211.33C64.3014 211.517 62.6922 211.187 61.4385 210.657C61.2842 210.592 61.1193 210.556 60.952 210.551C60.9633 210.721 61.0172 210.887 61.1087 211.032C61.2002 211.177 61.3264 211.296 61.4759 211.38C62.2646 211.801 63.1346 212.048 64.027 212.104C64.5362 212.128 65.0349 211.954 65.4179 211.617C66.5905 210.538 67.6259 205.018 66.1165 202.118Z" fill="white"/>
</g>
<path d="M64.2896 214.106C62.9334 214.038 61.6012 213.721 60.3601 213.17C60.187 213.106 60.0288 213.007 59.895 212.88C59.7613 212.753 59.6548 212.6 59.5821 212.431C59.5093 212.261 59.4718 212.078 59.4719 211.894C59.472 211.709 59.5096 211.527 59.5825 211.357C59.6554 211.188 59.762 211.035 59.8959 210.908C60.0297 210.781 60.188 210.683 60.3611 210.619C60.5342 210.555 60.7185 210.527 60.9028 210.537C61.087 210.546 61.2674 210.593 61.4329 210.675C62.6804 211.205 64.2958 211.536 64.7262 211.349C65.5184 210.463 66.7346 205.111 65.1628 202.529C64.8073 201.955 64.4767 201.849 64.2584 201.824C63.3665 201.699 62.0442 202.616 61.5764 203.072C61.4461 203.194 61.293 203.291 61.1256 203.354C60.9583 203.418 60.78 203.448 60.6011 203.443C60.4221 203.438 60.2459 203.397 60.0825 203.324C59.9192 203.251 59.7719 203.146 59.649 203.015C59.5262 202.885 59.4301 202.732 59.3665 202.565C59.3028 202.397 59.2727 202.219 59.2779 202.04C59.2831 201.861 59.3235 201.685 59.3969 201.522C59.4702 201.358 59.5749 201.211 59.7052 201.088C59.9484 200.851 62.2001 198.824 64.6015 199.148C65.1971 199.235 65.7646 199.458 66.26 199.8C66.7555 200.142 67.1655 200.593 67.4582 201.119C69.7722 204.893 68.1879 212.072 66.4103 213.494C65.7925 213.931 65.0452 214.147 64.2896 214.106Z" stroke="#263238" stroke-linecap="round" stroke-linejoin="round"/>
<path d="M61.9064 198.014H46.9056V217.923H61.9064V198.014Z" fill="white"/>
<mask id="mask16_52_10492" style="mask-type:luminance" maskUnits="userSpaceOnUse" x="46" y="198" width="16" height="20">
<path d="M61.9053 198.014H46.9045V217.923H61.9053V198.014Z" fill="white"/>
</mask>
<g mask="url(#mask16_52_10492)">
<path d="M53.0483 198.014H46.9045V217.923H53.0483V198.014Z" fill="#0EA5E9"/>
<path opacity="0.5" d="M53.0483 198.014H46.9045V217.923H53.0483V198.014Z" fill="white"/>
</g>
<path d="M61.9064 198.014H46.9056V217.923H61.9064V198.014Z" stroke="#263238" stroke-linecap="round" stroke-linejoin="round"/>
<path d="M144.34 217.648H80.257L78.1675 182.42C78.1097 182.078 78.1268 181.728 78.2174 181.394C78.308 181.06 78.4701 180.749 78.6925 180.483C78.9148 180.218 79.1922 180.003 79.5053 179.855C79.8185 179.707 80.1601 179.629 80.5065 179.625H144.065C144.414 179.625 144.758 179.701 145.074 179.847C145.39 179.994 145.671 180.208 145.896 180.474C146.121 180.74 146.285 181.052 146.377 181.388C146.47 181.724 146.487 182.076 146.429 182.42L144.34 217.648Z" fill="#263238" stroke="#263238" stroke-linecap="round" stroke-linejoin="round"/>
<path d="M83.4126 180.468H143.603C143.943 180.464 144.28 180.535 144.589 180.676C144.899 180.816 145.175 181.022 145.396 181.28C145.618 181.538 145.78 181.841 145.872 182.168C145.965 182.496 145.984 182.839 145.93 183.175" stroke="white" stroke-linecap="round" stroke-linejoin="round"/>
<path d="M78.6349 182.62C78.6851 182.03 78.9557 181.481 79.3927 181.082C79.8297 180.684 80.401 180.464 80.9926 180.468" stroke="white" stroke-linecap="round" stroke-linejoin="round"/>
<path d="M144.608 214.217H79.9894V217.648H144.608V214.217Z" fill="white" stroke="#263238" stroke-linecap="round" stroke-linejoin="round"/>
<path d="M112.068 201.518C114.596 201.518 116.646 200.289 116.646 198.774C116.646 197.258 114.596 196.029 112.068 196.029C109.539 196.029 107.489 197.258 107.489 198.774C107.489 200.289 109.539 201.518 112.068 201.518Z" fill="white" stroke="#263238" stroke-linecap="round" stroke-linejoin="round"/>
<path d="M242.072 217.244H1.39801V223.088H242.072V217.244Z" fill="#263238"/>
<path d="M179.667 0.55127H63.8835C59.9806 0.55127 56.8166 3.71524 56.8166 7.61819V74.0522C56.8166 77.9551 59.9806 81.1191 63.8835 81.1191H179.667C183.57 81.1191 186.734 77.9551 186.734 74.0522V7.61819C186.734 3.71524 183.57 0.55127 179.667 0.55127Z" fill="#0EA5E9"/>
<path d="M124.83 46.8511C135.333 45.1632 142.479 35.2807 140.791 24.778C139.103 14.2752 129.221 7.1294 118.718 8.81731C108.215 10.5052 101.069 20.3877 102.757 30.8904C104.445 41.3932 114.328 48.539 124.83 46.8511Z" fill="#263238"/>
<path d="M121.629 31.3945L115.211 39.634C114.993 39.977 114.692 40.2603 114.338 40.4585C113.983 40.6567 113.584 40.7634 113.177 40.7692C112.62 40.7768 112.082 40.5638 111.68 40.1766C111.476 39.9895 111.315 39.7606 111.207 39.5055C111.1 39.2504 111.048 38.9751 111.057 38.6984C111.077 38.0786 111.295 37.4817 111.68 36.9956L118.997 27.9452L112.136 18.8886C111.817 18.4636 111.642 17.9479 111.637 17.4166C111.635 17.0997 111.699 16.7859 111.825 16.495C111.95 16.2041 112.135 15.9424 112.367 15.7262C112.584 15.499 112.846 15.3183 113.135 15.195C113.425 15.0717 113.736 15.0084 114.051 15.009C114.454 15.0155 114.848 15.1228 115.199 15.3211C115.55 15.5194 115.846 15.8023 116.059 16.1441L122.259 24.3088L128.496 16.2814C128.719 15.9069 129.031 15.5931 129.404 15.3679C129.778 15.1427 130.2 15.013 130.636 14.9902C130.906 14.9896 131.173 15.0446 131.421 15.1519C131.669 15.2593 131.892 15.4165 132.077 15.614C132.273 15.799 132.43 16.0223 132.537 16.27C132.644 16.5178 132.7 16.7848 132.7 17.0548C132.694 17.5379 132.527 18.0052 132.226 18.3834L124.885 27.7768L131.977 37.1328C132.312 37.551 132.499 38.0689 132.507 38.6048C132.509 38.9147 132.444 39.2214 132.316 39.5035C132.187 39.7857 131.999 40.0366 131.765 40.239C131.307 40.6791 130.697 40.925 130.062 40.9251C129.657 40.9201 129.26 40.8135 128.907 40.6152C128.554 40.4169 128.256 40.1331 128.041 39.7899L121.629 31.3945Z" fill="white"/>
<path d="M158.473 67.1652H85.0536C83.5648 67.1652 82.137 66.5738 81.0842 65.521C80.0314 64.4683 79.44 63.0404 79.44 61.5516C79.44 60.0628 80.0314 58.6349 81.0842 57.5822C82.137 56.5294 83.5648 55.938 85.0536 55.938H158.473C159.962 55.938 161.39 56.5294 162.443 57.5822C163.496 58.6349 164.087 60.0628 164.087 61.5516C164.087 63.0404 163.496 64.4683 162.443 65.521C161.39 66.5738 159.962 67.1652 158.473 67.1652Z" fill="white"/>
<path d="M95.1145 63.3605C95.0655 63.3605 95.017 63.3505 94.972 63.3312C94.9269 63.3119 94.8863 63.2837 94.8525 63.2482C94.8156 63.2116 94.7866 63.1677 94.7673 63.1195C94.748 63.0712 94.7388 63.0195 94.7402 62.9675C94.7402 62.8797 94.7639 62.7935 94.8088 62.718L95.3702 61.8448H94.2225C94.1695 61.8475 94.1164 61.8389 94.067 61.8195C94.0175 61.8002 93.9727 61.7705 93.9356 61.7325C93.8715 61.6579 93.8362 61.5627 93.8362 61.4643C93.8362 61.3659 93.8715 61.2707 93.9356 61.1961C93.9727 61.1581 94.0175 61.1284 94.067 61.1091C94.1164 61.0897 94.1695 61.0811 94.2225 61.0838L95.3515 61.115L94.8525 60.3042C94.8025 60.2211 94.7746 60.1266 94.7714 60.0297C94.7699 59.9777 94.7792 59.926 94.7985 59.8777C94.8178 59.8295 94.8468 59.7857 94.8837 59.749C94.9186 59.7134 94.9604 59.6851 95.0064 59.6658C95.0525 59.6465 95.102 59.6366 95.1519 59.6368C95.2217 59.6357 95.2903 59.6553 95.3491 59.693C95.4079 59.7307 95.4543 59.7849 95.4825 59.8488L96.0314 60.8281L96.5553 59.8925C96.5883 59.8197 96.6406 59.7574 96.7066 59.7123C96.7726 59.6672 96.8497 59.641 96.9295 59.6368C96.9785 59.6368 97.027 59.6467 97.072 59.666C97.1171 59.6853 97.1577 59.7136 97.1915 59.749C97.2281 59.7833 97.257 59.8249 97.2763 59.8711C97.2957 59.9174 97.305 59.9671 97.3038 60.0172C97.3029 60.1058 97.277 60.1923 97.2289 60.2667L96.68 61.1462L97.8215 61.115C97.8746 61.1119 97.9277 61.1203 97.9773 61.1397C98.0268 61.1591 98.0715 61.1889 98.1084 61.2273C98.1725 61.3019 98.2078 61.3971 98.2078 61.4955C98.2078 61.5939 98.1725 61.689 98.1084 61.7637C98.0715 61.802 98.0268 61.8319 97.9773 61.8513C97.9277 61.8707 97.8746 61.8791 97.8215 61.876H96.6676L97.179 62.6744C97.2367 62.7707 97.2689 62.8802 97.2726 62.9925C97.2744 63.043 97.2659 63.0934 97.2477 63.1405C97.2294 63.1877 97.2019 63.2307 97.1666 63.2669C97.1337 63.3019 97.0941 63.3299 97.0502 63.3492C97.0062 63.3685 96.9588 63.3787 96.9108 63.3792C96.8336 63.3773 96.7586 63.3534 96.6945 63.3103C96.6304 63.2672 96.5799 63.2067 96.5491 63.1359L96.0314 62.219L95.5137 63.1359C95.4762 63.2081 95.4185 63.2679 95.3476 63.3077C95.2767 63.3476 95.1956 63.3659 95.1145 63.3605Z" fill="black"/>
<path d="M100.84 63.3609C100.791 63.3609 100.742 63.3509 100.697 63.3316C100.652 63.3123 100.611 63.2841 100.578 63.2486C100.541 63.212 100.512 63.1682 100.492 63.1199C100.473 63.0716 100.464 63.0199 100.465 62.9679C100.465 62.8801 100.489 62.7939 100.534 62.7184L101.095 61.8452H99.9477C99.8946 61.8479 99.8416 61.8393 99.7921 61.82C99.7427 61.8006 99.6979 61.7709 99.6608 61.7329C99.5967 61.6583 99.5614 61.5631 99.5614 61.4647C99.5614 61.3663 99.5967 61.2712 99.6608 61.1965C99.6979 61.1585 99.7427 61.1289 99.7921 61.1095C99.8416 61.0901 99.8946 61.0815 99.9477 61.0843L101.077 61.1154L100.546 60.2734C100.496 60.1903 100.469 60.0959 100.465 59.999C100.464 59.947 100.473 59.8953 100.492 59.847C100.512 59.7987 100.541 59.7549 100.578 59.7183C100.613 59.6826 100.654 59.6543 100.7 59.635C100.746 59.6157 100.796 59.6059 100.846 59.606C100.916 59.605 100.984 59.6245 101.043 59.6622C101.102 59.7 101.148 59.7542 101.176 59.8181L101.725 60.7973L102.249 59.8617C102.282 59.7889 102.335 59.7266 102.401 59.6815C102.467 59.6364 102.544 59.6103 102.624 59.606C102.672 59.606 102.721 59.616 102.766 59.6353C102.811 59.6546 102.852 59.6828 102.885 59.7183C102.922 59.7525 102.951 59.7942 102.97 59.8404C102.99 59.8866 102.999 59.9364 102.998 59.9865C102.997 60.075 102.971 60.1616 102.923 60.236L102.374 61.1154L103.515 61.0843C103.569 61.0811 103.622 61.0895 103.671 61.1089C103.721 61.1283 103.765 61.1582 103.802 61.1965C103.866 61.2712 103.902 61.3663 103.902 61.4647C103.902 61.5631 103.866 61.6583 103.802 61.7329C103.765 61.7713 103.721 61.8012 103.671 61.8205C103.622 61.8399 103.569 61.8483 103.515 61.8452H102.362L102.873 62.6436C102.931 62.74 102.963 62.8494 102.967 62.9617C102.968 63.0122 102.96 63.0626 102.942 63.1098C102.923 63.1569 102.896 63.1999 102.861 63.2361C102.828 63.2711 102.788 63.2991 102.744 63.3184C102.7 63.3377 102.653 63.3479 102.605 63.3484C102.527 63.3473 102.452 63.3237 102.388 63.2805C102.324 63.2373 102.273 63.1764 102.243 63.1051L101.725 62.1883L101.208 63.1051C101.177 63.1783 101.126 63.2412 101.061 63.2865C100.996 63.3318 100.919 63.3576 100.84 63.3609Z" fill="black"/>
<path d="M106.566 63.3609C106.517 63.3609 106.468 63.3509 106.423 63.3316C106.378 63.3123 106.338 63.2841 106.304 63.2486C106.267 63.212 106.238 63.1682 106.219 63.1199C106.199 63.0716 106.19 63.0199 106.191 62.9679C106.191 62.8801 106.215 62.7939 106.26 62.7184L106.821 61.8452H105.674C105.621 61.8479 105.568 61.8393 105.518 61.82C105.469 61.8006 105.424 61.7709 105.387 61.7329C105.323 61.6583 105.287 61.5631 105.287 61.4647C105.287 61.3663 105.323 61.2712 105.387 61.1965C105.424 61.1585 105.469 61.1289 105.518 61.1095C105.568 61.0901 105.621 61.0815 105.674 61.0843L106.803 61.1154L106.273 60.2734C106.223 60.1903 106.195 60.0959 106.191 59.999C106.19 59.947 106.199 59.8953 106.219 59.847C106.238 59.7987 106.267 59.7549 106.304 59.7183C106.339 59.6826 106.38 59.6543 106.426 59.635C106.473 59.6157 106.522 59.6059 106.572 59.606C106.642 59.605 106.71 59.6245 106.769 59.6622C106.828 59.7 106.874 59.7542 106.903 59.8181L107.451 60.7973L107.975 59.8617C108.008 59.7889 108.061 59.7266 108.127 59.6815C108.193 59.6364 108.27 59.6103 108.35 59.606C108.399 59.606 108.447 59.616 108.492 59.6353C108.537 59.6546 108.578 59.6828 108.612 59.7183C108.648 59.7525 108.677 59.7942 108.696 59.8404C108.716 59.8866 108.725 59.9364 108.724 59.9865C108.723 60.075 108.697 60.1616 108.649 60.236L108.1 61.1154L109.242 61.0843C109.295 61.0811 109.348 61.0895 109.397 61.1089C109.447 61.1283 109.492 61.1582 109.528 61.1965C109.593 61.2712 109.628 61.3663 109.628 61.4647C109.628 61.5631 109.593 61.6583 109.528 61.7329C109.492 61.7713 109.447 61.8012 109.397 61.8205C109.348 61.8399 109.295 61.8483 109.242 61.8452H108.088L108.599 62.6436C108.657 62.74 108.689 62.8494 108.693 62.9617C108.694 63.0122 108.686 63.0626 108.668 63.1098C108.649 63.1569 108.622 63.1999 108.587 63.2361C108.554 63.2711 108.514 63.2991 108.47 63.3184C108.426 63.3377 108.379 63.3479 108.331 63.3484C108.253 63.3473 108.178 63.3237 108.114 63.2805C108.05 63.2373 107.999 63.1764 107.969 63.1051L107.451 62.1883L106.934 63.1051C106.903 63.1783 106.852 63.2412 106.787 63.2865C106.722 63.3318 106.645 63.3576 106.566 63.3609Z" fill="black"/>
<path d="M112.316 63.3609C112.267 63.3609 112.219 63.3509 112.174 63.3316C112.129 63.3123 112.088 63.2841 112.054 63.2486C112.017 63.212 111.988 63.1682 111.969 63.1199C111.95 63.0716 111.94 63.0199 111.942 62.9679C111.942 62.8801 111.965 62.7939 112.01 62.7184L112.572 61.8452H111.424C111.371 61.8479 111.318 61.8393 111.269 61.82C111.219 61.8006 111.174 61.7709 111.137 61.7329C111.073 61.6583 111.038 61.5631 111.038 61.4647C111.038 61.3663 111.073 61.2712 111.137 61.1965C111.174 61.1585 111.219 61.1289 111.269 61.1095C111.318 61.0901 111.371 61.0815 111.424 61.0843L112.553 61.1154L112.023 60.2734C111.973 60.1903 111.945 60.0959 111.942 59.999C111.94 59.947 111.95 59.8953 111.969 59.847C111.988 59.7987 112.017 59.7549 112.054 59.7183C112.089 59.6826 112.131 59.6543 112.177 59.635C112.223 59.6157 112.272 59.6059 112.322 59.606C112.392 59.605 112.461 59.6245 112.52 59.6622C112.578 59.7 112.625 59.7542 112.653 59.8181L113.202 60.7973L113.726 59.8617C113.759 59.7889 113.811 59.7266 113.877 59.6815C113.943 59.6364 114.02 59.6103 114.1 59.606C114.149 59.606 114.197 59.616 114.242 59.6353C114.287 59.6546 114.328 59.6828 114.362 59.7183C114.398 59.7525 114.427 59.7942 114.447 59.8404C114.466 59.8866 114.475 59.9364 114.474 59.9865C114.473 60.075 114.447 60.1616 114.399 60.236L113.85 61.1154L114.992 61.0843C115.045 61.0811 115.098 61.0895 115.148 61.1089C115.197 61.1283 115.242 61.1582 115.279 61.1965C115.343 61.2712 115.378 61.3663 115.378 61.4647C115.378 61.5631 115.343 61.6583 115.279 61.7329C115.242 61.7713 115.197 61.8012 115.148 61.8205C115.098 61.8399 115.045 61.8483 114.992 61.8452H113.838L114.349 62.6436C114.407 62.74 114.439 62.8494 114.443 62.9617C114.445 63.0122 114.436 63.0626 114.418 63.1098C114.4 63.1569 114.372 63.1999 114.337 63.2361C114.304 63.2711 114.265 63.2991 114.221 63.3184C114.177 63.3377 114.129 63.3479 114.081 63.3484C114.004 63.3465 113.929 63.3226 113.865 63.2795C113.801 63.2365 113.75 63.1759 113.719 63.1051L113.202 62.1883L112.684 63.1051C112.653 63.1783 112.602 63.2412 112.537 63.2865C112.472 63.3318 112.395 63.3576 112.316 63.3609Z" fill="black"/>
<path d="M118.017 63.3609C117.968 63.3609 117.919 63.3509 117.874 63.3316C117.829 63.3123 117.789 63.2841 117.755 63.2486C117.718 63.212 117.689 63.1682 117.67 63.1199C117.65 63.0716 117.641 63.0199 117.643 62.9679C117.646 62.8805 117.669 62.795 117.711 62.7184L118.273 61.8452H117.125C117.072 61.8479 117.019 61.8393 116.969 61.82C116.92 61.8006 116.875 61.7709 116.838 61.7329C116.774 61.6583 116.739 61.5631 116.739 61.4647C116.739 61.3663 116.774 61.2712 116.838 61.1965C116.875 61.1585 116.92 61.1289 116.969 61.1095C117.019 61.0901 117.072 61.0815 117.125 61.0843L118.254 61.1154L117.724 60.2734C117.674 60.1903 117.646 60.0959 117.643 59.999C117.641 59.947 117.65 59.8953 117.67 59.847C117.689 59.7987 117.718 59.7549 117.755 59.7183C117.79 59.6826 117.832 59.6543 117.878 59.635C117.924 59.6157 117.973 59.6059 118.023 59.606C118.093 59.605 118.162 59.6245 118.22 59.6622C118.279 59.7 118.326 59.7542 118.354 59.8181L118.903 60.7973L119.427 59.8617C119.46 59.7889 119.512 59.7266 119.578 59.6815C119.644 59.6364 119.721 59.6103 119.801 59.606C119.85 59.6052 119.899 59.6149 119.944 59.6342C119.989 59.6536 120.029 59.6822 120.063 59.7183C120.099 59.7525 120.128 59.7942 120.148 59.8404C120.167 59.8866 120.176 59.9364 120.175 59.9865C120.174 60.0751 120.148 60.1616 120.1 60.236L119.551 61.1154L120.693 61.0843C120.746 61.0811 120.799 61.0895 120.848 61.1089C120.898 61.1283 120.943 61.1582 120.98 61.1965C121.044 61.2712 121.079 61.3663 121.079 61.4647C121.079 61.5631 121.044 61.6583 120.98 61.7329C120.943 61.7713 120.898 61.8012 120.848 61.8205C120.799 61.8399 120.746 61.8483 120.693 61.8452H119.539L120.05 62.6436C120.108 62.74 120.14 62.8494 120.144 62.9617C120.146 63.0122 120.137 63.0626 120.119 63.1098C120.101 63.1569 120.073 63.1999 120.038 63.2361C120.005 63.2711 119.965 63.2991 119.921 63.3184C119.877 63.3377 119.83 63.3479 119.782 63.3484C119.705 63.3465 119.63 63.3226 119.566 63.2795C119.502 63.2365 119.451 63.1759 119.42 63.1052L118.903 62.1883L118.385 63.1052C118.354 63.1783 118.303 63.2412 118.238 63.2865C118.173 63.3318 118.096 63.3576 118.017 63.3609Z" fill="black"/>
<path d="M123.744 63.3609C123.695 63.3609 123.646 63.3509 123.601 63.3316C123.556 63.3123 123.516 63.2841 123.482 63.2486C123.445 63.212 123.416 63.1682 123.397 63.1199C123.377 63.0716 123.368 63.0199 123.37 62.9679C123.373 62.8805 123.396 62.795 123.438 62.7184L124 61.8452H122.858C122.804 61.8484 122.75 61.8401 122.699 61.8207C122.649 61.8014 122.603 61.7714 122.565 61.7329C122.501 61.6583 122.466 61.5631 122.466 61.4647C122.466 61.3663 122.501 61.2712 122.565 61.1965C122.603 61.158 122.649 61.1281 122.699 61.1087C122.75 61.0894 122.804 61.081 122.858 61.0843L123.981 61.1154L123.451 60.2734C123.401 60.1903 123.373 60.0959 123.37 59.999C123.368 59.947 123.377 59.8953 123.397 59.847C123.416 59.7987 123.445 59.7549 123.482 59.7183C123.517 59.6826 123.559 59.6543 123.605 59.635C123.651 59.6157 123.7 59.6059 123.75 59.606C123.82 59.605 123.889 59.6245 123.947 59.6622C124.006 59.7 124.052 59.7542 124.081 59.8181L124.63 60.7973L125.153 59.8617C125.186 59.7889 125.239 59.7266 125.305 59.6815C125.371 59.6364 125.448 59.6103 125.528 59.606C125.577 59.6052 125.626 59.6149 125.671 59.6342C125.716 59.6536 125.756 59.6822 125.79 59.7183C125.826 59.7525 125.855 59.7942 125.875 59.8404C125.894 59.8866 125.903 59.9364 125.902 59.9865C125.901 60.0751 125.875 60.1616 125.827 60.236L125.278 61.1154L126.42 61.0843C126.473 61.0811 126.526 61.0895 126.575 61.1089C126.625 61.1283 126.67 61.1582 126.707 61.1965C126.771 61.2712 126.806 61.3663 126.806 61.4647C126.806 61.5631 126.771 61.6583 126.707 61.7329C126.67 61.7713 126.625 61.8012 126.575 61.8205C126.526 61.8399 126.473 61.8483 126.42 61.8452H125.266L125.777 62.6436C125.835 62.74 125.867 62.8494 125.871 62.9617C125.873 63.0122 125.864 63.0626 125.846 63.1098C125.828 63.1569 125.8 63.1999 125.765 63.2361C125.732 63.2711 125.692 63.2991 125.648 63.3184C125.604 63.3377 125.557 63.3479 125.509 63.3484C125.432 63.3465 125.357 63.3226 125.293 63.2795C125.229 63.2365 125.178 63.1759 125.147 63.1052L124.63 62.1883L124.112 63.1052C124.081 63.1783 124.03 63.2412 123.965 63.2865C123.9 63.3318 123.823 63.3576 123.744 63.3609Z" fill="black"/>
<path d="M129.469 63.3605C129.42 63.3605 129.372 63.3505 129.326 63.3312C129.281 63.3119 129.241 63.2837 129.207 63.2482C129.17 63.2116 129.141 63.1678 129.122 63.1195C129.103 63.0712 129.093 63.0195 129.095 62.9675C129.095 62.8797 129.118 62.7935 129.163 62.718L129.725 61.8448H128.577C128.524 61.8475 128.471 61.8389 128.422 61.8195C128.372 61.8002 128.327 61.7705 128.29 61.7325C128.226 61.6579 128.191 61.5627 128.191 61.4643C128.191 61.3659 128.226 61.2707 128.29 61.1961C128.327 61.1581 128.372 61.1284 128.422 61.1091C128.471 61.0897 128.524 61.0811 128.577 61.0838L129.706 61.115L129.157 60.3042C129.107 60.2211 129.079 60.1266 129.076 60.0297C129.075 59.9777 129.084 59.926 129.103 59.8777C129.122 59.8295 129.151 59.7857 129.188 59.749C129.223 59.7134 129.265 59.6851 129.311 59.6658C129.357 59.6465 129.407 59.6366 129.457 59.6368C129.526 59.6357 129.595 59.6553 129.654 59.693C129.713 59.7307 129.759 59.7849 129.787 59.8488L130.336 60.8281L130.86 59.8925C130.893 59.8197 130.945 59.7574 131.011 59.7123C131.077 59.6672 131.154 59.641 131.234 59.6368C131.283 59.636 131.332 59.6456 131.377 59.665C131.422 59.6843 131.463 59.713 131.496 59.749C131.533 59.7833 131.562 59.8249 131.581 59.8711C131.6 59.9174 131.61 59.9671 131.608 60.0172C131.608 60.1058 131.582 60.1923 131.534 60.2667L130.985 61.1462L132.126 61.115C132.179 61.1119 132.232 61.1203 132.282 61.1397C132.331 61.1591 132.376 61.1889 132.413 61.2273C132.477 61.3019 132.512 61.3971 132.512 61.4955C132.512 61.5939 132.477 61.689 132.413 61.7637C132.376 61.802 132.331 61.8319 132.282 61.8513C132.232 61.8707 132.179 61.8791 132.126 61.876H130.972L131.484 62.6744C131.541 62.7707 131.574 62.8802 131.577 62.9925C131.579 63.043 131.571 63.0934 131.552 63.1405C131.534 63.1877 131.506 63.2307 131.471 63.2669C131.438 63.3019 131.399 63.3299 131.355 63.3492C131.311 63.3685 131.263 63.3787 131.215 63.3792C131.138 63.3773 131.063 63.3534 130.999 63.3103C130.935 63.2672 130.885 63.2067 130.854 63.1359L130.336 62.219L129.818 63.1359C129.785 63.2005 129.735 63.2553 129.674 63.2946C129.612 63.334 129.542 63.3567 129.469 63.3605Z" fill="black"/>
<path d="M135.195 63.361C135.146 63.361 135.098 63.3511 135.053 63.3318C135.008 63.3125 134.967 63.2842 134.933 63.2487C134.896 63.2121 134.867 63.1683 134.848 63.12C134.829 63.0718 134.82 63.02 134.821 62.9681C134.824 62.8807 134.847 62.7952 134.89 62.7186L135.451 61.8453H134.31C134.256 61.8493 134.203 61.8413 134.153 61.8219C134.104 61.8025 134.059 61.7721 134.023 61.7331C133.955 61.6603 133.917 61.5644 133.917 61.4649C133.917 61.3653 133.955 61.2694 134.023 61.1967C134.059 61.1576 134.104 61.1273 134.153 61.1078C134.203 61.0884 134.256 61.0804 134.31 61.0844L135.432 61.1156L134.902 60.2735C134.852 60.1905 134.824 60.096 134.821 59.9991C134.819 59.9481 134.828 59.8973 134.846 59.8497C134.865 59.802 134.892 59.7586 134.928 59.7219C134.963 59.6853 135.006 59.6561 135.053 59.6362C135.1 59.6163 135.15 59.6061 135.201 59.6061C135.271 59.6051 135.34 59.6247 135.399 59.6624C135.458 59.7001 135.504 59.7543 135.532 59.8182L136.081 60.7975L136.605 59.8619C136.638 59.7891 136.69 59.7267 136.756 59.6816C136.822 59.6365 136.899 59.6104 136.979 59.6061C137.028 59.6046 137.077 59.6138 137.123 59.6332C137.168 59.6526 137.208 59.6817 137.241 59.7184C137.278 59.7527 137.307 59.7943 137.326 59.8405C137.345 59.8867 137.355 59.9365 137.353 59.9866C137.353 60.0752 137.327 60.1617 137.279 60.2361L136.73 61.1156L137.871 61.0844C137.924 61.0813 137.977 61.0897 138.027 61.109C138.076 61.1284 138.121 61.1583 138.158 61.1967C138.222 61.2713 138.257 61.3665 138.257 61.4649C138.257 61.5633 138.222 61.6584 138.158 61.7331C138.121 61.7714 138.076 61.8013 138.027 61.8207C137.977 61.8401 137.924 61.8485 137.871 61.8453H136.717L137.229 62.6437C137.286 62.7401 137.319 62.8496 137.322 62.9618C137.324 63.011 137.316 63.06 137.299 63.106C137.281 63.1521 137.255 63.1943 137.221 63.2302C137.188 63.2661 137.148 63.295 137.103 63.3153C137.058 63.3356 137.01 63.3469 136.96 63.3485C136.883 63.3467 136.808 63.3228 136.744 63.2797C136.68 63.2366 136.63 63.1761 136.599 63.1053L136.081 62.1884L135.563 63.1053C135.533 63.1785 135.482 63.2414 135.416 63.2866C135.351 63.3319 135.275 63.3577 135.195 63.361Z" fill="black"/>
<path d="M140.92 63.361C140.871 63.361 140.823 63.3511 140.778 63.3318C140.733 63.3125 140.692 63.2842 140.658 63.2487C140.622 63.2121 140.593 63.1683 140.573 63.12C140.554 63.0718 140.545 63.02 140.546 62.9681C140.549 62.8807 140.573 62.7952 140.615 62.7186L141.176 61.8453H140.028C139.976 61.8484 139.924 61.8399 139.876 61.8205C139.827 61.8011 139.783 61.7713 139.748 61.7331C139.68 61.6603 139.642 61.5644 139.642 61.4649C139.642 61.3653 139.68 61.2694 139.748 61.1967C139.783 61.1585 139.827 61.1286 139.876 61.1092C139.924 61.0898 139.976 61.0813 140.028 61.0844L141.157 61.1156L140.627 60.2735C140.577 60.1905 140.549 60.096 140.546 59.9991C140.545 59.9481 140.553 59.8973 140.571 59.8497C140.59 59.802 140.618 59.7586 140.653 59.7219C140.689 59.6853 140.731 59.6561 140.778 59.6362C140.825 59.6163 140.876 59.6061 140.927 59.6061C140.996 59.6051 141.065 59.6247 141.124 59.6624C141.183 59.7001 141.229 59.7543 141.257 59.8182L141.806 60.7975L142.33 59.8619C142.363 59.7891 142.415 59.7267 142.481 59.6816C142.547 59.6365 142.624 59.6104 142.704 59.6061C142.754 59.6046 142.802 59.6138 142.848 59.6332C142.893 59.6526 142.933 59.6817 142.966 59.7184C143.003 59.7527 143.032 59.7943 143.051 59.8405C143.07 59.8867 143.08 59.9365 143.079 59.9866C143.078 60.0752 143.052 60.1617 143.004 60.2361L142.455 61.1156L143.596 61.0844C143.649 61.0813 143.702 61.0897 143.752 61.109C143.802 61.1284 143.846 61.1583 143.883 61.1967C143.947 61.2713 143.983 61.3665 143.983 61.4649C143.983 61.5633 143.947 61.6584 143.883 61.7331C143.846 61.7714 143.802 61.8013 143.752 61.8207C143.702 61.8401 143.649 61.8485 143.596 61.8453H142.442L142.954 62.6437C143.011 62.7401 143.044 62.8496 143.047 62.9618C143.049 63.011 143.041 63.06 143.024 63.106C143.006 63.1521 142.98 63.1943 142.947 63.2302C142.913 63.2661 142.873 63.295 142.828 63.3153C142.783 63.3356 142.735 63.3469 142.686 63.3485C142.608 63.3467 142.533 63.3228 142.469 63.2797C142.405 63.2366 142.355 63.1761 142.324 63.1053L141.806 62.1884L141.288 63.1053C141.258 63.1785 141.207 63.2414 141.142 63.2866C141.076 63.3319 141 63.3577 140.92 63.361Z" fill="black"/>
<path d="M146.622 63.361C146.573 63.361 146.525 63.3511 146.48 63.3318C146.435 63.3125 146.394 63.2842 146.36 63.2487C146.323 63.2121 146.294 63.1683 146.275 63.12C146.256 63.0718 146.246 63.02 146.248 62.9681C146.251 62.8807 146.274 62.7952 146.317 62.7186L146.878 61.8453H145.73C145.678 61.8484 145.626 61.8399 145.577 61.8205C145.529 61.8011 145.485 61.7713 145.45 61.7331C145.382 61.6603 145.344 61.5644 145.344 61.4649C145.344 61.3653 145.382 61.2694 145.45 61.1967C145.485 61.1585 145.529 61.1286 145.577 61.1092C145.626 61.0898 145.678 61.0813 145.73 61.0844L146.859 61.1156L146.329 60.2735C146.279 60.1905 146.251 60.096 146.248 59.9991C146.246 59.9471 146.256 59.8954 146.275 59.8471C146.294 59.7988 146.323 59.755 146.36 59.7184C146.395 59.6827 146.437 59.6544 146.483 59.6352C146.529 59.6159 146.578 59.606 146.628 59.6061C146.698 59.6051 146.767 59.6247 146.826 59.6624C146.884 59.7001 146.931 59.7543 146.959 59.8182L147.508 60.7975L148.032 59.8619C148.065 59.7891 148.117 59.7267 148.183 59.6816C148.249 59.6365 148.326 59.6104 148.406 59.6061C148.455 59.6046 148.504 59.6138 148.549 59.6332C148.595 59.6526 148.635 59.6817 148.668 59.7184C148.705 59.7527 148.733 59.7943 148.753 59.8405C148.772 59.8867 148.781 59.9365 148.78 59.9866C148.779 60.0752 148.753 60.1617 148.705 60.2361L148.157 61.1156L149.298 61.0844C149.351 61.0813 149.404 61.0897 149.454 61.109C149.503 61.1284 149.548 61.1583 149.585 61.1967C149.649 61.2713 149.684 61.3665 149.684 61.4649C149.684 61.5633 149.649 61.6584 149.585 61.7331C149.548 61.7714 149.503 61.8013 149.454 61.8207C149.404 61.8401 149.351 61.8485 149.298 61.8453H148.144L148.656 62.6437C148.713 62.7401 148.745 62.8496 148.749 62.9618C148.751 63.0124 148.742 63.0627 148.724 63.1099C148.706 63.1571 148.678 63.2001 148.643 63.2363C148.61 63.2713 148.571 63.2993 148.527 63.3186C148.483 63.3379 148.435 63.3481 148.387 63.3485C148.31 63.3467 148.235 63.3228 148.171 63.2797C148.107 63.2366 148.056 63.1761 148.026 63.1053L147.508 62.1884L146.99 63.1053C146.959 63.1785 146.908 63.2414 146.843 63.2866C146.778 63.3319 146.701 63.3577 146.622 63.361Z" fill="black"/>
<path d="M166.246 77.1582H173.874" stroke="white" stroke-width="3" stroke-linecap="round" stroke-linejoin="round"/>
<path d="M60.4417 20.9907V71.6567C60.4417 73.124 61.0246 74.5312 62.0622 75.5688C63.0997 76.6063 64.5069 77.1892 65.9742 77.1892H159.004" stroke="white" stroke-width="3" stroke-linecap="round" stroke-linejoin="round"/>
<path d="M60.4417 7.55518V15.1523" stroke="white" stroke-width="3" stroke-linecap="round" stroke-linejoin="round"/>
</svg>
