<svg width="297" height="208" viewBox="0 0 297 208" fill="none" xmlns="http://www.w3.org/2000/svg">
<path d="M296.479 182.786H0.151367V182.926H296.479V182.786Z" fill="#EBEBEB"/>
<path d="M140.611 157.887H26.175C25.2785 157.885 24.4193 157.549 23.7859 156.951C23.1526 156.353 22.7969 155.543 22.7969 154.699V3.15997C22.8047 2.3203 23.1638 1.51744 23.7964 0.92578C24.4289 0.334118 25.2836 0.00143839 26.175 0H140.611C141.508 0 142.369 0.335865 143.004 0.933709C143.638 1.53155 143.995 2.3424 143.995 3.18788V154.699C143.995 155.544 143.638 156.355 143.004 156.953C142.369 157.551 141.508 157.887 140.611 157.887ZM26.175 0.11166C25.3178 0.113139 24.4963 0.43495 23.8907 1.00646C23.2851 1.57797 22.945 2.35247 22.945 3.15997V154.699C22.945 155.506 23.2851 156.281 23.8907 156.852C24.4963 157.424 25.3178 157.746 26.175 157.747H140.611C141.469 157.746 142.291 157.424 142.897 156.853C143.504 156.281 143.845 155.507 143.847 154.699V3.15997C143.845 2.35196 143.504 1.57747 142.897 1.00612C142.291 0.434769 141.469 0.113136 140.611 0.11166H26.175Z" fill="#EBEBEB"/>
<path d="M268.808 157.887H154.366C153.469 157.885 152.61 157.549 151.975 156.951C151.341 156.354 150.984 155.544 150.982 154.699V3.15997C150.992 2.31979 151.352 1.51694 151.986 0.92543C152.619 0.333923 153.475 0.0014227 154.366 0H268.808C269.699 0.00290566 270.552 0.336234 271.183 0.927739C271.814 1.51924 272.173 2.32126 272.181 3.15997V154.699C272.181 155.542 271.826 156.351 271.194 156.949C270.561 157.546 269.704 157.884 268.808 157.887ZM154.366 0.11166C153.509 0.113136 152.687 0.434769 152.08 1.00612C151.474 1.57747 151.132 2.35196 151.131 3.15997V154.699C151.132 155.507 151.474 156.281 152.08 156.853C152.687 157.424 153.509 157.746 154.366 157.747H268.808C269.666 157.746 270.488 157.424 271.095 156.853C271.701 156.281 272.043 155.507 272.044 154.699V3.15997C272.043 2.35196 271.701 1.57747 271.095 1.00612C270.488 0.434769 269.666 0.113136 268.808 0.11166H154.366Z" fill="#EBEBEB"/>
<path d="M266.787 191.77H251.378V191.91H266.787V191.77Z" fill="#EBEBEB"/>
<path d="M211.155 193.288H184.468V193.428H211.155V193.288Z" fill="#EBEBEB"/>
<path d="M250.785 186.588H214.758V186.728H250.785V186.588Z" fill="#EBEBEB"/>
<path d="M42.639 187.527H31.2422V187.667H42.639V187.527Z" fill="#EBEBEB"/>
<path d="M80.6869 187.527H47.9189V187.667H80.6869V187.527Z" fill="#EBEBEB"/>
<path d="M144.842 189.883H100.707V190.022H144.842V189.883Z" fill="#EBEBEB"/>
<path d="M224.525 179.928H229.267V97.2724H224.525V179.928Z" fill="#F0F0F0"/>
<path d="M201.773 182.775H228.021V179.922H201.773V182.775Z" fill="#F0F0F0"/>
<path d="M224.531 97.2666H200.517V179.923H224.531V97.2666Z" fill="#F5F5F5"/>
<path d="M221.971 140.311H203.077V155.073H221.971V140.311Z" fill="#F0F0F0"/>
<path d="M221.971 159.629H203.077V174.39H221.971V159.629Z" fill="#F0F0F0"/>
<path d="M210.005 148.703H215.037C215.423 148.703 215.736 148.408 215.736 148.044V147.335C215.736 146.971 215.423 146.677 215.037 146.677H210.005C209.619 146.677 209.306 146.971 209.306 147.335V148.044C209.306 148.408 209.619 148.703 210.005 148.703Z" fill="#F5F5F5"/>
<path d="M210.005 168.02H215.037C215.423 168.02 215.736 167.725 215.736 167.361V166.652C215.736 166.288 215.423 165.993 215.037 165.993H210.005C209.619 165.993 209.306 166.288 209.306 166.652V167.361C209.306 167.725 209.619 168.02 210.005 168.02Z" fill="#F5F5F5"/>
<path d="M221.971 101.828H203.077V116.59H221.971V101.828Z" fill="#F0F0F0"/>
<path d="M221.971 120.989H203.077V135.75H221.971V120.989Z" fill="#F0F0F0"/>
<path d="M210.005 110.219H215.037C215.423 110.219 215.736 109.924 215.736 109.56V108.851C215.736 108.487 215.423 108.192 215.037 108.192H210.005C209.619 108.192 209.306 108.487 209.306 108.851V109.56C209.306 109.924 209.619 110.219 210.005 110.219Z" fill="#F5F5F5"/>
<path d="M210.005 129.386H215.037C215.423 129.386 215.736 129.091 215.736 128.727V128.018C215.736 127.654 215.423 127.359 215.037 127.359H210.005C209.619 127.359 209.306 127.654 209.306 128.018V128.727C209.306 129.091 209.619 129.386 210.005 129.386Z" fill="#F5F5F5"/>
<path d="M250.809 179.928H265.033V97.2724H250.809V179.928Z" fill="#F0F0F0"/>
<path d="M228.04 182.775H263.569V179.922H228.04V182.775Z" fill="#F0F0F0"/>
<path d="M250.809 97.2666H226.795V179.923H250.809V97.2666Z" fill="#F5F5F5"/>
<path d="M248.249 140.311H229.355V155.073H248.249V140.311Z" fill="#F0F0F0"/>
<path d="M248.249 159.629H229.355V174.39H248.249V159.629Z" fill="#F0F0F0"/>
<path d="M236.284 148.703H241.315C241.702 148.703 242.015 148.408 242.015 148.044V147.335C242.015 146.971 241.702 146.677 241.315 146.677H236.284C235.897 146.677 235.584 146.971 235.584 147.335V148.044C235.584 148.408 235.897 148.703 236.284 148.703Z" fill="#F5F5F5"/>
<path d="M236.284 168.02H241.315C241.702 168.02 242.015 167.725 242.015 167.361V166.652C242.015 166.288 241.702 165.993 241.315 165.993H236.284C235.897 165.993 235.584 166.288 235.584 166.652V167.361C235.584 167.725 235.897 168.02 236.284 168.02Z" fill="#F5F5F5"/>
<path d="M248.249 101.828H229.355V116.59H248.249V101.828Z" fill="#F0F0F0"/>
<path d="M248.249 120.989H229.355V135.75H248.249V120.989Z" fill="#F0F0F0"/>
<path d="M236.284 110.219H241.315C241.702 110.219 242.015 109.924 242.015 109.56V108.851C242.015 108.487 241.702 108.192 241.315 108.192H236.284C235.897 108.192 235.584 108.487 235.584 108.851V109.56C235.584 109.924 235.897 110.219 236.284 110.219Z" fill="#F5F5F5"/>
<path d="M236.284 129.386H241.315C241.702 129.386 242.015 129.091 242.015 128.727V128.018C242.015 127.654 241.702 127.359 241.315 127.359H236.284C235.897 127.359 235.584 127.654 235.584 128.018V128.727C235.584 129.091 235.897 129.386 236.284 129.386Z" fill="#F5F5F5"/>
<path d="M173.58 80.0155L253.417 80.0155V13.9912L173.58 13.9912V80.0155Z" fill="#E6E6E6"/>
<path d="M165.023 11.4227H258.585C258.796 11.4227 258.998 11.5016 259.147 11.6418C259.296 11.7821 259.379 11.9724 259.379 12.1709C259.378 12.3683 259.293 12.5571 259.145 12.6962C258.996 12.8353 258.795 12.9134 258.585 12.9134H165.023C164.814 12.9119 164.614 12.8332 164.467 12.6943C164.319 12.5553 164.236 12.3673 164.234 12.1709C164.234 11.9734 164.317 11.784 164.465 11.6438C164.613 11.5037 164.813 11.4242 165.023 11.4227Z" fill="#E6E6E6"/>
<path d="M170.197 80.0155L251.841 80.0155V13.9912L170.197 13.9912V80.0155Z" fill="#F0F0F0"/>
<path d="M173.58 80.0155H253.417V82.1314H171.245L173.58 80.0155Z" fill="#E6E6E6"/>
<path d="M164.548 80.0155H246.192L243.857 82.1314H162.213L164.548 80.0155Z" fill="#F0F0F0"/>
<path d="M247.093 75.5487V18.4572L174.937 18.4572V75.5487H247.093Z" fill="#FAFAFA"/>
<path d="M230.713 75.5487L202.875 18.4572H189.736L217.573 75.5487H230.713Z" fill="white"/>
<path d="M214.752 75.5487L186.915 18.4572H181.788L209.625 75.5487H214.752Z" fill="white"/>
<path d="M175.536 75.5487V18.4572H174.932V75.5487H175.536Z" fill="#E6E6E6"/>
<g opacity="0.4">
<path d="M247.033 64.5671H255.194V10.0829H247.033V64.5671Z" fill="#F0F0F0"/>
<path d="M243.857 64.5671H250.216V10.0829H243.857V64.5671Z" fill="#E6E6E6"/>
<path d="M238.879 64.5671H247.04V10.0829H238.879V64.5671Z" fill="#F0F0F0"/>
<path d="M235.696 64.5671H242.056V10.0829H235.696V64.5671Z" fill="#E6E6E6"/>
<path d="M230.712 64.5671H238.873V10.0829H230.712V64.5671Z" fill="#F0F0F0"/>
</g>
<g opacity="0.4">
<path d="M177.972 64.5671H182.678V10.0829H177.972V64.5671Z" fill="#F0F0F0"/>
<path d="M176.14 64.5671H179.803V10.0829H176.14V64.5671Z" fill="#E6E6E6"/>
<path d="M173.266 64.5671H177.972V10.0829H173.266V64.5671Z" fill="#F0F0F0"/>
<path d="M171.441 64.5671H175.104V10.0829H171.441V64.5671Z" fill="#E6E6E6"/>
<path d="M168.561 64.5671H173.267V10.0829H168.561V64.5671Z" fill="#F0F0F0"/>
</g>
<path d="M97.4775 53.9874H108.774L107.44 26.9993H97.4775V53.9874Z" fill="#F5F5F5"/>
<path d="M115.156 55.4447L117.592 67.4314H115.156L100.215 55.4447H115.156Z" fill="#F5F5F5"/>
<path d="M117.592 55.4447V67.4314L102.651 55.4447H117.592Z" fill="#E6E6E6"/>
<path d="M56.56 55.4447L58.9958 67.4314H56.56L41.6191 55.4447H56.56Z" fill="#F5F5F5"/>
<path d="M58.9965 55.4447V67.4314L44.0557 55.4447H58.9965Z" fill="#E6E6E6"/>
<path d="M128.562 54.0266H112.312V55.7573H128.562V54.0266Z" fill="#E6E6E6"/>
<path d="M31.5207 55.757L112.312 55.757V54.0262L31.5207 54.0262V55.757Z" fill="#F5F5F5"/>
<path d="M80.877 53.9873H105.128L108.127 21.2822H83.8758L80.877 53.9873Z" fill="#E6E6E6"/>
<path d="M79.6201 53.9873H103.872L106.87 21.2822H82.619L79.6201 53.9873Z" fill="#F0F0F0"/>
<path d="M101.839 50.3639L104.583 24.8999H84.6581L81.9141 50.3639H101.839Z" fill="white"/>
<path d="M70.0195 53.987H77.8011L76.8825 35.4012H70.0195V53.987Z" fill="#E0E0E0"/>
<path d="M58.5928 53.9878H75.2879L77.3563 31.4661H60.6552L58.5928 53.9878Z" fill="#F0F0F0"/>
<path d="M57.7275 53.9878H74.4286L76.491 31.4661H59.79L57.7275 53.9878Z" fill="#F5F5F5"/>
<path d="M73.0247 51.4919L74.9093 33.9613H61.1953L59.3047 51.4919H73.0247Z" fill="#E0E0E0"/>
<path d="M155.641 101.298C155.696 101.922 155.553 102.547 155.231 103.095C154.909 103.643 154.421 104.089 153.83 104.375C153.239 104.662 152.571 104.777 151.91 104.706C151.249 104.635 150.626 104.38 150.119 103.975C149.612 103.57 149.244 103.033 149.061 102.43C148.878 101.828 148.889 101.188 149.093 100.592C149.296 99.9957 149.683 99.4696 150.204 99.0804C150.725 98.6913 151.357 98.4564 152.02 98.4056C152.459 98.3712 152.901 98.4188 153.321 98.5455C153.741 98.6723 154.13 98.8758 154.467 99.1444C154.803 99.413 155.08 99.7414 155.281 100.111C155.483 100.48 155.605 100.884 155.641 101.298Z" fill="#E0E0E0"/>
<path d="M161.881 102.951C161.936 103.575 161.794 104.201 161.471 104.748C161.149 105.296 160.661 105.742 160.07 106.028C159.479 106.315 158.811 106.43 158.15 106.359C157.49 106.288 156.866 106.034 156.359 105.628C155.852 105.223 155.484 104.686 155.301 104.083C155.118 103.481 155.13 102.841 155.333 102.245C155.537 101.649 155.923 101.123 156.444 100.734C156.965 100.344 157.597 100.11 158.26 100.059C159.147 99.9908 160.026 100.257 160.705 100.799C161.384 101.341 161.807 102.115 161.881 102.951Z" fill="#E0E0E0"/>
<path d="M166.391 101.052C166.445 101.676 166.302 102.301 165.979 102.848C165.655 103.396 165.167 103.84 164.576 104.126C163.985 104.412 163.317 104.526 162.656 104.454C161.996 104.382 161.373 104.128 160.867 103.722C160.36 103.317 159.992 102.779 159.81 102.177C159.628 101.575 159.64 100.935 159.843 100.339C160.047 99.7431 160.434 99.2174 160.955 98.8285C161.476 98.4396 162.108 98.205 162.77 98.1544C163.658 98.088 164.537 98.3556 165.216 98.8987C165.895 99.4417 166.317 100.216 166.391 101.052Z" fill="#E0E0E0"/>
<path d="M171.15 102.235C171.203 102.858 171.059 103.481 170.736 104.027C170.413 104.572 169.925 105.015 169.335 105.3C168.745 105.584 168.079 105.698 167.42 105.626C166.761 105.554 166.14 105.3 165.635 104.895C165.13 104.491 164.763 103.955 164.581 103.354C164.399 102.753 164.41 102.115 164.613 101.521C164.815 100.926 165.201 100.401 165.72 100.013C166.239 99.6243 166.869 99.3894 167.529 99.3377C167.969 99.3033 168.412 99.3511 168.832 99.4782C169.252 99.6053 169.642 99.8093 169.978 100.078C170.315 100.348 170.591 100.677 170.792 101.047C170.994 101.417 171.115 101.821 171.15 102.235Z" fill="#E0E0E0"/>
<path d="M175.423 102.727C175.423 102.727 175.032 111.514 160.05 111.514C145.067 111.514 144.641 102.727 144.641 102.727H175.423Z" fill="#F0F0F0"/>
<path d="M35.6394 182.786H41.0859L41.0859 111.531H35.6394L35.6394 182.786Z" fill="#E6E6E6"/>
<path d="M34.1873 182.786H37.3936L37.3936 111.531H34.1873L34.1873 182.786Z" fill="#F0F0F0"/>
<path d="M110.51 111.532H33.1924V116.875H110.51V111.532Z" fill="#F0F0F0"/>
<path d="M183.732 182.786H189.179V111.531H183.732V182.786Z" fill="#E6E6E6"/>
<path d="M182.713 182.786H185.919V111.531H182.713V182.786Z" fill="#F0F0F0"/>
<path d="M190.151 111.532H112.833V116.875H190.151V111.532Z" fill="#E6E6E6"/>
<path d="M110.966 182.786H116.412L116.412 111.531H110.966L110.966 182.786Z" fill="#E6E6E6"/>
<path d="M109.514 182.786H112.721L112.721 111.531H109.514L109.514 182.786Z" fill="#F0F0F0"/>
<path d="M128.841 87.8314H88.4751L81.2803 110.286H121.652L128.841 87.8314Z" fill="#E6E6E6"/>
<path d="M121.652 110.286L121.492 111.531H81.1201L81.2801 110.286H121.652Z" fill="#E6E6E6"/>
<path d="M127.602 87.8314H87.2299L80.041 110.286H120.407L127.602 87.8314Z" fill="#F0F0F0"/>
<path d="M119.619 109.264L126.15 88.8585H88.0243L81.4873 109.264H119.619Z" fill="white"/>
<path d="M109.894 110.286L109.728 111.531H65.2725L65.4325 110.286H109.894Z" fill="#F0F0F0"/>
<path d="M148.315 208C211.778 208 263.225 205.171 263.225 201.68C263.225 198.19 211.778 195.36 148.315 195.36C84.8522 195.36 33.4053 198.19 33.4053 201.68C33.4053 205.171 84.8522 208 148.315 208Z" fill="#F5F5F5"/>
<path d="M223.909 30.2318H155.7C153.361 30.268 151.12 31.1244 149.414 32.6337C147.709 34.143 146.662 36.1968 146.478 38.3941L135.87 192.239C135.783 193.286 135.929 194.339 136.299 195.331C136.668 196.322 137.252 197.23 138.014 197.998C138.776 198.765 139.699 199.374 140.725 199.787C141.751 200.2 142.856 200.407 143.971 200.395H212.204C214.543 200.361 216.784 199.505 218.489 197.997C220.195 196.489 221.242 194.435 221.426 192.239L229.035 81.6622C229.359 81.5559 229.642 81.364 229.853 81.1095C230.063 80.8549 230.191 80.5486 230.221 80.2274L231.584 60.4413C231.608 60.1339 231.524 59.8276 231.347 59.5687C231.169 59.3098 230.907 59.1124 230.6 59.0065L232.016 38.3941C232.103 37.3458 231.957 36.2921 231.587 35.2999C231.218 34.3077 230.633 33.3989 229.871 32.6311C229.108 31.8634 228.184 31.2535 227.158 30.8405C226.131 30.4274 225.025 30.2201 223.909 30.2318Z" fill="#0EA5E9"/>
<path d="M140.955 70.0661H142.294C142.709 70.0591 143.106 69.9073 143.408 69.64C143.71 69.3728 143.896 69.0093 143.93 68.6201L144.523 60.3573C144.537 60.1714 144.511 59.9847 144.445 59.8089C144.379 59.6331 144.275 59.4721 144.14 59.3361C144.005 59.2002 143.841 59.0922 143.659 59.0191C143.477 58.946 143.28 58.9093 143.082 58.9113H141.749C141.334 58.9171 140.936 59.0685 140.634 59.336C140.331 59.6034 140.146 59.9677 140.113 60.3573L139.521 68.6201C139.506 68.8056 139.532 68.9919 139.598 69.1673C139.663 69.3427 139.767 69.5034 139.901 69.6393C140.036 69.7751 140.199 69.8832 140.381 69.9567C140.562 70.0302 140.757 70.0674 140.955 70.0661Z" fill="#0EA5E9"/>
<path d="M139.941 84.8169H141.275C141.691 84.8098 142.089 84.6574 142.393 84.3891C142.696 84.1209 142.883 83.756 142.916 83.3653L143.509 75.1081C143.524 74.9222 143.497 74.7354 143.432 74.5596C143.366 74.3838 143.262 74.2228 143.126 74.0869C142.991 73.9509 142.827 73.8429 142.645 73.7698C142.463 73.6967 142.267 73.66 142.069 73.6621H140.735C140.32 73.6677 139.922 73.819 139.618 74.0863C139.314 74.3536 139.128 74.7179 139.094 75.1081L138.501 83.3653C138.484 83.5518 138.51 83.7396 138.575 83.9164C138.64 84.0932 138.744 84.2553 138.879 84.392C139.015 84.5288 139.18 84.6373 139.362 84.7104C139.545 84.7836 139.743 84.8198 139.941 84.8169Z" fill="#0EA5E9"/>
<path d="M208.577 200.395H140.368C139.253 200.407 138.147 200.2 137.121 199.787C136.096 199.374 135.172 198.765 134.41 197.997C133.648 197.23 133.064 196.322 132.695 195.33C132.326 194.339 132.18 193.286 132.266 192.238L142.851 38.3938C143.037 36.196 144.085 34.1421 145.791 32.6329C147.497 31.1238 149.739 30.2676 152.079 30.2315H220.282C221.397 30.2206 222.503 30.4285 223.529 30.8419C224.554 31.2553 225.478 31.8652 226.24 32.6329C227.001 33.4005 227.586 34.3091 227.955 35.3009C228.324 36.2927 228.47 37.346 228.383 38.3938L217.798 192.238C217.614 194.435 216.567 196.488 214.862 197.997C213.157 199.505 210.916 200.36 208.577 200.395Z" fill="#263238"/>
<path opacity="0.2" d="M179.108 193.854C181.498 191.675 181.678 188.199 179.51 186.09C177.343 183.981 173.649 184.037 171.26 186.216C168.871 188.395 168.691 191.871 170.858 193.98C173.025 196.089 176.719 196.033 179.108 193.854Z" fill="white"/>
<path d="M214.741 180.425H137.204C136.94 180.425 136.678 180.374 136.436 180.275C136.194 180.176 135.976 180.031 135.795 179.849C135.615 179.668 135.476 179.453 135.387 179.219C135.298 178.985 135.26 178.736 135.277 178.488L144.351 46.5511C144.391 46.0954 144.611 45.6705 144.968 45.3604C145.325 45.0502 145.792 44.8775 146.277 44.8762H223.82C224.084 44.8765 224.345 44.9277 224.588 45.0267C224.83 45.1258 225.048 45.2705 225.228 45.4521C225.409 45.6336 225.548 45.8481 225.637 46.0823C225.726 46.3164 225.763 46.5653 225.746 46.8135L216.667 178.723C216.635 179.184 216.419 179.616 216.061 179.932C215.703 180.249 215.231 180.425 214.741 180.425Z" fill="white"/>
<path opacity="0.2" d="M193.107 128.423C201.78 120.514 202.432 107.895 194.565 100.239C186.697 92.5824 173.287 92.7875 164.614 100.697C155.941 108.606 155.288 121.225 163.156 128.881C171.024 136.537 184.433 136.332 193.107 128.423Z" fill="#0EA5E9"/>
<path opacity="0.2" d="M176.763 145.303C158.764 145.303 145.068 131.507 146.235 114.552C147.403 97.5961 162.99 83.8005 180.995 83.8005C199 83.8005 212.69 97.5961 211.522 114.552C210.355 131.507 194.744 145.303 176.763 145.303ZM180.912 84.3588C163.239 84.3588 147.93 97.9031 146.787 114.552C145.643 131.2 159.084 144.744 176.757 144.744C194.43 144.744 209.738 131.2 210.888 114.552C212.038 97.9031 198.608 84.3588 180.912 84.3588Z" fill="#0EA5E9"/>
<path d="M173.8 124.216L172.022 120.983C168.17 113.943 159.298 107.651 156.198 105.82L159.126 101.694C162.795 103.86 170.126 109.226 174.725 115.601C183.229 106.11 195.248 96.3346 211.339 85.7883L214.083 89.6964C196.896 100.963 184.527 111.263 176.301 121.19L173.8 124.216Z" fill="#0EA5E9"/>
<path opacity="0.2" d="M172.959 39.0148C173.925 38.1334 173.996 36.7256 173.118 35.8704C172.239 35.0153 170.743 35.0366 169.776 35.9181C168.81 36.7995 168.739 38.2073 169.618 39.0624C170.496 39.9175 171.992 39.8962 172.959 39.0148Z" fill="white"/>
<path opacity="0.2" d="M179.673 35.2399H199.284C199.589 35.2365 199.891 35.2932 200.171 35.4064C200.451 35.5195 200.703 35.6866 200.911 35.8969C201.118 36.1072 201.277 36.356 201.377 36.6275C201.476 36.8989 201.514 37.1869 201.489 37.4731C201.44 38.0732 201.156 38.6346 200.691 39.0476C200.226 39.4607 199.615 39.6955 198.976 39.7063H179.371C179.066 39.7087 178.764 39.6514 178.484 39.538C178.204 39.4246 177.952 39.2577 177.744 39.0477C177.536 38.8377 177.377 38.5892 177.276 38.3182C177.176 38.0471 177.136 37.7593 177.16 37.4731C177.209 36.873 177.493 36.3115 177.958 35.8985C178.423 35.4855 179.034 35.2507 179.673 35.2399Z" fill="white"/>
<path d="M106.675 76.4877C105.674 77.4536 104.601 78.5199 103.611 79.5807C102.621 80.6414 101.632 81.7301 100.701 82.8467C99.7708 83.9633 98.9233 85.0799 98.0461 86.2579L97.4535 87.1345L96.8608 88.0221C96.6653 88.318 96.4875 88.6195 96.3156 88.9266L95.8415 89.7473C95.6482 90.2166 95.538 90.7127 95.5155 91.2156C95.4681 91.8625 95.4681 92.5116 95.5155 93.1585C95.6317 94.5541 95.8295 95.9427 96.1082 97.3178C96.3689 98.7247 96.7008 100.137 97.0505 101.544C97.4002 102.951 97.7854 104.375 98.1765 105.759L95.9837 106.535C94.6362 103.805 93.5071 100.983 92.6056 98.0938C92.1478 96.6048 91.7973 95.0884 91.5566 93.5549C91.4367 92.7371 91.3753 91.9127 91.3728 91.0872C91.3589 90.1146 91.5337 89.1478 91.8884 88.2343C92.0248 87.9216 92.0959 87.7988 92.1907 87.609L92.4633 87.0786C92.6411 86.7269 92.8248 86.3752 93.056 86.0346L93.6486 85.0073L94.2769 84.008C95.114 82.6915 96.026 81.4186 97.009 80.1948C97.9809 78.9721 98.9885 77.783 100.049 76.6329C101.11 75.4828 102.183 74.3997 103.416 73.2831L106.675 76.4877Z" fill="#B55B52"/>
<path d="M106.93 69.7875C103.718 69.9215 100.666 74.9462 100.666 74.9462L104.909 83.1029C104.909 83.1029 110.658 78.5918 110.729 74.1701C110.777 71.2726 110.089 69.6479 106.93 69.7875Z" fill="#0EA5E9"/>
<path opacity="0.7" d="M106.93 69.7875C103.718 69.9215 100.666 74.9462 100.666 74.9462L104.909 83.1029C104.909 83.1029 110.658 78.5918 110.729 74.1701C110.777 71.2726 110.089 69.6479 106.93 69.7875Z" fill="white"/>
<path opacity="0.2" d="M107.694 75.65C106.758 76.9843 106.307 80.4457 106.165 81.9866C107.579 80.6912 108.778 79.2025 109.721 77.5705C109.087 76.0799 108.31 74.7734 107.694 75.65Z" fill="black"/>
<path d="M97.5421 104.91L101.448 106.027L98.8459 108.506C98.8459 108.506 96.0308 107.685 95.6396 105.882L97.5421 104.91Z" fill="#B55B52"/>
<path d="M103.812 108.835L103.154 111.208L98.8457 108.483L101.447 106.005L103.812 108.835Z" fill="#B55B52"/>
<path d="M129.51 60.1012C129.386 60.4306 129.475 60.7656 129.706 60.8438C129.937 60.9219 130.222 60.7265 130.34 60.3971C130.459 60.0677 130.376 59.7272 130.145 59.649C129.913 59.5708 129.635 59.7662 129.51 60.1012Z" fill="#263238"/>
<path d="M130.037 59.6318L130.968 59.7044C130.968 59.7044 130.304 60.1678 130.037 59.6318Z" fill="#263238"/>
<path d="M129.687 60.5254C129.723 61.394 129.882 62.2541 130.162 63.0824C129.935 63.1381 129.699 63.147 129.469 63.1085C129.239 63.0699 129.02 62.9848 128.828 62.8591L129.687 60.5254Z" fill="#A02724"/>
<path d="M130.659 58.8114C130.617 58.8058 130.578 58.7885 130.546 58.7617C130.514 58.7348 130.492 58.6996 130.482 58.6606C130.417 58.4083 130.292 58.1731 130.116 57.9729C129.94 57.7727 129.719 57.6127 129.468 57.5049C129.414 57.4861 129.37 57.448 129.346 57.3989C129.321 57.3498 129.319 57.2936 129.338 57.2425C129.347 57.2169 129.362 57.1933 129.381 57.1732C129.4 57.153 129.423 57.1367 129.449 57.1253C129.475 57.1138 129.503 57.1074 129.532 57.1064C129.561 57.1055 129.589 57.11 129.616 57.1197C129.939 57.2517 130.224 57.4535 130.448 57.7086C130.673 57.9636 130.83 58.2649 130.908 58.588C130.915 58.6144 130.917 58.6419 130.913 58.6688C130.908 58.6958 130.899 58.7217 130.884 58.745C130.869 58.7683 130.849 58.7887 130.826 58.8049C130.803 58.8211 130.776 58.8327 130.748 58.8393L130.659 58.8114Z" fill="#263238"/>
<path d="M117.337 61.5028C117.42 64.1436 117.136 68.8947 114.967 70.2402C114.967 70.2402 115.257 72.9535 120.301 73.8747C125.842 74.8852 123.4 71.7811 123.4 71.7811C120.496 70.5528 120.941 68.4648 121.812 66.5889L117.337 61.5028Z" fill="#B55B52"/>
<path d="M133.807 79.5742C134.305 80.8527 134.874 82.2373 135.478 83.5493C136.083 84.8613 136.663 86.19 137.369 87.4574C138.074 88.7247 138.761 89.9976 139.508 91.2315C139.893 91.84 140.279 92.4486 140.694 93.0292C140.895 93.3307 141.102 93.621 141.322 93.8946L141.642 94.3189L141.802 94.5366L141.885 94.6427L141.938 94.6985C142.323 95.1115 142.766 95.474 143.254 95.776C143.841 96.1539 144.451 96.5006 145.079 96.8145C146.377 97.4732 147.77 98.0706 149.186 98.6345C150.603 99.1984 152.049 99.7511 153.513 100.237C154.977 100.723 156.476 101.236 157.916 101.711L157.365 103.86C154.189 103.36 151.051 102.664 147.971 101.778C146.395 101.325 144.847 100.786 143.337 100.164C142.545 99.8331 141.773 99.4603 141.025 99.0476C140.158 98.5818 139.372 97.9924 138.696 97.3002L138.554 97.1494L138.453 97.0322L138.258 96.8033L137.867 96.3343C137.6 96.0273 137.345 95.7146 137.108 95.3964C136.604 94.7655 136.142 94.1179 135.686 93.4647C134.786 92.1689 133.958 90.831 133.202 89.4561C132.45 88.0883 131.738 86.7093 131.087 85.3024C130.435 83.8954 129.848 82.5109 129.309 80.97L133.807 79.5742Z" fill="#B55B52"/>
<path d="M157.133 101.7L160.63 100.427L160.458 104.229C160.458 104.229 157.625 104.938 156.31 103.592L157.133 101.7Z" fill="#B55B52"/>
<path d="M163.268 101.733L164.465 104.162L160.459 104.229L160.631 100.427L163.268 101.733Z" fill="#B55B52"/>
<path d="M105.276 197.017L109.905 197.341L111.28 187.331L106.651 187.007L105.276 197.017Z" fill="#B55B52"/>
<path d="M68.6143 174.374L71.6368 177.757L80.6096 172.325L77.5871 168.941L68.6143 174.374Z" fill="#B55B52"/>
<path d="M73.0478 177.321L70.612 172.911C70.5732 172.834 70.5059 172.774 70.4229 172.741C70.3398 172.708 70.2468 172.705 70.1616 172.732L66.2915 173.994C66.1944 174.031 66.1067 174.087 66.0341 174.158C65.9615 174.229 65.9058 174.313 65.8705 174.406C65.8352 174.499 65.8212 174.598 65.8294 174.696C65.8377 174.794 65.8679 174.89 65.9182 174.977C66.7953 176.501 67.299 177.21 68.3658 179.136C69.0296 180.325 69.8653 182.134 70.772 183.781C71.6788 185.428 73.4093 184.697 73.1841 183.932C72.1648 180.52 72.8404 179.577 73.1841 178.097C73.233 177.832 73.1849 177.558 73.0478 177.321Z" fill="#263238"/>
<path d="M110.195 196.723H104.992C104.902 196.722 104.815 196.751 104.747 196.805C104.678 196.859 104.633 196.935 104.619 197.018L103.919 200.893C103.905 200.99 103.913 201.088 103.942 201.182C103.971 201.275 104.022 201.362 104.09 201.435C104.158 201.509 104.242 201.568 104.336 201.608C104.43 201.648 104.533 201.669 104.636 201.669C106.456 201.641 107.327 201.541 109.615 201.541C111.025 201.541 113.929 201.68 115.873 201.68C117.817 201.68 117.971 199.871 117.165 199.704C113.556 198.973 112.157 197.956 110.96 196.991C110.749 196.816 110.477 196.72 110.195 196.723Z" fill="#263238"/>
<path opacity="0.2" d="M111.28 187.332L110.515 192.898L105.904 192.463L106.651 187.014L111.28 187.332Z" fill="black"/>
<path opacity="0.2" d="M77.5873 168.941L80.6099 172.325L76.8939 174.575L73.7588 171.258L77.5873 168.941Z" fill="black"/>
<path d="M105.644 96.3348L124.206 99.7237C132.977 75.3986 130.879 74.6003 130.879 74.6003C129.515 73.9062 128.108 73.2909 126.665 72.7579L126.41 72.6686C125.225 72.261 124.976 72.1996 123.388 71.7641C120.65 71.1556 118.107 70.6475 114.96 70.2288L114.367 70.1506C113.775 70.0836 113.23 70.0278 112.684 69.9776C112.317 69.9385 111.949 69.9162 111.6 69.8938L110.414 69.8324C108.388 69.7375 106.936 69.7654 106.936 69.7654C107.955 84.9567 107.179 89.3282 105.644 96.3348Z" fill="#0EA5E9"/>
<path opacity="0.7" d="M105.644 96.3348L124.206 99.7237C132.977 75.3986 130.879 74.6003 130.879 74.6003C129.515 73.9062 128.108 73.2909 126.665 72.7579L126.41 72.6686C125.225 72.261 124.976 72.1996 123.388 71.7641C120.65 71.1556 118.107 70.6475 114.96 70.2288L114.367 70.1506C113.775 70.0836 113.23 70.0278 112.684 69.9776C112.317 69.9385 111.949 69.9162 111.6 69.8938L110.414 69.8324C108.388 69.7375 106.936 69.7654 106.936 69.7654C107.955 84.9567 107.179 89.3282 105.644 96.3348Z" fill="white"/>
<path opacity="0.2" d="M128.212 80.2782L126.535 80.0214C126.535 82.1038 127.377 85.6769 128.195 87.9492C128.888 85.716 129.427 83.8792 129.836 82.3327L128.212 80.2782Z" fill="black"/>
<path d="M130.233 74.3043C132.977 75.1305 134.975 80.2445 135.721 82.4498L130.387 88.351C130.387 88.351 124.923 80.9536 125.794 78.659C126.648 76.2695 128.906 73.8967 130.233 74.3043Z" fill="#0EA5E9"/>
<path opacity="0.7" d="M130.233 74.3043C132.977 75.1305 134.975 80.2445 135.721 82.4498L130.387 88.351C130.387 88.351 124.923 80.9536 125.794 78.659C126.648 76.2695 128.906 73.8967 130.233 74.3043Z" fill="white"/>
<path d="M132.011 55.4225C131.46 56.9467 129.048 57.5552 126.647 56.7904C124.247 56.0255 122.73 54.1552 123.281 52.631C123.832 51.1069 126.244 50.4983 128.615 51.2688C130.986 52.0392 132.556 53.8984 132.011 55.4225Z" fill="#263238"/>
<path d="M118.089 55.004C116.857 59.1578 116.24 60.8885 117.651 63.747C119.773 68.0514 125.45 68.727 127.975 65.0366C130.245 61.7204 131.881 55.4842 128.254 52.3633C127.488 51.6664 126.543 51.1696 125.511 50.9219C124.48 50.6742 123.398 50.6841 122.371 50.9507C121.345 51.2174 120.411 51.7314 119.66 52.4422C118.909 53.1531 118.368 54.036 118.089 55.004Z" fill="#B55B52"/>
<path d="M124.977 50.1525C123.199 51.1127 119.423 45.0999 114.735 50.1525C111.381 53.7758 113.52 59.0852 113.52 59.0852C113.52 59.0852 110.848 54.6579 108.714 56.8186C105.929 59.61 108.809 69.598 117.995 68.9113C127.181 68.2246 126.292 61.2012 126.292 61.2012C126.292 61.2012 130.595 57.0809 130.382 53.385C130.222 50.6159 127.94 48.5725 124.977 50.1525Z" fill="#263238"/>
<path d="M126.09 58.5716C125.861 59.3445 125.89 60.1652 126.173 60.9221C126.553 61.9884 127.424 61.994 127.886 61.257C128.348 60.5201 128.603 59.2416 127.945 58.3818C127.288 57.522 126.387 57.7174 126.09 58.5716Z" fill="#B55B52"/>
<path d="M119.275 98.8191C119.275 98.8191 117.296 105.284 114.753 113.815C113.064 119.498 111.12 126.098 109.348 132.311C108.335 135.868 107.38 139.296 106.557 142.361C101.898 159.696 78.6662 174.597 78.6662 174.597L74.168 169.935C74.168 169.935 89.7785 157.552 94.3183 141.378C103.487 108.545 98.3305 103.006 105.638 96.3347L119.275 98.8191Z" fill="#263238"/>
<path opacity="0.2" d="M117.272 104.614C116.584 107.121 115.719 110.286 114.765 113.826C113.076 119.51 111.132 126.109 109.36 132.322C108.601 124.395 108.175 109.818 114.368 105.284C115.589 104.402 116.555 104.218 117.272 104.614Z" fill="black"/>
<path d="M79.051 175.267L73.4326 169.444L75.1335 167.836L82.0261 173.955L79.051 175.267Z" fill="#0EA5E9"/>
<path opacity="0.7" d="M79.051 175.267L73.4326 169.444L75.1335 167.836L82.0261 173.955L79.051 175.267Z" fill="white"/>
<path d="M73.895 179.689C73.8385 179.687 73.7825 179.678 73.7291 179.661C73.1779 179.471 72.8282 178.477 72.6682 177.902C72.663 177.882 72.6642 177.862 72.6716 177.843C72.679 177.824 72.6923 177.808 72.7097 177.796C72.7269 177.784 72.7477 177.778 72.769 177.778C72.7903 177.778 72.811 177.784 72.8282 177.796C72.9942 177.885 74.4521 178.689 74.4817 179.253C74.4866 179.315 74.4738 179.376 74.4446 179.431C74.4154 179.486 74.3709 179.533 74.3158 179.566C74.1947 179.651 74.0461 179.694 73.895 179.689ZM72.9527 178.097C73.1957 178.851 73.5039 179.359 73.8061 179.46C73.8707 179.479 73.9393 179.482 74.0056 179.469C74.0719 179.456 74.1337 179.428 74.1854 179.387C74.2625 179.337 74.2684 179.287 74.2625 179.253C74.2328 178.963 73.5276 178.438 72.9527 178.097Z" fill="#0EA5E9"/>
<path d="M123.91 99.7232C123.91 99.7232 125.095 134.237 122.476 147.24C119.785 160.79 111.571 191.496 111.571 191.496L104.897 190.687C104.897 190.687 109.117 159.612 110.913 146.179C112.863 131.529 110.32 97.222 110.32 97.222L123.91 99.7232Z" fill="#263238"/>
<path d="M113.004 191.882L103.492 190.726L103.605 188.593L113.958 189.018L113.004 191.882Z" fill="#0EA5E9"/>
<path opacity="0.7" d="M113.004 191.882L103.492 190.726L103.605 188.593L113.958 189.018L113.004 191.882Z" fill="white"/>
<path d="M74.12 178.337C73.6277 178.315 73.1473 178.187 72.7155 177.963C72.6993 177.954 72.6859 177.941 72.6766 177.925C72.6672 177.909 72.6623 177.892 72.6621 177.874C72.6647 177.856 72.6714 177.839 72.6816 177.823C72.6918 177.808 72.7054 177.795 72.7214 177.784C72.7747 177.784 73.9067 177.198 74.5586 177.427C74.6403 177.455 74.7145 177.499 74.776 177.557C74.8374 177.615 74.8846 177.685 74.9142 177.762C74.9532 177.836 74.9644 177.921 74.9461 178.002C74.9278 178.083 74.8811 178.156 74.8135 178.209C74.6029 178.321 74.3598 178.366 74.12 178.337ZM73.0118 177.885C73.5274 178.108 74.4282 178.231 74.6771 178.047C74.7186 178.013 74.7601 177.963 74.6771 177.835C74.6597 177.785 74.6303 177.74 74.5912 177.704C74.5521 177.667 74.5044 177.639 74.4519 177.623C73.9547 177.57 73.4523 177.662 73.0118 177.885Z" fill="#0EA5E9"/>
<path d="M111.914 197.481C111.426 197.472 110.94 197.419 110.462 197.325C110.44 197.323 110.418 197.313 110.402 197.298C110.386 197.283 110.376 197.263 110.373 197.241C110.37 197.22 110.374 197.198 110.384 197.179C110.395 197.16 110.412 197.144 110.433 197.135C110.646 197.029 112.519 196.141 113.076 196.437C113.129 196.465 113.173 196.505 113.205 196.554C113.236 196.603 113.253 196.659 113.254 196.716C113.265 196.809 113.252 196.904 113.214 196.991C113.177 197.077 113.117 197.154 113.04 197.213C112.707 197.419 112.311 197.513 111.914 197.481ZM110.83 197.18C111.849 197.342 112.608 197.297 112.898 197.063C112.948 197.021 112.986 196.969 113.01 196.911C113.034 196.853 113.042 196.79 113.034 196.728C113.036 196.705 113.031 196.683 113.019 196.663C113.008 196.643 112.99 196.627 112.969 196.616C112.667 196.46 111.6 196.834 110.83 197.18Z" fill="#0EA5E9"/>
<path d="M110.486 197.33C110.465 197.336 110.442 197.336 110.421 197.33C110.405 197.32 110.392 197.305 110.384 197.289C110.375 197.272 110.372 197.254 110.373 197.235C110.373 197.157 110.605 195.27 111.725 195.382C112.021 195.41 112.11 195.549 112.128 195.666C112.211 196.158 111.091 197.107 110.527 197.341L110.486 197.33ZM111.636 195.56C110.972 195.56 110.705 196.593 110.622 197.04C111.215 196.716 111.962 195.974 111.914 195.678C111.914 195.678 111.914 195.583 111.701 195.566L111.636 195.56Z" fill="#0EA5E9"/>
<path d="M105.525 95.2682L104.417 96.6695C104.334 96.7811 104.464 96.9319 104.678 96.971L124.146 100.522C124.312 100.522 124.466 100.522 124.49 100.405L124.935 98.8748C124.935 98.7743 124.834 98.6514 124.65 98.618L105.851 95.19C105.794 95.1756 105.734 95.1753 105.677 95.189C105.62 95.2027 105.568 95.2299 105.525 95.2682Z" fill="#0EA5E9"/>
<path d="M107.707 97.7026L107.203 97.6076C107.102 97.6076 107.037 97.5295 107.055 97.4737L107.647 95.4917C107.647 95.4359 107.766 95.4024 107.861 95.4191L108.364 95.514C108.465 95.514 108.536 95.5922 108.519 95.648L107.926 97.63C107.902 97.7026 107.807 97.7026 107.707 97.7026Z" fill="#263238"/>
<path d="M120.419 100.042L119.915 99.9522C119.814 99.9522 119.749 99.8684 119.767 99.8126L120.359 97.8362C120.359 97.7748 120.472 97.7413 120.573 97.7637L121.076 97.853C121.171 97.853 121.242 97.9367 121.225 97.9926L120.632 99.9689C120.614 100.03 120.519 100.064 120.419 100.042Z" fill="#263238"/>
</svg>
