<svg width="738" height="788" viewBox="0 0 738 788" fill="none" xmlns="http://www.w3.org/2000/svg">
<path d="M662.613 118.409C617.372 4.90953 508.779 -37.8252 423.098 38.3811C389.64 68.1114 368.765 115.428 327.797 134.414C289.357 152.22 240.661 146.979 199.093 156.622C110.575 177.029 -8.60119 254.456 0.490653 373.757C4.47288 426.015 36.5125 484.055 52.3505 532.952C70.5342 589.211 81.4444 659.596 129.577 693.227C212.094 750.967 311.632 703.771 385.967 657.215C425.971 632.186 447.991 616.801 491.068 625.384C530.945 633.387 566.858 661.396 605.826 628.165C635.083 603.216 637.502 552.659 662.068 522.968C689.743 489.517 717.801 487.096 732.184 436.819C749.622 375.818 723.929 337.704 706.563 283.206C689.198 228.707 683.925 171.807 662.613 118.409Z" fill="#0EA5E9"/>
<g opacity="0.7">
<path d="M662.613 118.409C617.372 4.90953 508.779 -37.8252 423.098 38.3811C389.64 68.1114 368.765 115.428 327.797 134.414C289.357 152.22 240.661 146.979 199.093 156.622C110.575 177.029 -8.60119 254.456 0.490653 373.757C4.47288 426.015 36.5125 484.055 52.3505 532.952C70.5342 589.211 81.4444 659.596 129.577 693.227C212.094 750.967 311.632 703.771 385.967 657.215C425.971 632.186 447.991 616.801 491.068 625.384C530.945 633.387 566.858 661.396 605.826 628.165C635.083 603.216 637.502 552.659 662.068 522.968C689.743 489.517 717.801 487.096 732.184 436.819C749.622 375.818 723.929 337.704 706.563 283.206C689.198 228.707 683.925 171.807 662.613 118.409Z" fill="white"/>
</g>
<path d="M318.361 788C473.599 788 599.444 779.374 599.444 768.733C599.444 758.093 473.599 749.467 318.361 749.467C163.123 749.467 37.2773 758.093 37.2773 768.733C37.2773 779.374 163.123 788 318.361 788Z" fill="#0EA5E9"/>
<path opacity="0.8" d="M318.361 788C473.599 788 599.444 779.374 599.444 768.733C599.444 758.093 473.599 749.467 318.361 749.467C163.123 749.467 37.2773 758.093 37.2773 768.733C37.2773 779.374 163.123 788 318.361 788Z" fill="white"/>
<path d="M529.582 36.1001H246.953C227.44 36.1001 211.622 53.5043 211.622 74.9735V731.48C211.622 752.95 227.44 770.354 246.953 770.354H529.582C549.095 770.354 564.913 752.95 564.913 731.48V74.9735C564.913 53.5043 549.095 36.1001 529.582 36.1001Z" fill="#263238"/>
<path d="M549.202 116.728H227.314V689.726H549.202V116.728Z" fill="white" stroke="#263238" stroke-width="1.33739" stroke-miterlimit="10"/>
<path d="M437.603 348.751C464.85 318.772 464.85 270.166 437.603 240.187C410.356 210.208 366.179 210.208 338.932 240.187C311.685 270.166 311.685 318.772 338.932 348.751C366.179 378.731 410.356 378.731 437.603 348.751Z" fill="#0EA5E9"/>
<path d="M479.867 653.693H296.685C296.273 653.696 295.864 653.609 295.482 653.437C295.101 653.266 294.754 653.012 294.462 652.693C294.169 652.373 293.937 651.993 293.779 651.574C293.621 651.155 293.539 650.706 293.539 650.252C293.537 649.797 293.616 649.346 293.774 648.925C293.931 648.503 294.163 648.121 294.455 647.799C294.748 647.477 295.095 647.222 295.478 647.049C295.861 646.876 296.271 646.788 296.685 646.791H479.867C480.28 646.791 480.688 646.881 481.068 647.055C481.449 647.229 481.795 647.484 482.085 647.806C482.376 648.128 482.606 648.509 482.762 648.929C482.918 649.349 482.997 649.799 482.995 650.252C482.995 651.165 482.665 652.04 482.079 652.686C481.492 653.331 480.697 653.693 479.867 653.693Z" fill="#0EA5E9"/>
<path d="M485.832 414.391H290.703C286.676 414.391 283.411 417.983 283.411 422.413V447.722C283.411 452.153 286.676 455.745 290.703 455.745H485.832C489.859 455.745 493.124 452.153 493.124 447.722V422.413C493.124 417.983 489.859 414.391 485.832 414.391Z" fill="#0EA5E9"/>
<path d="M485.832 491.738H290.703C286.676 491.738 283.411 495.33 283.411 499.761V525.069C283.411 529.5 286.676 533.092 290.703 533.092H485.832C489.859 533.092 493.124 529.5 493.124 525.069V499.761C493.124 495.33 489.859 491.738 485.832 491.738Z" fill="#0EA5E9"/>
<path d="M423.007 332.763L402.478 319.758V309.015C405.451 305.058 407.604 300.435 408.788 295.47C409.494 295.746 410.238 295.888 410.988 295.89C413.534 295.89 415.152 287.207 415.425 281.005C418.389 274.102 414.352 270.061 414.352 270.061C414.352 270.061 416.025 268.22 417.134 260.838C418.243 253.455 413.224 256.536 409.315 249.774C405.406 243.012 402.605 235.649 389.768 235.649C386.23 235.521 382.74 236.567 379.75 238.651C376.76 240.734 374.409 243.76 373.002 247.333C369.807 247.346 366.622 247.755 363.51 248.554C359.583 249.774 358.473 263.919 361.819 269.461C363.317 272.49 364.116 275.876 364.147 279.324C363.256 278.124 362.328 277.804 361.819 280.525C360.71 286.667 365.183 295.27 365.183 295.27L367.493 294.549C368.656 299.856 370.901 304.803 374.057 309.015V319.758L353.527 332.763C351.13 334.286 349.139 336.476 347.754 339.113C346.368 341.75 345.638 344.742 345.636 347.788V355.23C357.846 365.608 372.839 371.238 388.267 371.238C403.696 371.238 418.689 365.608 430.899 355.23V347.788C430.901 344.741 430.172 341.748 428.786 339.11C427.401 336.472 425.407 334.283 423.007 332.763Z" fill="#263238"/>
<path d="M309.977 522.808C309.507 522.801 309.057 522.593 308.723 522.228C308.544 522.052 308.401 521.836 308.304 521.594C308.207 521.353 308.157 521.092 308.159 520.828C308.165 520.467 308.259 520.114 308.432 519.807L311.705 514.045L305.322 514.265C305.082 514.282 304.841 514.242 304.615 514.149C304.39 514.056 304.184 513.912 304.013 513.725C303.717 513.359 303.553 512.885 303.553 512.395C303.553 511.904 303.717 511.431 304.013 511.064C304.181 510.871 304.385 510.72 304.611 510.624C304.837 510.527 305.08 510.486 305.322 510.504L311.614 510.764L308.377 505.022C308.201 504.709 308.107 504.349 308.104 503.982C308.103 503.718 308.152 503.456 308.249 503.215C308.346 502.973 308.489 502.757 308.668 502.581C309.002 502.216 309.452 502.008 309.923 502.001C310.233 502.003 310.536 502.102 310.796 502.286C311.057 502.47 311.265 502.732 311.396 503.041L314.505 509.223L317.578 503.081C317.724 502.754 317.948 502.476 318.227 502.279C318.506 502.081 318.829 501.971 319.16 501.961C319.39 501.962 319.617 502.017 319.827 502.12C320.036 502.223 320.224 502.374 320.378 502.561C320.712 502.942 320.895 503.453 320.888 503.982C320.887 504.325 320.805 504.663 320.651 504.962L317.36 510.764L323.742 510.504C323.985 510.486 324.227 510.527 324.454 510.624C324.68 510.72 324.884 510.871 325.052 511.064C325.362 511.418 325.532 511.893 325.524 512.385C325.523 512.88 325.355 513.358 325.052 513.725C324.88 513.912 324.675 514.056 324.449 514.149C324.224 514.242 323.983 514.282 323.742 514.265L317.324 514.045L320.524 519.747C320.703 520.066 320.798 520.433 320.797 520.807C320.797 521.338 320.605 521.847 320.264 522.222C319.923 522.597 319.46 522.808 318.978 522.808C318.666 522.804 318.363 522.699 318.104 522.507C317.846 522.315 317.644 522.044 317.524 521.728L314.487 515.726L311.468 521.728C311.334 522.042 311.124 522.309 310.861 522.499C310.598 522.69 310.292 522.797 309.977 522.808Z" fill="#263238"/>
<path d="M339.471 522.808C339 522.801 338.55 522.593 338.216 522.228C338.037 522.052 337.894 521.836 337.797 521.595C337.7 521.353 337.651 521.092 337.652 520.828C337.658 520.467 337.752 520.114 337.925 519.807L341.198 514.045L334.834 514.265C334.591 514.277 334.349 514.236 334.121 514.143C333.893 514.05 333.684 513.908 333.507 513.725C333.265 513.451 333.104 513.104 333.045 512.728C332.986 512.352 333.031 511.965 333.174 511.617C333.317 511.27 333.552 510.978 333.848 510.779C334.144 510.581 334.488 510.485 334.834 510.504L341.107 510.764L337.871 505.022C337.695 504.709 337.6 504.349 337.598 503.982C337.596 503.718 337.646 503.456 337.743 503.215C337.84 502.973 337.983 502.757 338.162 502.581C338.496 502.216 338.946 502.008 339.416 502.001C339.726 502.003 340.029 502.102 340.29 502.286C340.551 502.47 340.758 502.732 340.889 503.041L343.999 509.223L347.072 503.081C347.217 502.754 347.442 502.476 347.721 502.279C348 502.081 348.322 501.971 348.654 501.961C348.884 501.96 349.112 502.013 349.322 502.116C349.532 502.22 349.719 502.372 349.872 502.561C350.04 502.748 350.174 502.97 350.264 503.214C350.355 503.457 350.401 503.718 350.399 503.982C350.393 504.327 350.305 504.665 350.145 504.962L346.853 510.764L353.254 510.544C353.494 510.526 353.734 510.567 353.957 510.664C354.18 510.761 354.381 510.911 354.545 511.104C354.855 511.458 355.025 511.933 355.018 512.425C355.017 512.92 354.848 513.398 354.545 513.765C354.377 513.951 354.175 514.095 353.953 514.189C353.73 514.282 353.492 514.322 353.254 514.305L346.817 514.085L350.017 519.787C350.197 520.106 350.291 520.473 350.29 520.847C350.29 521.378 350.099 521.887 349.758 522.262C349.417 522.637 348.954 522.848 348.472 522.848C348.16 522.844 347.856 522.739 347.598 522.547C347.339 522.355 347.138 522.084 347.017 521.768L343.98 515.766L340.962 521.768C340.823 522.074 340.611 522.333 340.348 522.516C340.085 522.7 339.782 522.801 339.471 522.808Z" fill="#263238"/>
<path d="M368.985 522.808C368.508 522.806 368.05 522.598 367.712 522.228C367.533 522.052 367.39 521.836 367.293 521.595C367.196 521.353 367.146 521.092 367.148 520.828C367.154 520.467 367.248 520.114 367.421 519.807L370.694 514.045L364.33 514.265C363.987 514.28 363.648 514.183 363.356 513.985C363.063 513.787 362.831 513.498 362.689 513.155C362.547 512.812 362.5 512.429 362.556 512.057C362.612 511.685 362.767 511.339 363.002 511.064C363.174 510.871 363.381 510.722 363.61 510.625C363.839 510.528 364.085 510.487 364.33 510.504L370.603 510.764L367.366 505.022C367.19 504.709 367.096 504.349 367.093 503.982C367.099 503.719 367.152 503.46 367.249 503.22C367.345 502.979 367.484 502.762 367.657 502.581C367.996 502.212 368.453 502.003 368.93 502.001C369.237 502.007 369.536 502.108 369.793 502.292C370.05 502.476 370.255 502.735 370.385 503.041L373.494 509.223L376.567 503.081C376.713 502.754 376.937 502.476 377.216 502.279C377.495 502.081 377.818 501.971 378.149 501.961C378.379 501.96 378.607 502.013 378.817 502.116C379.027 502.22 379.215 502.372 379.367 502.561C379.536 502.748 379.669 502.97 379.76 503.214C379.85 503.457 379.896 503.718 379.895 503.982C379.888 504.327 379.801 504.665 379.64 504.962L376.349 510.764L382.75 510.504C382.985 510.478 383.223 510.508 383.447 510.592C383.67 510.675 383.876 510.811 384.048 510.989C384.22 511.167 384.356 511.384 384.445 511.625C384.535 511.865 384.577 512.125 384.568 512.385C384.572 512.878 384.41 513.355 384.113 513.725C383.942 513.912 383.737 514.056 383.511 514.149C383.286 514.242 383.045 514.282 382.804 514.265L376.385 514.045L379.567 519.747C379.747 520.066 379.841 520.433 379.84 520.807C379.834 521.07 379.782 521.329 379.685 521.569C379.588 521.81 379.449 522.027 379.277 522.208C379.118 522.395 378.927 522.545 378.715 522.648C378.502 522.751 378.272 522.806 378.04 522.808C377.731 522.802 377.43 522.697 377.175 522.505C376.919 522.313 376.721 522.043 376.604 521.728L373.549 515.726L370.53 521.728C370.394 522.052 370.176 522.327 369.902 522.518C369.628 522.71 369.309 522.81 368.985 522.808Z" fill="#263238"/>
<path d="M398.477 522.808C398 522.806 397.543 522.598 397.204 522.228C396.862 521.859 396.665 521.355 396.659 520.828C396.653 520.468 396.741 520.113 396.913 519.807L400.186 514.045L393.822 514.265C393.579 514.277 393.337 514.236 393.109 514.143C392.881 514.05 392.672 513.908 392.494 513.725C392.198 513.359 392.034 512.885 392.034 512.395C392.034 511.904 392.198 511.431 392.494 511.064C392.67 510.877 392.878 510.732 393.106 510.635C393.334 510.539 393.578 510.494 393.822 510.504L400.113 510.764L396.895 505.022C396.719 504.709 396.625 504.349 396.622 503.982C396.628 503.719 396.681 503.46 396.777 503.22C396.874 502.979 397.013 502.762 397.186 502.581C397.525 502.212 397.982 502.003 398.459 502.001C398.769 502.003 399.072 502.102 399.332 502.286C399.593 502.47 399.801 502.732 399.932 503.041L403.023 509.223L406.096 503.081C406.242 502.754 406.466 502.476 406.745 502.279C407.024 502.081 407.346 501.971 407.678 501.961C407.908 501.96 408.136 502.013 408.346 502.116C408.556 502.22 408.744 502.372 408.896 502.561C409.065 502.748 409.198 502.97 409.289 503.214C409.379 503.457 409.425 503.718 409.424 503.982C409.417 504.327 409.329 504.665 409.169 504.962L405.878 510.764L412.278 510.504C412.514 510.478 412.751 510.508 412.975 510.592C413.199 510.675 413.404 510.811 413.577 510.989C413.749 511.167 413.884 511.384 413.974 511.625C414.064 511.865 414.106 512.125 414.097 512.385C414.101 512.878 413.939 513.355 413.642 513.725C413.471 513.912 413.266 514.056 413.04 514.149C412.814 514.242 412.573 514.282 412.333 514.265L405.914 514.045L409.096 519.747C409.276 520.066 409.37 520.433 409.369 520.807C409.371 521.072 409.321 521.333 409.224 521.574C409.127 521.816 408.984 522.032 408.805 522.208C408.647 522.395 408.456 522.545 408.243 522.648C408.031 522.751 407.801 522.806 407.569 522.808C407.26 522.802 406.959 522.697 406.703 522.505C406.448 522.313 406.25 522.043 406.132 521.728L403.077 515.726L400.059 521.728C399.92 522.058 399.696 522.337 399.415 522.529C399.134 522.721 398.808 522.818 398.477 522.808Z" fill="#263238"/>
<path d="M427.971 522.808C427.494 522.806 427.037 522.598 426.698 522.228C426.417 521.914 426.237 521.506 426.188 521.069C426.138 520.631 426.222 520.187 426.425 519.807L429.68 514.045L423.316 514.265C423.073 514.277 422.831 514.236 422.603 514.143C422.375 514.05 422.166 513.908 421.989 513.725C421.692 513.359 421.528 512.885 421.528 512.395C421.528 511.904 421.692 511.431 421.989 511.064C422.164 510.877 422.372 510.732 422.601 510.635C422.829 510.539 423.072 510.494 423.316 510.504L429.608 510.764L426.371 505.022C426.195 504.709 426.1 504.349 426.098 503.982C426.105 503.454 426.301 502.951 426.644 502.581C426.982 502.212 427.439 502.003 427.917 502.001C428.226 502.003 428.529 502.102 428.79 502.286C429.051 502.47 429.259 502.732 429.389 503.041L432.481 509.223L435.554 503.081C435.699 502.754 435.924 502.476 436.203 502.279C436.482 502.081 436.804 501.971 437.136 501.961C437.369 501.96 437.599 502.012 437.812 502.116C438.025 502.219 438.216 502.371 438.372 502.561C438.706 502.942 438.889 503.453 438.881 503.982C438.875 504.327 438.787 504.665 438.627 504.962L435.336 510.764L441.736 510.504C441.971 510.478 442.209 510.508 442.433 510.592C442.657 510.675 442.862 510.811 443.034 510.989C443.207 511.167 443.342 511.384 443.432 511.625C443.522 511.865 443.563 512.125 443.555 512.385C443.558 512.878 443.396 513.355 443.1 513.725C442.929 513.912 442.723 514.056 442.498 514.149C442.272 514.242 442.031 514.282 441.791 514.265L435.372 514.045L438.554 519.747C438.733 520.066 438.828 520.433 438.827 520.807C438.828 521.072 438.779 521.333 438.682 521.574C438.585 521.816 438.442 522.032 438.263 522.208C438.105 522.395 437.914 522.545 437.701 522.648C437.488 522.751 437.259 522.806 437.027 522.808C436.717 522.802 436.416 522.697 436.161 522.505C435.906 522.313 435.707 522.043 435.59 521.728L432.535 515.726L429.517 521.728C429.381 522.052 429.162 522.327 428.888 522.518C428.614 522.71 428.296 522.81 427.971 522.808Z" fill="#263238"/>
<path d="M457.465 522.808C456.994 522.801 456.544 522.593 456.21 522.228C456.031 522.052 455.888 521.836 455.791 521.595C455.694 521.353 455.645 521.092 455.646 520.828C455.652 520.467 455.746 520.114 455.919 519.807L459.174 514.045L452.81 514.265C452.576 514.285 452.34 514.25 452.119 514.164C451.898 514.078 451.695 513.942 451.524 513.766C451.353 513.589 451.217 513.375 451.126 513.137C451.034 512.899 450.988 512.643 450.991 512.385C450.99 512.14 451.033 511.897 451.117 511.67C451.201 511.444 451.326 511.238 451.482 511.064C451.65 510.871 451.854 510.72 452.08 510.624C452.306 510.527 452.549 510.486 452.792 510.504L459.083 510.764L455.846 505.022C455.67 504.709 455.576 504.349 455.574 503.982C455.58 503.454 455.777 502.951 456.119 502.581C456.458 502.212 456.915 502.003 457.392 502.001C457.702 502.003 458.005 502.102 458.266 502.286C458.526 502.47 458.734 502.732 458.865 503.041L461.956 509.223L465.047 503.081C465.192 502.757 465.413 502.481 465.689 502.284C465.964 502.086 466.283 501.975 466.611 501.961C466.844 501.96 467.075 502.012 467.288 502.116C467.501 502.219 467.692 502.371 467.848 502.561C468.181 502.942 468.364 503.453 468.357 503.982C468.356 504.325 468.274 504.663 468.12 504.962L464.829 510.764L471.212 510.504C471.454 510.486 471.697 510.527 471.923 510.624C472.149 510.72 472.353 510.871 472.521 511.064C472.831 511.418 473.001 511.893 472.994 512.385C472.992 512.88 472.824 513.358 472.521 513.725C472.35 513.912 472.144 514.056 471.919 514.149C471.693 514.242 471.452 514.282 471.212 514.265L464.793 514.045L467.975 519.747C468.154 520.066 468.249 520.433 468.248 520.808C468.241 521.335 468.045 521.839 467.702 522.208C467.371 522.58 466.921 522.795 466.448 522.808C466.138 522.802 465.837 522.697 465.582 522.505C465.327 522.313 465.128 522.043 465.011 521.728L461.956 515.726L458.938 521.728C458.807 522.04 458.6 522.306 458.34 522.497C458.08 522.688 457.777 522.795 457.465 522.808Z" fill="#263238"/>
<g style="mix-blend-mode:multiply">
<path d="M549.202 117.489H227.314V139.676H549.202V117.489Z" fill="#0EA5E9"/>
</g>
<path d="M423.262 76.614H353.254C351.991 76.614 350.779 76.0617 349.886 75.0787C348.992 74.0957 348.49 72.7624 348.49 71.3722C348.49 69.982 348.992 68.6487 349.886 67.6657C350.779 66.6826 351.991 66.1304 353.254 66.1304H423.262C424.525 66.1304 425.737 66.6826 426.63 67.6657C427.524 68.6487 428.026 69.982 428.026 71.3722C428.026 72.7624 427.524 74.0957 426.63 75.0787C425.737 76.0617 424.525 76.614 423.262 76.614Z" fill="#0EA5E9" stroke="#263238" stroke-width="1.33739" stroke-linecap="round" stroke-linejoin="round"/>
<path d="M407.351 722.098C407.354 717.941 406.237 713.877 404.141 710.419C402.044 706.961 399.062 704.266 395.573 702.673C392.083 701.081 388.243 700.663 384.538 701.473C380.832 702.283 377.428 704.284 374.757 707.223C372.086 710.162 370.267 713.907 369.531 717.984C368.795 722.061 369.175 726.287 370.622 730.126C372.069 733.965 374.519 737.246 377.662 739.553C380.804 741.86 384.498 743.089 388.276 743.085C393.334 743.08 398.182 740.867 401.759 736.932C405.335 732.997 407.346 727.662 407.351 722.098Z" fill="#0EA5E9"/>
<path d="M397.95 711.454H378.603V732.741H397.95V711.454Z" fill="#0EA5E9" stroke="#263238" stroke-width="1.33739" stroke-linecap="round" stroke-linejoin="round"/>
<path d="M618.735 480.534C618.735 480.534 593.386 409.669 615.952 401.246C639.446 392.463 638.409 439.259 637.5 462.067C635.591 510.804 630.699 519.867 627.045 507.963L618.735 480.534ZM611.116 535.813C618.08 545.816 620.044 535.452 607.479 488.656C601.587 466.649 588.786 422.133 569.148 438.839C550.291 454.845 595.169 512.865 595.169 512.865L611.116 535.813ZM597.66 576.427C604.297 582.909 604.424 574.726 588.659 540.934C581.258 525.109 565.602 493.078 552.782 508.923C540.472 524.209 582.422 561.361 582.422 561.361L597.66 576.427ZM583.113 624.723C589.75 631.226 589.877 623.023 574.112 589.251C566.711 573.426 551.055 541.375 538.235 557.24C525.998 572.565 567.82 609.718 567.82 609.718L583.113 624.723ZM625.117 526.409C614.498 530.971 622.935 535.933 667.285 535.793C688.087 535.793 730.564 534.752 721.509 509.323C712.835 484.895 649.665 516.006 649.665 516.006L625.117 526.409ZM613.025 558.901C601.787 561.041 609.17 567.764 652.665 577.327C673.049 581.829 714.854 590.131 710.58 563.322C706.489 537.473 638.955 554.159 638.955 554.159L613.025 558.901ZM599.496 598.574C589.932 600.095 596.041 605.957 632.609 615.16C649.756 619.482 684.941 627.584 681.887 604.716C678.977 582.709 621.517 595.153 621.517 595.153L599.496 598.574ZM589.222 635.327C579.858 637.948 586.495 643.07 623.771 647.951C641.228 650.232 676.995 654.193 671.776 631.806C666.74 610.318 610.806 629.345 610.806 629.345L589.222 635.327ZM644.028 486.536C638.573 499.98 649.901 497.94 688.414 460.967C706.453 443.621 742.638 407.328 713.981 389.262C686.469 371.896 656.884 455.685 656.884 455.685L644.028 486.536ZM590.641 683.204C584.876 686.905 590.532 688.345 616.971 682.543C629.372 679.842 654.593 673.84 646.065 661.996C637.809 650.592 603.988 674.601 603.988 674.601L590.641 683.204Z" fill="#0EA5E9"/>
<path opacity="0.3" d="M618.735 480.534C618.735 480.534 593.386 409.669 615.952 401.246C639.446 392.463 638.409 439.259 637.5 462.067C635.591 510.804 630.699 519.867 627.045 507.963L618.735 480.534ZM611.116 535.813C618.08 545.816 620.044 535.452 607.479 488.656C601.587 466.649 588.786 422.133 569.148 438.839C550.291 454.845 595.169 512.865 595.169 512.865L611.116 535.813ZM597.66 576.427C604.297 582.909 604.424 574.726 588.659 540.934C581.258 525.109 565.602 493.078 552.782 508.923C540.472 524.209 582.422 561.361 582.422 561.361L597.66 576.427ZM583.113 624.723C589.75 631.226 589.877 623.023 574.112 589.251C566.711 573.426 551.055 541.375 538.235 557.24C525.998 572.565 567.82 609.718 567.82 609.718L583.113 624.723ZM625.117 526.409C614.498 530.971 622.935 535.933 667.285 535.793C688.087 535.793 730.564 534.752 721.509 509.323C712.835 484.895 649.665 516.006 649.665 516.006L625.117 526.409ZM613.025 558.901C601.787 561.041 609.17 567.764 652.665 577.327C673.049 581.829 714.854 590.131 710.58 563.322C706.489 537.473 638.955 554.159 638.955 554.159L613.025 558.901ZM599.496 598.574C589.932 600.095 596.041 605.957 632.609 615.16C649.756 619.482 684.941 627.584 681.887 604.716C678.977 582.709 621.517 595.153 621.517 595.153L599.496 598.574ZM589.222 635.327C579.858 637.948 586.495 643.07 623.771 647.951C641.228 650.232 676.995 654.193 671.776 631.806C666.74 610.318 610.806 629.345 610.806 629.345L589.222 635.327ZM644.028 486.536C638.573 499.98 649.901 497.94 688.414 460.967C706.453 443.621 742.638 407.328 713.981 389.262C686.469 371.896 656.884 455.685 656.884 455.685L644.028 486.536ZM590.641 683.204C584.876 686.905 590.532 688.345 616.971 682.543C629.372 679.842 654.593 673.84 646.065 661.996C637.809 650.592 603.988 674.601 603.988 674.601L590.641 683.204Z" fill="white"/>
<path d="M629.918 513.525L625.5 432.637ZM615.935 540.214L588.005 470.65ZM688.015 519.987L621.081 530.551ZM601.461 577.707L565.221 526.549ZM607.825 562.022L657.758 564.783ZM596.006 601.255L634.192 605.417ZM586.787 626.184L567.821 594.793ZM584.605 637.268L629.5 637.728ZM575.513 729.94C575.814 729.914 576.093 729.759 576.291 729.508C576.488 729.257 576.588 728.93 576.567 728.599C573.713 681.423 590.296 604.156 616.899 540.734C633.901 500.2 700.544 420.533 701.253 419.733C701.467 419.496 701.588 419.176 701.588 418.842C701.588 418.508 701.467 418.188 701.253 417.952C701.148 417.836 701.024 417.744 700.886 417.681C700.749 417.618 700.602 417.585 700.453 417.585C700.304 417.585 700.157 417.618 700.02 417.681C699.882 417.744 699.758 417.836 699.653 417.952C698.98 418.752 632.064 498.72 614.917 539.614C587.823 604.576 571.458 680.443 574.367 728.759C574.39 729.078 574.52 729.376 574.732 729.594C574.944 729.812 575.222 729.936 575.513 729.94ZM629.9 514.765C630.201 514.745 630.482 514.595 630.683 514.347C630.884 514.1 630.988 513.776 630.973 513.445L626.627 432.517C626.62 432.352 626.584 432.191 626.519 432.042C626.455 431.893 626.364 431.759 626.252 431.65C626.141 431.54 626.01 431.455 625.868 431.402C625.727 431.348 625.577 431.326 625.427 431.337C625.126 431.357 624.845 431.507 624.644 431.755C624.444 432.002 624.339 432.326 624.354 432.657L628.773 513.545C628.787 513.863 628.912 514.164 629.122 514.384C629.332 514.603 629.61 514.726 629.9 514.725V514.765ZM616.335 541.355C616.608 541.219 616.821 540.971 616.93 540.665C617.038 540.358 617.034 540.017 616.917 539.714L588.969 470.15C588.848 469.848 588.623 469.61 588.344 469.49C588.064 469.37 587.753 469.377 587.478 469.51C587.203 469.642 586.987 469.89 586.878 470.197C586.769 470.505 586.775 470.848 586.896 471.15L614.826 540.714C614.914 540.938 615.058 541.128 615.242 541.263C615.426 541.398 615.641 541.471 615.862 541.475C616.051 541.485 616.238 541.444 616.408 541.355H616.335ZM621.172 531.751L688.07 521.228C688.231 521.224 688.39 521.183 688.536 521.107C688.682 521.031 688.812 520.921 688.917 520.786C689.022 520.651 689.1 520.493 689.145 520.322C689.191 520.152 689.203 519.972 689.181 519.796C689.159 519.62 689.104 519.451 689.018 519.3C688.933 519.149 688.819 519.02 688.685 518.921C688.551 518.822 688.399 518.755 688.24 518.725C688.08 518.695 687.917 518.703 687.761 518.747L620.863 529.27C620.564 529.292 620.285 529.443 620.087 529.69C619.889 529.938 619.789 530.262 619.808 530.591C619.828 530.92 619.965 531.227 620.19 531.445C620.415 531.662 620.709 531.773 621.008 531.751H621.172ZM602.097 578.708C602.335 578.502 602.489 578.202 602.527 577.873C602.564 577.543 602.482 577.21 602.297 576.947L566.039 525.689C565.853 525.424 565.58 525.251 565.278 525.207C564.976 525.164 564.671 525.255 564.43 525.459C564.189 525.663 564.031 525.965 563.992 526.297C563.953 526.629 564.035 526.964 564.221 527.23L600.552 578.567C600.657 578.717 600.792 578.838 600.947 578.921C601.101 579.004 601.271 579.048 601.443 579.048C601.714 579.033 601.972 578.912 602.17 578.708H602.097ZM658.758 564.843C658.768 564.512 658.659 564.19 658.455 563.946C658.25 563.703 657.967 563.558 657.667 563.542L607.825 560.761C607.545 560.783 607.282 560.916 607.085 561.137C606.889 561.357 606.773 561.65 606.76 561.958C606.746 562.267 606.836 562.57 607.012 562.81C607.189 563.051 607.439 563.212 607.716 563.262L657.649 566.043C657.949 566.054 658.242 565.934 658.463 565.71C658.684 565.485 658.816 565.174 658.83 564.843H658.758ZM635.246 605.537C635.264 605.372 635.251 605.205 635.209 605.046C635.167 604.887 635.097 604.739 635.002 604.61C634.907 604.481 634.79 604.375 634.657 604.297C634.524 604.219 634.378 604.171 634.228 604.156L596.042 600.015C595.894 599.998 595.744 600.014 595.602 600.062C595.459 600.109 595.327 600.187 595.212 600.291C595.097 600.396 595.002 600.524 594.932 600.669C594.862 600.813 594.819 600.972 594.806 601.135C594.78 601.463 594.872 601.79 595.063 602.044C595.253 602.298 595.526 602.46 595.824 602.496L634.01 606.657H634.119C634.412 606.679 634.702 606.575 634.926 606.366C635.15 606.156 635.291 605.859 635.319 605.537H635.246ZM587.332 627.224C587.585 627.041 587.761 626.754 587.822 626.428C587.884 626.102 587.825 625.763 587.66 625.484L568.785 594.093C568.612 593.822 568.351 593.636 568.056 593.573C567.761 593.509 567.455 593.574 567.203 593.753C566.95 593.936 566.774 594.223 566.713 594.549C566.652 594.875 566.71 595.214 566.876 595.493L585.75 626.884C585.858 627.056 586.002 627.196 586.17 627.294C586.338 627.391 586.524 627.443 586.714 627.444C586.96 627.459 587.204 627.381 587.405 627.224H587.332ZM630.646 637.728C630.641 637.399 630.522 637.084 630.312 636.849C630.102 636.614 629.818 636.478 629.518 636.467L584.623 636.007C584.324 636.007 584.037 636.138 583.826 636.371C583.614 636.603 583.495 636.919 583.495 637.248C583.491 637.413 583.516 637.578 583.571 637.732C583.625 637.886 583.708 638.026 583.813 638.144C583.919 638.262 584.045 638.355 584.184 638.418C584.323 638.48 584.473 638.511 584.623 638.508L629.518 638.968C629.672 638.976 629.825 638.95 629.969 638.892C630.113 638.833 630.245 638.744 630.357 638.628C630.469 638.512 630.559 638.373 630.621 638.218C630.683 638.064 630.716 637.897 630.719 637.728H630.646ZM570.403 711.593C570.494 711.373 578.149 688.165 601.17 682.623C601.467 682.552 601.725 682.353 601.889 682.072C602.052 681.791 602.108 681.449 602.043 681.123C601.969 680.803 601.787 680.527 601.532 680.352C601.278 680.176 600.973 680.116 600.679 680.183C576.404 686.025 568.348 710.533 568.258 710.773C568.164 711.089 568.186 711.433 568.318 711.731C568.45 712.03 568.683 712.26 568.967 712.374H569.33C569.572 712.397 569.814 712.333 570.021 712.193C570.227 712.052 570.387 711.842 570.476 711.593H570.403ZM575.513 729.94C575.814 729.914 576.093 729.759 576.291 729.508C576.488 729.257 576.588 728.93 576.567 728.599C573.713 681.423 590.296 604.156 616.899 540.734C633.901 500.2 700.544 420.533 701.253 419.733C701.467 419.496 701.588 419.176 701.588 418.842C701.588 418.508 701.467 418.188 701.253 417.952C701.148 417.836 701.024 417.744 700.886 417.681C700.749 417.618 700.602 417.585 700.453 417.585C700.304 417.585 700.157 417.618 700.02 417.681C699.882 417.744 699.758 417.836 699.653 417.952C698.98 418.752 632.064 498.72 614.917 539.614C587.823 604.576 571.458 680.443 574.367 728.759C574.39 729.078 574.52 729.376 574.732 729.594C574.944 729.812 575.222 729.936 575.513 729.94ZM629.9 514.765C630.201 514.745 630.482 514.595 630.683 514.347C630.884 514.1 630.988 513.776 630.973 513.445L626.627 432.517C626.62 432.352 626.584 432.191 626.519 432.042C626.455 431.893 626.364 431.759 626.252 431.65C626.141 431.54 626.01 431.455 625.868 431.402C625.727 431.348 625.577 431.326 625.427 431.337C625.126 431.357 624.845 431.507 624.644 431.755C624.444 432.002 624.339 432.326 624.354 432.657L628.773 513.545C628.787 513.863 628.912 514.164 629.122 514.384C629.332 514.603 629.61 514.726 629.9 514.725V514.765ZM616.335 541.355C616.608 541.219 616.821 540.971 616.93 540.665C617.038 540.358 617.034 540.017 616.917 539.714L588.969 470.15C588.848 469.848 588.623 469.61 588.344 469.49C588.064 469.37 587.753 469.377 587.478 469.51C587.203 469.642 586.987 469.89 586.878 470.197C586.769 470.505 586.775 470.848 586.896 471.15L614.826 540.714C614.914 540.938 615.058 541.128 615.242 541.263C615.426 541.398 615.641 541.471 615.862 541.475C616.051 541.485 616.238 541.444 616.408 541.355H616.335ZM621.172 531.751L688.07 521.228C688.231 521.224 688.39 521.183 688.536 521.107C688.682 521.031 688.812 520.921 688.917 520.786C689.022 520.651 689.1 520.493 689.145 520.322C689.191 520.152 689.203 519.972 689.181 519.796C689.159 519.62 689.104 519.451 689.018 519.3C688.933 519.149 688.819 519.02 688.685 518.921C688.551 518.822 688.399 518.755 688.24 518.725C688.08 518.695 687.917 518.703 687.761 518.747L620.863 529.27C620.564 529.292 620.285 529.443 620.087 529.69C619.889 529.938 619.789 530.262 619.808 530.591C619.828 530.92 619.965 531.227 620.19 531.445C620.415 531.662 620.709 531.773 621.008 531.751H621.172ZM602.097 578.708C602.335 578.502 602.489 578.202 602.527 577.873C602.564 577.543 602.482 577.21 602.297 576.947L566.039 525.689C565.947 525.558 565.833 525.448 565.702 525.365C565.571 525.282 565.427 525.229 565.278 525.207C565.128 525.186 564.977 525.197 564.831 525.24C564.686 525.284 564.549 525.358 564.43 525.459C564.31 525.56 564.21 525.686 564.135 525.83C564.06 525.974 564.011 526.132 563.992 526.297C563.973 526.461 563.983 526.628 564.022 526.788C564.061 526.948 564.129 527.098 564.221 527.23L600.552 578.567C600.657 578.717 600.792 578.838 600.947 578.921C601.101 579.004 601.271 579.048 601.443 579.048C601.714 579.033 601.972 578.912 602.17 578.708H602.097ZM658.758 564.843C658.768 564.512 658.659 564.19 658.455 563.946C658.25 563.703 657.967 563.558 657.667 563.542L607.825 560.761C607.545 560.783 607.282 560.916 607.085 561.137C606.889 561.357 606.773 561.65 606.76 561.958C606.746 562.267 606.836 562.57 607.012 562.81C607.189 563.051 607.439 563.212 607.716 563.262L657.649 566.043C657.949 566.054 658.242 565.934 658.463 565.71C658.684 565.485 658.816 565.174 658.83 564.843H658.758ZM635.246 605.537C635.264 605.372 635.251 605.205 635.209 605.046C635.167 604.887 635.097 604.739 635.002 604.61C634.907 604.481 634.79 604.375 634.657 604.297C634.524 604.219 634.378 604.171 634.228 604.156L596.042 600.015C595.894 599.998 595.744 600.014 595.602 600.062C595.459 600.109 595.327 600.187 595.212 600.291C595.097 600.396 595.002 600.524 594.932 600.669C594.862 600.813 594.819 600.972 594.806 601.135C594.78 601.463 594.872 601.79 595.063 602.044C595.253 602.298 595.526 602.46 595.824 602.496L634.01 606.657H634.119C634.412 606.679 634.702 606.575 634.926 606.366C635.15 606.156 635.291 605.859 635.319 605.537H635.246ZM587.332 627.224C587.585 627.041 587.761 626.754 587.822 626.428C587.884 626.102 587.825 625.763 587.66 625.484L568.785 594.093C568.612 593.822 568.351 593.636 568.056 593.573C567.761 593.509 567.455 593.574 567.203 593.753C566.95 593.936 566.774 594.223 566.713 594.549C566.652 594.875 566.71 595.214 566.876 595.493L585.75 626.884C585.858 627.056 586.002 627.196 586.17 627.294C586.338 627.391 586.524 627.443 586.714 627.444C586.96 627.459 587.204 627.381 587.405 627.224H587.332ZM630.646 637.728C630.641 637.399 630.522 637.084 630.312 636.849C630.102 636.614 629.818 636.478 629.518 636.467L584.623 636.007C584.324 636.007 584.037 636.138 583.826 636.371C583.614 636.603 583.495 636.919 583.495 637.248C583.491 637.413 583.516 637.578 583.571 637.732C583.625 637.886 583.708 638.026 583.813 638.144C583.919 638.262 584.045 638.355 584.184 638.418C584.323 638.48 584.473 638.511 584.623 638.508L629.518 638.968C629.672 638.976 629.825 638.95 629.969 638.892C630.113 638.833 630.245 638.744 630.357 638.628C630.469 638.512 630.559 638.373 630.621 638.218C630.683 638.064 630.716 637.897 630.719 637.728H630.646ZM570.403 711.593C570.494 711.373 578.149 688.165 601.17 682.623C601.467 682.552 601.725 682.353 601.889 682.072C602.052 681.791 602.108 681.449 602.043 681.123C601.969 680.803 601.787 680.527 601.532 680.352C601.278 680.176 600.973 680.116 600.679 680.183C576.404 686.025 568.348 710.533 568.258 710.773C568.164 711.089 568.186 711.433 568.318 711.731C568.45 712.03 568.683 712.26 568.967 712.374H569.33C569.572 712.397 569.814 712.333 570.021 712.193C570.227 712.052 570.387 711.842 570.476 711.593H570.403Z" fill="#0EA5E9"/>
<path opacity="0.2" d="M629.918 513.525L625.5 432.637ZM615.935 540.214L588.005 470.65ZM688.015 519.987L621.081 530.551ZM601.461 577.707L565.221 526.549ZM607.825 562.022L657.758 564.783ZM596.006 601.255L634.192 605.417ZM586.787 626.184L567.821 594.793ZM584.605 637.268L629.5 637.728ZM575.513 729.94C575.814 729.914 576.093 729.759 576.291 729.508C576.488 729.257 576.588 728.93 576.567 728.599C573.713 681.423 590.296 604.156 616.899 540.734C633.901 500.2 700.544 420.533 701.253 419.733C701.467 419.496 701.588 419.176 701.588 418.842C701.588 418.508 701.467 418.188 701.253 417.952C701.148 417.836 701.024 417.744 700.886 417.681C700.749 417.618 700.602 417.585 700.453 417.585C700.304 417.585 700.157 417.618 700.02 417.681C699.882 417.744 699.758 417.836 699.653 417.952C698.98 418.752 632.064 498.72 614.917 539.614C587.823 604.576 571.458 680.443 574.367 728.759C574.39 729.078 574.52 729.376 574.732 729.594C574.944 729.812 575.222 729.936 575.513 729.94ZM629.9 514.765C630.201 514.745 630.482 514.595 630.683 514.347C630.884 514.1 630.988 513.776 630.973 513.445L626.627 432.517C626.62 432.352 626.584 432.191 626.519 432.042C626.455 431.893 626.364 431.759 626.252 431.65C626.141 431.54 626.01 431.455 625.868 431.402C625.727 431.348 625.577 431.326 625.427 431.337C625.126 431.357 624.845 431.507 624.644 431.755C624.444 432.002 624.339 432.326 624.354 432.657L628.773 513.545C628.787 513.863 628.912 514.164 629.122 514.384C629.332 514.603 629.61 514.726 629.9 514.725V514.765ZM616.335 541.355C616.608 541.219 616.821 540.971 616.93 540.665C617.038 540.358 617.034 540.017 616.917 539.714L588.969 470.15C588.848 469.848 588.623 469.61 588.344 469.49C588.064 469.37 587.753 469.377 587.478 469.51C587.203 469.642 586.987 469.89 586.878 470.197C586.769 470.505 586.775 470.848 586.896 471.15L614.826 540.714C614.914 540.938 615.058 541.128 615.242 541.263C615.426 541.398 615.641 541.471 615.862 541.475C616.051 541.485 616.238 541.444 616.408 541.355H616.335ZM621.172 531.751L688.07 521.228C688.231 521.224 688.39 521.183 688.536 521.107C688.682 521.031 688.812 520.921 688.917 520.786C689.022 520.651 689.1 520.493 689.145 520.322C689.191 520.152 689.203 519.972 689.181 519.796C689.159 519.62 689.104 519.451 689.018 519.3C688.933 519.149 688.819 519.02 688.685 518.921C688.551 518.822 688.399 518.755 688.24 518.725C688.08 518.695 687.917 518.703 687.761 518.747L620.863 529.27C620.564 529.292 620.285 529.443 620.087 529.69C619.889 529.938 619.789 530.262 619.808 530.591C619.828 530.92 619.965 531.227 620.19 531.445C620.415 531.662 620.709 531.773 621.008 531.751H621.172ZM602.097 578.708C602.335 578.502 602.489 578.202 602.527 577.873C602.564 577.543 602.482 577.21 602.297 576.947L566.039 525.689C565.853 525.424 565.58 525.251 565.278 525.207C564.976 525.164 564.671 525.255 564.43 525.459C564.189 525.663 564.031 525.965 563.992 526.297C563.953 526.629 564.035 526.964 564.221 527.23L600.552 578.567C600.657 578.717 600.792 578.838 600.947 578.921C601.101 579.004 601.271 579.048 601.443 579.048C601.714 579.033 601.972 578.912 602.17 578.708H602.097ZM658.758 564.843C658.768 564.512 658.659 564.19 658.455 563.946C658.25 563.703 657.967 563.558 657.667 563.542L607.825 560.761C607.545 560.783 607.282 560.916 607.085 561.137C606.889 561.357 606.773 561.65 606.76 561.958C606.746 562.267 606.836 562.57 607.012 562.81C607.189 563.051 607.439 563.212 607.716 563.262L657.649 566.043C657.949 566.054 658.242 565.934 658.463 565.71C658.684 565.485 658.816 565.174 658.83 564.843H658.758ZM635.246 605.537C635.264 605.372 635.251 605.205 635.209 605.046C635.167 604.887 635.097 604.739 635.002 604.61C634.907 604.481 634.79 604.375 634.657 604.297C634.524 604.219 634.378 604.171 634.228 604.156L596.042 600.015C595.894 599.998 595.744 600.014 595.602 600.062C595.459 600.109 595.327 600.187 595.212 600.291C595.097 600.396 595.002 600.524 594.932 600.669C594.862 600.813 594.819 600.972 594.806 601.135C594.78 601.463 594.872 601.79 595.063 602.044C595.253 602.298 595.526 602.46 595.824 602.496L634.01 606.657H634.119C634.412 606.679 634.702 606.575 634.926 606.366C635.15 606.156 635.291 605.859 635.319 605.537H635.246ZM587.332 627.224C587.585 627.041 587.761 626.754 587.822 626.428C587.884 626.102 587.825 625.763 587.66 625.484L568.785 594.093C568.612 593.822 568.351 593.636 568.056 593.573C567.761 593.509 567.455 593.574 567.203 593.753C566.95 593.936 566.774 594.223 566.713 594.549C566.652 594.875 566.71 595.214 566.876 595.493L585.75 626.884C585.858 627.056 586.002 627.196 586.17 627.294C586.338 627.391 586.524 627.443 586.714 627.444C586.96 627.459 587.204 627.381 587.405 627.224H587.332ZM630.646 637.728C630.641 637.399 630.522 637.084 630.312 636.849C630.102 636.614 629.818 636.478 629.518 636.467L584.623 636.007C584.324 636.007 584.037 636.138 583.826 636.371C583.614 636.603 583.495 636.919 583.495 637.248C583.491 637.413 583.516 637.578 583.571 637.732C583.625 637.886 583.708 638.026 583.813 638.144C583.919 638.262 584.045 638.355 584.184 638.418C584.323 638.48 584.473 638.511 584.623 638.508L629.518 638.968C629.672 638.976 629.825 638.95 629.969 638.892C630.113 638.833 630.245 638.744 630.357 638.628C630.469 638.512 630.559 638.373 630.621 638.218C630.683 638.064 630.716 637.897 630.719 637.728H630.646ZM570.403 711.593C570.494 711.373 578.149 688.165 601.17 682.623C601.467 682.552 601.725 682.353 601.889 682.072C602.052 681.791 602.108 681.449 602.043 681.123C601.969 680.803 601.787 680.527 601.532 680.352C601.278 680.176 600.973 680.116 600.679 680.183C576.404 686.025 568.348 710.533 568.258 710.773C568.164 711.089 568.186 711.433 568.318 711.731C568.45 712.03 568.683 712.26 568.967 712.374H569.33C569.572 712.397 569.814 712.333 570.021 712.193C570.227 712.052 570.387 711.842 570.476 711.593H570.403ZM575.513 729.94C575.814 729.914 576.093 729.759 576.291 729.508C576.488 729.257 576.588 728.93 576.567 728.599C573.713 681.423 590.296 604.156 616.899 540.734C633.901 500.2 700.544 420.533 701.253 419.733C701.467 419.496 701.588 419.176 701.588 418.842C701.588 418.508 701.467 418.188 701.253 417.952C701.148 417.836 701.024 417.744 700.886 417.681C700.749 417.618 700.602 417.585 700.453 417.585C700.304 417.585 700.157 417.618 700.02 417.681C699.882 417.744 699.758 417.836 699.653 417.952C698.98 418.752 632.064 498.72 614.917 539.614C587.823 604.576 571.458 680.443 574.367 728.759C574.39 729.078 574.52 729.376 574.732 729.594C574.944 729.812 575.222 729.936 575.513 729.94ZM629.9 514.765C630.201 514.745 630.482 514.595 630.683 514.347C630.884 514.1 630.988 513.776 630.973 513.445L626.627 432.517C626.62 432.352 626.584 432.191 626.519 432.042C626.455 431.893 626.364 431.759 626.252 431.65C626.141 431.54 626.01 431.455 625.868 431.402C625.727 431.348 625.577 431.326 625.427 431.337C625.126 431.357 624.845 431.507 624.644 431.755C624.444 432.002 624.339 432.326 624.354 432.657L628.773 513.545C628.787 513.863 628.912 514.164 629.122 514.384C629.332 514.603 629.61 514.726 629.9 514.725V514.765ZM616.335 541.355C616.608 541.219 616.821 540.971 616.93 540.665C617.038 540.358 617.034 540.017 616.917 539.714L588.969 470.15C588.848 469.848 588.623 469.61 588.344 469.49C588.064 469.37 587.753 469.377 587.478 469.51C587.203 469.642 586.987 469.89 586.878 470.197C586.769 470.505 586.775 470.848 586.896 471.15L614.826 540.714C614.914 540.938 615.058 541.128 615.242 541.263C615.426 541.398 615.641 541.471 615.862 541.475C616.051 541.485 616.238 541.444 616.408 541.355H616.335ZM621.172 531.751L688.07 521.228C688.231 521.224 688.39 521.183 688.536 521.107C688.682 521.031 688.812 520.921 688.917 520.786C689.022 520.651 689.1 520.493 689.145 520.322C689.191 520.152 689.203 519.972 689.181 519.796C689.159 519.62 689.104 519.451 689.018 519.3C688.933 519.149 688.819 519.02 688.685 518.921C688.551 518.822 688.399 518.755 688.24 518.725C688.08 518.695 687.917 518.703 687.761 518.747L620.863 529.27C620.564 529.292 620.285 529.443 620.087 529.69C619.889 529.938 619.789 530.262 619.808 530.591C619.828 530.92 619.965 531.227 620.19 531.445C620.415 531.662 620.709 531.773 621.008 531.751H621.172ZM602.097 578.708C602.335 578.502 602.489 578.202 602.527 577.873C602.564 577.543 602.482 577.21 602.297 576.947L566.039 525.689C565.947 525.558 565.833 525.448 565.702 525.365C565.571 525.282 565.427 525.229 565.278 525.207C565.128 525.186 564.977 525.197 564.831 525.24C564.686 525.284 564.549 525.358 564.43 525.459C564.31 525.56 564.21 525.686 564.135 525.83C564.06 525.974 564.011 526.132 563.992 526.297C563.973 526.461 563.983 526.628 564.022 526.788C564.061 526.948 564.129 527.098 564.221 527.23L600.552 578.567C600.657 578.717 600.792 578.838 600.947 578.921C601.101 579.004 601.271 579.048 601.443 579.048C601.714 579.033 601.972 578.912 602.17 578.708H602.097ZM658.758 564.843C658.768 564.512 658.659 564.19 658.455 563.946C658.25 563.703 657.967 563.558 657.667 563.542L607.825 560.761C607.545 560.783 607.282 560.916 607.085 561.137C606.889 561.357 606.773 561.65 606.76 561.958C606.746 562.267 606.836 562.57 607.012 562.81C607.189 563.051 607.439 563.212 607.716 563.262L657.649 566.043C657.949 566.054 658.242 565.934 658.463 565.71C658.684 565.485 658.816 565.174 658.83 564.843H658.758ZM635.246 605.537C635.264 605.372 635.251 605.205 635.209 605.046C635.167 604.887 635.097 604.739 635.002 604.61C634.907 604.481 634.79 604.375 634.657 604.297C634.524 604.219 634.378 604.171 634.228 604.156L596.042 600.015C595.894 599.998 595.744 600.014 595.602 600.062C595.459 600.109 595.327 600.187 595.212 600.291C595.097 600.396 595.002 600.524 594.932 600.669C594.862 600.813 594.819 600.972 594.806 601.135C594.78 601.463 594.872 601.79 595.063 602.044C595.253 602.298 595.526 602.46 595.824 602.496L634.01 606.657H634.119C634.412 606.679 634.702 606.575 634.926 606.366C635.15 606.156 635.291 605.859 635.319 605.537H635.246ZM587.332 627.224C587.585 627.041 587.761 626.754 587.822 626.428C587.884 626.102 587.825 625.763 587.66 625.484L568.785 594.093C568.612 593.822 568.351 593.636 568.056 593.573C567.761 593.509 567.455 593.574 567.203 593.753C566.95 593.936 566.774 594.223 566.713 594.549C566.652 594.875 566.71 595.214 566.876 595.493L585.75 626.884C585.858 627.056 586.002 627.196 586.17 627.294C586.338 627.391 586.524 627.443 586.714 627.444C586.96 627.459 587.204 627.381 587.405 627.224H587.332ZM630.646 637.728C630.641 637.399 630.522 637.084 630.312 636.849C630.102 636.614 629.818 636.478 629.518 636.467L584.623 636.007C584.324 636.007 584.037 636.138 583.826 636.371C583.614 636.603 583.495 636.919 583.495 637.248C583.491 637.413 583.516 637.578 583.571 637.732C583.625 637.886 583.708 638.026 583.813 638.144C583.919 638.262 584.045 638.355 584.184 638.418C584.323 638.48 584.473 638.511 584.623 638.508L629.518 638.968C629.672 638.976 629.825 638.95 629.969 638.892C630.113 638.833 630.245 638.744 630.357 638.628C630.469 638.512 630.559 638.373 630.621 638.218C630.683 638.064 630.716 637.897 630.719 637.728H630.646ZM570.403 711.593C570.494 711.373 578.149 688.165 601.17 682.623C601.467 682.552 601.725 682.353 601.889 682.072C602.052 681.791 602.108 681.449 602.043 681.123C601.969 680.803 601.787 680.527 601.532 680.352C601.278 680.176 600.973 680.116 600.679 680.183C576.404 686.025 568.348 710.533 568.258 710.773C568.164 711.089 568.186 711.433 568.318 711.731C568.45 712.03 568.683 712.26 568.967 712.374H569.33C569.572 712.397 569.814 712.333 570.021 712.193C570.227 712.052 570.387 711.842 570.476 711.593H570.403Z" fill="black"/>
<path d="M605.207 694.668H553.729V706.392H558.22L567.512 770.354H591.423L600.715 706.392H605.207V694.668Z" fill="#0EA5E9"/>
<path opacity="0.3" d="M605.207 694.668H553.729V706.392H558.22L567.512 770.354H591.423L600.715 706.392H605.207V694.668Z" fill="white"/>
<path d="M141.741 340.145L81.8617 318.637L76.5338 303.152L64.3689 302.732L42.2939 298.13L44.9488 303.152L72.7335 325.34L79.5887 329.101L142.213 365.094L141.741 340.145Z" fill="white" stroke="#263238" stroke-width="1.00396" stroke-miterlimit="10"/>
<path d="M76.5356 303.152L70.826 299.391L59.4248 303.993L61.3159 306.494L76.5356 303.152Z" fill="white" stroke="#263238" stroke-width="1.00396" stroke-linejoin="round"/>
<path d="M141.741 340.145L81.8617 318.637L76.5338 303.152L64.3689 302.732L42.2939 298.13L44.9488 303.152L72.7335 325.34L79.5887 329.101L142.213 365.094L141.741 340.145Z" fill="white"/>
<mask id="mask0_326_4400" style="mask-type:luminance" maskUnits="userSpaceOnUse" x="42" y="298" width="101" height="68">
<path d="M141.742 340.145L81.8626 318.637L76.5348 303.152L64.3699 302.732L42.2949 298.13L44.9497 303.152L72.7344 325.34L79.5897 329.101L142.214 365.094L141.742 340.145Z" fill="white"/>
</mask>
<g mask="url(#mask0_326_4400)">
<path opacity="0.5" d="M141.742 340.145L81.8626 318.637L76.5348 303.152L64.3699 302.732L42.2949 298.13L44.9497 303.152L72.7344 325.34L79.5897 329.101L142.214 365.094L141.742 340.145Z" fill="#0EA5E9" stroke="#263238" stroke-width="1.00396" stroke-miterlimit="10"/>
</g>
<path d="M141.741 340.145L81.8617 318.637L76.5338 303.152L64.3689 302.732L42.2939 298.13L44.9488 303.152L72.7335 325.34L79.5887 329.101L142.213 365.094L141.741 340.145Z" stroke="#263238" stroke-width="1.00396" stroke-miterlimit="10"/>
<path d="M76.5356 303.152L70.826 299.391L59.4248 303.993L61.3159 306.494L76.5356 303.152Z" fill="white"/>
<mask id="mask1_326_4400" style="mask-type:luminance" maskUnits="userSpaceOnUse" x="59" y="299" width="18" height="8">
<path d="M76.5356 303.152L70.826 299.391L59.4248 303.993L61.3159 306.494L76.5356 303.152Z" fill="white"/>
</mask>
<g mask="url(#mask1_326_4400)">
<path opacity="0.5" d="M76.5356 303.152L70.826 299.391L59.4248 303.993L61.3159 306.494L76.5356 303.152Z" fill="#0EA5E9" stroke="#263238" stroke-width="1.00396" stroke-linejoin="round"/>
</g>
<path d="M76.5356 303.152L70.826 299.391L59.4248 303.993L61.3159 306.494L76.5356 303.152Z" stroke="#263238" stroke-width="1.00396" stroke-linejoin="round"/>
<path d="M154.451 200.557C154.451 200.557 153.524 209.56 155.833 215.342C158.143 221.124 170.962 240.711 170.962 240.711L147.032 261.818C147.032 261.818 137.104 239.81 135.213 236.249C133.322 232.688 131.049 217.362 137.213 206.379C143.377 195.395 152.251 192.434 154.451 200.557Z" fill="white"/>
<mask id="mask2_326_4400" style="mask-type:luminance" maskUnits="userSpaceOnUse" x="133" y="195" width="38" height="67">
<path d="M154.451 200.557C154.451 200.557 153.524 209.56 155.833 215.342C158.143 221.124 170.962 240.711 170.962 240.711L147.032 261.818C147.032 261.818 137.104 239.81 135.213 236.249C133.322 232.688 131.049 217.362 137.213 206.379C143.377 195.395 152.251 192.434 154.451 200.557Z" fill="white"/>
</mask>
<g mask="url(#mask2_326_4400)">
<g style="mix-blend-mode:multiply" opacity="0.5">
<path d="M142.159 229.486L152.541 253.175L147.014 261.837L136.576 241.33L142.159 229.486Z" fill="#0EA5E9"/>
</g>
</g>
<path d="M154.451 200.557C154.451 200.557 153.524 209.56 155.833 215.342C158.143 221.124 170.962 240.711 170.962 240.711L147.032 261.818C147.032 261.818 137.104 239.81 135.213 236.249C133.322 232.688 131.049 217.362 137.213 206.379C143.377 195.395 152.251 192.434 154.451 200.557Z" stroke="#263238" stroke-width="1.00396" stroke-miterlimit="10"/>
<path d="M161.871 184.071C160.398 174.067 149.978 153.72 133.449 154.5C122.721 155.021 117.702 157.401 113.047 160.302C109.253 162.762 105.716 165.674 102.501 168.985C94.4273 179.649 91.5906 182.57 93.1544 190.733C93.0261 193.989 93.4898 197.24 94.5182 200.296C96.9912 207.559 98.6823 212.3 100.828 215.762C100.173 219.143 98.4641 228.066 98.3731 230.106C98.2822 232.147 103.828 230.727 106.629 229.946C111.829 242.751 121.357 251.634 124.321 252.654C129.485 254.435 137.65 245.092 141.978 237.849C146.305 230.607 143.032 222.464 143.05 219.223C143.069 215.982 152.779 208.859 156.379 206.598C159.979 204.338 163.325 194.054 161.871 184.071Z" fill="white"/>
<mask id="mask3_326_4400" style="mask-type:luminance" maskUnits="userSpaceOnUse" x="92" y="154" width="71" height="99">
<path d="M161.873 184.071C160.4 174.067 149.98 153.72 133.451 154.5C122.723 155.021 117.704 157.401 113.049 160.302C109.255 162.762 105.718 165.674 102.503 168.985C94.4292 179.649 91.5926 182.57 93.1564 190.733C93.0281 193.989 93.4917 197.24 94.5201 200.296C96.9931 207.559 98.6842 212.3 100.83 215.762C100.175 219.143 98.466 228.066 98.3751 230.106C98.2842 232.147 103.83 230.727 106.63 229.946C111.831 242.751 121.359 251.634 124.323 252.654C129.487 254.435 137.652 245.092 141.98 237.849C146.307 230.607 143.034 222.464 143.052 219.223C143.071 215.982 152.781 208.859 156.381 206.598C159.981 204.338 163.327 194.054 161.873 184.071Z" fill="white"/>
</mask>
<g mask="url(#mask3_326_4400)">
<g style="mix-blend-mode:multiply" opacity="0.5">
<path d="M93.228 190.733C93.0997 193.989 93.5634 197.24 94.5918 200.296C97.0648 207.559 98.7559 212.301 100.902 215.762C100.247 219.143 98.5377 228.066 98.4468 230.107C98.3558 232.147 103.902 230.727 106.702 229.947C111.903 242.751 121.431 251.634 124.395 252.654C129.559 254.435 137.724 245.092 142.051 237.849C143.132 236.041 143.834 233.991 144.106 231.847C143.87 230.907 143.706 230.327 143.706 230.327C143.706 230.327 141.269 240.63 136.432 239.29C131.596 237.949 124.195 227.286 120.067 223.604C115.939 219.923 117.631 215.081 116.812 209.6C115.994 204.118 103.775 199.296 102.956 196.155C102.138 193.014 104.993 180.009 104.993 180.009C104.993 180.009 109.63 173.207 108.63 176.008C107.923 178.437 107.666 180.997 107.876 183.537C108.085 186.076 108.756 188.544 109.848 190.793C110.614 192.568 111.83 194.061 113.35 195.094C114.869 196.127 116.627 196.655 118.412 196.615L122.849 172.427L113.485 163.904L102.574 168.906C94.4282 179.649 91.6461 182.57 93.228 190.733Z" fill="#0EA5E9"/>
</g>
</g>
<path d="M161.871 184.071C160.398 174.067 149.978 153.72 133.449 154.5C122.721 155.021 117.702 157.401 113.047 160.302C109.253 162.762 105.716 165.674 102.501 168.985C94.4273 179.649 91.5906 182.57 93.1544 190.733C93.0261 193.989 93.4898 197.24 94.5182 200.296C96.9912 207.559 98.6823 212.3 100.828 215.762C100.173 219.143 98.4641 228.066 98.3731 230.106C98.2822 232.147 103.828 230.727 106.629 229.946C111.829 242.751 121.357 251.634 124.321 252.654C129.485 254.435 137.65 245.092 141.978 237.849C146.305 230.607 143.032 222.464 143.05 219.223C143.069 215.982 152.779 208.859 156.379 206.598C159.979 204.338 163.325 194.054 161.871 184.071Z" stroke="#263238" stroke-miterlimit="10"/>
<path d="M103.083 209.72L104.901 215.442C104.901 215.442 108.811 216.863 113.575 211.141" stroke="#263238" stroke-miterlimit="10" stroke-linecap="round"/>
<path d="M116.521 236.449C116.521 236.449 120.848 235.969 122.594 229.287" stroke="#263238" stroke-miterlimit="10" stroke-linecap="round"/>
<path d="M100.046 204.938C100.046 204.938 101.337 200.636 109.138 200.636" stroke="#263238" stroke-miterlimit="10" stroke-linecap="round"/>
<path d="M140.032 146.538C134.364 145.642 128.648 145.16 122.921 145.098C122.921 145.098 105.792 134.234 89.336 145.818C72.8798 157.402 80.7897 177.689 80.7897 182.751C80.7897 187.813 75.5164 187.833 78.8077 194.355C82.0989 200.877 93.2273 197.276 93.2273 197.276C93.345 194.816 93.9358 192.411 94.9608 190.221C95.9858 188.031 97.4217 186.106 99.1734 184.572C105.101 179.51 109.829 178.409 111.793 179.87C111.793 179.87 110.484 190.734 112.448 195.075C112.448 195.075 119.03 198.696 121.012 198.696C122.994 198.696 119.721 201.757 126.285 204.478C127.481 204.951 128.76 205.112 130.022 204.949C131.285 204.786 132.495 204.303 133.559 203.538C134.523 199.137 136.632 192.514 140.559 194.055C146.324 196.316 151.579 211.921 143.778 217.243C153.161 219.123 164.526 200.857 165.198 184.211C165.871 167.566 149.779 148.419 140.032 146.538Z" fill="#263238"/>
<path d="M112.084 172.727C112.084 172.727 116.921 169.866 122.849 175.988C128.777 182.111 140.305 190.293 155.579 185.792" stroke="white" stroke-width="0.5" stroke-linecap="round" stroke-linejoin="round"/>
<path d="M111.411 167.825C111.411 167.825 114.739 162.104 120.303 162.104C125.867 162.104 138.868 170.686 149.251 170.686" stroke="white" stroke-width="0.5" stroke-linecap="round" stroke-linejoin="round"/>
<path d="M107.628 178.849C107.628 178.849 101.319 170.286 95.3908 177.229C89.4629 184.171 93.2269 190.733 93.2269 190.733" stroke="white" stroke-width="0.5" stroke-linecap="round" stroke-linejoin="round"/>
<path d="M82.4082 184.571C86.024 180.983 88.2718 176.023 88.6998 170.686C89.4453 161.703 100.592 153.94 107.629 161.303" stroke="white" stroke-width="0.5" stroke-linecap="round" stroke-linejoin="round"/>
<path d="M93.9004 151.9C93.9004 151.9 105.047 140.056 114.321 155.161" stroke="white" stroke-width="0.5" stroke-linecap="round" stroke-linejoin="round"/>
<path d="M184.618 734.241C184.618 734.241 191.473 745.965 190.709 753.508L189.964 761.05C189.964 761.05 164.816 768.633 159.488 768.633C154.16 768.633 125.957 765.692 125.957 765.692L124.739 760.37C124.654 759.977 124.694 759.564 124.853 759.2C125.012 758.835 125.28 758.542 125.612 758.37L150.76 745.465L158.688 735.922L184.618 734.241Z" fill="white" stroke="#263238" stroke-width="1.00396" stroke-miterlimit="10"/>
<path d="M163.307 762.731C170.126 763.312 183.073 758.73 190.583 755.809L190.055 761.051C190.055 761.051 164.816 768.634 159.489 768.634C154.161 768.634 125.958 765.693 125.958 765.693L125.085 761.891C129.595 761.911 154.288 761.971 163.307 762.731Z" fill="#0EA5E9" stroke="#263238" stroke-width="1.00396" stroke-miterlimit="10"/>
<path d="M150.797 745.465L114.193 762.991C114.193 762.991 111.065 771.614 114.193 773.335C117.32 775.055 185.509 773.335 185.509 773.335C185.509 773.335 190.219 759.71 182.782 750.567C175.345 741.424 150.797 745.465 150.797 745.465Z" fill="white" stroke="#263238" stroke-width="1.00396" stroke-miterlimit="10"/>
<path d="M185.509 773.335C185.509 773.335 117.32 775.055 114.193 773.335C112.683 772.495 112.629 770.074 112.974 767.773H186.709C186.468 769.664 186.066 771.526 185.509 773.335Z" fill="#0EA5E9" stroke="#263238" stroke-width="1.00396" stroke-miterlimit="10"/>
<path d="M133.486 440.94C133.486 440.94 123.922 487.576 120.303 516.746C116.684 545.917 114.557 604.357 115.321 611.059C116.084 617.761 154.161 730.06 154.161 730.06L157.961 740.064L184.619 734.202C184.619 734.202 172.436 691.467 167.872 667.999C163.307 644.531 153.325 605.977 153.325 599.275C153.325 592.573 176.963 464.568 178.654 456.166C180.346 447.763 188.019 434.858 188.019 434.858L136.977 433.718L133.486 440.94Z" fill="#0EA5E9" stroke="#263238" stroke-width="1.00396" stroke-miterlimit="10"/>
<path d="M133.485 440.94C133.485 440.94 127.885 483.535 130.194 513.145C132.503 542.755 137.468 605.797 137.468 615.18C137.468 624.563 151.233 680.603 152.015 698.209C153.233 723.637 151.524 736.222 151.524 736.222L150.705 745.445C150.705 745.445 166.761 747.966 170.271 749.066C174.324 750.215 178.507 750.714 182.69 750.547C182.69 750.547 188.527 722.277 188.527 698.189C188.527 674.1 183.672 624.523 181.254 604.436C178.835 584.349 186.454 506.863 190.782 492.398C195.11 477.933 204.565 447.302 198.201 431.657C191.837 416.011 133.485 440.94 133.485 440.94Z" fill="#0EA5E9" stroke="#263238" stroke-width="1.00396" stroke-miterlimit="10"/>
<path d="M205.275 423.814L204.693 442.861C204.693 442.861 194.329 445.121 180.364 447.782C168.835 449.983 139.887 447.202 130.14 446.162C129.252 446.075 128.431 445.606 127.855 444.857C127.28 444.107 126.997 443.138 127.067 442.16L128.013 424.954L205.275 423.814Z" fill="#263238"/>
<path d="M164.762 233.948C164.762 233.948 148.397 253.415 142.232 265.519C136.068 277.623 133.631 296.17 131.322 310.775C129.013 325.38 135.268 359.672 133.504 375.417L127.922 425.014C127.922 425.014 126.722 428.375 130.74 432.057C134.759 435.738 154.379 437.078 172.108 438.059C178.581 438.419 197.911 433.837 201.075 433.617C204.893 433.357 205.021 428.015 205.184 423.814C205.948 404.067 209.185 351.429 211.312 328.501C215.694 281.745 191.71 236.609 164.762 233.948Z" fill="white" stroke="#263238" stroke-width="1.00396" stroke-miterlimit="10"/>
<g style="mix-blend-mode:multiply">
<path d="M209.312 355.09C210.04 344.706 210.767 335.283 211.404 328.501C211.585 326.5 211.695 324.499 211.785 322.499L168.308 330.501L130.959 316.497C130.963 325 131.4 333.496 132.268 341.945L168.908 353.229L209.312 355.09Z" fill="#0EA5E9"/>
</g>
<g style="mix-blend-mode:multiply">
<path d="M163.143 235.909C160.67 238.93 155.76 245.072 151.087 251.595L178.69 282.465L187.782 278.464L163.143 235.909Z" fill="#0EA5E9"/>
</g>
<path d="M164.762 233.948C164.762 233.948 148.396 253.415 142.232 265.519C140.404 269.198 138.924 273.073 137.813 277.083L170.726 235.249C168.782 234.601 166.784 234.165 164.762 233.948Z" fill="#263238"/>
<g style="mix-blend-mode:multiply">
<path d="M132.595 302.892L168.307 315.817L211.676 310.335C210.996 298.448 208.596 286.757 204.566 275.703L169.599 291.128L138.341 275.543C135.785 284.482 133.864 293.626 132.595 302.892Z" fill="#0EA5E9"/>
</g>
<g style="mix-blend-mode:multiply">
<path d="M194.074 404.067C175.961 407.413 157.375 405.742 139.996 399.205L131.286 395.924L128.576 419.933L138.504 422.994C157.379 428.8 177.105 430.472 196.565 427.915L204.584 426.855C205.001 425.883 205.236 424.828 205.275 423.754C205.493 418.412 205.875 410.649 206.366 401.746L194.074 404.067Z" fill="#0EA5E9"/>
</g>
<g style="mix-blend-mode:multiply">
<path d="M198.929 371.375C180.815 374.734 162.225 373.056 144.85 366.493L133.758 362.312C134.034 366.671 133.979 371.048 133.595 375.397L132.304 386.941L143.359 390.342C162.226 396.154 181.947 397.833 201.402 395.283L206.857 394.563C207.311 386.56 207.839 378.037 208.402 369.615L198.929 371.375Z" fill="#0EA5E9"/>
</g>
<path d="M28.3324 286.771L63.4912 317.874L65.0066 315.8L29.8478 284.697L28.3324 286.771Z" fill="#263238"/>
<path d="M181.691 255.536C181.691 255.536 194.583 265.199 194.874 288.027C195.001 298.031 194.056 307.374 191.965 323.76C189.873 340.145 176.89 393.504 166.78 399.986C156.67 406.468 140.978 394.224 140.978 394.224L65.0788 338.785L46.7315 322.479L37.6396 303.593L40.4945 297.591L62.8786 316.477L50.8228 304.213L53.1867 300.912L57.5508 304.253L70.2794 309.495L73.0615 329.502L76.9892 332.463L149.597 361.653C149.597 361.653 148.687 318.658 149.36 310.435C150.033 302.212 150.96 281.545 158.961 266.56" fill="white"/>
<mask id="mask4_326_4400" style="mask-type:luminance" maskUnits="userSpaceOnUse" x="37" y="255" width="158" height="147">
<path d="M181.69 255.536C181.69 255.536 194.582 265.199 194.873 288.027C195 298.031 194.055 307.374 191.964 323.76C189.873 340.145 176.889 393.504 166.779 399.986C156.669 406.468 140.977 394.224 140.977 394.224L65.0779 338.785L46.7305 322.479L37.6387 303.593L40.4935 297.591L62.8776 316.477L50.8218 304.213L53.1857 300.912L57.5498 304.253L70.2784 309.495L73.0605 329.502L76.9882 332.463L149.596 361.653C149.596 361.653 148.686 318.658 149.359 310.435C150.032 302.212 150.959 281.545 158.96 266.56" fill="white"/>
</mask>
<g mask="url(#mask4_326_4400)">
<g style="mix-blend-mode:multiply" opacity="0.5">
<path d="M149.087 329.161C149.087 344.006 149.541 361.652 149.541 361.652L77.0064 332.582L73.0787 329.621L70.2966 309.615L57.568 304.373L53.2221 300.972L50.8582 304.273L62.8777 316.477L40.4935 297.59L37.7842 303.492L46.876 322.379L65.2234 338.785L69.842 342.166L170.125 377.718L149.087 329.161Z" fill="#0EA5E9"/>
</g>
</g>
<path d="M181.691 255.536C181.691 255.536 194.583 265.199 194.874 288.027C195.001 298.031 194.056 307.374 191.965 323.76C189.873 340.145 176.89 393.504 166.78 399.986C156.67 406.468 140.978 394.224 140.978 394.224L65.0788 338.785L46.7315 322.479L37.6396 303.593L40.4945 297.591L62.8786 316.477L50.8228 304.213L53.1867 300.912L57.5508 304.253L70.2794 309.495L73.0615 329.502L76.9892 332.463L149.597 361.653C149.597 361.653 148.687 318.658 149.36 310.435C150.033 302.212 150.96 281.545 158.961 266.56" stroke="#263238" stroke-width="1.00396" stroke-miterlimit="10"/>
<path d="M149.597 361.652L177.309 383.66L184.491 369.655C184.491 369.655 189.455 365.353 190.183 362.112C190.91 358.871 189.983 353.609 190.728 350.368C191.474 347.127 195.183 344.086 195.529 336.243C195.874 328.401 195.529 321.858 195.529 321.858C195.529 321.858 201.529 294.709 200.875 282.905C200.22 271.101 189.874 250.234 181.582 249.773C173.29 249.313 162.507 250.694 154.143 264.618C145.778 278.543 147.487 319.197 146.178 321.738C144.869 324.279 146.687 336.823 146.687 336.823C145.961 337.42 145.358 338.18 144.919 339.052C144.48 339.925 144.215 340.891 144.142 341.885C143.996 345.146 147.196 353.169 147.196 353.169L149.597 361.652Z" fill="white" stroke="#263238" stroke-width="1.00396" stroke-miterlimit="10"/>
<g style="mix-blend-mode:multiply">
<path d="M146.906 311.295C146.963 314.787 146.725 318.276 146.197 321.719C145.033 324 146.36 334.303 146.651 336.404C162.238 341.731 178.72 343.099 194.856 340.405C195.203 339.014 195.41 337.585 195.474 336.144C195.838 328.321 195.474 321.759 195.474 321.759C195.474 321.759 196.002 319.338 196.729 315.657C180.017 316.826 163.239 315.357 146.906 311.295Z" fill="#0EA5E9"/>
</g>
<g style="mix-blend-mode:multiply">
<path d="M153.015 266.84C150.415 272.582 148.96 281.205 148.124 289.948C164.631 296.879 182.429 299.263 199.966 296.89C200.665 292.263 200.976 287.575 200.893 282.885C200.578 279.178 199.782 275.54 198.529 272.082C183.217 272.475 167.922 270.713 153.015 266.84Z" fill="#0EA5E9"/>
</g>
<path d="M147.196 353.39L149.542 361.653L177.254 383.661L184.436 369.656C184.436 369.656 189.401 365.354 190.128 362.113C190.258 361.55 190.337 360.973 190.364 360.393C175.761 360.115 161.251 357.761 147.196 353.39Z" fill="#263238"/>
<path d="M167.252 748.806C167.252 748.806 167.87 731.48 170.889 706.151C173.907 680.822 166.652 644.85 165.434 638.848C164.216 632.846 166.052 619.521 164.834 614.84C163.615 610.158 157.724 590.191 161.197 567.023C164.67 543.855 167.489 482.614 167.489 482.614C167.489 482.614 158.742 474.791 156.178 464.608C153.614 454.424 155.578 451.223 155.578 451.223" stroke="#263238" stroke-width="1.00396" stroke-miterlimit="10"/>
<path d="M171.308 452.164L167.944 472.651" stroke="#263238" stroke-width="1.00396" stroke-miterlimit="10"/>
</svg>
