<svg width="256" height="251" viewBox="0 0 256 251" fill="none" xmlns="http://www.w3.org/2000/svg">
<path d="M37.8536 229.359C-11.8249 200.676 -11.8249 154.168 37.8536 125.507C87.5321 96.8463 168.08 96.8243 217.775 125.507C267.47 154.19 267.454 200.698 217.775 229.359C168.097 258.02 87.5376 258.047 37.8536 229.359Z" fill="#F5F5F5"/>
<path d="M77.6142 230.743C99.1726 230.743 116.649 220.654 116.649 208.209C116.649 195.763 99.1726 185.674 77.6142 185.674C56.0557 185.674 38.5791 195.763 38.5791 208.209C38.5791 220.654 56.0557 230.743 77.6142 230.743Z" fill="#E0E0E0"/>
<path d="M167.835 197.676C194.903 183.077 210.956 160.323 203.691 146.853C196.427 133.384 168.595 134.299 141.527 148.898C114.459 163.497 98.4059 186.251 105.671 199.72C112.936 213.19 140.768 212.275 167.835 197.676Z" fill="#E0E0E0"/>
<path d="M194.768 165.679C200.181 159.228 208.659 155.025 218.193 152.541C227.611 150.096 229.298 144.299 223.056 142.425C215.984 140.293 207.159 144.205 201.467 149.651C191.554 159.14 190.307 166.388 190.307 166.388L194.768 165.679Z" fill="#0EA5E9"/>
<path opacity="0.15" d="M194.768 165.679C200.181 159.228 208.659 155.025 218.193 152.541C227.611 150.096 229.298 144.299 223.056 142.425C215.984 140.293 207.159 144.205 201.467 149.651C191.554 159.14 190.307 166.388 190.307 166.388L194.768 165.679Z" fill="black"/>
<path d="M191.982 165.289C191.943 165.297 191.901 165.297 191.862 165.289C191.829 165.273 191.8 165.251 191.776 165.224C191.752 165.197 191.734 165.165 191.722 165.131C191.71 165.097 191.705 165.061 191.708 165.025C191.71 164.989 191.719 164.953 191.735 164.921C199.769 148.436 217.561 144.381 221.869 144.689C221.941 144.695 222.007 144.728 222.055 144.783C222.102 144.837 222.126 144.908 222.121 144.98C222.114 145.053 222.08 145.119 222.024 145.167C221.969 145.214 221.897 145.238 221.825 145.233C217.605 144.914 200.137 148.931 192.23 165.163C192.203 165.203 192.166 165.236 192.122 165.258C192.079 165.28 192.031 165.291 191.982 165.289Z" fill="white"/>
<path d="M190.307 167.393C190.307 167.658 190.378 167.919 190.511 168.148C190.645 168.376 190.837 168.566 191.067 168.697C191.298 168.827 191.559 168.894 191.824 168.891C192.089 168.888 192.348 168.815 192.576 168.679C197.609 165.75 204.95 164.129 216.83 167.514C223.149 169.311 226.259 168.108 227.589 165.536C229.072 162.679 225.94 159.915 222.369 158.613C210.209 154.167 199.236 157.201 190.307 166.069V167.393Z" fill="#0EA5E9"/>
<path d="M191.005 167.63C190.966 167.631 190.927 167.623 190.891 167.608C190.855 167.593 190.823 167.571 190.796 167.542C190.745 167.49 190.717 167.42 190.717 167.347C190.717 167.274 190.745 167.204 190.796 167.152C201.296 157.767 217.561 159.597 223.715 163.256C223.778 163.293 223.823 163.353 223.841 163.423C223.86 163.493 223.85 163.567 223.814 163.63C223.776 163.693 223.716 163.738 223.645 163.757C223.574 163.775 223.499 163.765 223.435 163.729C217.391 160.141 201.456 158.355 191.164 167.575C191.117 167.609 191.062 167.628 191.005 167.63Z" fill="white"/>
<path d="M72.8224 189.275C68.2067 182.23 60.2832 177.054 51.1069 173.466C42.0515 169.928 41.0569 163.977 47.4748 162.845C54.75 161.564 63.0526 166.493 68.0639 172.571C76.7896 183.165 77.1687 190.522 77.1687 190.522L72.8224 189.275Z" fill="#0EA5E9"/>
<path opacity="0.15" d="M72.8224 189.275C68.2067 182.23 60.2832 177.054 51.1069 173.466C42.0515 169.928 41.0569 163.977 47.4748 162.845C54.75 161.564 63.0526 166.493 68.0639 172.571C76.7896 183.165 77.1687 190.522 77.1687 190.522L72.8224 189.275Z" fill="black"/>
<path d="M75.6136 189.231C75.6535 189.238 75.6946 189.238 75.7345 189.231C75.8031 189.206 75.8593 189.155 75.8911 189.089C75.9229 189.024 75.9278 188.948 75.9048 188.879C69.8606 171.565 52.6948 165.438 48.3649 165.251C48.2929 165.248 48.2227 165.274 48.1692 165.322C48.1158 165.37 48.0834 165.438 48.0792 165.509C48.0776 165.583 48.104 165.653 48.153 165.708C48.2021 165.762 48.2701 165.795 48.3429 165.801C52.5739 165.977 69.443 172.026 75.3828 189.077C75.4042 189.12 75.4368 189.158 75.4774 189.185C75.5179 189.212 75.565 189.228 75.6136 189.231Z" fill="white"/>
<path d="M77.2069 190.187C77.1638 190.577 77.0208 190.95 76.7917 191.269C76.5626 191.588 76.2551 191.843 75.8988 192.009C75.5426 192.174 75.1497 192.245 74.7581 192.215C74.3664 192.185 73.9891 192.054 73.6627 191.835C69.0031 188.714 62.0632 186.687 50.6945 188.538C44.2106 189.577 41.2654 187.989 40.2544 185.302C39.1224 182.291 42.5622 179.922 46.2602 179.049C58.8597 176.071 69.3988 180.379 77.2179 190.231L77.2069 190.187Z" fill="#0EA5E9"/>
<path d="M76.3385 191.665C76.3769 191.67 76.416 191.667 76.453 191.656C76.4901 191.644 76.5242 191.625 76.5528 191.599C76.6035 191.546 76.6319 191.476 76.6319 191.404C76.6319 191.331 76.6035 191.261 76.5528 191.209C67.2117 180.653 50.8646 180.549 44.3203 183.455C44.2533 183.485 44.2009 183.541 44.1746 183.609C44.1483 183.678 44.1503 183.754 44.1802 183.821C44.2101 183.888 44.2654 183.94 44.3339 183.966C44.4024 183.993 44.4786 183.991 44.5456 183.961C50.958 181.109 67.0029 181.213 76.1407 191.571C76.1646 191.601 76.1948 191.624 76.229 191.64C76.2632 191.657 76.3007 191.665 76.3385 191.665Z" fill="white"/>
<path d="M199.697 63.7294L199.609 63.6855L178.663 51.6299L178.537 51.5694C168.75 46.6241 155.695 48.1132 141.65 57.1906C113.44 75.4334 91.944 117.425 93.6364 150.981C94.4771 167.702 100.928 179.17 110.67 184.214L110.753 184.258L131.704 196.319L131.803 196.374C141.59 201.319 154.656 199.852 168.712 190.764C196.922 172.521 218.418 130.53 216.725 96.973C215.896 80.2413 209.445 68.7737 199.697 63.7294Z" fill="#37474F"/>
<path d="M130.985 195.929L110.78 184.247L110.681 184.186C100.939 179.131 94.4938 167.664 93.6476 150.965C92.8948 135.997 96.7576 119.364 103.758 103.918L103.895 103.578L124.71 115.974C117.698 131.42 113.846 148.053 114.599 163.021C115.396 179.39 121.589 190.72 130.985 195.929Z" fill="#263238"/>
<path d="M168.723 190.753C196.934 172.51 218.429 130.519 216.737 96.9622C215.044 63.4054 190.801 50.9982 162.591 69.2409C134.381 87.4836 112.88 129.475 114.572 163.026C116.264 196.577 140.513 208.996 168.723 190.753Z" fill="#455A64"/>
<path d="M192.614 61.1252L157.255 133.97L149.645 125.728C147.376 123.365 144.27 121.987 140.996 121.888C137.722 121.79 134.539 122.98 132.133 125.203C129.726 127.425 128.287 130.503 128.125 133.775C127.962 137.046 129.09 140.251 131.265 142.701L151.315 164.422C153.52 166.817 156.575 168.253 159.827 168.422C160.057 168.422 160.288 168.422 160.519 168.422C161.126 168.422 161.732 168.378 162.332 168.29C164.351 167.997 166.266 167.213 167.912 166.008C169.557 164.803 170.883 163.213 171.772 161.378L212.324 77.8569C208.164 68.5817 201.241 62.8341 192.614 61.1252Z" fill="#37474F"/>
<path d="M221.33 37.1344C221.11 37.008 220.879 36.8871 220.648 36.7772C218.057 35.5214 215.073 35.3449 212.351 36.2864C209.63 37.228 207.393 39.2107 206.131 41.7995L161.14 134.475L158.579 131.727C157.84 130.92 156.98 130.232 156.029 129.689C154.689 128.92 148.985 125.617 148.062 125.084C145.812 123.782 143.17 123.331 140.615 123.811C138.06 124.291 135.762 125.672 134.139 127.702C132.515 129.732 131.673 132.277 131.766 134.874C131.858 137.472 132.879 139.951 134.644 141.86L154.694 163.575C155.446 164.391 156.319 165.086 157.282 165.636C158.59 166.378 164.272 169.674 165.206 170.213C166.498 170.961 167.93 171.435 169.414 171.605C170.897 171.775 172.399 171.637 173.827 171.2C175.255 170.764 176.577 170.037 177.712 169.067C178.846 168.096 179.768 166.902 180.421 165.559L233.649 55.9211C234.846 53.4501 235.064 50.618 234.26 47.9928C233.456 45.3676 231.689 43.1435 229.314 41.7665L221.33 37.1344Z" fill="#0EA5E9"/>
<path opacity="0.15" d="M221.33 37.1344C221.11 37.008 220.879 36.8871 220.648 36.7772C218.057 35.5214 215.073 35.3449 212.351 36.2864C209.63 37.228 207.393 39.2107 206.131 41.7995L161.14 134.475L158.579 131.727C157.84 130.92 156.98 130.232 156.029 129.689C154.689 128.92 148.985 125.617 148.062 125.084C145.812 123.782 143.17 123.331 140.615 123.811C138.06 124.291 135.762 125.672 134.139 127.702C132.515 129.732 131.673 132.277 131.766 134.874C131.858 137.472 132.879 139.951 134.644 141.86L154.694 163.575C155.446 164.391 156.319 165.086 157.282 165.636C158.59 166.378 164.272 169.674 165.206 170.213C166.498 170.961 167.93 171.435 169.414 171.605C170.897 171.775 172.399 171.637 173.827 171.2C175.255 170.764 176.577 170.037 177.712 169.067C178.846 168.096 179.768 166.902 180.421 165.559L233.649 55.9211C234.846 53.4501 235.064 50.618 234.26 47.9928C233.456 45.3676 231.689 43.1435 229.314 41.7665L221.33 37.1344Z" fill="black"/>
<path opacity="0.15" d="M165.179 170.191C164.256 169.642 158.585 166.345 157.261 165.614C156.298 165.064 155.425 164.369 154.673 163.554L134.622 141.838C133.738 140.874 133.036 139.757 132.551 138.541L140.524 143.141C141.007 144.359 141.713 145.477 142.606 146.437L162.651 168.153C163.389 168.953 164.241 169.64 165.179 170.191Z" fill="black"/>
<path opacity="0.15" d="M216.626 43.0636C215.579 44.0036 214.724 45.1383 214.11 46.4045L167.832 141.728L161.14 134.475L206.131 41.7998C206.744 40.5314 207.601 39.3961 208.653 38.459L216.626 43.0636Z" fill="black"/>
<path d="M228.627 41.3818C226.035 40.129 223.052 39.9541 220.331 40.8953C217.61 41.8366 215.373 43.8173 214.11 46.4041L167.832 141.728L158.585 131.705C156.606 129.695 153.922 128.534 151.102 128.468C148.281 128.402 145.546 129.436 143.475 131.351C141.404 133.266 140.159 135.913 140.005 138.73C139.851 141.546 140.8 144.313 142.65 146.442L162.695 168.163C163.895 169.462 165.393 170.447 167.061 171.035C168.728 171.623 170.513 171.794 172.262 171.536C174.011 171.277 175.67 170.595 177.096 169.55C178.521 168.504 179.67 167.127 180.443 165.537L233.671 55.8991C234.925 53.3048 235.099 50.3187 234.153 47.5967C233.207 44.8747 231.22 42.6394 228.627 41.3818Z" fill="#0EA5E9"/>
<path d="M76.8388 52.0969C72.6463 52.0969 69.778 53.1959 66.7998 57.4269C64.0524 61.3172 56.5575 74.285 56.5575 74.285C56.5575 74.285 51.0627 63.0096 50.5132 60.7623C49.9637 58.5149 49.9967 57.5148 50.5132 56.5368C51.2695 55.3807 51.7438 54.0632 51.8979 52.6904C52.1122 49.9869 52.7716 47.6736 52.1671 47.5967C50.4912 47.5033 50.4253 49.6573 49.5461 50.9266C49.4345 51.0491 49.2955 51.1436 49.1405 51.2024C48.9855 51.2612 48.8188 51.2826 48.654 51.2649C48.4891 51.2473 48.3308 51.191 48.1917 51.1007C48.0527 51.0104 47.9369 50.8886 47.8537 50.7452C47.4856 49.9924 47.6834 48.7561 47.5076 47.866C47.5552 47.3706 47.6341 46.8787 47.7438 46.3933C48.3786 46.5075 49.0268 46.5261 49.667 46.4483C50.3923 47.5857 50.8869 48.0638 51.8979 47.6022C52.0298 47.3934 51.4638 45.9538 50.7989 44.8548C50.6991 44.6867 50.5373 44.5644 50.3484 44.5141C49.1294 44.2054 47.8573 44.1698 46.6229 44.4097C46.5296 44.4193 46.4391 44.4476 46.357 44.4929C46.2749 44.5382 46.2027 44.5996 46.1448 44.6735C45.6809 45.3531 45.3113 46.0925 45.0459 46.8714C44.9745 47.1077 44.7547 47.1022 44.6997 46.8989C44.1502 44.2449 44.1502 40.4754 44.1502 38.7116C44.1502 37.3214 42.1227 37.1016 42.0512 39.0908C41.9307 41.7597 41.9766 44.4335 42.1886 47.0967C42.1886 47.3385 41.9468 47.4538 41.8479 47.1901C41.4962 46.2505 40.6336 43.4097 40.2709 38.5083C40.172 37.1896 38.04 36.9753 38.073 38.827C38.1565 42.11 38.5838 45.3753 39.3478 48.5693C39.4137 48.8001 39.1994 49.0034 39.0401 48.7396C38.0398 46.8121 37.2407 44.7866 36.6553 42.6953C36.1993 41.1019 34.0728 41.5085 34.4574 43.4921C35.1223 47.0472 36.1773 51.542 37.7543 54.7564C39.4357 58.1907 40.8863 59.9106 41.7215 62.6085C42.5567 65.3065 46.013 80.5875 49.711 86.5439C52.6067 91.2144 55.9201 90.7803 59.4862 88.3187C63.0523 85.857 75.7948 68.1033 75.7948 68.1033L76.8388 52.0969Z" fill="#9E6767"/>
<path d="M56.5576 74.279C56.5576 74.279 58.3434 77.3066 58.6182 79.7298C59.0721 77.377 58.6207 74.9395 57.3544 72.9053L56.5576 74.279Z" fill="#874C4C"/>
<path d="M77.7288 52.0969C75.5969 51.8771 72.9429 51.8056 69.9867 53.6684C67.0305 55.5311 65.9974 58.1247 64.5633 60.394C63.1292 62.6634 58.1729 70.7023 58.1729 70.7023C58.1729 70.7023 59.9916 78.3345 67.2228 79.9061L78.053 65.213L77.7288 52.0969Z" fill="#455A64"/>
<path d="M87.4379 186.297C87.9873 186.225 88.7181 188.099 88.7291 188.709C88.7401 189.319 88.1247 190.632 87.317 191.863C86.2373 193.328 85.3423 194.921 84.652 196.605C84.0311 198.297 83.4596 199.407 81.7288 201.622C79.8056 204.089 75.2888 208.215 68.4313 206.424C66.7554 205.984 65.9202 205.457 65.3103 204.847C65.0427 204.577 64.8561 204.237 64.7716 203.866C64.6871 203.495 64.7081 203.108 64.8322 202.748L87.4379 186.297Z" fill="#263238"/>
<path d="M73.965 184.153V184.214C73.8864 184.727 73.9013 185.25 74.0089 185.758C74.1974 187.271 74.0633 188.807 73.6153 190.264C73.1673 191.722 72.4157 193.068 71.4099 194.214C70.4546 195.211 69.3763 196.083 68.2009 196.808C64.7282 199.006 64.3546 200.506 64.8436 202.748C66.0085 205.358 73.8826 206.946 78.4103 203.061C80.3639 201.544 81.8574 199.514 82.7237 197.198C83.3808 195.538 84.1443 193.923 85.0095 192.362C85.8832 190.714 87.5426 188.857 87.5921 187.159C87.6196 186.225 86.6964 184.488 85.8008 183.06C84.9766 181.746 84.1249 180.499 83.3831 180.642L83.5919 181.384C82.971 182.027 82.0753 182.268 81.5368 183.032C80.8665 183.961 80.8884 185.23 80.4763 186.274C80.4629 186.328 80.4377 186.378 80.4025 186.421C80.3673 186.463 80.3231 186.498 80.273 186.521C80.215 186.531 80.1554 186.522 80.1029 186.495C80.0505 186.468 80.008 186.426 79.9818 186.373C79.9369 186.265 79.9163 186.149 79.9213 186.032L79.8719 184.433C79.8966 184.126 79.8152 183.82 79.6411 183.565C79.2125 183.082 78.1575 183.137 77.5696 183.115C76.7782 183.121 75.9877 183.168 75.2013 183.257C74.9288 183.23 74.6556 183.303 74.432 183.461C74.2075 183.637 74.044 183.879 73.965 184.153Z" fill="#37474F"/>
<path d="M62.3269 152.206C64.1567 158.223 72.7121 179.054 73.2231 180.307L74.9265 184.439C76.0482 184.808 77.2501 184.859 78.3992 184.587C78.5806 186.582 78.8828 189.708 78.9982 191.285C79.0421 193.115 79.2015 195.379 78.8058 197.187C78.4707 198.725 78.0805 200.341 77.7893 201.885C77.6629 202.566 77.5365 203.253 77.4321 203.94C77.2549 204.659 77.3146 205.417 77.6025 206.099C77.7778 206.397 78.0092 206.659 78.2838 206.869C79.5043 207.827 81.0468 208.28 82.5918 208.132C83.4086 208.093 84.1992 207.831 84.8776 207.374C86.2073 206.423 86.6744 204.77 87.3503 203.363C88.0866 201.841 87.8503 201.67 87.8997 200.039C87.9437 198.896 88.2624 195.994 88.7185 192.961C89.1745 189.928 91.1417 179.268 92.0868 168.647C92.472 163.929 92.472 159.188 92.0868 154.47C99.5927 134.079 102.934 121.952 103.917 115.182C104.912 108.303 104.434 105.841 104.307 101.89L67.8052 102.77C64.882 121.639 59.8708 144.14 62.3269 152.206Z" fill="#9E6767"/>
<path d="M61.756 137.151C62.5088 130.216 67.6959 103.561 67.6959 103.561H104.467C104.467 103.561 104.703 108.677 104.637 111.029C104.572 113.38 103.813 117.672 102.5 123.117C101.187 128.562 96.3183 143.931 95.3567 146.195C94.3951 148.459 92.6093 155.025 92.6093 155.025C93.5105 167.356 91.1642 178.422 89.4059 193.132C89.4059 193.132 88.8948 195.116 83.6858 194.725C78.6196 194.341 77.5975 192.473 77.5975 192.473L77.2624 179.785C77.2624 179.785 74.515 180.631 72.8665 180.247C72.8665 180.247 61.9813 153.372 61.4538 151.756C60.9263 150.141 61.0032 144.085 61.756 137.151Z" fill="#0EA5E9"/>
<path opacity="0.45" d="M61.756 137.151C62.5088 130.216 67.6959 103.561 67.6959 103.561H104.467C104.467 103.561 104.703 108.677 104.637 111.029C104.572 113.38 103.813 117.672 102.5 123.117C101.187 128.562 96.3183 143.931 95.3567 146.195C94.3951 148.459 92.6093 155.025 92.6093 155.025C93.5105 167.356 91.1642 178.422 89.4059 193.132C89.4059 193.132 88.8948 195.116 83.6858 194.725C78.6196 194.341 77.5975 192.473 77.5975 192.473L77.2624 179.785C77.2624 179.785 74.515 180.631 72.8665 180.247C72.8665 180.247 61.9813 153.372 61.4538 151.756C60.9263 150.141 61.0032 144.085 61.756 137.151Z" fill="black"/>
<path opacity="0.2" d="M77.3558 120.936C72.1467 116.243 70.9873 112.507 70.9873 112.507C73.6062 115.457 76.7073 117.941 80.1581 119.853C80.1581 119.853 75.2128 145.965 75.5755 151.333C75.9381 156.702 77.2624 179.785 77.2624 179.785C77.2624 180.005 73.7567 155.372 73.6523 153.41C73.416 148.218 77.3558 120.936 77.3558 120.936Z" fill="black"/>
<path d="M88.8006 206.204C89.3117 206.353 89.2457 207.88 89.0149 208.452C88.4431 209.449 87.6332 210.289 86.6577 210.897C85.228 211.87 84.0356 213.153 83.1685 214.65C81.7576 216.808 79.8915 218.631 77.7011 219.991C74.7837 221.646 71.3451 222.127 68.0852 221.337C64.6345 220.359 64.3158 219.513 64.3433 218.21L88.8006 206.204Z" fill="#263238"/>
<path d="M78.1413 198.214C77.2346 202.61 75.6576 205.841 72.0036 208.555C69.0913 210.72 66.9813 211.819 64.657 213.748C63.6734 214.572 63.591 216.325 64.3438 218.215C65.9153 219.474 68.1462 220.199 71.1409 220.193C74.4927 220.193 75.7785 219.595 77.7017 218.281C78.6464 217.636 79.526 216.899 80.3282 216.083C81.9382 214.468 83.0756 212.473 84.2185 211.193C85.3614 209.913 87.8945 208.605 88.6143 207.061C89.01 206.215 88.8451 204.253 88.5814 202.583C88.3396 201.05 88.8067 198.357 88.0704 198.187L87.966 199.286C87.9055 199.533 87.7517 199.659 87.2351 199.835C86.7709 199.936 86.292 199.949 85.823 199.874C85.6563 199.813 85.4749 199.807 85.3043 199.855C85.1338 199.904 84.9827 200.004 84.8724 200.143C84.3779 200.725 84.246 201.55 83.6086 202.033C83.5674 202.069 83.5185 202.096 83.4657 202.11C83.4412 202.124 83.4134 202.131 83.3853 202.13C83.3572 202.129 83.3299 202.12 83.3064 202.105C83.2893 202.078 83.2781 202.048 83.2733 202.017C83.2686 201.986 83.2705 201.954 83.2789 201.923L83.4602 200.275C83.4821 200.111 83.4821 199.944 83.4602 199.78C83.4257 199.627 83.3589 199.483 83.2641 199.358C83.1693 199.233 83.0488 199.13 82.9107 199.055C82.448 198.786 81.9507 198.58 81.4326 198.445C80.8935 198.299 80.3414 198.205 79.7842 198.165C79.2374 198.095 78.6829 198.111 78.1413 198.214Z" fill="#455A64"/>
<path d="M101.148 53.6739C101.148 53.6739 102.659 55.751 103.895 60.0314C105.4 67.0613 106.174 74.2281 106.203 81.4172C106.203 91.1265 104.895 106.858 104.895 106.858C93.6255 112.507 75.4487 109.166 67.4482 103.655C67.7724 101.907 68.0472 92.72 68.6791 86.6592C69.1022 76.263 69.4538 70.8177 69.5253 66.1911C69.6736 56.9488 74.2728 52.1738 77.7675 52.1024L86.5921 52.2398L101.148 53.6739Z" fill="#0EA5E9"/>
<path d="M103.928 104.006C102.252 105.385 98.9824 108.034 98.3615 109.369C97.6691 110.897 97.2625 113.215 96.7954 114.084C96.3284 114.952 97.0317 115.391 97.9988 115.078C98.9659 114.765 99.5428 113.946 100.29 111.946C101.037 109.946 103.114 108.38 103.114 108.38L103.928 104.006Z" fill="#874C4C"/>
<path d="M97.8071 121.991C98.2082 122.765 99.1423 122.771 100.005 122.837C101.057 122.958 102.122 122.837 103.121 122.485C104.32 122.139 105.373 121.407 106.115 120.403C106.961 119.183 107.181 117.655 107.665 116.254C108.676 113.314 111.687 111.193 112.181 108.078C112.385 106.792 112.385 105.276 112.731 104.479C112.945 104.006 117.896 95.4838 119.665 91.7913C121.358 88.2416 122.627 86.5712 121.089 82.3072C119.55 78.0433 114.313 63.037 110.604 57.8224C108.505 54.8662 105.17 54.02 101.126 53.6738C98.0489 61.6852 101.626 69.9659 101.626 69.9659L109.791 85.6701C109.791 85.6701 106.626 96.4838 104.648 102.495C104.099 104.144 103 105.199 101.741 107.05C101.192 107.853 99.9501 109.248 99.5105 110.122C98.961 111.221 98.961 111.946 98.6863 113.501C98.2577 115.979 97.5928 121.623 97.8071 121.991Z" fill="#9E6767"/>
<path d="M100.714 53.63C102.84 53.7124 105.895 54.0751 107.72 54.9982C109.544 55.9213 110.813 57.0588 112.912 61.2678C115.011 65.4768 118.083 73.6531 118.083 73.6531C118.083 73.6531 117.066 79.8237 107.308 81.4227L100.714 69.2627C100.714 69.2627 97.774 61.6854 100.714 53.63Z" fill="#455A64"/>
<path d="M75.3608 33.991C75.6491 34.5123 75.8989 35.0541 76.1081 35.6119C76.4332 36.3406 76.8486 37.0255 77.3445 37.6505C78.6083 39.1066 80.3831 40.1726 82.004 41.2056C82.9821 41.832 84.1031 42.42 85.3009 42.2497C86.4988 42.0793 87.834 42.3376 89.0704 42.4475L93.3948 42.8376L93.153 47.3818C93.153 47.3818 93.7025 46.1784 94.4223 44.7388C95.0487 43.5025 97.6752 37.2329 97.6862 37.2054C98.9885 34.1009 100.533 29.9578 98.9775 26.6939C98.6239 25.8901 98.0335 25.2134 97.2851 24.7542C97.4357 24.2524 97.4843 23.7255 97.4279 23.2047C97.3415 22.4652 97.0902 21.7545 96.6927 21.125C96.2952 20.4955 95.7616 19.9631 95.1311 19.5671C93.9005 18.7354 92.5132 18.1633 91.054 17.8857C89.1187 17.4405 87.1384 17.2211 85.1526 17.2318C83.2069 17.2912 81.2696 17.5136 79.3611 17.8967C78.2964 18.0933 77.2179 18.2054 76.1356 18.2319C75.6694 18.2624 75.2012 18.2403 74.7399 18.1659C74.1666 17.9946 73.6034 17.791 73.053 17.556C73.0052 17.5359 72.9538 17.5256 72.9019 17.5256C72.85 17.5256 72.7986 17.5359 72.7508 17.556C72.7072 17.585 72.6703 17.6231 72.6428 17.6677C72.6153 17.7123 72.5978 17.7623 72.5915 17.8143C72.4485 18.5003 72.4545 19.2089 72.6091 19.8924C72.7636 20.5759 73.063 21.2182 73.4871 21.776C73.24 21.7423 72.9992 21.6719 72.7728 21.5672C72.5157 21.4482 72.2678 21.3105 72.031 21.1551C71.6277 20.8847 71.2744 20.5463 70.987 20.1551C70.9473 20.0937 70.8868 20.0488 70.8166 20.0287C70.7067 20.0287 70.6188 20.1056 70.5529 20.1935C70.2563 20.6346 70.0544 21.1323 69.9598 21.6553C69.8653 22.1783 69.8801 22.7152 70.0034 23.2321C70.2457 24.2698 70.736 25.2332 71.4321 26.04C71.0925 26.5886 70.8964 27.2139 70.8618 27.8582C70.8272 28.5025 70.9553 29.1452 71.2342 29.727C71.4786 30.243 71.8073 30.7147 72.2068 31.1227C72.7014 31.6282 73.3058 32.0403 73.8058 32.5129C74.3792 32.9442 74.901 33.4402 75.3608 33.991Z" fill="#37474F"/>
<path d="M88.5316 26.4197C88.5156 27.2403 88.6211 28.0587 88.8448 28.8484C89.1055 29.5421 89.5252 30.165 90.0701 30.6672C90.6865 31.1902 91.2565 31.7656 91.7735 32.387C92.3316 33.3544 92.6588 34.4375 92.7296 35.5521C92.7328 35.8803 92.8094 36.2037 92.9539 36.4985C93.0985 36.7933 93.3072 37.0519 93.5648 37.2554C94.7407 37.9862 95.444 36.5741 96.0704 35.8817C96.8782 35.1344 99.2794 34.2333 100.389 36.7719C101.538 39.4094 99.4168 42.9041 97.4881 43.4426C94.1637 44.3712 93.4384 42.1073 93.4384 42.1073L92.801 53.9761C90.9273 57.5313 86.5205 58.6632 83.6247 58.0972C81.1246 57.6082 79.7509 55.8553 82.1026 53.3167L82.229 49.7012C82.229 49.7012 79.2289 50.0583 77.7837 49.7836C75.3715 49.333 74.1791 47.2835 73.5253 44.6405C72.4867 40.393 72.0087 35.9257 73.3 26.3593C73.8879 26.0351 76.2672 27.8868 79.8937 28.1341C82.8744 28.3442 85.857 27.7522 88.5316 26.4197Z" fill="#9E6767"/>
<path d="M82.2077 49.69C82.2077 49.69 87.6475 48.7779 89.5707 47.8328C90.6993 47.2892 91.6376 46.4179 92.2631 45.3326C91.942 46.4286 91.4038 47.4489 90.6806 48.3328C89.241 50.0527 82.1582 51.1297 82.1582 51.1297L82.2077 49.69Z" fill="#874C4C"/>
<path d="M85.0371 30.6672L87.5702 31.442C87.6671 31.096 87.6262 30.7259 87.4562 30.4093C87.2861 30.0928 87.0001 29.8544 86.6581 29.7441C86.491 29.6951 86.3158 29.6803 86.1429 29.7005C85.97 29.7207 85.803 29.7755 85.6517 29.8617C85.5004 29.9478 85.3681 30.0636 85.2625 30.2019C85.1569 30.3403 85.0802 30.4986 85.0371 30.6672Z" fill="#263238"/>
<path d="M84.1577 42.6675L80.4268 43.9313C80.4994 44.1807 80.6214 44.4129 80.7855 44.6142C80.9496 44.8156 81.1524 44.9819 81.382 45.1034C81.6116 45.2248 81.8632 45.2989 82.122 45.3213C82.3808 45.3437 82.6414 45.3138 82.8884 45.2336C83.3905 45.0526 83.803 44.6843 84.0396 44.206C84.2762 43.7277 84.3185 43.1763 84.1577 42.6675Z" fill="#874C4C"/>
<path d="M83.856 43.5802C83.369 43.5806 82.8959 43.7427 82.511 44.041C82.1261 44.3394 81.8512 44.7571 81.7295 45.2286C82.1061 45.3524 82.5123 45.3524 82.8889 45.2286C83.2365 45.1057 83.5439 44.8903 83.7782 44.6057C84.0125 44.321 84.1648 43.9779 84.2186 43.6132C84.099 43.5914 83.9776 43.5803 83.856 43.5802Z" fill="#F28F8F"/>
<path d="M73.7292 31.0683L76.3062 30.7331C76.2867 30.5662 76.2339 30.405 76.151 30.2589C76.0681 30.1128 75.9568 29.9847 75.8237 29.8823C75.6905 29.7799 75.5382 29.7051 75.3757 29.6625C75.2132 29.6199 75.0439 29.6102 74.8776 29.6341C74.5378 29.6782 74.2284 29.8522 74.0142 30.1196C73.8001 30.3871 73.6979 30.7271 73.7292 31.0683Z" fill="#263238"/>
<path d="M89.5703 32.1671L98.0708 35.0629C97.5945 35.0684 97.1258 35.1832 96.7009 35.3985C96.276 35.6138 95.9062 35.9239 95.6201 36.3047L89.6033 34.0189L89.5703 32.1671Z" fill="#263238"/>
<path d="M74.9977 35.4858C74.988 35.6226 75.0058 35.7599 75.05 35.8897C75.0942 36.0194 75.1639 36.1391 75.2551 36.2415C75.3462 36.3439 75.4569 36.427 75.5807 36.486C75.7045 36.5449 75.8388 36.5785 75.9758 36.5848C76.1121 36.5862 76.2475 36.5608 76.374 36.51C76.5006 36.4591 76.6159 36.3838 76.7133 36.2884C76.8108 36.193 76.8885 36.0793 76.942 35.9539C76.9955 35.8284 77.0238 35.6937 77.0253 35.5573C77.0349 35.4205 77.0171 35.2832 76.9729 35.1534C76.9287 35.0237 76.859 34.904 76.7679 34.8016C76.6767 34.6992 76.566 34.6161 76.4422 34.5571C76.3185 34.4982 76.1841 34.4646 76.0472 34.4583C75.9108 34.4569 75.7755 34.4823 75.6489 34.5331C75.5224 34.584 75.4071 34.6593 75.3096 34.7547C75.2121 34.8501 75.1344 34.9638 75.0809 35.0892C75.0274 35.2147 74.9991 35.3495 74.9977 35.4858Z" fill="#263238"/>
<path d="M84.707 35.486C84.7082 35.6853 84.768 35.88 84.879 36.0456C84.9899 36.2113 85.1472 36.3407 85.3311 36.4177C85.515 36.4946 85.7175 36.5158 85.9134 36.4786C86.1093 36.4413 86.2899 36.3473 86.4328 36.2082C86.5756 36.0691 86.6744 35.891 86.7168 35.6962C86.7592 35.5014 86.7434 35.2984 86.6714 35.1125C86.5993 34.9266 86.4741 34.766 86.3115 34.6506C86.1488 34.5353 85.9558 34.4704 85.7565 34.4639C85.482 34.461 85.2175 34.5668 85.0209 34.7584C84.8242 34.9499 84.7114 35.2115 84.707 35.486Z" fill="#263238"/>
<path d="M69.9815 32.7827C70.0437 33.2271 70.2347 33.6435 70.5309 33.9805C70.633 34.1059 70.7062 34.2522 70.7452 34.4091C70.9431 35.2279 71.1134 36.7774 71.5035 37.6456C71.7685 38.3453 72.2471 38.9438 72.8714 39.3561C73.4958 39.7684 74.2342 39.9736 74.9817 39.9424C75.3799 39.9574 75.7784 39.9242 76.1686 39.8435H76.2565C76.5953 39.7637 76.9209 39.6361 77.2236 39.4644L77.2786 39.4259L77.361 39.3764L77.4654 39.305L77.5588 39.2281L77.6632 39.1457C77.6998 39.1208 77.7331 39.0912 77.7621 39.0577C77.8285 38.9978 77.8909 38.9335 77.9489 38.8654C78.2732 38.5027 78.535 38.0886 78.7237 37.6401C79.2292 36.5082 79.0973 34.9257 79.9216 34.7388H80.0205H80.1304C81.2293 34.7388 81.1304 36.4807 81.7788 37.7115C82.4272 38.9423 83.4272 40.1457 85.8834 40.1787H86.1966C86.2808 40.1843 86.3652 40.1843 86.4494 40.1787C86.6472 40.1666 86.8438 40.1391 87.0373 40.0963L87.2187 40.0523C87.2781 40.0391 87.3368 40.0226 87.3945 40.0028L87.5099 39.9699C87.74 39.8888 87.961 39.7838 88.1693 39.6567C88.2458 39.6123 88.3193 39.5627 88.389 39.5083C88.5255 39.4085 88.6524 39.2963 88.7682 39.1731C89.0815 38.8393 89.3327 38.4523 89.51 38.0302C89.8891 37.1785 89.988 35.629 90.1749 34.8212C90.2076 34.6553 90.271 34.4969 90.3617 34.3542C90.6551 34.0325 90.8463 33.6309 90.9112 33.2003C90.9243 32.9797 90.8648 32.7608 90.7417 32.5772C90.6187 32.3936 90.4389 32.2554 90.2298 32.1837L89.6309 32.1068C87.7077 31.8705 85.2021 31.7716 83.702 32.1782C81.8228 32.6893 81.1689 33.2772 80.1194 33.2772C79.0699 33.2772 78.5039 32.6288 76.7181 32.0464C75.3004 31.5848 72.9542 31.6013 71.1628 31.7661L70.6134 31.8211C70.4179 31.891 70.2506 32.0227 70.1366 32.1962C70.0226 32.3697 69.9681 32.5755 69.9815 32.7827ZM82.3558 33.9641C82.5041 33.78 82.6919 33.6317 82.9052 33.53C82.9345 33.5086 82.9658 33.4902 82.9987 33.475H83.0536C83.136 33.4311 83.2239 33.3871 83.3174 33.3486L83.5646 33.2497C83.8269 33.15 84.0948 33.0656 84.3669 32.997L84.6855 32.92C84.9603 32.8651 85.235 32.8211 85.5098 32.7937C85.5756 32.7885 85.6417 32.7885 85.7076 32.7937C87.5154 32.6453 88.6473 33.0739 89.0594 33.4421C89.4715 33.8102 89.2902 35.5026 89.1199 36.3543V36.4147C89.1199 36.4147 89.1199 36.4587 89.1199 36.4807C89.1199 36.5851 89.0759 36.7005 89.0429 36.8268C89.01 36.9532 89.0045 36.9642 88.9825 37.0357C88.944 37.151 88.9056 37.2664 88.8616 37.3873C88.8456 37.4286 88.8272 37.469 88.8067 37.5082C88.799 37.5326 88.7898 37.5564 88.7792 37.5796L88.7407 37.6621L88.6913 37.761L88.6308 37.8764C88.6308 37.9148 88.5814 37.9533 88.5539 37.9917C88.5315 38.034 88.5058 38.0744 88.477 38.1126C88.1935 38.5134 87.8114 38.8343 87.3677 39.0441C86.9239 39.254 86.4335 39.3457 85.9439 39.3105C85.4519 39.3374 84.9598 39.2602 84.4997 39.0841C84.0396 38.908 83.6217 38.6369 83.2734 38.2885C82.8396 37.8016 82.5387 37.2112 82.3997 36.5741C82.1305 35.6125 82.0041 34.4806 82.3558 33.9641ZM71.7068 33.0794C71.8376 32.9633 71.986 32.8687 72.1464 32.7992H72.1794L72.3772 32.7222L72.4981 32.6838H72.597H72.6629H72.6904H72.7893C72.9157 32.6838 73.0531 32.6343 73.2069 32.6123H73.4322H74.163C74.4268 32.6123 74.7125 32.6508 74.9982 32.6893C76.2895 32.8761 77.6412 33.475 77.9929 34.008C78.3446 34.541 78.2676 35.6565 78.0973 36.5851C78.0603 36.8018 78.0052 37.015 77.9324 37.2225C77.9308 37.2389 77.9308 37.2555 77.9324 37.2719C77.9324 37.2719 77.9324 37.3104 77.9324 37.3324V37.3763L77.8995 37.4533L77.8335 37.6071C77.8335 37.6511 77.7896 37.7005 77.7621 37.7445C77.7631 37.7591 77.7631 37.7738 77.7621 37.7884L77.7072 37.8819L77.6577 37.9588C77.3646 38.3907 76.9585 38.7339 76.4837 38.9509C76.0089 39.168 75.4837 39.2505 74.9653 39.1896C74.496 39.1795 74.0347 39.067 73.6135 38.8599C72.3277 38.2115 71.9981 36.7664 71.8497 36.1125C71.575 35.129 71.3222 33.4421 71.7068 33.0739V33.0794Z" fill="#263238"/>
<path d="M80.427 34.7659L80.2347 41.8322L76.2949 40.6893L79.9709 34.7054C80.1256 34.6907 80.2816 34.7113 80.427 34.7659Z" fill="#874C4C"/>
<path d="M135.517 35.6613C146.761 35.6613 155.876 27.6782 155.876 17.8306C155.876 7.98304 146.761 0 135.517 0C124.274 0 115.159 7.98304 115.159 17.8306C115.159 27.6782 124.274 35.6613 135.517 35.6613Z" fill="#0EA5E9"/>
<path d="M119.27 28.1442C119.154 30.5344 117.132 34.8094 113.478 36.3864C113.429 36.4071 113.388 36.4427 113.361 36.4881C113.333 36.5335 113.321 36.5864 113.325 36.6393C113.329 36.6921 113.35 36.7423 113.384 36.7827C113.419 36.8232 113.465 36.8517 113.517 36.8644C115.605 37.3273 117.784 37.1704 119.785 36.413C121.786 35.6556 123.522 34.3305 124.781 32.6004L119.27 28.1442Z" fill="#0EA5E9"/>
<path d="M121.714 16.4185C121.76 15.6371 121.946 14.8702 122.264 14.1547C122.563 13.4545 123.009 12.8268 123.572 12.3139C124.166 11.77 124.86 11.3464 125.616 11.0666C127.428 10.4511 129.392 10.4511 131.204 11.0666C131.967 11.3451 132.668 11.7687 133.27 12.3139C133.83 12.8373 134.272 13.4743 134.567 14.1821C134.884 14.8977 135.07 15.6645 135.116 16.446C135.144 17.0614 135.155 17.7043 135.155 18.3747C135.155 19.045 135.155 19.6769 135.116 20.2594C135.07 21.0408 134.884 21.8077 134.567 22.5232C134.264 23.2247 133.819 23.8554 133.259 24.375C132.661 24.9254 131.958 25.3496 131.193 25.6223C129.379 26.2229 127.419 26.2229 125.605 25.6223C124.842 25.3501 124.143 24.9257 123.55 24.375C122.988 23.857 122.542 23.2259 122.242 22.5232C121.924 21.8077 121.738 21.0408 121.692 20.2594C121.665 19.6769 121.648 19.045 121.648 18.3747C121.648 17.7043 121.687 17.0339 121.714 16.4185ZM131.11 20.1275C131.11 19.8693 131.138 19.578 131.154 19.2703C131.171 18.9626 131.154 18.6329 131.154 18.3032C131.154 17.9735 131.154 17.6548 131.154 17.3471C131.154 17.0394 131.121 16.7977 131.11 16.5229C131.087 16.1854 131.011 15.8535 130.885 15.5393C130.767 15.2457 130.591 14.9786 130.369 14.7536C130.134 14.5234 129.853 14.3455 129.544 14.2316C128.795 13.9754 127.981 13.9754 127.231 14.2316C126.922 14.3467 126.639 14.5244 126.401 14.7536C126.18 14.9788 126.007 15.246 125.89 15.5393C125.765 15.8535 125.689 16.1854 125.665 16.5229C125.631 16.7964 125.613 17.0716 125.61 17.3471C125.61 17.6548 125.61 17.9735 125.61 18.3032C125.61 18.6329 125.61 18.9516 125.61 19.2703C125.613 19.5568 125.631 19.843 125.665 20.1275C125.698 20.788 125.958 21.4168 126.401 21.9078C126.665 22.1569 126.977 22.3481 127.319 22.4693C127.66 22.5904 128.024 22.6387 128.385 22.6112C128.745 22.6399 129.107 22.5921 129.447 22.4709C129.787 22.3496 130.097 22.1577 130.358 21.9078C130.797 21.4128 131.061 20.7874 131.11 20.1275Z" fill="#FAFAFA"/>
<path d="M150.343 25.1218C150.388 25.1918 150.41 25.2748 150.403 25.3581C150.404 25.4195 150.392 25.4804 150.369 25.5371C150.345 25.5938 150.31 25.6451 150.266 25.6878C150.224 25.7327 150.172 25.7685 150.116 25.7931C150.059 25.8176 149.998 25.8304 149.936 25.8307H146.497C146.322 25.837 146.15 25.7911 146.002 25.6988C145.859 25.5945 145.73 25.4727 145.617 25.3361L141.551 20.226V25.2427C141.549 25.3909 141.491 25.5328 141.389 25.6406C141.288 25.7484 141.149 25.8142 141.002 25.8252H138.188C138.112 25.8257 138.037 25.8103 137.967 25.78C137.897 25.7498 137.834 25.7053 137.782 25.6493C137.727 25.597 137.683 25.5338 137.654 25.4639C137.625 25.3939 137.61 25.3186 137.611 25.2427V11.4013C137.61 11.3254 137.625 11.2502 137.654 11.1802C137.683 11.1102 137.727 11.047 137.782 10.9947C137.834 10.9388 137.897 10.8943 137.967 10.864C138.037 10.8337 138.112 10.8183 138.188 10.8189H141.002C141.149 10.8298 141.288 10.8957 141.389 11.0034C141.491 11.1112 141.549 11.2532 141.551 11.4013V15.9235L145.326 11.2914C145.413 11.1879 145.504 11.0889 145.601 10.9947C145.764 10.8619 145.974 10.7987 146.183 10.8189H149.524C149.587 10.8184 149.649 10.8308 149.707 10.8554C149.764 10.8799 149.816 10.9162 149.859 10.9617C149.903 11.0044 149.938 11.0557 149.962 11.1124C149.986 11.1691 149.997 11.23 149.997 11.2914C150.002 11.3754 149.979 11.4588 149.931 11.5277L144.656 18.028L150.343 25.1218Z" fill="#FAFAFA"/>
<path d="M188.048 34.6889L184.966 35.6175L182.74 28.183L185.812 27.2599L188.048 34.6889Z" fill="#E0E0E0"/>
<path d="M197.669 28.09C197.695 28.3916 197.624 28.6935 197.467 28.9522C197.31 29.211 197.075 29.4132 196.796 29.5296C196.996 29.7569 197.144 30.025 197.23 30.3154C197.406 30.8649 196.939 31.6616 196.01 31.9638L188.96 34.0848L186.889 27.1779C186.889 27.1779 188.081 24.1283 188.141 23.6667C188.202 23.2051 187.499 21.5127 187.4 21.194C187.301 20.8753 188.444 20.4577 189.345 20.8204C189.554 20.9136 189.742 21.0503 189.894 21.2215C190.218 21.5667 190.491 21.9573 190.702 22.3809C191.001 22.9847 191.148 23.6525 191.131 24.3261L195.4 23.0238C195.695 22.9172 196.018 22.9172 196.312 23.0238C196.505 23.1 196.675 23.2248 196.806 23.3861C196.936 23.5473 197.023 23.7395 197.057 23.9441C197.091 24.1487 197.072 24.3586 197.001 24.5536C196.93 24.7486 196.81 24.9219 196.653 25.0569C196.907 25.0385 197.16 25.1059 197.371 25.2484C197.582 25.3908 197.74 25.6001 197.818 25.8426C197.883 26.1246 197.849 26.4204 197.72 26.6798C197.592 26.9393 197.378 27.1463 197.114 27.2658C197.399 27.4581 197.598 27.7536 197.669 28.09Z" fill="#E0E0E0"/>
<path d="M232.215 111.776L228.265 110.825L230.567 101.297L234.518 102.248L232.215 111.776Z" fill="#E0E0E0"/>
<path d="M246.925 110.704C246.761 111.049 246.491 111.333 246.156 111.516C245.82 111.698 245.435 111.77 245.056 111.72C245.128 112.095 245.118 112.481 245.029 112.852C244.853 113.594 243.848 114.138 242.661 113.847L233.616 111.649L235.748 102.797C235.748 102.797 238.996 100.231 239.353 99.7636C239.71 99.2965 240.018 97.0162 240.117 96.5931C240.215 96.17 241.727 96.4557 242.479 97.4283C242.662 97.6645 242.79 97.9386 242.853 98.2305C242.986 98.8121 243.035 99.4099 242.996 100.005C242.936 100.856 242.672 101.68 242.227 102.407L247.688 103.725C248.076 103.807 248.422 104.023 248.666 104.335C248.802 104.513 248.898 104.718 248.948 104.936C248.998 105.154 249.002 105.38 248.958 105.599C248.884 105.888 248.732 106.151 248.517 106.357C248.303 106.564 248.035 106.707 247.743 106.769C248.032 106.911 248.265 107.146 248.405 107.436C248.544 107.726 248.582 108.054 248.513 108.368C248.401 108.716 248.174 109.014 247.869 109.214C247.564 109.414 247.2 109.504 246.837 109.467C247.026 109.852 247.057 110.296 246.925 110.704Z" fill="#E0E0E0"/>
<path d="M32.6553 106.078L36.9687 107.374L40.0897 96.9672L35.7818 95.6704L32.6553 106.078Z" fill="#E0E0E0"/>
<path d="M19.177 96.8303C19.141 97.2529 19.2403 97.676 19.4606 98.0385C19.6808 98.401 20.0106 98.6841 20.4023 98.8469C20.1254 99.1663 19.9194 99.5409 19.7979 99.9458C19.5506 100.754 20.21 101.836 21.5013 102.221L31.3919 105.193L34.2822 95.506C34.2822 95.506 32.6063 91.2311 32.5239 90.5607C32.4414 89.8903 33.4305 87.5496 33.5624 87.099C33.6723 86.7363 32.1008 86.0714 30.815 86.5825C30.5093 86.7023 30.2349 86.8902 30.0127 87.1319C29.5562 87.6226 29.1747 88.1781 28.8808 88.7804C28.4598 89.6337 28.2523 90.5765 28.2764 91.5278L22.342 89.7365C21.9235 89.5988 21.4697 89.6144 21.0617 89.7804C20.7913 89.8869 20.553 90.0616 20.3702 90.2875C20.1874 90.5135 20.0663 90.783 20.0187 91.0697C19.9711 91.3564 19.9987 91.6505 20.0986 91.9234C20.1986 92.1963 20.3676 92.4386 20.5891 92.6267C20.2305 92.596 19.872 92.688 19.5725 92.8876C19.273 93.0873 19.0502 93.3828 18.9407 93.7257C18.8494 94.1214 18.8973 94.5364 19.0765 94.9008C19.2557 95.2652 19.5552 95.5566 19.9243 95.7258C19.5478 95.9895 19.2817 96.3827 19.177 96.8303Z" fill="#E0E0E0"/>
</svg>
