<svg width="766" height="571" viewBox="0 0 766 571" fill="none" xmlns="http://www.w3.org/2000/svg">
<path d="M166.41 81.28C167.681 80.4836 168.998 79.7484 170.315 78.9826C201.559 61.63 241.089 63.667 273.726 78.2169C306.364 92.7667 332.829 118.558 354.531 146.953C376.234 175.349 393.801 206.684 413.481 236.473C421.139 248.082 429.486 259.814 441.356 267.104C468.924 283.952 503.889 271.607 535.899 267.625C556.927 265.006 579.028 266.446 598.035 275.834C665.04 308.901 628.329 396.705 585.782 433.754C554.569 460.908 514.212 475.703 473.473 482.871C386.817 498.11 293.514 479.394 222.863 426.923C152.212 374.452 106.648 287.689 109.436 199.731C110.875 154.106 127.937 105.157 166.41 81.28Z" fill="#0EA5E9"/>
<path opacity="0.9" d="M166.41 81.28C167.681 80.4836 168.998 79.7484 170.315 78.9826C201.559 61.63 241.089 63.667 273.726 78.2169C306.364 92.7667 332.829 118.558 354.531 146.953C376.234 175.349 393.801 206.684 413.481 236.473C421.139 248.082 429.486 259.814 441.356 267.104C468.924 283.952 503.889 271.607 535.899 267.625C556.927 265.006 579.028 266.446 598.035 275.834C665.04 308.901 628.329 396.705 585.782 433.754C554.569 460.908 514.212 475.703 473.473 482.871C386.817 498.11 293.514 479.394 222.863 426.923C152.212 374.452 106.648 287.689 109.436 199.731C110.875 154.106 127.937 105.157 166.41 81.28Z" fill="white"/>
<path d="M383.109 570.599C547.113 570.599 680.064 562.837 680.064 553.262C680.064 543.687 547.113 535.924 383.109 535.924C219.105 535.924 86.1543 543.687 86.1543 553.262C86.1543 562.837 219.105 570.599 383.109 570.599Z" fill="#F5F5F5"/>
<path d="M689.513 281.807C689.513 368.877 623.656 439.712 542.836 439.712C462.015 439.712 396.158 368.877 396.158 281.807C396.158 194.738 462.015 123.903 542.836 123.903C592.719 123.903 638.528 150.706 665.759 195.672L655.038 202.886L683.173 211.555L687.982 180.923L677.919 187.647C648.069 138.101 597.666 108.588 542.836 108.588C454.112 108.588 381.93 186.299 381.93 281.807C381.93 377.316 454.112 455.027 542.836 455.027C631.559 455.027 703.742 377.331 703.742 281.807H689.513Z" fill="#0EA5E9"/>
<path opacity="0.7" d="M689.513 281.807C689.513 368.877 623.656 439.712 542.836 439.712C462.015 439.712 396.158 368.877 396.158 281.807C396.158 194.738 462.015 123.903 542.836 123.903C592.719 123.903 638.528 150.706 665.759 195.672L655.038 202.886L683.173 211.555L687.982 180.923L677.919 187.647C648.069 138.101 597.666 108.588 542.836 108.588C454.112 108.588 381.93 186.299 381.93 281.807C381.93 377.316 454.112 455.027 542.836 455.027C631.559 455.027 703.742 377.331 703.742 281.807H689.513Z" fill="white"/>
<path d="M564.507 249.093V228.279L554.537 227.268C553.24 220.466 550.723 213.954 547.109 208.047L553.511 199.716L539.834 184.997L532.176 191.889C526.812 188.066 520.742 185.349 514.318 183.895L513.368 173.174H493.979L493.029 183.895C486.605 185.349 480.535 188.066 475.171 191.889L467.513 184.997L453.836 199.716L460.223 208.047C456.621 213.96 454.105 220.47 452.795 227.268L442.84 228.279V249.093L452.795 250.104C454.106 256.907 456.622 263.422 460.223 269.341L453.836 277.657L467.513 292.375L475.171 285.499C480.538 289.315 486.607 292.033 493.029 293.493L493.979 304.214H513.292L514.241 293.493C520.663 292.033 526.732 289.315 532.099 285.499L539.757 292.375L553.434 277.657L547.032 269.341C550.647 263.428 553.163 256.911 554.46 250.104L564.507 249.093ZM503.643 266.875C489.185 266.875 477.468 254.255 477.468 238.694C477.468 223.133 489.185 210.513 503.643 210.513C518.101 210.513 529.817 223.118 529.817 238.694C529.817 254.27 518.101 266.875 503.643 266.875Z" fill="#0EA5E9"/>
<path d="M642.878 307.844V291.548L635.083 290.767C634.06 285.436 632.089 280.331 629.263 275.696L634.271 269.172L623.55 257.639L617.439 263.03C613.233 260.038 608.475 257.909 603.441 256.766L602.705 248.373H587.558L586.823 256.766C581.789 257.909 577.031 260.038 572.825 263.03L566.698 257.639L555.977 269.172L560.986 275.696C558.159 280.331 556.188 285.436 555.166 290.767L547.37 291.548V307.844L555.166 308.64C556.191 313.971 558.162 319.075 560.986 323.711L556.177 330.235L566.898 341.783L573.024 336.377C577.227 339.375 581.986 341.505 587.022 342.641L587.757 351.049H602.905L603.64 342.641C608.676 341.505 613.435 339.375 617.638 336.377L623.688 341.783L634.409 330.235L629.401 323.726C632.225 319.09 634.196 313.986 635.221 308.656L642.878 307.844ZM595.186 321.781C583.867 321.781 574.678 311.887 574.678 299.696C574.678 287.505 583.867 277.611 595.186 277.611C606.504 277.611 615.708 287.49 615.708 299.696C615.708 311.903 606.519 321.797 595.186 321.797V321.781Z" fill="#0EA5E9"/>
<path d="M564.507 354.189V340.482L557.952 339.808C557.082 335.333 555.422 331.049 553.051 327.157L557.262 321.689L548.272 311.994L543.187 316.589C539.657 314.066 535.658 312.275 531.425 311.321L530.812 304.275H518.085L517.457 311.321C513.23 312.278 509.236 314.069 505.71 316.589L500.625 311.994L491.62 321.628L495.831 327.096C493.465 330.989 491.81 335.273 490.946 339.746L484.391 340.42V354.128L490.946 354.786C491.782 359.311 493.438 363.645 495.831 367.575L491.62 373.058L500.625 382.737L505.71 378.143C509.236 380.662 513.23 382.454 517.457 383.411L518.085 390.472H530.812L531.425 383.411C535.658 382.457 539.657 380.665 543.187 378.143L548.272 382.737L557.262 373.058L553.112 367.575C555.488 363.685 557.148 359.4 558.013 354.924L564.507 354.189ZM524.441 365.875C514.93 365.875 507.211 357.574 507.211 347.328C507.211 337.081 514.869 328.78 524.441 328.78C534.013 328.78 541.671 337.081 541.671 347.328C541.671 357.574 533.967 365.875 524.441 365.875Z" fill="#0EA5E9"/>
<path opacity="0.7" d="M564.507 249.093V228.279L554.537 227.268C553.24 220.466 550.723 213.954 547.109 208.047L553.511 199.716L539.834 184.997L532.176 191.889C526.812 188.066 520.742 185.349 514.318 183.895L513.368 173.174H493.979L493.029 183.895C486.605 185.349 480.535 188.066 475.171 191.889L467.513 184.997L453.836 199.716L460.223 208.047C456.621 213.96 454.105 220.47 452.795 227.268L442.84 228.279V249.093L452.795 250.104C454.106 256.907 456.622 263.422 460.223 269.341L453.836 277.657L467.513 292.375L475.171 285.499C480.538 289.315 486.607 292.033 493.029 293.493L493.979 304.214H513.292L514.241 293.493C520.663 292.033 526.732 289.315 532.099 285.499L539.757 292.375L553.434 277.657L547.032 269.341C550.647 263.428 553.163 256.911 554.46 250.104L564.507 249.093ZM503.643 266.875C489.185 266.875 477.468 254.255 477.468 238.694C477.468 223.133 489.185 210.513 503.643 210.513C518.101 210.513 529.817 223.118 529.817 238.694C529.817 254.27 518.101 266.875 503.643 266.875Z" fill="white"/>
<path opacity="0.5" d="M642.878 307.844V291.548L635.083 290.767C634.06 285.436 632.089 280.331 629.263 275.696L634.271 269.172L623.55 257.639L617.439 263.03C613.233 260.038 608.475 257.909 603.441 256.766L602.705 248.373H587.558L586.823 256.766C581.789 257.909 577.031 260.038 572.825 263.03L566.698 257.639L555.977 269.172L560.986 275.696C558.159 280.331 556.188 285.436 555.166 290.767L547.37 291.548V307.844L555.166 308.64C556.191 313.971 558.162 319.075 560.986 323.711L556.177 330.235L566.898 341.783L573.024 336.377C577.227 339.375 581.986 341.505 587.022 342.641L587.757 351.049H602.905L603.64 342.641C608.676 341.505 613.435 339.375 617.638 336.377L623.688 341.783L634.409 330.235L629.401 323.726C632.225 319.09 634.196 313.986 635.221 308.656L642.878 307.844ZM595.186 321.781C583.867 321.781 574.678 311.887 574.678 299.696C574.678 287.505 583.867 277.611 595.186 277.611C606.504 277.611 615.708 287.49 615.708 299.696C615.708 311.903 606.519 321.797 595.186 321.797V321.781Z" fill="white"/>
<path opacity="0.3" d="M564.507 354.189V340.482L557.952 339.808C557.082 335.333 555.422 331.049 553.051 327.157L557.262 321.689L548.272 311.994L543.187 316.589C539.657 314.066 535.658 312.275 531.425 311.321L530.812 304.275H518.085L517.457 311.321C513.23 312.278 509.236 314.069 505.71 316.589L500.625 311.994L491.62 321.628L495.831 327.096C493.465 330.989 491.81 335.273 490.946 339.746L484.391 340.42V354.128L490.946 354.786C491.782 359.311 493.438 363.645 495.831 367.575L491.62 373.058L500.625 382.737L505.71 378.143C509.236 380.662 513.23 382.454 517.457 383.411L518.085 390.472H530.812L531.425 383.411C535.658 382.457 539.657 380.665 543.187 378.143L548.272 382.737L557.262 373.058L553.112 367.575C555.488 363.685 557.148 359.4 558.013 354.924L564.507 354.189ZM524.441 365.875C514.93 365.875 507.211 357.574 507.211 347.328C507.211 337.081 514.869 328.78 524.441 328.78C534.013 328.78 541.671 337.081 541.671 347.328C541.671 357.574 533.967 365.875 524.441 365.875Z" fill="white"/>
<path opacity="0.1" d="M539.037 49.4234V513.671C539.037 514.571 538.858 515.462 538.51 516.292C538.163 517.122 537.653 517.875 537.012 518.507C536.37 519.138 535.61 519.635 534.774 519.97C533.939 520.305 533.045 520.47 532.145 520.455H316.103C314.489 520.465 312.937 519.837 311.784 518.709C311.188 518.126 310.718 517.427 310.402 516.655C310.086 515.884 309.931 515.056 309.946 514.222V48.872C309.917 48.1519 310.031 47.4331 310.28 46.7568C310.529 46.0806 310.909 45.4602 311.399 44.931C311.888 44.4018 312.477 43.9743 313.132 43.6729C313.786 43.3716 314.494 43.2022 315.214 43.1746H376.569C377.426 43.1916 378.259 43.4627 378.963 43.9534C379.666 44.4441 380.208 45.1325 380.52 45.9314L383.109 52.1955C383.424 52.9899 383.967 53.6729 384.671 54.1582C385.374 54.6435 386.205 54.9092 387.06 54.9217H462.106C462.957 54.9169 463.786 54.6596 464.49 54.1824C465.193 53.7052 465.739 53.0296 466.058 52.2415L468.585 45.9467C468.898 45.1473 469.44 44.4579 470.143 43.9648C470.846 43.4717 471.678 43.1969 472.536 43.1746H533.018C533.824 43.1886 534.619 43.3614 535.358 43.6832C536.097 44.005 536.765 44.4694 537.324 45.0499C537.883 45.6304 538.322 46.3155 538.616 47.066C538.91 47.8165 539.053 48.6176 539.037 49.4234Z" fill="black"/>
<path d="M502.432 61.0479V502.138C502.434 502.993 502.266 503.84 501.937 504.629C501.608 505.419 501.125 506.134 500.516 506.735C499.907 507.335 499.184 507.808 498.39 508.126C497.597 508.444 496.747 508.6 495.892 508.586H290.663C289.152 508.594 287.698 508.005 286.62 506.947C286.057 506.388 285.612 505.722 285.312 504.988C285.012 504.254 284.863 503.467 284.874 502.674V60.5272C284.824 59.1611 285.313 57.8302 286.235 56.8215C287.158 55.8129 288.44 55.2076 289.805 55.1361H348.097C348.913 55.1521 349.706 55.4113 350.375 55.8805C351.043 56.3498 351.556 57.0078 351.849 57.7704L354.253 63.7129C354.553 64.4668 355.069 65.1151 355.737 65.5758C356.405 66.0365 357.194 66.2889 358.006 66.3012H429.346C430.155 66.2954 430.943 66.0491 431.611 65.5936C432.28 65.1382 432.797 64.4941 433.098 63.7435L435.503 57.7704C435.797 57.009 436.311 56.3521 436.979 55.8831C437.647 55.4141 438.439 55.1541 439.255 55.1361H496.704C498.241 55.18 499.7 55.8227 500.77 56.9271C501.84 58.0315 502.437 59.5102 502.432 61.0479Z" fill="#0EA5E9"/>
<path opacity="0.6" d="M311.845 72.887H314.878V68.8436H311.845V72.887Z" fill="white"/>
<path opacity="0.6" d="M306.913 72.887H309.945V67.4959H306.913V72.887Z" fill="white"/>
<path opacity="0.6" d="M301.967 72.8717H304.999V66.1328H301.967V72.8717Z" fill="white"/>
<path opacity="0.6" d="M297.019 72.8716H300.052V64.7849H297.019V72.8716Z" fill="white"/>
<path opacity="0.6" d="M474.634 67.358H472.842V71.4014H474.634V67.358Z" fill="white"/>
<path opacity="0.6" d="M475.875 72.8717H490.195V65.8725H475.875V72.8717Z" fill="white"/>
<path opacity="0.3" d="M324.604 315.058H462.628C466.934 315.058 470.424 311.571 470.424 307.27C470.424 302.968 466.934 299.482 462.628 299.482H324.604C320.298 299.482 316.808 302.968 316.808 307.27C316.808 311.571 320.298 315.058 324.604 315.058Z" fill="black"/>
<path d="M399.849 300.875C400.715 300.833 401.581 300.967 402.394 301.269C403.206 301.571 403.949 302.036 404.577 302.633C405.205 303.231 405.705 303.951 406.047 304.748C406.388 305.545 406.564 306.403 406.564 307.27C406.564 308.137 406.388 308.995 406.047 309.792C405.705 310.589 405.205 311.308 404.577 311.906C403.949 312.504 403.206 312.968 402.394 313.27C401.581 313.572 400.715 313.706 399.849 313.664H324.604C323.738 313.706 322.872 313.572 322.059 313.27C321.247 312.968 320.504 312.504 319.876 311.906C319.248 311.308 318.748 310.589 318.406 309.792C318.065 308.995 317.889 308.137 317.889 307.27C317.889 306.403 318.065 305.545 318.406 304.748C318.748 303.951 319.248 303.231 319.876 302.633C320.504 302.036 321.247 301.571 322.059 301.269C322.872 300.967 323.738 300.833 324.604 300.875H399.849Z" fill="#0EA5E9"/>
<path opacity="0.3" d="M399.849 300.875C400.715 300.833 401.581 300.967 402.394 301.269C403.206 301.571 403.949 302.036 404.577 302.633C405.205 303.231 405.705 303.951 406.047 304.748C406.388 305.545 406.564 306.403 406.564 307.27C406.564 308.137 406.388 308.995 406.047 309.792C405.705 310.589 405.205 311.308 404.577 311.906C403.949 312.504 403.206 312.968 402.394 313.27C401.581 313.572 400.715 313.706 399.849 313.664H324.604C323.738 313.706 322.872 313.572 322.059 313.27C321.247 312.968 320.504 312.504 319.876 311.906C319.248 311.308 318.748 310.589 318.406 309.792C318.065 308.995 317.889 308.137 317.889 307.27C317.889 306.403 318.065 305.545 318.406 304.748C318.748 303.951 319.248 303.231 319.876 302.633C320.504 302.036 321.247 301.571 322.059 301.269C322.872 300.967 323.738 300.833 324.604 300.875H399.849Z" fill="white"/>
<path d="M364.838 288.381C364.208 288.385 363.584 288.264 363.002 288.025C362.42 287.787 361.89 287.435 361.444 286.991C360.999 286.547 360.645 286.018 360.405 285.437C360.165 284.855 360.042 284.232 360.044 283.602V268.041H363.015V283.617C363.011 283.845 363.054 284.072 363.141 284.282C363.228 284.493 363.357 284.684 363.521 284.843C363.683 285.006 363.876 285.135 364.09 285.221C364.303 285.308 364.531 285.351 364.761 285.348C365.22 285.348 365.66 285.166 365.985 284.841C366.31 284.517 366.492 284.076 366.492 283.617V268.041H369.662V283.617C369.672 284.252 369.551 284.881 369.306 285.467C369.061 286.052 368.697 286.58 368.238 287.018C367.795 287.466 367.264 287.818 366.679 288.053C366.095 288.287 365.468 288.399 364.838 288.381Z" fill="white"/>
<path d="M377.135 268.041C377.79 268.008 378.444 268.115 379.054 268.355C379.665 268.596 380.216 268.964 380.672 269.435C381.503 270.369 381.942 271.586 381.898 272.835V275.761C381.912 276.393 381.795 277.021 381.556 277.606C381.316 278.191 380.958 278.72 380.504 279.161C380.07 279.616 379.547 279.978 378.967 280.223C378.388 280.468 377.764 280.591 377.135 280.585H375.45V288.212H372.387V268.041H377.135ZM378.957 272.881C378.97 272.65 378.935 272.418 378.853 272.201C378.77 271.985 378.644 271.788 378.48 271.623C378.317 271.458 378.121 271.33 377.905 271.246C377.689 271.162 377.458 271.124 377.226 271.135H375.45V277.583H377.288C377.517 277.581 377.744 277.534 377.955 277.444C378.166 277.355 378.357 277.224 378.518 277.061C378.679 276.897 378.805 276.704 378.891 276.491C378.977 276.279 379.02 276.051 379.018 275.822L378.957 272.881Z" fill="white"/>
<path d="M393.83 283.342C393.844 283.974 393.727 284.602 393.488 285.187C393.248 285.772 392.89 286.302 392.436 286.742C392.002 287.197 391.479 287.559 390.899 287.804C390.32 288.049 389.696 288.172 389.067 288.166H384.288V268.026H389.067C389.695 268.018 390.318 268.139 390.897 268.382C391.477 268.624 392.001 268.983 392.436 269.435C392.897 269.883 393.26 270.422 393.5 271.018C393.74 271.614 393.852 272.254 393.83 272.897V283.342ZM387.351 285.149H389.235C389.464 285.15 389.691 285.104 389.901 285.015C390.112 284.925 390.302 284.794 390.46 284.628C390.777 284.293 390.953 283.849 390.95 283.388V272.897C390.954 272.669 390.911 272.442 390.824 272.232C390.738 272.021 390.608 271.83 390.445 271.671C390.295 271.5 390.108 271.364 389.899 271.274C389.69 271.184 389.463 271.142 389.235 271.151H387.397L387.351 285.149Z" fill="white"/>
<path d="M399.849 283.617L399.114 288.212H395.943L399.374 268.087H403.54L406.925 288.212H403.724L403.019 283.617H399.849ZM401.38 272.728L400.262 280.662H402.514L401.38 272.728Z" fill="white"/>
<path d="M409.864 271.089H406.633V268.026H416.113V271.089H412.897V288.212H409.834L409.864 271.089Z" fill="white"/>
<path d="M418.55 288.212V268.026H427.188V271.089H421.582V276.588H425.687V279.651H421.582V285.149H427.188V288.212H418.55Z" fill="white"/>
<path opacity="0.2" d="M417.554 328.627H369.662C366.169 328.627 363.337 331.459 363.337 334.953V345.26C363.337 348.753 366.169 351.585 369.662 351.585H417.554C421.048 351.585 423.88 348.753 423.88 345.26V334.953C423.88 331.459 421.048 328.627 417.554 328.627Z" fill="black"/>
<path d="M378.928 344.494C378.615 344.498 378.305 344.44 378.015 344.321C377.726 344.203 377.463 344.027 377.243 343.805C377.021 343.588 376.846 343.328 376.728 343.041C376.609 342.754 376.55 342.446 376.554 342.136V336.714C376.558 336.084 376.809 335.481 377.253 335.034C377.697 334.587 378.298 334.333 378.928 334.325C379.241 334.325 379.551 334.387 379.84 334.507C380.129 334.627 380.391 334.803 380.612 335.025C380.833 335.247 381.007 335.511 381.125 335.801C381.244 336.091 381.304 336.401 381.302 336.714V337.847H379.77V336.683C379.766 336.453 379.673 336.233 379.51 336.07C379.347 335.907 379.127 335.814 378.897 335.81C378.785 335.811 378.674 335.834 378.572 335.879C378.469 335.924 378.377 335.989 378.3 336.071C378.216 336.149 378.15 336.244 378.105 336.35C378.061 336.455 378.038 336.569 378.04 336.683V342.12C378.04 342.232 378.064 342.343 378.108 342.446C378.153 342.548 378.218 342.641 378.3 342.718C378.377 342.797 378.47 342.86 378.573 342.902C378.676 342.944 378.786 342.965 378.897 342.963C379.01 342.965 379.122 342.945 379.227 342.903C379.331 342.862 379.427 342.801 379.508 342.722C379.589 342.644 379.654 342.551 379.699 342.447C379.744 342.344 379.768 342.233 379.77 342.12V340.742H381.302V342.136C381.307 342.446 381.249 342.755 381.131 343.042C381.012 343.329 380.836 343.589 380.613 343.805C380.392 344.027 380.13 344.203 379.84 344.321C379.551 344.44 379.241 344.498 378.928 344.494Z" fill="white"/>
<path d="M384.088 342.09L383.72 344.372H382.188L383.873 334.447H385.941L387.61 344.372H386.079L385.726 342.09H384.088ZM384.869 336.714L384.317 340.635H385.42L384.869 336.714Z" fill="white"/>
<path d="M390.522 334.432L392.497 341.11V334.432H394.029V344.372H392.421L390.368 338V344.372H388.837V334.432H390.522Z" fill="white"/>
<path d="M397.69 344.494C397.378 344.498 397.067 344.44 396.778 344.321C396.489 344.203 396.226 344.027 396.006 343.805C395.784 343.588 395.609 343.328 395.49 343.041C395.372 342.754 395.313 342.446 395.317 342.136V336.714C395.321 336.084 395.571 335.481 396.015 335.034C396.459 334.587 397.061 334.333 397.69 334.325C398.004 334.325 398.313 334.387 398.603 334.507C398.892 334.627 399.154 334.803 399.375 335.025C399.595 335.247 399.77 335.511 399.888 335.801C400.007 336.091 400.066 336.401 400.064 336.714V337.847H398.533V336.683C398.529 336.453 398.436 336.233 398.273 336.07C398.11 335.907 397.89 335.814 397.66 335.81C397.548 335.811 397.437 335.834 397.335 335.879C397.232 335.924 397.139 335.989 397.063 336.071C396.979 336.149 396.913 336.244 396.868 336.35C396.823 336.455 396.801 336.569 396.802 336.683V342.12C396.803 342.232 396.826 342.343 396.871 342.446C396.916 342.548 396.981 342.641 397.063 342.718C397.14 342.797 397.233 342.86 397.336 342.902C397.439 342.944 397.549 342.965 397.66 342.963C397.773 342.965 397.884 342.945 397.989 342.903C398.094 342.862 398.19 342.801 398.271 342.722C398.352 342.644 398.417 342.551 398.462 342.447C398.507 342.344 398.531 342.233 398.533 342.12V340.742H400.064V342.136C400.07 342.446 400.012 342.755 399.893 343.042C399.775 343.329 399.598 343.589 399.375 343.805C399.155 344.027 398.892 344.203 398.603 344.321C398.314 344.44 398.003 344.498 397.69 344.494Z" fill="white"/>
<path d="M401.289 344.372V334.432H405.562V335.963H402.79V338.674H404.812V340.206H402.79V342.917H405.562V344.448L401.289 344.372Z" fill="white"/>
<path d="M410.677 344.372H406.588V334.447H408.119V342.886H410.677V344.372Z" fill="white"/>
<g opacity="0.3">
<path d="M448.366 437.843H338.859C338.604 437.843 338.351 437.793 338.115 437.695C337.879 437.597 337.664 437.454 337.484 437.273C337.303 437.093 337.16 436.878 337.062 436.642C336.964 436.406 336.914 436.153 336.914 435.898C336.918 435.385 337.125 434.894 337.489 434.533C337.853 434.171 338.346 433.968 338.859 433.968H448.366C448.879 433.968 449.372 434.171 449.736 434.533C450.1 434.894 450.307 435.385 450.311 435.898C450.311 436.414 450.106 436.909 449.741 437.273C449.376 437.638 448.882 437.843 448.366 437.843Z" fill="white"/>
<path d="M462.32 449.483H324.908C324.392 449.483 323.897 449.278 323.533 448.913C323.168 448.548 322.963 448.054 322.963 447.538C322.983 447.037 323.197 446.563 323.56 446.217C323.923 445.871 324.407 445.68 324.908 445.685H462.32C462.574 445.683 462.826 445.731 463.061 445.827C463.296 445.924 463.509 446.066 463.689 446.245C463.868 446.425 464.011 446.638 464.107 446.873C464.203 447.109 464.252 447.36 464.25 447.614C464.234 448.116 464.023 448.591 463.663 448.94C463.303 449.288 462.821 449.483 462.32 449.483Z" fill="white"/>
<path d="M434.415 461.107H352.813C352.559 461.109 352.306 461.061 352.07 460.965C351.834 460.869 351.62 460.727 351.439 460.548C351.258 460.368 351.114 460.155 351.017 459.92C350.919 459.685 350.868 459.432 350.868 459.178C350.868 458.662 351.073 458.167 351.438 457.802C351.803 457.437 352.297 457.233 352.813 457.233H434.415C434.931 457.233 435.426 457.437 435.79 457.802C436.155 458.167 436.36 458.662 436.36 459.178C436.36 459.432 436.31 459.685 436.212 459.92C436.114 460.155 435.97 460.368 435.789 460.548C435.609 460.727 435.394 460.869 435.158 460.965C434.922 461.061 434.67 461.109 434.415 461.107Z" fill="white"/>
<path d="M462.32 484.372H324.908C324.653 484.374 324.401 484.325 324.165 484.229C323.929 484.133 323.714 483.992 323.534 483.812C323.353 483.633 323.209 483.419 323.111 483.184C323.013 482.949 322.963 482.697 322.963 482.442C322.963 481.926 323.168 481.432 323.533 481.067C323.897 480.702 324.392 480.497 324.908 480.497H462.32C462.577 480.493 462.833 480.54 463.071 480.636C463.31 480.733 463.527 480.875 463.71 481.057C463.892 481.238 464.037 481.454 464.135 481.692C464.233 481.93 464.282 482.185 464.28 482.442C464.282 482.699 464.233 482.953 464.135 483.19C464.037 483.427 463.892 483.642 463.709 483.822C463.526 484.002 463.309 484.144 463.07 484.238C462.831 484.333 462.576 484.378 462.32 484.372Z" fill="white"/>
</g>
<g opacity="0.1">
<path d="M382.711 66.2706L320.054 300.952L319.35 303.586L318.232 307.813L317.512 310.448L284.798 432.973V284.733L346.091 55.1361H348.097C348.914 55.1521 349.707 55.4113 350.376 55.8805C351.044 56.3498 351.557 57.0078 351.85 57.7704L354.254 63.7129C354.554 64.4668 355.07 65.1151 355.738 65.5758C356.406 66.0365 357.195 66.2889 358.007 66.3012L382.711 66.2706Z" fill="white"/>
<path d="M502.434 186.131V334.432L463.348 480.803L462.414 484.357L455.966 508.509H416.375L422.823 484.372L423.849 480.497L429.026 461.107L430.052 457.233L432.135 449.468L433.161 445.593L435.229 437.843L436.27 433.968L468.846 311.964V311.949L470.347 306.312V306.297L502.434 186.131Z" fill="white"/>
<path d="M404.167 66.2705L341.894 299.482L341.526 300.875L338.111 313.664L337.743 315.058L286.62 506.947C286.057 506.388 285.612 505.722 285.312 504.988C285.012 504.254 284.863 503.467 284.874 502.674V480.037L328.921 315.058L329.289 313.664L332.704 300.875L333.072 299.482L395.253 66.2705H404.167Z" fill="white"/>
</g>
<path d="M617.438 462.241C614.988 458.213 610.945 461.72 610.945 461.72C611.527 453.986 604.405 448.687 604.405 448.687C604.405 448.687 612.675 448.687 613.839 440.799C615.003 432.911 610.945 436.572 607.162 436.526C603.379 436.48 599.412 447.538 604.405 453.756C609.398 459.974 608.065 470.603 596.533 480.819C593.768 483.398 591.698 486.632 590.514 490.223C591.387 480.834 591.877 467.617 589.104 458.78C584.418 443.786 593.362 439.758 595.951 432.253C598.539 424.748 589.104 418.469 589.104 418.469C589.104 418.469 597.972 414.441 593.699 409.815C589.426 405.19 580.421 405.833 580.421 411.868C580.421 417.902 586.547 420.199 586.547 420.199C586.547 420.199 593.469 427.413 593.469 431.165C593.469 434.918 586.547 442.989 586.547 442.989C586.547 442.989 589.717 436.082 583.376 435.775C577.036 435.469 575.014 443.847 577.602 447.599C580.191 451.351 584.525 448.181 584.525 448.181C584.796 452.555 585.458 456.897 586.501 461.153C587.159 463.313 586.853 471.767 586.302 480.574C585.115 477.372 583.189 474.497 580.681 472.181C569.133 461.95 567.8 451.336 572.793 445.118C577.786 438.9 573.835 427.827 570.037 427.873C566.238 427.919 562.21 424.258 563.374 432.146C564.538 440.033 572.793 440.033 572.793 440.033C572.793 440.033 565.672 445.332 566.254 453.067C566.254 453.067 562.21 449.56 559.76 453.588C555.395 460.801 565.534 465.273 567.234 461.72C567.234 461.72 588.752 476.959 583.56 498.876L584.77 500.653C584.602 502.414 584.51 503.486 584.51 503.486L586.195 502.766L588.109 505.584C588.034 508.767 588.198 511.952 588.599 515.11L593.745 507.453C588.553 485.536 610.056 470.312 610.056 470.312C611.68 473.927 621.834 469.455 617.438 462.241Z" fill="#0EA5E9"/>
<path opacity="0.2" d="M617.438 462.241C614.988 458.213 610.945 461.72 610.945 461.72C611.527 453.986 604.405 448.687 604.405 448.687C604.405 448.687 612.675 448.687 613.839 440.799C615.003 432.911 610.945 436.572 607.162 436.526C603.379 436.48 599.412 447.538 604.405 453.756C609.398 459.974 608.065 470.603 596.533 480.819C593.768 483.398 591.698 486.632 590.514 490.223C591.387 480.834 591.877 467.617 589.104 458.78C584.418 443.786 593.362 439.758 595.951 432.253C598.539 424.748 589.104 418.469 589.104 418.469C589.104 418.469 597.972 414.441 593.699 409.815C589.426 405.19 580.421 405.833 580.421 411.868C580.421 417.902 586.547 420.199 586.547 420.199C586.547 420.199 593.469 427.413 593.469 431.165C593.469 434.918 586.547 442.989 586.547 442.989C586.547 442.989 589.717 436.082 583.376 435.775C577.036 435.469 575.014 443.847 577.602 447.599C580.191 451.351 584.525 448.181 584.525 448.181C584.796 452.555 585.458 456.897 586.501 461.153C587.159 463.313 586.853 471.767 586.302 480.574C585.115 477.372 583.189 474.497 580.681 472.181C569.133 461.95 567.8 451.336 572.793 445.118C577.786 438.9 573.835 427.827 570.037 427.873C566.238 427.919 562.21 424.258 563.374 432.146C564.538 440.033 572.793 440.033 572.793 440.033C572.793 440.033 565.672 445.332 566.254 453.067C566.254 453.067 562.21 449.56 559.76 453.588C555.395 460.801 565.534 465.273 567.234 461.72C567.234 461.72 588.752 476.959 583.56 498.876L584.77 500.653C584.602 502.414 584.51 503.486 584.51 503.486L586.195 502.766L588.109 505.584C588.034 508.767 588.198 511.952 588.599 515.11L593.745 507.453C588.553 485.536 610.056 470.312 610.056 470.312C611.68 473.927 621.834 469.455 617.438 462.241Z" fill="#0EA5E9"/>
<g opacity="0.3">
<path d="M617.439 462.241C614.989 458.213 610.946 461.72 610.946 461.72C611.528 453.986 604.406 448.687 604.406 448.687C604.406 448.687 612.676 448.687 613.84 440.799C615.004 432.912 610.946 436.572 607.163 436.526C603.38 436.48 599.413 447.538 604.406 453.756C609.399 459.974 608.066 470.603 596.534 480.819C593.769 483.398 591.699 486.632 590.515 490.223C591.388 480.834 591.878 467.617 589.105 458.78C584.419 443.786 593.363 439.758 595.952 432.253C598.54 424.749 589.105 418.469 589.105 418.469C589.105 418.469 597.973 414.441 593.7 409.816C589.427 405.19 580.421 405.834 580.421 411.868C580.421 417.902 586.548 420.2 586.548 420.2C586.548 420.2 593.47 427.413 593.47 431.166C593.47 434.918 586.548 442.989 586.548 442.989C586.548 442.989 589.718 436.082 583.377 435.776C577.037 435.469 575.015 443.847 577.603 447.599C580.192 451.352 584.526 448.181 584.526 448.181C584.797 452.556 585.458 456.897 586.502 461.154C587.16 463.313 586.854 471.767 586.303 480.574C585.116 477.373 583.19 474.497 580.682 472.181C569.134 461.95 567.801 451.336 572.794 445.118C577.787 438.9 573.836 427.827 570.037 427.873C566.239 427.919 562.211 424.258 563.375 432.146C564.539 440.033 572.794 440.033 572.794 440.033C572.794 440.033 565.673 445.333 566.255 453.067C566.255 453.067 562.211 449.56 559.761 453.588C555.396 460.801 565.535 465.274 567.235 461.72C567.235 461.72 588.753 476.959 583.561 498.876L584.771 500.653C584.603 502.414 584.511 503.486 584.511 503.486L586.196 502.766L588.11 505.584C588.035 508.768 588.199 511.952 588.6 515.111L593.746 507.453C588.554 485.536 610.057 470.312 610.057 470.312C611.681 473.927 621.835 469.455 617.439 462.241Z" fill="black"/>
<path opacity="0.2" d="M617.439 462.241C614.989 458.213 610.946 461.72 610.946 461.72C611.528 453.986 604.406 448.687 604.406 448.687C604.406 448.687 612.676 448.687 613.84 440.799C615.004 432.912 610.946 436.572 607.163 436.526C603.38 436.48 599.413 447.538 604.406 453.756C609.399 459.974 608.066 470.603 596.534 480.819C593.769 483.398 591.699 486.632 590.515 490.223C591.388 480.834 591.878 467.617 589.105 458.78C584.419 443.786 593.363 439.758 595.952 432.253C598.54 424.749 589.105 418.469 589.105 418.469C589.105 418.469 597.973 414.441 593.7 409.816C589.427 405.19 580.421 405.834 580.421 411.868C580.421 417.902 586.548 420.2 586.548 420.2C586.548 420.2 593.47 427.413 593.47 431.166C593.47 434.918 586.548 442.989 586.548 442.989C586.548 442.989 589.718 436.082 583.377 435.776C577.037 435.469 575.015 443.847 577.603 447.599C580.192 451.352 584.526 448.181 584.526 448.181C584.797 452.556 585.458 456.897 586.502 461.154C587.16 463.313 586.854 471.767 586.303 480.574C585.116 477.373 583.19 474.497 580.682 472.181C569.134 461.95 567.801 451.336 572.794 445.118C577.787 438.9 573.836 427.827 570.037 427.873C566.239 427.919 562.211 424.258 563.375 432.146C564.539 440.033 572.794 440.033 572.794 440.033C572.794 440.033 565.673 445.333 566.255 453.067C566.255 453.067 562.211 449.56 559.761 453.588C555.396 460.801 565.535 465.274 567.235 461.72C567.235 461.72 588.753 476.959 583.561 498.876L584.771 500.653C584.603 502.414 584.511 503.486 584.511 503.486L586.196 502.766L588.11 505.584C588.035 508.768 588.199 511.952 588.6 515.111L593.746 507.453C588.554 485.536 610.057 470.312 610.057 470.312C611.681 473.927 621.835 469.455 617.439 462.241Z" fill="black"/>
</g>
<path d="M613.242 555.743H563.972L558.657 501.786H618.557L613.242 555.743Z" fill="#0EA5E9"/>
<path opacity="0.3" d="M613.242 555.743H563.972L558.657 501.786H618.557L613.242 555.743Z" fill="white"/>
<path d="M621.19 495.843H556.022V507.744H621.19V495.843Z" fill="#0EA5E9"/>
<path opacity="0.5" d="M621.19 495.843H556.022V507.744H621.19V495.843Z" fill="white"/>
<path d="M242.04 191.2C247.845 191.476 272.181 224.159 272.181 224.159L281.217 212.397C281.217 212.397 295.155 239.475 288.263 252.356C281.371 265.236 245.042 230.025 245.042 230.025L242.04 191.2Z" fill="#0EA5E9"/>
<path opacity="0.6" d="M242.04 191.215L244.429 217.252L245.042 229.995C245.042 229.995 251.015 235.784 258.566 241.803C269.654 250.655 284.158 259.998 288.263 252.34C295.155 239.46 281.217 212.382 281.217 212.382L272.181 224.129V224.037C270.742 222.076 247.661 191.445 242.04 191.215Z" fill="white"/>
<path opacity="0.2" d="M244.428 217.283L245.04 230.025C245.04 230.025 251.013 235.815 258.564 241.834C259.284 226.518 245.04 204.249 245.04 204.249L244.428 217.283Z" fill="black"/>
<path opacity="0.2" d="M272.18 224.159L270.879 226.641L274.677 241.389C274.677 241.389 264.216 231.878 270.879 222.551L272.18 224.159Z" fill="black"/>
<path d="M243.08 272.924L194.07 276.707C194.07 276.707 193.411 247.439 189.475 232.2C188.204 227.268 186.611 221.724 184.589 215.353C183.732 212.627 182.797 209.747 181.771 206.669C180.745 203.59 179.811 200.757 178.708 197.48C185.411 195.342 192.26 193.688 199.2 192.533C206.528 191.231 213.939 190.448 221.377 190.189C230.98 190.113 242.023 191.2 242.023 191.2C242.023 191.2 243.554 191.583 244.581 201.753C245.499 211.355 245.071 238.143 243.08 272.924Z" fill="#0EA5E9"/>
<path opacity="0.6" d="M243.08 272.924L194.07 276.707C194.07 276.707 194.07 276.11 194.07 275.023C193.855 268.605 192.89 245.249 189.475 232.139C188.571 228.616 187.499 224.772 186.213 220.53C185.707 218.83 185.171 217.068 184.589 215.23C183.732 212.504 182.797 209.625 181.771 206.547C180.745 203.468 179.811 200.635 178.708 197.357C185.411 195.219 192.26 193.566 199.2 192.41C206.528 191.109 213.939 190.326 221.377 190.067C230.98 189.99 242.023 191.078 242.023 191.078C242.023 191.078 243.554 191.461 244.581 201.63C245.499 211.356 245.071 238.143 243.08 272.924Z" fill="white"/>
<path d="M181.557 520.884L188.954 525.234C192.424 520.566 196.178 516.116 200.196 511.91C202.34 509.643 204.591 507.131 206.935 504.435C211.621 499.06 216.691 492.918 222.005 486.317L226.768 480.359C245.27 457.049 265.302 429.665 272.838 411.148C275.166 405.389 276.299 400.504 275.794 396.843C274.262 385.785 269.974 369.137 265.073 353.056C257.599 328.551 249.19 305.179 249.19 305.179L228.422 340.175C228.422 340.175 234.763 355.292 240.537 371.389C246.219 387.194 251.35 403.965 249.451 408.33C249.267 408.759 249.037 409.264 248.777 409.861C245.346 416.968 235.851 433.065 225.068 450.846L221.775 456.253C215.986 465.748 209.967 475.504 204.392 484.464C202.217 487.987 200.104 491.387 198.098 494.603C188.602 509.811 181.557 520.884 181.557 520.884Z" fill="#EEC1BB"/>
<path opacity="0.2" d="M227.197 480.344C217.426 492.596 208.038 503.777 201.054 511.894C200.058 506.901 199.047 500.989 198.251 494.541C206.322 481.584 216.201 465.595 225.176 450.785C224.985 460.678 225.662 470.569 227.197 480.344Z" fill="black"/>
<path d="M190.318 379.077C192.876 396.521 196.444 412.327 198.895 421.746C200.319 427.398 201.284 430.737 201.284 430.737C201.318 448.65 202.372 466.547 204.439 484.341C205.22 491.356 206.062 498.125 206.935 504.359C210.152 527.547 213.536 544.179 213.536 544.179L222.343 543.031L222.006 486.225L221.822 456.115L221.577 415.145L221.485 408.008L221.056 376.856L220.428 330.909L189.797 317.125C185.693 334.662 187.224 358.064 190.318 379.077Z" fill="#EEC1BB"/>
<path opacity="0.2" d="M265.18 353.684L238.531 365.798C233.4 352.014 228.453 340.175 228.453 340.175L249.114 305.179C249.114 305.179 257.522 328.474 264.996 353.056L265.18 353.684Z" fill="black"/>
<path opacity="0.2" d="M220.964 370.087L189.384 372.17C186.964 353.071 186.137 332.809 189.797 317.248L220.428 331.032L220.964 370.087Z" fill="black"/>
<path d="M182.231 516.045C183.135 515.386 190.762 526.766 190.762 526.766C190.762 526.766 189.062 538.681 192.508 546.354C195.954 554.027 189.261 553.384 183.701 546.109L169.917 528.113C166.012 522.983 172.888 522.845 182.231 516.045Z" fill="#263238"/>
<path d="M193.351 535.434C191.62 535.036 190.502 530.089 190.288 529.109C190.273 529.064 190.273 529.016 190.288 528.971C190.278 528.936 190.278 528.899 190.288 528.864V528.772C190.327 528.758 190.371 528.758 190.41 528.772C190.563 528.772 193.795 527.7 195.526 528.772C195.793 528.919 196.025 529.122 196.205 529.368C196.385 529.615 196.508 529.897 196.567 530.196C196.663 530.442 196.68 530.712 196.614 530.968C196.548 531.224 196.403 531.452 196.2 531.621C195.602 532.019 194.438 531.621 193.29 531.161C194.034 531.887 194.564 532.804 194.821 533.811C194.855 534.01 194.846 534.213 194.796 534.408C194.746 534.604 194.655 534.786 194.53 534.944C194.41 535.136 194.246 535.295 194.051 535.41C193.857 535.524 193.638 535.591 193.412 535.603L193.351 535.434ZM193.519 534.73C193.519 534.73 193.795 534.806 194.147 534.362C194.21 534.277 194.255 534.181 194.279 534.078C194.302 533.975 194.305 533.869 194.285 533.765C194.147 532.632 192.432 530.977 191.222 529.967C191.773 532.095 192.708 534.515 193.519 534.73ZM191.528 529.17C193.366 530.319 195.403 531.238 195.924 530.886C196.077 530.778 196.031 530.426 195.924 530.212C195.886 530.01 195.805 529.82 195.686 529.653C195.567 529.487 195.413 529.348 195.235 529.247C194.721 528.995 194.152 528.879 193.581 528.91C192.889 528.927 192.202 529.014 191.528 529.17Z" fill="#0EA5E9"/>
<path d="M210.426 538.635C210.426 537.517 224.21 538.39 224.21 538.39C224.21 538.39 232.649 546.967 240.843 548.897C249.037 550.826 244.457 555.743 235.299 555.743H212.586C206.076 555.743 210.15 550.198 210.426 538.635Z" fill="#263238"/>
<path d="M225.682 540.151C225.64 540.135 225.604 540.109 225.575 540.075C225.567 540.039 225.567 540.003 225.575 539.968C225.568 539.932 225.568 539.896 225.575 539.86C225.566 539.81 225.566 539.758 225.575 539.707C225.575 539.539 226.785 536.368 228.638 535.603C228.916 535.474 229.219 535.407 229.526 535.407C229.833 535.407 230.136 535.474 230.414 535.603C231.042 535.909 231.333 536.292 231.318 536.751C231.318 537.471 230.292 538.206 229.174 538.804C230.205 538.621 231.266 538.733 232.237 539.125C232.416 539.224 232.573 539.358 232.699 539.518C232.825 539.679 232.918 539.863 232.972 540.059C233.09 540.317 233.121 540.605 233.06 540.882C232.999 541.158 232.85 541.407 232.635 541.591C232.285 541.844 231.856 541.964 231.425 541.928C229.42 541.682 227.475 541.081 225.682 540.151ZM226.938 539.922C228.959 540.779 231.532 541.545 232.114 541.009C232.114 541.009 232.344 540.825 232.206 540.289C232.179 540.186 232.13 540.089 232.065 540.005C231.999 539.921 231.917 539.851 231.823 539.799C231.313 539.574 230.756 539.475 230.2 539.508C229.086 539.538 227.978 539.677 226.892 539.922H226.938ZM228.837 536.276C227.757 536.976 226.934 538.008 226.494 539.217C228.515 538.451 230.476 537.379 230.506 536.767C230.506 536.568 230.215 536.399 230.031 536.307C229.832 536.206 229.612 536.153 229.388 536.154C229.198 536.158 229.011 536.2 228.837 536.276Z" fill="#0EA5E9"/>
<path d="M217.319 201.125C205.143 199.593 201.482 194.355 201.482 194.355C206.46 189.669 205.556 182.746 204.285 178.427C203.89 177.058 203.378 175.726 202.754 174.445L217.411 177.186C217.073 179.212 216.884 181.259 216.844 183.313C216.789 184.855 216.928 186.399 217.258 187.907C218.253 192.288 220.749 192.349 220.749 192.349C223.353 197.143 217.319 201.125 217.319 201.125Z" fill="#EEC1BB"/>
<path opacity="0.2" d="M216.875 183.358C216.82 184.901 216.959 186.445 217.288 187.953C211.468 187.187 207.058 182.531 204.285 178.488C203.891 177.119 203.378 175.787 202.754 174.506L217.411 177.248C217.084 179.269 216.905 181.311 216.875 183.358Z" fill="black"/>
<path d="M204.255 128.039C183.517 129.708 171.311 183.634 200.64 178.488C209.263 176.957 245.055 149.526 231.363 139.096C223.531 132.961 214.143 129.132 204.255 128.039Z" fill="#263238"/>
<path d="M219.434 138.239C232.054 140.061 235.133 147.428 234.183 160.554C232.988 176.972 227.72 187.999 212.435 182.256C191.667 174.445 198.467 135.206 219.434 138.239Z" fill="#EEC1BB"/>
<path d="M226.125 158.67C226.86 160.699 227.837 162.633 229.035 164.428C228.594 164.898 228.031 165.235 227.409 165.402C226.787 165.57 226.13 165.562 225.513 165.378L226.125 158.67Z" fill="#D4827D"/>
<path d="M218.545 156.526C218.423 157.567 217.764 158.333 217.014 158.256C216.263 158.18 215.865 157.261 215.988 156.219C216.11 155.178 216.784 154.397 217.519 154.489C218.254 154.581 218.668 155.484 218.545 156.526Z" fill="#263238"/>
<path d="M217.227 154.504L219.585 153.891C219.585 153.891 218.237 155.653 217.227 154.504Z" fill="#263238"/>
<path d="M231.485 157.858C231.362 158.9 230.704 159.681 229.953 159.589C229.203 159.497 228.805 158.609 228.927 157.567C229.05 156.526 229.724 155.745 230.459 155.821C231.194 155.898 231.638 156.817 231.485 157.858Z" fill="#263238"/>
<path d="M230.185 155.836L232.558 155.224C232.558 155.224 231.195 157 230.185 155.836Z" fill="#263238"/>
<path d="M213.934 149.45C213.858 149.45 213.784 149.434 213.715 149.402C213.646 149.37 213.585 149.324 213.536 149.266C213.483 149.217 213.441 149.158 213.412 149.092C213.383 149.026 213.368 148.955 213.368 148.883C213.368 148.811 213.383 148.74 213.412 148.674C213.441 148.608 213.483 148.549 213.536 148.5C214.411 147.82 215.434 147.354 216.521 147.138C217.609 146.923 218.731 146.965 219.8 147.26C219.937 147.302 220.052 147.396 220.12 147.522C220.189 147.648 220.206 147.795 220.168 147.934C220.128 148.069 220.037 148.184 219.914 148.253C219.791 148.322 219.645 148.339 219.509 148.301C218.617 148.062 217.683 148.027 216.776 148.199C215.869 148.372 215.013 148.747 214.271 149.297C214.181 149.387 214.061 149.442 213.934 149.45Z" fill="#263238"/>
<path d="M233.814 150.889C233.679 150.89 233.548 150.841 233.447 150.752C232.884 150.161 232.195 149.706 231.431 149.422C230.666 149.138 229.847 149.033 229.036 149.113C228.896 149.136 228.753 149.104 228.636 149.024C228.519 148.944 228.437 148.822 228.408 148.684C228.392 148.615 228.39 148.543 228.403 148.473C228.415 148.402 228.441 148.336 228.48 148.276C228.518 148.216 228.568 148.164 228.627 148.124C228.686 148.083 228.752 148.055 228.821 148.041C229.798 147.933 230.786 148.048 231.712 148.377C232.637 148.706 233.477 149.24 234.166 149.94C234.217 149.99 234.258 150.049 234.286 150.115C234.313 150.181 234.327 150.251 234.327 150.323C234.327 150.394 234.313 150.465 234.286 150.53C234.258 150.596 234.217 150.656 234.166 150.706C234.078 150.811 233.951 150.877 233.814 150.889Z" fill="#263238"/>
<path d="M202.555 157.521C202.555 157.521 209.952 148.01 210.212 139.862C210.212 139.862 236.708 133.261 234.273 158.838C234.273 158.838 239.971 136.646 218.345 133.001C196.719 129.356 192.308 161.12 202.064 172.209C202.064 172.209 197.975 163.479 202.555 157.521Z" fill="#263238"/>
<path d="M204.24 160.492C204.328 159.013 203.826 157.558 202.844 156.447C201.863 155.336 200.481 154.66 199.002 154.565C195.035 154.427 192.002 162.223 201.452 165.531C202.815 166.006 203.795 164.75 204.24 160.492Z" fill="#EEC1BB"/>
<path d="M222.541 172.53C220.958 172.602 219.396 172.152 218.093 171.25C216.79 170.348 215.819 169.044 215.328 167.537C215.287 167.399 215.303 167.251 215.372 167.124C215.441 166.998 215.557 166.904 215.695 166.864C215.833 166.823 215.982 166.839 216.108 166.908C216.235 166.977 216.329 167.093 216.369 167.231C217.732 171.826 222.572 171.458 222.786 171.443C222.928 171.434 223.067 171.48 223.176 171.572C223.284 171.663 223.353 171.792 223.368 171.933C223.375 172.005 223.366 172.077 223.344 172.145C223.322 172.214 223.286 172.277 223.239 172.331C223.192 172.386 223.134 172.43 223.07 172.461C223.005 172.493 222.935 172.511 222.863 172.515L222.541 172.53Z" fill="#263238"/>
<path d="M204.256 128.038C204.256 128.038 222.757 125.619 234.336 136.83C245.914 148.041 211.883 146.218 211.883 146.218L220.506 142.282C220.506 142.282 209.708 145.345 205.037 143.814L204.256 128.038Z" fill="#263238"/>
<path d="M190.486 160.937C190.486 160.937 184.881 170.754 190.486 179.239C189.289 181.999 189.103 185.093 189.964 187.976C190.824 190.859 192.674 193.346 195.188 194.998C195.188 194.998 193.534 200.145 201.483 206.363C201.483 206.363 203.964 214.465 202.004 220.254L207.762 217.421C207.762 217.421 207.762 210.146 204.255 205.903C204.255 205.903 206.108 194.371 201.483 190.588C201.483 190.588 203.551 183.313 202.785 180.142C202.785 180.142 200.472 166.435 200.105 164.965C200.105 164.98 192.309 163.984 190.486 160.937Z" fill="#263238"/>
<path d="M222.833 148.898C222.737 148.899 222.644 148.863 222.573 148.797C222.502 148.732 222.458 148.642 222.451 148.546C222.448 148.498 222.456 148.45 222.473 148.404C222.489 148.359 222.515 148.317 222.547 148.282C222.58 148.246 222.619 148.217 222.663 148.197C222.707 148.177 222.754 148.165 222.803 148.163C226.54 147.934 236.388 146.632 237.077 143.415C237.919 139.495 232.482 136.432 232.375 136.401C232.331 136.378 232.292 136.347 232.261 136.309C232.229 136.272 232.206 136.228 232.191 136.181C232.177 136.133 232.172 136.084 232.178 136.035C232.183 135.986 232.198 135.939 232.222 135.895C232.27 135.81 232.35 135.746 232.444 135.718C232.538 135.689 232.64 135.698 232.727 135.742C232.972 135.88 238.762 139.112 237.812 143.569C236.863 148.025 223.415 148.868 222.849 148.898H222.833Z" fill="#263238"/>
<path d="M250.907 212.795C250.883 212.973 250.897 213.154 250.949 213.326C251.002 213.497 251.091 213.655 251.21 213.789C251.329 213.923 251.476 214.03 251.641 214.101C251.805 214.173 251.984 214.208 252.163 214.204H266.161C266.539 214.18 266.898 214.027 267.177 213.771C267.455 213.514 267.638 213.17 267.693 212.795L270.756 185.227C270.79 184.855 270.675 184.486 270.437 184.198C270.199 183.911 269.856 183.73 269.485 183.695H255.486C255.099 183.749 254.74 183.927 254.463 184.204C254.187 184.48 254.008 184.84 253.955 185.227L250.907 212.795Z" fill="#263238"/>
<path opacity="0.5" d="M255.577 184.982L252.407 212.887C252.365 213.05 252.363 213.221 252.4 213.385C252.437 213.55 252.513 213.703 252.62 213.833C252.728 213.963 252.864 214.065 253.019 214.132C253.173 214.2 253.341 214.229 253.509 214.22H265.379C266.175 214.22 267.63 213.775 267.722 212.994L270.893 184.997C270.984 184.216 269.621 183.588 268.825 183.588H256.955C256.592 183.604 256.248 183.756 255.992 184.014C255.737 184.273 255.588 184.619 255.577 184.982Z" fill="white"/>
<path opacity="0.6" d="M223.828 279.188C223.828 279.679 223.974 280.159 224.246 280.567C224.519 280.975 224.906 281.293 225.36 281.481C225.813 281.668 226.312 281.718 226.793 281.622C227.275 281.526 227.717 281.29 228.064 280.943C228.411 280.596 228.647 280.154 228.743 279.672C228.839 279.191 228.789 278.692 228.602 278.239C228.414 277.785 228.096 277.398 227.688 277.125C227.28 276.853 226.8 276.707 226.309 276.707C225.983 276.705 225.659 276.768 225.357 276.892C225.055 277.016 224.781 277.199 224.55 277.429C224.32 277.66 224.137 277.935 224.013 278.236C223.889 278.538 223.826 278.862 223.828 279.188Z" fill="white"/>
<path d="M280.221 215.092L272.931 202.717C272.931 202.717 272.931 196.208 272.303 194.677C271.675 193.145 264.523 189.684 263.114 190.205C261.705 190.725 261.199 203.483 262.486 205.199C263.772 206.914 268.229 208.844 268.229 208.844L267.923 211.264L272.18 224.159L280.221 215.092Z" fill="#EEC1BB"/>
<path d="M283.161 213.683L280.726 211.264L269.239 224.159L270.878 229.259L283.161 213.683Z" fill="#0EA5E9"/>
<path d="M268.903 349.365L231.272 362.735L230.016 359.289L228.485 355.047L227.841 361.173L227.351 365.875H181.649C181.649 365.875 181.512 364.558 181.374 362.199C180.535 347.176 181.15 332.107 183.212 317.202C184.916 304.3 188.166 291.651 192.891 279.525C193.274 278.576 193.672 277.642 194.07 276.707L243.08 272.924L243.494 275.283L246.557 292.881L252.408 307.676L266.85 344.203L268.903 349.365Z" fill="#263238"/>
<path opacity="0.2" d="M224.96 234.329C224.96 234.329 211.452 265.098 194.023 275.069C193.809 268.651 192.844 245.295 189.428 232.185C188.525 228.662 187.453 224.818 186.166 220.576L191.481 214.189C191.481 214.189 195.156 225.584 193.533 235.478L213.857 223.026L224.96 234.329Z" fill="black"/>
<path d="M211.883 227.207L228.424 214.204C229.386 211.387 230.563 208.647 231.946 206.01C232.957 204.785 247.492 199.425 248.702 199.287C249.912 199.149 248.702 211.202 246.894 213.239C245.087 215.276 233.355 219.366 233.355 219.366L215.987 235.723L211.883 227.207Z" fill="#EEC1BB"/>
<path d="M178.724 197.572C168.984 202.442 164.649 257.456 181.558 266.951C198.466 276.447 223.829 233.456 223.829 233.456L214.011 223.041C214.011 223.041 193.412 240.272 190.931 238.694C188.45 237.116 191.268 220.315 191.268 220.315C191.268 220.315 194.162 215.23 188.067 207.205C181.971 199.18 178.724 197.572 178.724 197.572Z" fill="#0EA5E9"/>
<path opacity="0.6" d="M178.724 197.572C168.984 202.442 164.649 257.456 181.558 266.951C198.466 276.447 223.829 233.456 223.829 233.456L214.011 223.041C214.011 223.041 193.412 240.272 190.931 238.694C188.45 237.116 191.268 220.315 191.268 220.315C191.268 220.315 194.162 215.23 188.067 207.205C181.971 199.18 178.724 197.572 178.724 197.572Z" fill="white"/>
<path d="M223.935 237.27L226.876 235.508L215.849 219.335L211.79 221.602L223.935 237.27Z" fill="#0EA5E9"/>
<path opacity="0.2" d="M204.821 281.164C204.821 281.164 199.262 311.795 183.211 317.202C184.916 304.3 188.166 291.651 192.89 279.525L204.821 281.164Z" fill="black"/>
<path opacity="0.2" d="M252.423 307.675C239.573 301.411 239.787 276.707 239.787 276.707L243.494 275.283L246.557 292.881L252.423 307.675Z" fill="black"/>
<path opacity="0.2" d="M227.826 361.173L227.336 365.875H181.65C181.65 365.875 181.512 364.558 181.374 362.199L227.826 361.173Z" fill="black"/>
<path opacity="0.2" d="M268.904 349.365L231.273 362.735L230.018 359.289L266.867 344.203L268.904 349.365Z" fill="black"/>
<path opacity="0.2" d="M228.423 355.047L229.403 342.534L239.741 322.241C239.741 322.241 243.003 333.942 237.857 344.372C232.711 354.802 228.423 355.047 228.423 355.047Z" fill="black"/>
<path opacity="0.5" d="M194.07 276.707L192.002 281.807L244.182 279.188L243.08 272.924L194.07 276.707Z" fill="black"/>
<path d="M221.608 274.808L222.221 280.551C222.256 280.852 222.406 281.128 222.641 281.319C222.875 281.511 223.175 281.604 223.477 281.578L231.135 280.98C231.288 280.967 231.437 280.923 231.573 280.852C231.709 280.781 231.83 280.683 231.928 280.565C232.026 280.447 232.1 280.31 232.145 280.163C232.191 280.016 232.206 279.862 232.192 279.709L231.655 274.058C231.628 273.754 231.483 273.474 231.251 273.276C231.019 273.078 230.719 272.98 230.415 273.001L222.757 273.522C222.595 273.525 222.436 273.562 222.289 273.63C222.142 273.697 222.011 273.795 221.903 273.915C221.795 274.036 221.714 274.177 221.663 274.331C221.612 274.485 221.594 274.647 221.608 274.808Z" fill="#0EA5E9"/>
<path d="M208.819 275.497L208.206 282.252H206.322L206.613 275.497H208.819Z" fill="#263238"/>
<path d="M236.311 273.445L237.061 280.506H238.807L238.194 273.154L236.311 273.445Z" fill="#263238"/>
</svg>
