<svg xmlns="http://www.w3.org/2000/svg" width="25" height="26" fill="none" viewBox="0 0 25 26">
  <path fill="#000" d="M6.962 18.127c2.675 2.685 5.628 4.811 8.316 5.988 1.472.644 2.791.966 3.907.966 1.126 0 2.044-.329 2.699-.985l2.52-2.529c.819-.821.75-2.227-.153-3.133l-3.715-3.727a2.446 2.446 0 0 0-1.503-.722 2.018 2.018 0 0 0-1.62.568l-1.127 1.138c-.353.158-2.174-.383-4.369-2.585-2.195-2.203-2.733-4.029-2.6-4.354l1.157-1.161a2.03 2.03 0 0 0 .567-1.625 2.466 2.466 0 0 0-.72-1.509L6.606.731A2.446 2.446 0 0 0 5.103.009a2.016 2.016 0 0 0-1.62.568L.964 3.105C-.336 4.41-.32 6.756 1.01 9.71c1.275 2.833 3.445 5.9 5.953 8.417ZM2.382 4.53 4.88 2.016a.084.084 0 0 1 .025-.003c.054 0 .17.028.283.14l3.714 3.728c.136.136.149.276.153.286L7.898 7.33c-1.572 1.577.246 4.838 2.6 7.2s5.604 4.188 7.176 2.609l1.136-1.146c.034-.01.172.002.307.138l3.715 3.727c.135.136.148.276.153.287l-2.521 2.528c-.65.651-2.329.497-4.384-.402-2.463-1.079-5.197-3.055-7.7-5.566-2.343-2.351-4.364-5.202-5.543-7.822-.92-2.044-1.093-3.711-.455-4.353Z"/>
</svg>
