<svg xmlns="http://www.w3.org/2000/svg" width="16" height="16" fill="none" viewBox="0 0 16 16">
  <path fill="#000" fill-rule="evenodd" d="M5.566 7.603a4.518 4.518 0 0 1 1.328 3.211v3.065l1.72-.937a.427.427 0 0 0 .22-.378v-1.759c0-1.191.452-2.314 1.275-3.16l3.72-3.958c.241-.256.374-.592.374-.947v-.72a.638.638 0 0 0-.627-.647H2.137a.638.638 0 0 0-.627.647v.72c0 .355.133.69.373.946l3.683 3.917Zm1.057 7.617a.882.882 0 0 1-.882-.888v-3.518c0-.873-.326-1.695-.92-2.325a.498.498 0 0 1-.05-.048L1.043 4.478A2.526 2.526 0 0 1 .356 2.74v-.72c0-.993.8-1.8 1.781-1.8h11.44c.98 0 1.78.807 1.78 1.8v.72c0 .649-.244 1.265-.686 1.737l-3.728 3.964a3.372 3.372 0 0 0-.956 2.364v1.76c0 .58-.314 1.113-.82 1.39l-2.124 1.157a.882.882 0 0 1-.42.107Z" clip-rule="evenodd"/>
</svg>
