<svg xmlns="http://www.w3.org/2000/svg" width="30" height="26" fill="none" viewBox="0 0 30 26">
  <path fill="#000" d="m2.346 12.346 2.12-1.702V23.29c0 .475.188.931.522 1.267a1.78 1.78 0 0 0 1.262.525h5.35a1.78 1.78 0 0 0 1.262-.525c.334-.336.522-.792.522-1.267v-7.166h3.568v7.166c0 .475.188.931.523 1.267a1.78 1.78 0 0 0 1.261.525h5.352a1.78 1.78 0 0 0 1.262-.525c.334-.336.522-.792.522-1.267V10.644l2.12 1.702a.892.892 0 0 0 1.444-.8.901.901 0 0 0-.33-.6L15.727.195a.89.89 0 0 0-1.114 0L9.817 4.048V1.792c0-.475-.188-.93-.522-1.266a1.78 1.78 0 0 0-2.523 0 1.795 1.795 0 0 0-.522 1.266v5.122l-5.017 4.031a.9.9 0 0 0 .126 1.485.887.887 0 0 0 .987-.084ZM15.17 2.043l8.92 7.166V23.29h-5.352v-8.957h-7.136v8.957H6.25V9.211l8.92-7.168Z"/>
</svg>
