<svg width="24" height="24" viewBox="0 0 24 24" fill="none" xmlns="http://www.w3.org/2000/svg">
<path d="M11.9398 17.8298C12.2247 17.8298 12.4635 17.7334 12.6562 17.5407C12.849 17.348 12.9453 17.1091 12.9453 16.8242C12.9453 16.5393 12.849 16.3005 12.6562 16.1078C12.4635 15.9151 12.2247 15.8187 11.9398 15.8187C11.6549 15.8187 11.416 15.9151 11.2233 16.1078C11.0306 16.3005 10.9342 16.5393 10.9342 16.8242C10.9342 17.1091 11.0306 17.348 11.2233 17.5407C11.416 17.7334 11.6549 17.8298 11.9398 17.8298ZM11.0061 13.2808H12.8735V5.81079H11.0061V13.2808ZM11.9419 23.7675C10.306 23.7675 8.7684 23.4571 7.32901 22.8362C5.8896 22.2154 4.63753 21.3728 3.57278 20.3086C2.50802 19.2443 1.66508 17.9928 1.04397 16.554C0.42286 15.1152 0.112305 13.578 0.112305 11.9421C0.112305 10.3063 0.422725 8.76864 1.04356 7.32925C1.6644 5.88985 2.50696 4.63777 3.57123 3.57303C4.63551 2.50826 5.88704 1.66532 7.3258 1.04421C8.76455 0.423105 10.3018 0.112549 11.9377 0.112549C13.5735 0.112549 15.1112 0.42297 16.5505 1.04381C17.9899 1.66465 19.242 2.5072 20.3068 3.57147C21.3715 4.63576 22.2145 5.88729 22.8356 7.32605C23.4567 8.76479 23.7672 10.3021 23.7672 11.9379C23.7672 13.5738 23.4568 15.1114 22.836 16.5508C22.2151 17.9902 21.3726 19.2423 20.3083 20.307C19.244 21.3718 17.9925 22.2147 16.5537 22.8358C15.115 23.4569 13.5777 23.7675 11.9419 23.7675ZM11.9398 21.9C14.7203 21.9 17.0754 20.9351 19.0052 19.0054C20.9349 17.0756 21.8998 14.7205 21.8998 11.94C21.8998 9.15952 20.9349 6.80439 19.0052 4.87464C17.0754 2.94489 14.7203 1.98002 11.9398 1.98002C9.15927 1.98002 6.80415 2.94489 4.8744 4.87464C2.94465 6.80439 1.97977 9.15952 1.97977 11.94C1.97977 14.7205 2.94465 17.0756 4.8744 19.0054C6.80415 20.9351 9.15927 21.9 11.9398 21.9Z" fill="#78350F"/>
</svg>
