<svg xmlns="http://www.w3.org/2000/svg" width="24" height="25" fill="none" viewBox="0 0 24 25">
  <path stroke="#667085" stroke-linecap="round" stroke-linejoin="round" d="M9.76 14.376a3.123 3.123 0 0 1-.924-2.229A3.16 3.16 0 0 1 12 8.981c.867 0 1.665.351 2.23.925m.875 2.802a3.158 3.158 0 0 1-2.537 2.542"/>
  <path stroke="#667085" stroke-linecap="round" stroke-linejoin="round" d="M6.655 17.482c-1.587-1.246-2.931-3.066-3.905-5.335.984-2.28 2.337-4.11 3.934-5.365C8.27 5.526 10.102 4.844 12 4.844c1.909 0 3.739.692 5.336 1.957M19.448 9a15.358 15.358 0 0 1 1.802 3.146c-1.967 4.557-5.443 7.302-9.25 7.302-.863 0-1.714-.14-2.532-.413M19.887 4.259 4.113 20.033"/>
</svg>
