<svg width="39" height="38" viewBox="0 0 39 38" fill="none" xmlns="http://www.w3.org/2000/svg">
<path d="M35.1512 17.0981L34.2008 15.0139L32.1166 14.0635L34.2008 13.113L35.1512 11.0288L36.1017 13.113L38.1859 14.0635L36.1017 15.0139L35.1512 17.0981ZM29.9489 9.96156L28.5016 6.84013L25.3801 5.39283L28.5016 3.94553L29.9489 0.824097L31.3962 3.94553L34.5176 5.39283L31.3962 6.84013L29.9489 9.96156ZM12.6076 37.6075C11.7317 37.6075 10.9763 37.3041 10.3416 36.6971C9.70685 36.0902 9.36169 35.3487 9.30608 34.4728H15.9091C15.8535 35.3487 15.5083 36.0902 14.8736 36.6971C14.2389 37.3041 13.4835 37.6075 12.6076 37.6075ZM6.10466 32.0716V29.4705H19.1105V32.0716H6.10466ZM6.37142 27.0694C4.55506 25.94 3.1172 24.4643 2.05782 22.6424C0.998439 20.8204 0.46875 18.8279 0.46875 16.6647C0.46875 13.2854 1.64706 10.4174 4.00368 8.06074C6.36033 5.70412 9.2283 4.52581 12.6076 4.52581C15.9869 4.52581 18.8549 5.70412 21.2115 8.06074C23.5681 10.4174 24.7464 13.2854 24.7464 16.6647C24.7464 18.8279 24.2168 20.8204 23.1574 22.6424C22.098 24.4643 20.6601 25.94 18.8438 27.0694H6.37142ZM7.1451 24.4682H18.0701C19.3707 23.5434 20.375 22.4017 21.0831 21.0433C21.7912 19.6849 22.1453 18.2254 22.1453 16.6647C22.1453 14.0057 21.2204 11.7513 19.3707 9.90156C17.521 8.05182 15.2666 7.12695 12.6076 7.12695C9.9486 7.12695 7.69424 8.05182 5.8445 9.90156C3.99477 11.7513 3.0699 14.0057 3.0699 16.6647C3.0699 18.2254 3.42395 19.6849 4.13205 21.0433C4.84015 22.4017 5.8445 23.5434 7.1451 24.4682Z" fill="#78350F"/>
</svg>
