<svg width="18" height="18" viewBox="0 0 18 18" fill="none" xmlns="http://www.w3.org/2000/svg">
<path fill-rule="evenodd" clip-rule="evenodd" d="M14.9069 16.2H3.09435C2.45895 16.2 1.98914 15.5727 2.22944 14.9958C3.34185 12.3282 5.95545 10.8 9.00016 10.8C12.0458 10.8 14.6594 12.3282 15.7718 14.9958C16.0121 15.5727 15.5423 16.2 14.9069 16.2ZM5.32545 5.39999C5.32545 3.41459 6.97425 1.79999 9.00016 1.79999C11.027 1.79999 12.6749 3.41459 12.6749 5.39999C12.6749 7.3854 11.027 9 9.00016 9C6.97425 9 5.32545 7.3854 5.32545 5.39999ZM17.9606 15.8724C17.2928 12.8493 15.203 10.6182 12.4535 9.60568C13.9106 8.45638 14.7602 6.59785 14.4479 4.56295C14.0861 2.20224 12.0809 0.31318 9.66166 0.0377792C6.32085 -0.342921 3.48765 2.20409 3.48765 5.39999C3.48765 7.101 4.29225 8.61658 5.54775 9.60568C2.79645 10.6182 0.708442 12.8493 0.0397412 15.8724C-0.203259 16.9713 0.701244 18 1.84875 18H16.1516C17.3 18 18.2036 16.9713 17.9606 15.8724Z" fill="#0C4A6E"/>
</svg>
